<?xml version="1.0" encoding="UTF-8" standalone="no"?>
<!-- Created with Inkscape (http://www.inkscape.org/) -->

<svg
   xmlns:dc="http://purl.org/dc/elements/1.1/"
   xmlns:cc="http://creativecommons.org/ns#"
   xmlns:rdf="http://www.w3.org/1999/02/22-rdf-syntax-ns#"
   xmlns:svg="http://www.w3.org/2000/svg"
   xmlns="http://www.w3.org/2000/svg"
   xmlns:sodipodi="http://sodipodi.sourceforge.net/DTD/sodipodi-0.dtd"
   xmlns:inkscape="http://www.inkscape.org/namespaces/inkscape"
   sodipodi:docname="i-am-an-idiot.svg"
   inkscape:version="0.91 r13725"
   version="1.1"
   id="svg4912"
   viewBox="0 0 4251.9686 2126.6186"
   height="600.17902mm"
   width="1200mm"
   inkscape:export-filename="/home/johan/Documents/i-am-an-idiot-2.svg.png"
   inkscape:export-xdpi="90"
   inkscape:export-ydpi="90">
  <sodipodi:namedview
     inkscape:window-maximized="1"
     inkscape:window-y="54"
     inkscape:window-x="119"
     inkscape:window-height="2106"
     inkscape:window-width="3721"
     showguides="true"
     showgrid="false"
     inkscape:current-layer="layer9"
     inkscape:document-units="px"
     inkscape:cy="-323.84436"
     inkscape:cx="506.64233"
     inkscape:zoom="0.32"
     inkscape:pageshadow="2"
     inkscape:pageopacity="0.0"
     borderopacity="1.0"
     bordercolor="#666666"
     pagecolor="#ffffff"
     id="base"
     fit-margin-top="0"
     fit-margin-left="0"
     fit-margin-right="0"
     fit-margin-bottom="0" />
  <defs
     id="defs4914">
    <inkscape:perspective
       sodipodi:type="inkscape:persp3d"
       inkscape:vp_x="-14.29611 : 1847.8887 : 1"
       inkscape:vp_y="0 : 999.99994 : 0"
       inkscape:vp_z="7688.282 : 1809.2331 : 1"
       inkscape:persp3d-origin="3756.4017 : -407.26396 : 1"
       id="perspective6281" />
    <inkscape:perspective
       sodipodi:type="inkscape:persp3d"
       inkscape:vp_x="937.10636 : 2088.9833 : 1"
       inkscape:vp_y="0 : 199.99997 : 0"
       inkscape:vp_z="2470.5509 : 2159.9178 : 1"
       inkscape:persp3d-origin="1679.3135 : 1642.8142 : 1"
       id="perspective5301" />
    <inkscape:perspective
       sodipodi:type="inkscape:persp3d"
       inkscape:vp_x="9.4372171 : 3648.1685 : 1"
       inkscape:vp_y="0 : 999.99992 : 0"
       inkscape:vp_z="7516.6601 : 4222.8411 : 1"
       inkscape:persp3d-origin="3720.473 : 1417.3227 : 1"
       id="perspective4920" />
    <inkscape:perspective
       sodipodi:type="inkscape:persp3d"
       inkscape:vp_x="-126.79613 : 3732.2636 : 1"
       inkscape:vp_y="0 : 999.99992 : 0"
       inkscape:vp_z="7575.7821 : 3693.608 : 1"
       inkscape:persp3d-origin="3643.9018 : 1477.111 : 1"
       id="perspective4920-1" />
    <inkscape:perspective
       sodipodi:type="inkscape:persp3d"
       inkscape:vp_x="-67.133985 : 3707.9568 : 1"
       inkscape:vp_y="0 : 999.99992 : 0"
       inkscape:vp_z="7440.0889 : 4282.6294 : 1"
       inkscape:persp3d-origin="3643.9018 : 1477.111 : 1"
       id="perspective4920-9" />
    <inkscape:perspective
       sodipodi:type="inkscape:persp3d"
       inkscape:vp_x="-147.13399 : 3779.9568 : 1"
       inkscape:vp_y="0 : 999.99992 : 0"
       inkscape:vp_z="7360.0889 : 4354.6294 : 1"
       inkscape:persp3d-origin="3563.9017 : 1549.111 : 1"
       id="perspective4920-1-6" />
    <clipPath
       clipPathUnits="userSpaceOnUse"
       id="clipPath6972">
      <g
         transform="translate(124.7181,-230.91075)"
         style="font-style:normal;font-weight:normal;font-size:129.5566864px;line-height:125%;font-family:sans-serif;letter-spacing:0px;word-spacing:0px;opacity:1;fill:#000000;fill-opacity:1;stroke:none;stroke-width:1px;stroke-linecap:butt;stroke-linejoin:miter;stroke-opacity:1"
         id="g6974">
        <path
           d="m 414.8695,2198.5203 16.32111,6.9586 q 6.95861,3.0365 12.65202,4.5548 5.25059,1.5815 9.04619,1.5815 6.51579,0 11.95616,-5.4404 4.17517,-4.1752 4.17517,-13.9172 0,-5.1874 -0.56934,-7.0852 l 2.78344,-0.8856 q 1.51824,8.3503 1.51824,9.236 0,14.4233 -6.95861,21.3819 -7.65447,7.6545 -15.30894,7.6545 -3.28953,0 -9.74206,-2.2142 -5.56689,-1.961 -14.61308,-6.5157 -16.51089,-8.6667 -21.69822,-8.6667 l 0,-0.5061 q -4.30168,0 -7.78099,4.1752 -3.35278,3.9854 -4.17516,12.3357 l -3.35279,-1.5182 q 0,-12.2092 4.61799,-17.7761 1.64476,-2.0876 4.74451,-4.3649 2.34062,-1.5183 5.3771,-5.1241 3.47931,-4.1752 4.17517,-28.4038 0.3163,-10.691 2.5304,-19.0413 2.08759,-8.0973 6.13623,-12.9683 6.26275,-7.528 19.48412,-7.528 7.21165,0 11.70311,3.9222 4.17517,3.4793 4.17517,10.3114 0,1.6447 -0.88564,2.6569 -2.59367,2.9099 -4.55473,2.9099 -2.78344,0 -4.61799,-1.708 -0.82238,-0.6958 -1.51824,-4.4282 -0.44282,-3.4793 -3.03648,-5.8199 -3.22627,-2.7835 -6.83209,-2.7835 -4.74451,0 -7.65448,3.7324 -2.2141,2.5304 -3.35278,9.236 -1.13868,6.6423 -1.39172,17.2067 -0.25304,11.9562 -1.51825,19.3576 -1.39172,7.6545 -3.7956,10.4379 -3.47931,4.3017 -7.65447,7.3382 l 0.18978,0.1898 0.9489,0 q 3.92212,0 8.47685,1.5182 z"
           id="path6976"
           inkscape:connector-curvature="0" />
        <path
           d="m 486.4578,2185.2452 8.30605,0 0,25.9461 27.54978,-25.9461 10.69095,0 -30.46922,28.6189 32.64854,32.7718 -10.93768,0 -29.48237,-29.5646 0,29.5646 -8.30605,0 0,-61.3907 z"
           style="font-size:64.99999762%;baseline-shift:sub"
           id="path6978"
           inkscape:connector-curvature="0" />
        <path
           d="m 541.72183,2185.2452 8.30605,0 0,54.4005 29.89356,0 0,6.9902 -38.19961,0 0,-61.3907 z"
           style="font-size:64.99999762%;baseline-shift:sub"
           id="path6980"
           inkscape:connector-curvature="0" />
        <path
           d="m 620.50281,2122.4184 q -8.47686,14.5498 -12.58876,28.7834 -4.11191,14.2335 -4.11191,28.8466 0,14.613 4.11191,28.9731 4.17516,14.2968 12.58876,28.7833 l -10.12162,0 q -9.48902,-14.8661 -14.23352,-29.2261 -4.68125,-14.3601 -4.68125,-28.5303 0,-14.107 4.68125,-28.4038 4.68124,-14.2968 14.23352,-29.2262 l 10.12162,0 z"
           id="path6982"
           inkscape:connector-curvature="0" />
        <path
           d="m 681.99162,2134.9439 q -13.91722,0 -22.14103,10.3747 -8.16055,10.3746 -8.16055,28.2772 0,17.8394 8.16055,28.214 8.22381,10.3747 22.14103,10.3747 13.91723,0 22.01452,-10.3747 8.16055,-10.3746 8.16055,-28.214 0,-17.9026 -8.16055,-28.2772 -8.09729,-10.3747 -22.01452,-10.3747 z m 17.90261,84.0727 16.82719,18.4087 -15.43546,0 -13.98049,-15.1192 q -2.08758,0.1265 -3.22626,0.1898 -1.07542,0.063 -2.08759,0.063 -19.92693,0 -31.88309,-13.2847 -11.89289,-13.3479 -11.89289,-35.6787 0,-22.394 11.89289,-35.6787 11.95616,-13.3478 31.88309,-13.3478 19.86368,0 31.75658,13.3478 11.89289,13.2847 11.89289,35.6787 0,16.4477 -6.64231,28.1508 -6.57905,11.7031 -19.10455,17.27 z"
           id="path6984"
           inkscape:connector-curvature="0" />
        <path
           d="m 773.08616,2122.4184 q -8.47685,14.5498 -12.58876,28.7834 -4.1119,14.2335 -4.1119,28.8466 0,14.613 4.1119,28.9731 4.17517,14.2968 12.58876,28.7833 l -10.12161,0 q -9.48902,-14.8661 -14.23352,-29.2261 -4.68125,-14.3601 -4.68125,-28.5303 0,-14.107 4.68125,-28.4038 4.68124,-14.2968 14.23352,-29.2262 l 10.12161,0 z"
           id="path6986"
           inkscape:connector-curvature="0" />
        <path
           d="m 812.30745,2184.4766 -25.55708,-34.6033 23.97558,0 14.48657,21.0023 14.67634,-21.0023 23.97558,0 -25.55708,34.4768 26.82228,36.3745 -23.97558,0 -15.94154,-22.3941 -15.75177,22.3941 -23.97558,0 26.82228,-36.248 z"
           style="font-weight:bold"
           id="path6988"
           inkscape:connector-curvature="0" />
        <path
           d="m 877.40206,2122.4184 10.12162,0 q 9.48901,14.9294 14.17026,29.2262 4.74451,14.2968 4.74451,28.4038 0,14.1702 -4.74451,28.5303 -4.68125,14.36 -14.17026,29.2261 l -10.12162,0 q 8.41359,-14.4865 12.5255,-28.7833 4.17517,-14.3601 4.17517,-28.9731 0,-14.6131 -4.17517,-28.8466 -4.11191,-14.2336 -12.5255,-28.7834 z"
           id="path6990"
           inkscape:connector-curvature="0" />
        <path
           d="m 932.81791,2204.6565 13.34788,0 0,10.8808 -10.37465,20.2432 -8.16056,0 5.18733,-20.2432 0,-10.8808 z"
           id="path6992"
           inkscape:connector-curvature="0" />
        <path
           d="m 984.37489,2136.7785 0,35.4889 16.06811,0 q 8.9196,0 13.7907,-4.618 4.871,-4.618 4.871,-13.1581 0,-8.4769 -4.871,-13.0949 -4.8711,-4.6179 -13.7907,-4.6179 l -16.06811,0 z m -12.77854,-10.5012 28.84665,0 q 15.8782,0 23.9755,7.2116 8.1606,7.1484 8.1606,21.0024 0,13.9805 -8.1606,21.1289 -8.0973,7.1483 -23.9755,7.1483 l -16.06811,0 0,37.9561 -12.77854,0 0,-94.4473 z"
           id="path6994"
           inkscape:connector-curvature="0" />
        <path
           d="m 1077.2407,2122.4184 q -8.4768,14.5498 -12.5887,28.7834 -4.1119,14.2335 -4.1119,28.8466 0,14.613 4.1119,28.9731 4.1751,14.2968 12.5887,28.7833 l -10.1216,0 q -9.489,-14.8661 -14.2335,-29.2261 -4.6813,-14.3601 -4.6813,-28.5303 0,-14.107 4.6813,-28.4038 4.6812,-14.2968 14.2335,-29.2262 l 10.1216,0 z"
           id="path6996"
           inkscape:connector-curvature="0" />
        <path
           d="m 1116.4619,2184.4766 -25.557,-34.6033 23.9755,0 14.4866,21.0023 14.6763,-21.0023 23.9756,0 -25.5571,34.4768 26.8223,36.3745 -23.9756,0 -15.9415,-22.3941 -15.7518,22.3941 -23.9755,0 26.8222,-36.248 z"
           style="font-weight:bold"
           id="path6998"
           inkscape:connector-curvature="0" />
        <path
           d="m 1181.5567,2122.4184 10.1216,0 q 9.489,14.9294 14.1702,29.2262 4.7445,14.2968 4.7445,28.4038 0,14.1702 -4.7445,28.5303 -4.6812,14.36 -14.1702,29.2261 l -10.1216,0 q 8.4136,-14.4865 12.5255,-28.7833 4.1751,-14.3601 4.1751,-28.9731 0,-14.6131 -4.1751,-28.8466 -4.1119,-14.2336 -12.5255,-28.7834 z"
           id="path7000"
           inkscape:connector-curvature="0" />
        <path
           d="m 1232.1647,2122.4184 10.1217,0 q 9.489,14.9294 14.1702,29.2262 4.7445,14.2968 4.7445,28.4038 0,14.1702 -4.7445,28.5303 -4.6812,14.36 -14.1702,29.2261 l -10.1217,0 q 8.4136,-14.4865 12.5255,-28.7833 4.1752,-14.3601 4.1752,-28.9731 0,-14.6131 -4.1752,-28.8466 -4.1119,-14.2336 -12.5255,-28.7834 z"
           id="path7002"
           inkscape:connector-curvature="0" />
        <path
           d="m 1373.2348,2139.4986 0,35.2359 35.2358,0 0,10.7542 -35.2358,0 0,35.2359 -10.6277,0 0,-35.2359 -35.2359,0 0,-10.7542 35.2359,0 0,-35.2359 10.6277,0 z"
           id="path7004"
           inkscape:connector-curvature="0" />
        <path
           d="m 1493.4922,2198.5203 16.3211,6.9586 q 6.9586,3.0365 12.652,4.5548 5.2506,1.5815 9.0462,1.5815 6.5158,0 11.9562,-5.4404 4.1752,-4.1752 4.1752,-13.9172 0,-5.1874 -0.5694,-7.0852 l 2.7835,-0.8856 q 1.5182,8.3503 1.5182,9.236 0,14.4233 -6.9586,21.3819 -7.6545,7.6545 -15.309,7.6545 -3.2895,0 -9.742,-2.2142 -5.5669,-1.961 -14.6131,-6.5157 -16.5109,-8.6667 -21.6982,-8.6667 l 0,-0.5061 q -4.3017,0 -7.781,4.1752 -3.3528,3.9854 -4.1752,12.3357 l -3.3527,-1.5182 q 0,-12.2092 4.6179,-17.7761 1.6448,-2.0876 4.7445,-4.3649 2.3407,-1.5183 5.3772,-5.1241 3.4793,-4.1752 4.1751,-28.4038 0.3163,-10.691 2.5304,-19.0413 2.0876,-8.0973 6.1363,-12.9683 6.2627,-7.528 19.4841,-7.528 7.2116,0 11.7031,3.9222 4.1752,3.4793 4.1752,10.3114 0,1.6447 -0.8857,2.6569 -2.5937,2.9099 -4.5547,2.9099 -2.7835,0 -4.618,-1.708 -0.8224,-0.6958 -1.5182,-4.4282 -0.4429,-3.4793 -3.0365,-5.8199 -3.2263,-2.7835 -6.8321,-2.7835 -4.7445,0 -7.6545,3.7324 -2.2141,2.5304 -3.3528,9.236 -1.1387,6.6423 -1.3917,17.2067 -0.253,11.9562 -1.5182,19.3576 -1.3918,7.6545 -3.7957,10.4379 -3.4793,4.3017 -7.6544,7.3382 l 0.1898,0.1898 0.9489,0 q 3.9221,0 8.4768,1.5182 z"
           id="path7006"
           inkscape:connector-curvature="0" />
        <path
           d="m 1611.0516,2189.9739 0,8.7583 q -4.1941,-3.9063 -8.964,-5.8389 -4.7287,-1.9326 -10.0741,-1.9326 -10.5265,0 -16.1187,6.4557 -5.5922,6.4146 -5.5922,18.5858 0,12.1302 5.5922,18.5859 5.5922,6.4145 16.1187,6.4145 5.3454,0 10.0741,-1.9326 4.7699,-1.9326 8.964,-5.8389 l 0,8.6762 q -4.3586,2.9605 -9.2518,4.4408 -4.852,1.4803 -10.2798,1.4803 -13.9393,0 -21.9575,-8.5116 -8.0183,-8.5528 -8.0183,-23.3146 0,-14.8028 8.0183,-23.3145 8.0182,-8.5527 21.9575,-8.5527 5.51,0 10.362,1.4803 4.8932,1.4391 9.1696,4.3586 z"
           style="font-size:64.99999762%;baseline-shift:sub"
           id="path7008"
           inkscape:connector-curvature="0" />
        <path
           d="m 1623.963,2185.2452 38.8164,0 0,6.9902 -30.5104,0 0,18.1746 29.2357,0 0,6.9903 -29.2357,0 0,22.2454 31.2505,0 0,6.9902 -39.5565,0 0,-61.3907 z"
           style="font-size:64.99999762%;baseline-shift:sub"
           id="path7010"
           inkscape:connector-curvature="0" />
        <path
           d="m 1709.1584,2122.4184 q -8.4768,14.5498 -12.5887,28.7834 -4.1119,14.2335 -4.1119,28.8466 0,14.613 4.1119,28.9731 4.1752,14.2968 12.5887,28.7833 l -10.1216,0 q -9.489,-14.8661 -14.2335,-29.2261 -4.6812,-14.3601 -4.6812,-28.5303 0,-14.107 4.6812,-28.4038 4.6813,-14.2968 14.2335,-29.2262 l 10.1216,0 z"
           id="path7012"
           inkscape:connector-curvature="0" />
        <path
           d="m 1743.0659,2210.0969 0,37.5765 -11.7032,0 0,-97.8001 11.7032,0 0,10.7542 q 3.669,-6.326 9.2359,-9.3625 5.6302,-3.0997 13.4112,-3.0997 12.905,0 20.9391,10.2481 8.0973,10.2481 8.0973,26.9488 0,16.7007 -8.0973,26.9488 -8.0341,10.2482 -20.9391,10.2482 -7.781,0 -13.4112,-3.0365 -5.5669,-3.0998 -9.2359,-9.4258 z m 39.6008,-24.7347 q 0,-12.8418 -5.3139,-20.1167 -5.2506,-7.3382 -14.4865,-7.3382 -9.236,0 -14.5499,7.3382 -5.2505,7.2749 -5.2505,20.1167 0,12.8418 5.2505,20.18 5.3139,7.2749 14.5499,7.2749 9.2359,0 14.4865,-7.2749 5.3139,-7.3382 5.3139,-20.18 z"
           id="path7014"
           inkscape:connector-curvature="0" />
        <path
           d="m 1842.0047,2122.4184 q -8.4769,14.5498 -12.5888,28.7834 -4.1119,14.2335 -4.1119,28.8466 0,14.613 4.1119,28.9731 4.1752,14.2968 12.5888,28.7833 l -10.1217,0 q -9.489,-14.8661 -14.2335,-29.2261 -4.6812,-14.3601 -4.6812,-28.5303 0,-14.107 4.6812,-28.4038 4.6813,-14.2968 14.2335,-29.2262 l 10.1217,0 z"
           id="path7016"
           inkscape:connector-curvature="0" />
        <path
           d="m 1923.5469,2177.9608 0,42.7638 -11.6398,0 0,-42.3843 q 0,-10.0583 -3.9222,-15.0559 -3.9221,-4.9975 -11.7663,-4.9975 -9.4258,0 -14.8662,6.0097 -5.4403,6.0097 -5.4403,16.3844 l 0,40.0436 -11.7032,0 0,-98.4327 11.7032,0 0,38.5887 q 4.1751,-6.3893 9.8053,-9.5523 5.6934,-3.163 13.0948,-3.163 12.2092,0 18.472,7.5912 6.2627,7.5279 6.2627,22.2043 z"
           id="path7018"
           inkscape:connector-curvature="0" />
        <path
           d="m 1961.8825,2121.7226 0,129.5566 -10.7542,0 0,-129.5566 10.7542,0 z"
           id="path7020"
           inkscape:connector-curvature="0" />
        <path
           d="m 2007.2401,2184.4766 -25.557,-34.6033 23.9755,0 14.4866,21.0023 14.6763,-21.0023 23.9756,0 -25.5571,34.4768 26.8223,36.3745 -23.9756,0 -15.9415,-22.3941 -15.7518,22.3941 -23.9755,0 26.8222,-36.248 z"
           style="font-weight:bold"
           id="path7022"
           inkscape:connector-curvature="0" />
        <path
           d="m 2072.3349,2122.4184 10.1216,0 q 9.489,14.9294 14.1702,29.2262 4.7445,14.2968 4.7445,28.4038 0,14.1702 -4.7445,28.5303 -4.6812,14.36 -14.1702,29.2261 l -10.1216,0 q 8.4136,-14.4865 12.5255,-28.7833 4.1751,-14.3601 4.1751,-28.9731 0,-14.6131 -4.1751,-28.8466 -4.1119,-14.2336 -12.5255,-28.7834 z"
           id="path7024"
           inkscape:connector-curvature="0" />
        <path
           d="m 2122.9429,2122.4184 10.1217,0 q 9.489,14.9294 14.1702,29.2262 4.7445,14.2968 4.7445,28.4038 0,14.1702 -4.7445,28.5303 -4.6812,14.36 -14.1702,29.2261 l -10.1217,0 q 8.4136,-14.4865 12.5255,-28.7833 4.1752,-14.3601 4.1752,-28.9731 0,-14.6131 -4.1752,-28.8466 -4.1119,-14.2336 -12.5255,-28.7834 z"
           id="path7026"
           inkscape:connector-curvature="0" />
      </g>
    </clipPath>
  </defs>
  <metadata
     id="metadata4917">
    <rdf:RDF>
      <cc:Work
         rdf:about="">
        <dc:format>image/svg+xml</dc:format>
        <dc:type
           rdf:resource="http://purl.org/dc/dcmitype/StillImage" />
        <dc:title></dc:title>
      </cc:Work>
    </rdf:RDF>
  </metadata>
  <g
     inkscape:label="Layer 1"
     inkscape:groupmode="layer"
     id="layer1"
     transform="translate(124.7181,2968.6956)"
     style="opacity:1" />
  <g
     inkscape:groupmode="layer"
     id="layer2"
     inkscape:label="Layer 3"
     transform="translate(124.7181,-230.91075)" />
  <g
     inkscape:groupmode="layer"
     id="layer4"
     inkscape:label="Layer 2"
     transform="translate(124.7181,-230.91075)">
    <g
       transform="translate(1971.1312,2583.2675)"
       inkscape:transform-center-x="-112.69514"
       inkscape:transform-center-y="-165.72791"
       style="font-style:normal;font-weight:normal;font-size:129.5566864px;line-height:125%;font-family:sans-serif;letter-spacing:0px;word-spacing:0px;fill:#000000;fill-opacity:1;stroke:none;stroke-width:1px;stroke-linecap:butt;stroke-linejoin:miter;stroke-opacity:1"
       id="flowRoot6502-3-6" />
  </g>
  <g
     style="opacity:0"
     inkscape:label="Layer 5"
     id="layer5"
     inkscape:groupmode="layer"
     transform="translate(124.7181,-230.91075)">
    <g
       sodipodi:type="inkscape:box3d"
       id="g6335"
       style="opacity:1;fill:none;fill-rule:evenodd;stroke:none;stroke-width:1px;stroke-linecap:butt;stroke-linejoin:round;stroke-opacity:1"
       inkscape:perspectiveID="#perspective4920-1"
       inkscape:corner0="6.8338098 : 0.90605245 : 0 : 1"
       inkscape:corner7="2.9093599 : 0.045990959 : 0.2499911 : 1"
       transform="translate(0,3199.6063)">
      <path
         sodipodi:type="inkscape:box3dside"
         id="path6345"
         style="fill:#afafde;fill-rule:evenodd;stroke:none;stroke-width:1px;stroke-linecap:butt;stroke-linejoin:round;stroke-opacity:1"
         inkscape:box3dsidetype="13"
         d="m 229.8222,-3675.8021 483.19438,283.0921 404.97952,-31.6408 -664.85738,-258.9768 z"
         points="713.01658,-3392.71 1117.9961,-3424.3508 453.13872,-3683.3276 229.8222,-3675.8021 " />
      <path
         sodipodi:type="inkscape:box3dside"
         id="path6337"
         style="fill:#353564;fill-rule:evenodd;stroke:none;stroke-width:1px;stroke-linecap:butt;stroke-linejoin:round;stroke-opacity:1"
         inkscape:box3dsidetype="6"
         d="m 229.8222,-3785.5905 0,109.7884 223.31652,-7.5255 0,-106.3932 z"
         points="229.8222,-3675.8021 453.13872,-3683.3276 453.13872,-3789.7208 229.8222,-3785.5905 " />
      <path
         sodipodi:type="inkscape:box3dside"
         id="path6347"
         style="fill:#e9e9ff;fill-rule:evenodd;stroke:none;stroke-width:1px;stroke-linecap:butt;stroke-linejoin:round;stroke-opacity:1"
         inkscape:box3dsidetype="11"
         d="m 453.13872,-3789.7208 664.85738,158.5921 0,206.7779 -664.85738,-258.9768 z"
         points="1117.9961,-3631.1287 1117.9961,-3424.3508 453.13872,-3683.3276 453.13872,-3789.7208 " />
      <path
         sodipodi:type="inkscape:box3dside"
         id="path6339"
         style="fill:#4d4d9f;fill-rule:evenodd;stroke:none;stroke-width:1px;stroke-linecap:butt;stroke-linejoin:round;stroke-opacity:1"
         inkscape:box3dsidetype="5"
         d="m 229.8222,-3785.5905 483.19438,172.8799 404.97952,-18.4181 -664.85738,-158.5921 z"
         points="713.01658,-3612.7106 1117.9961,-3631.1287 453.13872,-3789.7208 229.8222,-3785.5905 " />
      <path
         sodipodi:type="inkscape:box3dside"
         id="path6343"
         style="fill:#d7d7ff;fill-rule:evenodd;stroke:none;stroke-width:1px;stroke-linecap:butt;stroke-linejoin:round;stroke-opacity:1"
         inkscape:box3dsidetype="14"
         d="m 713.01658,-3612.7106 0,220.0006 404.97952,-31.6408 0,-206.7779 z"
         points="713.01658,-3392.71 1117.9961,-3424.3508 1117.9961,-3631.1287 713.01658,-3612.7106 " />
      <path
         sodipodi:type="inkscape:box3dside"
         id="path6341"
         style="fill:#8686bf;fill-rule:evenodd;stroke:none;stroke-width:1px;stroke-linecap:butt;stroke-linejoin:round;stroke-opacity:1"
         inkscape:box3dsidetype="3"
         d="m 229.8222,-3785.5905 483.19438,172.8799 0,220.0006 -483.19438,-283.0921 z"
         points="713.01658,-3612.7106 713.01658,-3392.71 229.8222,-3675.8021 229.8222,-3785.5905 " />
    </g>
    <flowRoot
       xml:space="preserve"
       id="flowRoot6494"
       style="font-style:normal;font-weight:normal;font-size:40px;line-height:125%;font-family:sans-serif;letter-spacing:0px;word-spacing:0px;opacity:1;fill:#000000;fill-opacity:1;stroke:none;stroke-width:1px;stroke-linecap:butt;stroke-linejoin:miter;stroke-opacity:1"
       transform="translate(0,3199.6063)"><flowRegion
         id="flowRegion6496"><rect
           id="rect6498"
           width="791.07568"
           height="269.58447"
           x="2651.6504"
           y="751.78967" /></flowRegion><flowPara
         id="flowPara6500" /></flowRoot>    <flowRoot
       xml:space="preserve"
       id="flowRoot6510"
       style="font-style:normal;font-weight:normal;font-size:40px;line-height:125%;font-family:sans-serif;letter-spacing:0px;word-spacing:0px;opacity:1;fill:#000000;fill-opacity:1;stroke:none;stroke-width:1px;stroke-linecap:butt;stroke-linejoin:miter;stroke-opacity:1"
       transform="translate(0,3199.6063)"><flowRegion
         id="flowRegion6512"><rect
           id="rect6514"
           width="623.13788"
           height="274.00388"
           x="2554.4233"
           y="720.85376" /></flowRegion><flowPara
         id="flowPara6516" /></flowRoot>    <text
       xml:space="preserve"
       style="font-style:normal;font-weight:normal;font-size:40px;line-height:125%;font-family:sans-serif;letter-spacing:0px;word-spacing:0px;opacity:1;fill:#000000;fill-opacity:1;stroke:none;stroke-width:1px;stroke-linecap:butt;stroke-linejoin:miter;stroke-opacity:1"
       x="3235.0134"
       y="-1612.5468"
       id="text6554"
       sodipodi:linespacing="125%"
       transform="translate(0,3199.6063)"><tspan
         sodipodi:role="line"
         id="tspan6556"
         x="3235.0134"
         y="-1612.5468" /></text>
    <flowRoot
       xml:space="preserve"
       id="flowRoot6562"
       style="font-style:normal;font-weight:normal;font-size:40px;line-height:125%;font-family:sans-serif;letter-spacing:0px;word-spacing:0px;opacity:1;fill:#000000;fill-opacity:1;stroke:none;stroke-width:1px;stroke-linecap:butt;stroke-linejoin:miter;stroke-opacity:1"
       transform="translate(0,3199.6063)"><flowRegion
         id="flowRegion6564"><rect
           id="rect6566"
           width="519.28156"
           height="320.40778"
           x="1336.8738"
           y="1938.4032" /></flowRegion><flowPara
         id="flowPara6568" /></flowRoot>    <flowRoot
       xml:space="preserve"
       id="flowRoot6570"
       style="font-style:normal;font-weight:normal;font-size:40px;line-height:125%;font-family:sans-serif;letter-spacing:0px;word-spacing:0px;opacity:1;fill:#000000;fill-opacity:1;stroke:none;stroke-width:1px;stroke-linecap:butt;stroke-linejoin:miter;stroke-opacity:1"
       transform="translate(0,3199.6063)"><flowRegion
         id="flowRegion6572"><rect
           id="rect6574"
           width="364.60193"
           height="304.93979"
           x="1553.4252"
           y="2042.2595" /></flowRegion><flowPara
         id="flowPara6576" /></flowRoot>    <flowRoot
       xml:space="preserve"
       id="flowRoot6578"
       style="font-style:normal;font-weight:normal;font-size:40px;line-height:125%;font-family:sans-serif;letter-spacing:0px;word-spacing:0px;opacity:1;fill:#000000;fill-opacity:1;stroke:none;stroke-width:1px;stroke-linecap:butt;stroke-linejoin:miter;stroke-opacity:1"
       transform="translate(0,3199.6063)"><flowRegion
         id="flowRegion6580"><rect
           id="rect6582"
           width="689.42914"
           height="519.28156"
           x="1507.0214"
           y="2017.9528" /></flowRegion><flowPara
         id="flowPara6584" /></flowRoot>    <path
       style="opacity:1;fill:none;fill-rule:evenodd;stroke:#000000;stroke-width:1px;stroke-linecap:butt;stroke-linejoin:miter;stroke-opacity:1"
       d="m 7612.5,-2653.888 -6621.875,850"
       id="path5223"
       inkscape:connector-curvature="0"
       transform="translate(0,3199.6063)" />
    <path
       style="opacity:1;fill:none;fill-rule:evenodd;stroke:#000000;stroke-width:1px;stroke-linecap:butt;stroke-linejoin:miter;stroke-opacity:1"
       d="m -124.29611,-2670.4448 c 1.23932,1.9501 1.10485,2.0828 1.10485,3.867 0,0.1842 -0.0824,0.3878 0,0.5525 0.11646,0.2329 0.43597,0.3195 0.55243,0.5524 0.0824,0.1647 -0.0824,0.3877 0,0.5524 0.11646,0.2329 0.36828,0.3683 0.55242,0.5524 0.18415,0.1842 0.31951,0.436 0.55243,0.5525 0.32941,0.1647 0.77545,-0.1647 1.10486,0 0.23292,0.1164 0.3195,0.4359 0.55242,0.5524 0.16471,0.082 0.36829,0 0.55243,0 0.18414,0 0.38773,0.082 0.55243,0 0.23292,-0.1165 0.36828,-0.3683 0.55242,-0.5524 0.18415,-0.1842 0.36829,-0.3683 0.55243,-0.5525 0.29084,-0.2908 1.50976,-1.3622 1.65728,-1.6572 0.0824,-0.1647 -0.0824,-0.3878 0,-0.5525 0.11647,-0.2329 0.43597,-0.3195 0.55243,-0.5524 0.0823,-0.1647 -0.0824,-0.3877 0,-0.5524 0.11646,-0.233 0.43597,-0.3195 0.55243,-0.5525 0.0823,-0.1647 0,-0.3682 0,-0.5524 0,-0.1841 0,-0.3683 0,-0.5524 0,-0.2488 -0.0841,-1.4892 0,-1.6573 0.32886,-0.6577 1.10485,-0.7709 1.10485,-0.5524 0,0.9161 -0.7747,0.3873 -1.10485,0.5524 -0.23293,0.1165 -0.31951,0.436 -0.55243,0.5524 -0.1647,0.082 -0.38772,-0.082 -0.55243,0 -0.23292,0.1165 -0.3195,0.436 -0.55242,0.5525 -0.34851,0.1742 -2.41363,-0.1743 -2.76214,0 -0.46585,0.2329 -0.63901,0.8719 -1.10485,1.1048 -0.16471,0.082 -0.36829,0 -0.55243,0 -0.18414,0 -0.36829,0 -0.55243,0 -0.18414,0 -0.39452,0.095 -0.55243,0 -0.7895,-0.4737 -1.47313,-1.1048 -2.2097,-1.6573 z"
       id="path5225"
       inkscape:connector-curvature="0"
       transform="translate(0,3199.6063)" />
    <path
       style="opacity:1;fill:none;fill-rule:evenodd;stroke:#000000;stroke-width:1px;stroke-linecap:butt;stroke-linejoin:miter;stroke-opacity:1"
       d="m 1500,-1871.0755 -1618.75,-800"
       id="path5227"
       inkscape:connector-curvature="0"
       transform="translate(0,3199.6063)" />
    <path
       style="opacity:1;fill:none;fill-rule:evenodd;stroke:#000000;stroke-width:1px;stroke-linecap:butt;stroke-linejoin:miter;stroke-opacity:1"
       d="M 1660.9375,-1892.9505 -117.1875,-2669.513"
       id="path5229"
       inkscape:connector-curvature="0"
       transform="translate(0,3199.6063)" />
    <path
       style="opacity:1;fill:none;fill-rule:evenodd;stroke:#000000;stroke-width:1px;stroke-linecap:butt;stroke-linejoin:miter;stroke-opacity:1"
       d="M 1415.625,-1912.8724 2000,-1625.763"
       id="path5231"
       inkscape:connector-curvature="0"
       transform="translate(0,3199.6063)" />
    <path
       style="opacity:1;fill:none;fill-rule:evenodd;stroke:#000000;stroke-width:1px;stroke-linecap:butt;stroke-linejoin:miter;stroke-opacity:1"
       d="m 1579.6875,-1929.6693 498.2673,223.4862"
       id="path5233"
       inkscape:connector-curvature="0"
       transform="translate(0,3199.6063)" />
    <path
       style="opacity:1;fill:none;fill-rule:evenodd;stroke:#000000;stroke-width:1px;stroke-linecap:butt;stroke-linejoin:miter;stroke-opacity:1"
       d="m 1876.0427,-1682.1525 5735.5061,-971.3742"
       id="path5235"
       inkscape:connector-curvature="0"
       transform="translate(0,3199.6063)" />
    <path
       style="opacity:1;fill:none;fill-rule:evenodd;stroke:#000000;stroke-width:1px;stroke-linecap:butt;stroke-linejoin:miter;stroke-opacity:1"
       d="M 2019.6737,-1706.4593 -114.94141,-2669.1224"
       id="path5237"
       inkscape:connector-curvature="0"
       transform="translate(0,3199.6063)" />
    <path
       style="opacity:1;fill:none;fill-rule:evenodd;stroke:#000000;stroke-width:1px;stroke-linecap:butt;stroke-linejoin:miter;stroke-opacity:1"
       d="m -115.13672,-2668.1459 2042.28512,977.5391"
       id="path5239"
       inkscape:connector-curvature="0"
       transform="translate(0,3199.6063)" />
    <path
       style="opacity:1;fill:none;fill-rule:evenodd;stroke:#000000;stroke-width:1px;stroke-linecap:butt;stroke-linejoin:miter;stroke-opacity:1"
       d="m 1817.4854,-1716.403 5793.8427,-936.5085"
       id="path5241"
       inkscape:connector-curvature="0"
       transform="translate(0,3199.6063)" />
    <path
       style="opacity:1;fill:none;fill-rule:evenodd;stroke:#000000;stroke-width:1px;stroke-linecap:butt;stroke-linejoin:miter;stroke-opacity:1"
       d="m 1883.5938,1516.6167 -66.9922,-32.8125 175.2929,-28.9063 69.1407,31.1524 z"
       id="path5298"
       inkscape:connector-curvature="0" />
    <path
       inkscape:connector-curvature="0"
       id="path5576"
       d="M 1993.6406,1571.1773 7611.7188,546.69482"
       style="fill:none;fill-rule:evenodd;stroke:#000000;stroke-width:1px;stroke-linecap:butt;stroke-linejoin:miter;stroke-opacity:1" />
    <path
       inkscape:connector-curvature="0"
       id="path5578"
       d="M 2181.2587,1537.0649 -115.8716,530.05923"
       style="fill:none;fill-rule:evenodd;stroke:#000000;stroke-width:1px;stroke-linecap:butt;stroke-linejoin:miter;stroke-opacity:1" />
    <path
       inkscape:connector-curvature="0"
       id="path5580"
       d="m 2033.7891,1564.2729 -121.875,22.2657"
       style="fill:none;fill-rule:evenodd;stroke:#000000;stroke-width:1px;stroke-linecap:butt;stroke-linejoin:miter;stroke-opacity:1" />
    <path
       inkscape:connector-curvature="0"
       id="path5582"
       d="M 2215.7854,1530.1596 -115.59539,530.4045"
       style="fill:none;fill-rule:evenodd;stroke:#000000;stroke-width:1px;stroke-linecap:butt;stroke-linejoin:miter;stroke-opacity:1" />
    <path
       inkscape:connector-curvature="0"
       id="path5584"
       d="M 1950.3906,1581.6558 -116.25977,530.65477"
       style="fill:none;fill-rule:evenodd;stroke:#000000;stroke-width:1px;stroke-linecap:butt;stroke-linejoin:miter;stroke-opacity:1" />
    <path
       inkscape:connector-curvature="0"
       id="path5586"
       d="m 1906.543,1512.8081 -77.5391,12.207"
       style="fill:none;fill-rule:evenodd;stroke:#000000;stroke-width:1px;stroke-linecap:butt;stroke-linejoin:miter;stroke-opacity:1" />
    <path
       inkscape:connector-curvature="0"
       id="path5830"
       d="M 1942.7734,1577.7495 7610.9375,546.10888"
       style="fill:none;fill-rule:evenodd;stroke:#000000;stroke-width:1px;stroke-linecap:butt;stroke-linejoin:miter;stroke-opacity:1" />
  </g>
  <g
     inkscape:groupmode="layer"
     id="layer6"
     inkscape:label="Layer 6"
     transform="translate(124.7181,-230.91075)" />
  <g
     style="opacity:1"
     inkscape:groupmode="layer"
     id="layer3"
     inkscape:label="Layer 4"
     transform="translate(124.7181,-230.91075)" />
  <g
     inkscape:groupmode="layer"
     id="layer7"
     inkscape:label="teacher"
     style="opacity:1">
    <text
       transform="translate(124.7181,-230.91075)"
       xml:space="preserve"
       style="opacity:1;font-style:normal;font-weight:normal;font-size:129.5566864px;line-height:125%;font-family:sans-serif;letter-spacing:0px;word-spacing:0px;fill:#000000;fill-opacity:1;stroke:none;stroke-width:1px;stroke-linecap:butt;stroke-linejoin:miter;stroke-opacity:1"
       x="1909.0265"
       y="705.28857"
       id="text6592"
       sodipodi:linespacing="125%"><tspan
         sodipodi:role="line"
         x="1909.0265"
         y="705.28857"
         id="tspan6594"><tspan
           x="1909.0265"
           y="705.28857"
           id="tspan6596"
           style="">Tᴇᴀᴄʜᴇʀ</tspan></tspan></text>
    <g
       transform="translate(124.7181,-230.91075)"
       inkscape:corner7="2.9364145 : -2.3178465 : 0.95794459 : 1"
       inkscape:corner0="6.8338098 : 0.90605245 : 0 : 1"
       inkscape:perspectiveID="#perspective6281"
       style="opacity:1;fill:none;fill-rule:evenodd;stroke:none;stroke-width:1px;stroke-linecap:butt;stroke-linejoin:round;stroke-opacity:1"
       id="g6349"
       sodipodi:type="inkscape:box3d"
       inkscape:export-xdpi="90"
       inkscape:export-ydpi="90">
      <path
         points="818.88744,1671.3576 2138.984,1451.5473 1129.1447,1033.9989 342.32221,1093.3923 "
         d="M 342.32221,1093.3923 818.88744,1671.3576 2138.984,1451.5473 1129.1447,1033.9989 Z"
         inkscape:box3dsidetype="13"
         style="fill:#afafde;fill-rule:evenodd;stroke:none;stroke-width:1px;stroke-linecap:butt;stroke-linejoin:round;stroke-opacity:1"
         id="path6351"
         sodipodi:type="inkscape:box3dside" />
      <path
         points="342.32221,1093.3923 1129.1447,1033.9989 1129.1447,667.30312 342.32221,681.85569 "
         d="m 342.32221,681.85569 0,411.53661 786.82249,-59.3934 0,-366.69578 z"
         inkscape:box3dsidetype="6"
         style="fill:#353564;fill-rule:evenodd;stroke:none;stroke-width:1px;stroke-linecap:butt;stroke-linejoin:round;stroke-opacity:1"
         id="path6353"
         sodipodi:type="inkscape:box3dside" />
      <path
         points="2138.984,792.85036 2138.984,1451.5473 1129.1447,1033.9989 1129.1447,667.30312 "
         d="m 1129.1447,667.30312 1009.8393,125.54724 0,658.69694 -1009.8393,-417.5484 z"
         inkscape:box3dsidetype="11"
         style="fill:#e9e9ff;fill-rule:evenodd;stroke:none;stroke-width:1px;stroke-linecap:butt;stroke-linejoin:round;stroke-opacity:1"
         id="path6355"
         sodipodi:type="inkscape:box3dside" />
      <path
         points="818.88744,852.36375 2138.984,792.85036 1129.1447,667.30312 342.32221,681.85569 "
         d="M 342.32221,681.85569 818.88744,852.36375 2138.984,792.85036 1129.1447,667.30312 Z"
         inkscape:box3dsidetype="5"
         style="fill:#4d4d9f;fill-rule:evenodd;stroke:none;stroke-width:1px;stroke-linecap:butt;stroke-linejoin:round;stroke-opacity:1"
         id="path6357"
         sodipodi:type="inkscape:box3dside" />
      <path
         points="818.88744,1671.3576 2138.984,1451.5473 2138.984,792.85036 818.88744,852.36375 "
         d="m 818.88744,852.36375 0,818.99385 1320.09656,-219.8103 0,-658.69694 z"
         inkscape:box3dsidetype="14"
         style="fill:#d7d7ff;fill-rule:evenodd;stroke:none;stroke-width:1px;stroke-linecap:butt;stroke-linejoin:round;stroke-opacity:1"
         id="path6359"
         sodipodi:type="inkscape:box3dside" />
      <path
         points="818.88744,852.36375 818.88744,1671.3576 342.32221,1093.3923 342.32221,681.85569 "
         d="m 342.32221,681.85569 476.56523,170.50806 0,818.99385 -476.56523,-577.9653 z"
         inkscape:box3dsidetype="3"
         style="fill:#8686bf;fill-rule:evenodd;stroke:none;stroke-width:1px;stroke-linecap:butt;stroke-linejoin:round;stroke-opacity:1"
         id="path6361"
         sodipodi:type="inkscape:box3dside" />
    </g>
  </g>
  <g
     inkscape:groupmode="layer"
     id="layer10"
     inkscape:label="arrow"
     style="opacity:0">
    <path
       transform="translate(124.7181,-230.91075)"
       id="path5609"
       style="opacity:1;fill:#160d0d;fill-opacity:1;stroke:#201414;stroke-opacity:1"
       d="m 1839.3916,1523.937 c 0,0 131.9249,-22.3528 131.9249,-22.3528 0,0 125.1322,-20.8858 125.1322,-20.8858 0,0 -7.3633,34.4086 -7.3633,34.4086 0,0 -9.1986,37.1623 -9.1986,37.1623 0,0 -121.752,-14.149 -121.752,-14.149 0,0 -118.7432,-14.1833 -118.7432,-14.1833 m 87.5127,-14.8887 -384.082,-184.1797 80.8838,-10.4492 326.1352,147.2412 69.7754,31.5796 z"
       inkscape:connector-curvature="0" />
  </g>
  <g
     inkscape:groupmode="layer"
     id="layer9"
     inkscape:label="student-box"
     style="opacity:0">
    <path
       inkscape:connector-curvature="0"
       id="path6449"
       style="opacity:1;fill:#89bf86;fill-opacity:1;fill-rule:evenodd;stroke:none;stroke-width:1px;stroke-linecap:butt;stroke-linejoin:round;stroke-opacity:1"
       d="m 2089.8858,-1947.4023 282.3566,93.3043 0,622.4999 -282.3566,-163.6381 z"
       transform="translate(124.7181,2968.6955)" />
    <path
       inkscape:connector-curvature="0"
       id="path6445"
       style="opacity:1;fill:#478f46;fill-opacity:1;fill-rule:evenodd;stroke:none;stroke-width:1px;stroke-linecap:butt;stroke-linejoin:round;stroke-opacity:1"
       d="m 2088.1797,-1946.9581 282.3566,93.3043 518.0312,-78.3635 -310.4422,-76.908 z"
       transform="translate(124.7181,2968.6955)" />
    <path
       inkscape:connector-curvature="0"
       id="path6447"
       style="opacity:1;fill:#d7ffd8;fill-opacity:1;fill-rule:evenodd;stroke:none;stroke-width:1px;stroke-linecap:butt;stroke-linejoin:round;stroke-opacity:1"
       d="m 2372.2424,-1854.098 0,622.4999 518.0312,-140.3356 0,-560.5278 z"
       transform="translate(124.7181,2968.6955)" />
    <text
       transform="translate(124.7181,-230.91075)"
       xml:space="preserve"
       style="opacity:1;font-style:normal;font-weight:normal;font-size:129.5566864px;line-height:125%;font-family:sans-serif;letter-spacing:0px;word-spacing:0px;fill:#000000;fill-opacity:1;stroke:none;stroke-width:1px;stroke-linecap:butt;stroke-linejoin:miter;stroke-opacity:1"
       x="2917.6833"
       y="1155.829"
       id="text6586"
       sodipodi:linespacing="125%"><tspan
         sodipodi:role="line"
         x="2917.6833"
         y="1155.829"
         id="tspan6588"><tspan
           x="2917.6833"
           y="1155.829"
           id="tspan6590">Sᴛᴜᴅᴇɴᴛ</tspan></tspan></text>
  </g>
  <g
     inkscape:groupmode="layer"
     id="layer8"
     inkscape:label="q(x)"
     style="opacity:0">
    <g
       id="flowRoot6502-36"
       style="opacity:1;font-style:normal;font-weight:normal;font-size:129.5566864px;line-height:125%;font-family:sans-serif;letter-spacing:0px;word-spacing:0px;fill:#000000;fill-opacity:1;stroke:none;stroke-width:1px;stroke-linecap:butt;stroke-linejoin:miter;stroke-opacity:1"
       transform="translate(1249.0002,1721.6541)">
      <path
         inkscape:connector-curvature="0"
         id="path4700"
         d="m 284.01309,-872.7309 c -12.98508,0.6926 -23.4617,7.71552 -31.32252,21.16954 -7.88594,13.59798 -11.83725,31.77075 -11.78889,54.42062 0.0482,22.58898 4.08149,39.95407 12.03989,51.99047 7.94016,11.90847 18.47503,16.83174 31.49144,14.88452 12.79145,-1.91357 22.73158,-9.69983 29.92888,-23.27671 7.17852,-13.4435 10.70017,-30.78853 10.62097,-52.12715 -0.0794,-21.39714 -3.72198,-38.01556 -10.97919,-49.95278 -7.26993,-12.05474 -17.22932,-17.78917 -29.99058,-17.10851 0,0 0,0 0,0 m 24.94726,151.23032 c 0,0 22.41761,29.47468 22.41761,29.47468 0,0 -20.43251,3.7019 -20.43251,3.7019 0,0 -19.10179,-24.41008 -19.10179,-24.41008 -1.91888,0.46694 -3.4051,0.82506 -4.45602,1.0737 -0.9939,0.23954 -1.95995,0.43561 -2.89805,0.58812 -18.71427,3.04238 -34.04925,-2.85098 -45.77656,-17.90345 -11.83913,-15.36656 -17.85,-37.47386 -17.90039,-66.12727 -0.0505,-28.70371 5.86912,-51.95282 17.61657,-69.55736 11.62262,-17.40816 26.87076,-26.39336 45.52765,-27.14807 18.14124,-0.73385 32.35453,6.69348 42.86108,22.107 10.36191,15.12691 15.54302,35.82131 15.64981,62.2582 0.0785,19.43362 -2.69979,36.43642 -8.37111,51.09126 -5.66486,14.77275 -14.01259,26.3886 -25.13629,34.85137 0,0 0,0 0,0"
         style="" />
      <path
         inkscape:connector-curvature="0"
         id="path4702"
         d="m 400.34681,-900.15967 c -6.60347,16.76316 -11.5314,33.41368 -14.745,49.88657 -3.23099,16.56206 -4.81311,33.27021 -4.73319,50.06506 0.08,16.80543 1.82196,33.25354 5.21524,49.28597 3.42941,15.88511 8.53108,31.52549 15.26962,46.86626 0,0 -12.05756,2.19028 -12.05756,2.19028 -7.72656,-15.757 -13.59346,-31.6913 -17.55454,-47.73841 -3.92861,-16.13399 -5.93703,-32.47194 -6.01076,-48.9468 -0.0734,-16.3912 1.78504,-33.0486 5.5577,-49.90192 3.74962,-16.75039 9.44525,-33.86056 17.03668,-51.2528 0,0 12.02181,-0.45421 12.02181,-0.45421 0,0 0,0 0,0"
         style="" />
      <path
         inkscape:connector-curvature="0"
         id="path4704"
         style="font-weight:bold"
         d="m 445.6208,-800.01295 c 0,0 -29.12401,-54.76061 -29.12401,-54.76061 0,0 27.03911,-1.94409 27.03911,-1.94409 0,0 16.03097,32.97252 16.03097,32.97252 0,0 15.43111,-35.23462 15.43111,-35.23462 0,0 24.76497,-1.78058 24.76497,-1.78058 0,0 -26.07255,57.3156 -26.07255,57.3156 0,0 28.13597,54.14206 28.13597,54.14206 0,0 -24.75176,3.9671 -24.75176,3.9671 0,0 -17.22926,-33.75431 -17.22926,-33.75431 0,0 -17.01871,39.24343 -17.01871,39.24343 0,0 -27.1434,4.35042 -27.1434,4.35042 0,0 29.93756,-64.51692 29.93756,-64.51692 0,0 0,0 0,0" />
      <path
         inkscape:connector-curvature="0"
         id="path4706"
         d="m 513.0213,-904.41673 c 0,0 9.95003,-0.37593 9.95003,-0.37593 6.25411,15.03379 10.91296,29.70158 14.01013,44.06167 3.12392,14.29493 4.73646,28.57779 4.84786,42.90105 0.11197,14.39525 -1.27677,29.09464 -4.17813,44.15393 -2.87679,15.13562 -7.31596,30.87559 -13.35317,47.28703 0,0 -9.97297,1.81161 -9.97297,1.81161 5.43587,-16.03919 9.42124,-31.60925 11.9851,-46.76791 2.5918,-15.15563 3.82627,-30.20318 3.713,-45.19212 -0.11319,-14.98053 -1.57066,-29.64338 -4.38046,-44.03597 -2.77939,-14.4502 -6.97747,-29.04768 -12.62139,-43.84336 0,0 0,0 0,0"
         style="" />
    </g>
  </g>
  <g
     inkscape:groupmode="layer"
     id="layer11"
     inkscape:label="p(x)"
     style="opacity:0">
    <path
       d="m 538.89756,-1049.6847 c 0,0 0.6796,74.91909 0.6796,74.91909 0,0 21.52085,-4.21861 21.52085,-4.21861 7.93351,-1.55516 14.02564,-5.98979 18.28515,-13.29998 4.25457,-7.30171 6.32548,-16.9224 6.21643,-28.8682 -0.10824,-11.8569 -2.34676,-20.6091 -6.71925,-26.2615 -4.37743,-5.6589 -10.52851,-7.7534 -18.462,-6.2767 0,0 -21.52078,4.0059 -21.52078,4.0059 0,0 0,0 0,0 m -17.40353,-19.0141 c 0,0 38.72322,-7.0948 38.72322,-7.0948 14.1112,-2.5854 24.77611,0.5121 32.02397,9.273 7.28925,8.6458 11.01717,22.6282 11.19407,41.9603 0.17853,19.5095 -3.2804,34.95574 -10.3871,46.35441 -7.06451,11.40966 -17.63779,18.52252 -31.74905,21.32995 0,0 -21.52087,4.28157 -21.52087,4.28157 0,0 0.72703,80.14717 0.72703,80.14717 0,0 -17.20263,3.60438 -17.20263,3.60438 0,0 -1.80864,-199.85598 -1.80864,-199.85598 0,0 0,0 0,0"
       style="opacity:1;font-style:normal;font-weight:normal;font-size:129.5566864px;line-height:125%;font-family:sans-serif;letter-spacing:0px;word-spacing:0px;fill:#000000;fill-opacity:1;stroke:none;stroke-width:1px;stroke-linecap:butt;stroke-linejoin:miter;stroke-opacity:1"
       id="path4385"
       transform="translate(2095.8493,2352.3568)"
       inkscape:connector-curvature="0" />
    <path
       d="m 661.34024,-1102.3477 c -7.1686,21.502 -12.45511,42.4721 -15.85122,62.8931 -3.39953,20.4415 -5.00726,40.81672 -4.82062,61.11104 0.18664,20.29533 2.16362,40.05112 5.92835,59.25354 3.81553,19.08574 9.4696,37.89599 16.95413,56.41748 0,0 -13.18232,2.82478 -13.18232,2.82478 -8.45253,-18.88042 -14.84815,-37.88237 -19.1766,-56.99043 -4.27766,-19.13951 -6.50866,-38.57853 -6.68964,-58.30139 -0.18017,-19.63385 1.68725,-39.79412 5.59891,-60.46372 3.9072,-20.6461 9.92961,-42.1007 18.05671,-64.3434 0,0 13.1823,-2.401 13.1823,-2.401 0,0 0,0 0,0"
       style="opacity:1;font-style:normal;font-weight:normal;font-size:129.5566864px;line-height:125%;font-family:sans-serif;letter-spacing:0px;word-spacing:0px;fill:#000000;fill-opacity:1;stroke:none;stroke-width:1px;stroke-linecap:butt;stroke-linejoin:miter;stroke-opacity:1"
       id="path4387"
       transform="translate(2095.8493,2352.3568)"
       inkscape:connector-curvature="0" />
    <path
       d="m 713.17478,-983.56124 c 0,0 -33.58604,-65.13496 -33.58604,-65.13496 0,0 30.89427,-5.8634 30.89427,-5.8634 0,0 18.94548,39.7086 18.94548,39.7086 0,0 18.28954,-46.7753 18.28954,-46.7753 0,0 30.33319,-5.7568 30.33319,-5.7568 0,0 -31.68244,76.9418 -31.68244,76.9418 0,0 34.63342,67.60395 34.63342,67.60395 0,0 -30.3199,6.35278 -30.3199,6.35278 0,0 -20.72782,-41.85078 -20.72782,-41.85078 0,0 -19.73794,50.32937 -19.73794,50.32937 0,0 -30.9078,6.47597 -30.9078,6.47597 0,0 33.86604,-82.03123 33.86604,-82.03123 0,0 0,0 0,0"
       style="opacity:1;font-style:normal;font-weight:bold;font-size:129.5566864px;line-height:125%;font-family:sans-serif;letter-spacing:0px;word-spacing:0px;fill:#000000;fill-opacity:1;stroke:none;stroke-width:1px;stroke-linecap:butt;stroke-linejoin:miter;stroke-opacity:1"
       id="path4389"
       transform="translate(2095.8493,2352.3568)"
       inkscape:connector-curvature="0" />
    <path
       d="m 794.54311,-1126.6097 c 0,0 12.67214,-2.3081 12.67214,-2.3081 8.08845,18.8034 14.16096,37.5132 18.22721,56.1448 4.11454,18.6026 6.26027,37.4417 6.44037,56.5323 0.18091,19.1771 -1.60137,38.88325 -5.35002,59.13484 -3.70035,20.26342 -9.39966,41.31519 -17.1076,63.17456 0,0 -12.67201,2.71543 -12.67201,2.71543 6.8428,-21.19451 11.8815,-41.84422 15.12379,-61.9655 3.29091,-20.19805 4.84185,-40.19891 4.65526,-60.01693 -0.18657,-19.8171 -2.10663,-39.0412 -5.76266,-57.6856 -3.60659,-18.6712 -9.01286,-37.2419 -16.22648,-55.7258 0,0 0,0 0,0"
       style="opacity:1;font-style:normal;font-weight:normal;font-size:129.5566864px;line-height:125%;font-family:sans-serif;letter-spacing:0px;word-spacing:0px;fill:#000000;fill-opacity:1;stroke:none;stroke-width:1px;stroke-linecap:butt;stroke-linejoin:miter;stroke-opacity:1"
       id="path4391"
       transform="translate(2095.8493,2352.3568)"
       inkscape:connector-curvature="0" />
  </g>
  <g
     inkscape:groupmode="layer"
     id="layer12"
     inkscape:label="p(h|x)"
     style="opacity:0">
    <text
       transform="translate(124.7181,-230.91075)"
       xml:space="preserve"
       style="opacity:1;font-style:normal;font-weight:normal;font-size:129.5566864px;line-height:125%;font-family:sans-serif;letter-spacing:0px;word-spacing:0px;fill:#000000;fill-opacity:1;stroke:none;stroke-width:1px;stroke-linecap:butt;stroke-linejoin:miter;stroke-opacity:1"
       x="2970.7163"
       y="1690.5785"
       id="text6568"
       sodipodi:linespacing="125%"><tspan
         sodipodi:role="line"
         x="3793.0977"
         y="0"
         id="tspan6570"><tspan
           x="2970.7163"
           y="1690.5785"
           id="tspan6572"
           style="">P(</tspan><tspan
           x="3099.5139"
           y="1690.5785"
           style="font-weight:bold"
           id="tspan6574">x</tspan><tspan
           x="3183.0171"
           y="1690.5785"
           id="tspan6576"
           style="">) →</tspan><tspan
           x="3383.4253"
           y="1690.5785"
           id="tspan6578"
           style="">	</tspan><tspan
           x="3450.7339"
           y="1690.5785"
           id="tspan6580"
           style="">p(h|</tspan><tspan
           x="3709.5942"
           y="1690.5785"
           style="font-weight:bold"
           id="tspan6582">x</tspan><tspan
           x="3793.0977"
           y="1690.5785"
           id="tspan6584"
           style="">)</tspan></tspan></text>
  </g>
  <g
     inkscape:groupmode="layer"
     id="layer13"
     inkscape:label="loss-kl"
     style="opacity:0">
    <rect
       style="opacity:1;fill:#160d0d;fill-opacity:1;stroke:#201414;stroke-opacity:1"
       id="rect6968"
       width="937.5"
       height="185.9375"
       x="492.1875"
       y="1854.7435"
       clip-path="url(#clipPath6972)" />
  </g>
  <g
     inkscape:groupmode="layer"
     id="layer15"
     inkscape:label="loss"
     style="opacity:0">
    <g
       id="g6877"
       style="opacity:1;font-style:normal;font-weight:normal;font-size:129.5566864px;line-height:125%;font-family:sans-serif;letter-spacing:0px;word-spacing:0px;fill:#000000;fill-opacity:1;stroke:none;stroke-width:1px;stroke-linecap:butt;stroke-linejoin:miter;stroke-opacity:1"
       transform="translate(124.7181,-230.91075)">
      <path
         id="path6879"
         style=""
         d="m 414.8695,2198.5203 16.32111,6.9586 q 6.95861,3.0365 12.65202,4.5548 5.25059,1.5815 9.04619,1.5815 6.51579,0 11.95616,-5.4404 4.17517,-4.1752 4.17517,-13.9172 0,-5.1874 -0.56934,-7.0852 l 2.78344,-0.8856 q 1.51824,8.3503 1.51824,9.236 0,14.4233 -6.95861,21.3819 -7.65447,7.6545 -15.30894,7.6545 -3.28953,0 -9.74206,-2.2142 -5.56689,-1.961 -14.61308,-6.5157 -16.51089,-8.6667 -21.69822,-8.6667 l 0,-0.5061 q -4.30168,0 -7.78099,4.1752 -3.35278,3.9854 -4.17516,12.3357 l -3.35279,-1.5182 q 0,-12.2092 4.61799,-17.7761 1.64476,-2.0876 4.74451,-4.3649 2.34062,-1.5183 5.3771,-5.1241 3.47931,-4.1752 4.17517,-28.4038 0.3163,-10.691 2.5304,-19.0413 2.08759,-8.0973 6.13623,-12.9683 6.26275,-7.528 19.48412,-7.528 7.21165,0 11.70311,3.9222 4.17517,3.4793 4.17517,10.3114 0,1.6447 -0.88564,2.6569 -2.59367,2.9099 -4.55473,2.9099 -2.78344,0 -4.61799,-1.708 -0.82238,-0.6958 -1.51824,-4.4282 -0.44282,-3.4793 -3.03648,-5.8199 -3.22627,-2.7835 -6.83209,-2.7835 -4.74451,0 -7.65448,3.7324 -2.2141,2.5304 -3.35278,9.236 -1.13868,6.6423 -1.39172,17.2067 -0.25304,11.9562 -1.51825,19.3576 -1.39172,7.6545 -3.7956,10.4379 -3.47931,4.3017 -7.65447,7.3382 l 0.18978,0.1898 0.9489,0 q 3.92212,0 8.47685,1.5182 z" />
      <path
         id="path6881"
         style="font-size:64.99999762%;baseline-shift:sub"
         d="m 486.4578,2185.2452 8.30605,0 0,25.9461 27.54978,-25.9461 10.69095,0 -30.46922,28.6189 32.64854,32.7718 -10.93768,0 -29.48237,-29.5646 0,29.5646 -8.30605,0 0,-61.3907 z" />
      <path
         id="path6883"
         style="font-size:64.99999762%;baseline-shift:sub"
         d="m 541.72183,2185.2452 8.30605,0 0,54.4005 29.89356,0 0,6.9902 -38.19961,0 0,-61.3907 z" />
      <path
         id="path6885"
         style=""
         d="m 620.50281,2122.4184 q -8.47686,14.5498 -12.58876,28.7834 -4.11191,14.2335 -4.11191,28.8466 0,14.613 4.11191,28.9731 4.17516,14.2968 12.58876,28.7833 l -10.12162,0 q -9.48902,-14.8661 -14.23352,-29.2261 -4.68125,-14.3601 -4.68125,-28.5303 0,-14.107 4.68125,-28.4038 4.68124,-14.2968 14.23352,-29.2262 l 10.12162,0 z" />
      <path
         id="path6887"
         style=""
         d="m 681.99162,2134.9439 q -13.91722,0 -22.14103,10.3747 -8.16055,10.3746 -8.16055,28.2772 0,17.8394 8.16055,28.214 8.22381,10.3747 22.14103,10.3747 13.91723,0 22.01452,-10.3747 8.16055,-10.3746 8.16055,-28.214 0,-17.9026 -8.16055,-28.2772 -8.09729,-10.3747 -22.01452,-10.3747 z m 17.90261,84.0727 16.82719,18.4087 -15.43546,0 -13.98049,-15.1192 q -2.08758,0.1265 -3.22626,0.1898 -1.07542,0.063 -2.08759,0.063 -19.92693,0 -31.88309,-13.2847 -11.89289,-13.3479 -11.89289,-35.6787 0,-22.394 11.89289,-35.6787 11.95616,-13.3478 31.88309,-13.3478 19.86368,0 31.75658,13.3478 11.89289,13.2847 11.89289,35.6787 0,16.4477 -6.64231,28.1508 -6.57905,11.7031 -19.10455,17.27 z" />
      <path
         id="path6889"
         style=""
         d="m 773.08616,2122.4184 q -8.47685,14.5498 -12.58876,28.7834 -4.1119,14.2335 -4.1119,28.8466 0,14.613 4.1119,28.9731 4.17517,14.2968 12.58876,28.7833 l -10.12161,0 q -9.48902,-14.8661 -14.23352,-29.2261 -4.68125,-14.3601 -4.68125,-28.5303 0,-14.107 4.68125,-28.4038 4.68124,-14.2968 14.23352,-29.2262 l 10.12161,0 z" />
      <path
         id="path6891"
         style="font-weight:bold"
         d="m 812.30745,2184.4766 -25.55708,-34.6033 23.97558,0 14.48657,21.0023 14.67634,-21.0023 23.97558,0 -25.55708,34.4768 26.82228,36.3745 -23.97558,0 -15.94154,-22.3941 -15.75177,22.3941 -23.97558,0 26.82228,-36.248 z" />
      <path
         id="path6893"
         style=""
         d="m 877.40206,2122.4184 10.12162,0 q 9.48901,14.9294 14.17026,29.2262 4.74451,14.2968 4.74451,28.4038 0,14.1702 -4.74451,28.5303 -4.68125,14.36 -14.17026,29.2261 l -10.12162,0 q 8.41359,-14.4865 12.5255,-28.7833 4.17517,-14.3601 4.17517,-28.9731 0,-14.6131 -4.17517,-28.8466 -4.11191,-14.2336 -12.5255,-28.7834 z" />
      <path
         id="path6895"
         style=""
         d="m 932.81791,2204.6565 13.34788,0 0,10.8808 -10.37465,20.2432 -8.16056,0 5.18733,-20.2432 0,-10.8808 z" />
      <path
         id="path6897"
         style=""
         d="m 984.37489,2136.7785 0,35.4889 16.06811,0 q 8.9196,0 13.7907,-4.618 4.871,-4.618 4.871,-13.1581 0,-8.4769 -4.871,-13.0949 -4.8711,-4.6179 -13.7907,-4.6179 l -16.06811,0 z m -12.77854,-10.5012 28.84665,0 q 15.8782,0 23.9755,7.2116 8.1606,7.1484 8.1606,21.0024 0,13.9805 -8.1606,21.1289 -8.0973,7.1483 -23.9755,7.1483 l -16.06811,0 0,37.9561 -12.77854,0 0,-94.4473 z" />
      <path
         id="path6899"
         style=""
         d="m 1077.2407,2122.4184 q -8.4768,14.5498 -12.5887,28.7834 -4.1119,14.2335 -4.1119,28.8466 0,14.613 4.1119,28.9731 4.1751,14.2968 12.5887,28.7833 l -10.1216,0 q -9.489,-14.8661 -14.2335,-29.2261 -4.6813,-14.3601 -4.6813,-28.5303 0,-14.107 4.6813,-28.4038 4.6812,-14.2968 14.2335,-29.2262 l 10.1216,0 z" />
      <path
         id="path6901"
         style="font-weight:bold"
         d="m 1116.4619,2184.4766 -25.557,-34.6033 23.9755,0 14.4866,21.0023 14.6763,-21.0023 23.9756,0 -25.5571,34.4768 26.8223,36.3745 -23.9756,0 -15.9415,-22.3941 -15.7518,22.3941 -23.9755,0 26.8222,-36.248 z" />
      <path
         id="path6903"
         style=""
         d="m 1181.5567,2122.4184 10.1216,0 q 9.489,14.9294 14.1702,29.2262 4.7445,14.2968 4.7445,28.4038 0,14.1702 -4.7445,28.5303 -4.6812,14.36 -14.1702,29.2261 l -10.1216,0 q 8.4136,-14.4865 12.5255,-28.7833 4.1751,-14.3601 4.1751,-28.9731 0,-14.6131 -4.1751,-28.8466 -4.1119,-14.2336 -12.5255,-28.7834 z" />
      <path
         id="path6905"
         style=""
         d="m 1232.1647,2122.4184 10.1217,0 q 9.489,14.9294 14.1702,29.2262 4.7445,14.2968 4.7445,28.4038 0,14.1702 -4.7445,28.5303 -4.6812,14.36 -14.1702,29.2261 l -10.1217,0 q 8.4136,-14.4865 12.5255,-28.7833 4.1752,-14.3601 4.1752,-28.9731 0,-14.6131 -4.1752,-28.8466 -4.1119,-14.2336 -12.5255,-28.7834 z" />
      <path
         id="path6907"
         style=""
         d="m 1373.2348,2139.4986 0,35.2359 35.2358,0 0,10.7542 -35.2358,0 0,35.2359 -10.6277,0 0,-35.2359 -35.2359,0 0,-10.7542 35.2359,0 0,-35.2359 10.6277,0 z" />
      <path
         id="path6909"
         style=""
         d="m 1493.4922,2198.5203 16.3211,6.9586 q 6.9586,3.0365 12.652,4.5548 5.2506,1.5815 9.0462,1.5815 6.5158,0 11.9562,-5.4404 4.1752,-4.1752 4.1752,-13.9172 0,-5.1874 -0.5694,-7.0852 l 2.7835,-0.8856 q 1.5182,8.3503 1.5182,9.236 0,14.4233 -6.9586,21.3819 -7.6545,7.6545 -15.309,7.6545 -3.2895,0 -9.742,-2.2142 -5.5669,-1.961 -14.6131,-6.5157 -16.5109,-8.6667 -21.6982,-8.6667 l 0,-0.5061 q -4.3017,0 -7.781,4.1752 -3.3528,3.9854 -4.1752,12.3357 l -3.3527,-1.5182 q 0,-12.2092 4.6179,-17.7761 1.6448,-2.0876 4.7445,-4.3649 2.3407,-1.5183 5.3772,-5.1241 3.4793,-4.1752 4.1751,-28.4038 0.3163,-10.691 2.5304,-19.0413 2.0876,-8.0973 6.1363,-12.9683 6.2627,-7.528 19.4841,-7.528 7.2116,0 11.7031,3.9222 4.1752,3.4793 4.1752,10.3114 0,1.6447 -0.8857,2.6569 -2.5937,2.9099 -4.5547,2.9099 -2.7835,0 -4.618,-1.708 -0.8224,-0.6958 -1.5182,-4.4282 -0.4429,-3.4793 -3.0365,-5.8199 -3.2263,-2.7835 -6.8321,-2.7835 -4.7445,0 -7.6545,3.7324 -2.2141,2.5304 -3.3528,9.236 -1.1387,6.6423 -1.3917,17.2067 -0.253,11.9562 -1.5182,19.3576 -1.3918,7.6545 -3.7957,10.4379 -3.4793,4.3017 -7.6544,7.3382 l 0.1898,0.1898 0.9489,0 q 3.9221,0 8.4768,1.5182 z" />
      <path
         id="path6911"
         style="font-size:64.99999762%;baseline-shift:sub"
         d="m 1611.0516,2189.9739 0,8.7583 q -4.1941,-3.9063 -8.964,-5.8389 -4.7287,-1.9326 -10.0741,-1.9326 -10.5265,0 -16.1187,6.4557 -5.5922,6.4146 -5.5922,18.5858 0,12.1302 5.5922,18.5859 5.5922,6.4145 16.1187,6.4145 5.3454,0 10.0741,-1.9326 4.7699,-1.9326 8.964,-5.8389 l 0,8.6762 q -4.3586,2.9605 -9.2518,4.4408 -4.852,1.4803 -10.2798,1.4803 -13.9393,0 -21.9575,-8.5116 -8.0183,-8.5528 -8.0183,-23.3146 0,-14.8028 8.0183,-23.3145 8.0182,-8.5527 21.9575,-8.5527 5.51,0 10.362,1.4803 4.8932,1.4391 9.1696,4.3586 z" />
      <path
         id="path6913"
         style="font-size:64.99999762%;baseline-shift:sub"
         d="m 1623.963,2185.2452 38.8164,0 0,6.9902 -30.5104,0 0,18.1746 29.2357,0 0,6.9903 -29.2357,0 0,22.2454 31.2505,0 0,6.9902 -39.5565,0 0,-61.3907 z" />
      <path
         id="path6915"
         style=""
         d="m 1709.1584,2122.4184 q -8.4768,14.5498 -12.5887,28.7834 -4.1119,14.2335 -4.1119,28.8466 0,14.613 4.1119,28.9731 4.1752,14.2968 12.5887,28.7833 l -10.1216,0 q -9.489,-14.8661 -14.2335,-29.2261 -4.6812,-14.3601 -4.6812,-28.5303 0,-14.107 4.6812,-28.4038 4.6813,-14.2968 14.2335,-29.2262 l 10.1216,0 z" />
      <path
         id="path6917"
         style=""
         d="m 1743.0659,2210.0969 0,37.5765 -11.7032,0 0,-97.8001 11.7032,0 0,10.7542 q 3.669,-6.326 9.2359,-9.3625 5.6302,-3.0997 13.4112,-3.0997 12.905,0 20.9391,10.2481 8.0973,10.2481 8.0973,26.9488 0,16.7007 -8.0973,26.9488 -8.0341,10.2482 -20.9391,10.2482 -7.781,0 -13.4112,-3.0365 -5.5669,-3.0998 -9.2359,-9.4258 z m 39.6008,-24.7347 q 0,-12.8418 -5.3139,-20.1167 -5.2506,-7.3382 -14.4865,-7.3382 -9.236,0 -14.5499,7.3382 -5.2505,7.2749 -5.2505,20.1167 0,12.8418 5.2505,20.18 5.3139,7.2749 14.5499,7.2749 9.2359,0 14.4865,-7.2749 5.3139,-7.3382 5.3139,-20.18 z" />
      <path
         id="path6919"
         style=""
         d="m 1842.0047,2122.4184 q -8.4769,14.5498 -12.5888,28.7834 -4.1119,14.2335 -4.1119,28.8466 0,14.613 4.1119,28.9731 4.1752,14.2968 12.5888,28.7833 l -10.1217,0 q -9.489,-14.8661 -14.2335,-29.2261 -4.6812,-14.3601 -4.6812,-28.5303 0,-14.107 4.6812,-28.4038 4.6813,-14.2968 14.2335,-29.2262 l 10.1217,0 z" />
      <path
         id="path6921"
         style=""
         d="m 1923.5469,2177.9608 0,42.7638 -11.6398,0 0,-42.3843 q 0,-10.0583 -3.9222,-15.0559 -3.9221,-4.9975 -11.7663,-4.9975 -9.4258,0 -14.8662,6.0097 -5.4403,6.0097 -5.4403,16.3844 l 0,40.0436 -11.7032,0 0,-98.4327 11.7032,0 0,38.5887 q 4.1751,-6.3893 9.8053,-9.5523 5.6934,-3.163 13.0948,-3.163 12.2092,0 18.472,7.5912 6.2627,7.5279 6.2627,22.2043 z" />
      <path
         id="path6923"
         style=""
         d="m 1961.8825,2121.7226 0,129.5566 -10.7542,0 0,-129.5566 10.7542,0 z" />
      <path
         id="path6925"
         style="font-weight:bold"
         d="m 2007.2401,2184.4766 -25.557,-34.6033 23.9755,0 14.4866,21.0023 14.6763,-21.0023 23.9756,0 -25.5571,34.4768 26.8223,36.3745 -23.9756,0 -15.9415,-22.3941 -15.7518,22.3941 -23.9755,0 26.8222,-36.248 z" />
      <path
         id="path6927"
         style=""
         d="m 2072.3349,2122.4184 10.1216,0 q 9.489,14.9294 14.1702,29.2262 4.7445,14.2968 4.7445,28.4038 0,14.1702 -4.7445,28.5303 -4.6812,14.36 -14.1702,29.2261 l -10.1216,0 q 8.4136,-14.4865 12.5255,-28.7833 4.1751,-14.3601 4.1751,-28.9731 0,-14.6131 -4.1751,-28.8466 -4.1119,-14.2336 -12.5255,-28.7834 z" />
      <path
         id="path6929"
         style=""
         d="m 2122.9429,2122.4184 10.1217,0 q 9.489,14.9294 14.1702,29.2262 4.7445,14.2968 4.7445,28.4038 0,14.1702 -4.7445,28.5303 -4.6812,14.36 -14.1702,29.2261 l -10.1217,0 q 8.4136,-14.4865 12.5255,-28.7833 4.1752,-14.3601 4.1752,-28.9731 0,-14.6131 -4.1752,-28.8466 -4.1119,-14.2336 -12.5255,-28.7834 z" />
    </g>
  </g>
</svg>
