<?xml version="1.0" encoding="UTF-8" standalone="no"?>
<!-- Created with Inkscape (http://www.inkscape.org/) -->

<svg
   xmlns:dc="http://purl.org/dc/elements/1.1/"
   xmlns:cc="http://creativecommons.org/ns#"
   xmlns:rdf="http://www.w3.org/1999/02/22-rdf-syntax-ns#"
   xmlns:svg="http://www.w3.org/2000/svg"
   xmlns="http://www.w3.org/2000/svg"
   xmlns:sodipodi="http://sodipodi.sourceforge.net/DTD/sodipodi-0.dtd"
   xmlns:inkscape="http://www.inkscape.org/namespaces/inkscape"
   sodipodi:docname="i-am-an-idiot-2.svg"
   inkscape:version="0.91 r13725"
   version="1.1"
   id="svg4912"
   viewBox="0 0 4251.9686 2126.6186"
   height="600.17902mm"
   width="1200mm"
   inkscape:export-filename="/home/johan/Documents/i-am-an-idiot-2.svg.png"
   inkscape:export-xdpi="90"
   inkscape:export-ydpi="90">
  <sodipodi:namedview
     inkscape:window-maximized="1"
     inkscape:window-y="54"
     inkscape:window-x="119"
     inkscape:window-height="2106"
     inkscape:window-width="3721"
     showguides="true"
     showgrid="false"
     inkscape:current-layer="layer3"
     inkscape:document-units="px"
     inkscape:cy="464.51447"
     inkscape:cx="1400.413"
     inkscape:zoom="0.32"
     inkscape:pageshadow="2"
     inkscape:pageopacity="0.0"
     borderopacity="1.0"
     bordercolor="#666666"
     pagecolor="#ffffff"
     id="base"
     fit-margin-top="0"
     fit-margin-left="0"
     fit-margin-right="0"
     fit-margin-bottom="0" />
  <defs
     id="defs4914">
    <inkscape:perspective
       sodipodi:type="inkscape:persp3d"
       inkscape:vp_x="-14.29611 : 1847.8887 : 1"
       inkscape:vp_y="0 : 999.99994 : 0"
       inkscape:vp_z="7688.282 : 1809.2331 : 1"
       inkscape:persp3d-origin="3756.4017 : -407.26396 : 1"
       id="perspective6281" />
    <inkscape:perspective
       sodipodi:type="inkscape:persp3d"
       inkscape:vp_x="937.10636 : 2088.9833 : 1"
       inkscape:vp_y="0 : 199.99997 : 0"
       inkscape:vp_z="2470.5509 : 2159.9178 : 1"
       inkscape:persp3d-origin="1679.3135 : 1642.8142 : 1"
       id="perspective5301" />
    <inkscape:perspective
       sodipodi:type="inkscape:persp3d"
       inkscape:vp_x="9.4372171 : 3648.1685 : 1"
       inkscape:vp_y="0 : 999.99992 : 0"
       inkscape:vp_z="7516.6601 : 4222.8411 : 1"
       inkscape:persp3d-origin="3720.473 : 1417.3227 : 1"
       id="perspective4920" />
    <inkscape:perspective
       sodipodi:type="inkscape:persp3d"
       inkscape:vp_x="-126.79613 : 3732.2636 : 1"
       inkscape:vp_y="0 : 999.99992 : 0"
       inkscape:vp_z="7575.7821 : 3693.608 : 1"
       inkscape:persp3d-origin="3643.9018 : 1477.111 : 1"
       id="perspective4920-1" />
    <inkscape:perspective
       sodipodi:type="inkscape:persp3d"
       inkscape:vp_x="-67.133985 : 3707.9568 : 1"
       inkscape:vp_y="0 : 999.99992 : 0"
       inkscape:vp_z="7440.0889 : 4282.6294 : 1"
       inkscape:persp3d-origin="3643.9018 : 1477.111 : 1"
       id="perspective4920-9" />
    <inkscape:perspective
       sodipodi:type="inkscape:persp3d"
       inkscape:vp_x="-147.13399 : 3779.9568 : 1"
       inkscape:vp_y="0 : 999.99992 : 0"
       inkscape:vp_z="7360.0889 : 4354.6294 : 1"
       inkscape:persp3d-origin="3563.9017 : 1549.111 : 1"
       id="perspective4920-1-6" />
  </defs>
  <metadata
     id="metadata4917">
    <rdf:RDF>
      <cc:Work
         rdf:about="">
        <dc:format>image/svg+xml</dc:format>
        <dc:type
           rdf:resource="http://purl.org/dc/dcmitype/StillImage" />
        <dc:title></dc:title>
      </cc:Work>
    </rdf:RDF>
  </metadata>
  <g
     inkscape:label="Layer 1"
     inkscape:groupmode="layer"
     id="layer1"
     transform="translate(124.7181,2968.6956)"
     style="opacity:1" />
  <g
     inkscape:groupmode="layer"
     id="layer2"
     inkscape:label="Layer 3"
     transform="translate(124.7181,-230.91075)" />
  <g
     inkscape:groupmode="layer"
     id="layer4"
     inkscape:label="Layer 2"
     transform="translate(124.7181,-230.91075)">
    <g
       transform="translate(1971.1312,2583.2675)"
       inkscape:transform-center-x="-112.69514"
       inkscape:transform-center-y="-165.72791"
       style="font-style:normal;font-weight:normal;font-size:129.5566864px;line-height:125%;font-family:sans-serif;letter-spacing:0px;word-spacing:0px;fill:#000000;fill-opacity:1;stroke:none;stroke-width:1px;stroke-linecap:butt;stroke-linejoin:miter;stroke-opacity:1"
       id="flowRoot6502-3-6" />
    <g
       inkscape:corner7="2.9364145 : -2.3178465 : 0.95794459 : 1"
       inkscape:corner0="6.8338098 : 0.90605245 : 0 : 1"
       inkscape:perspectiveID="#perspective6281"
       style="opacity:1;fill:none;fill-rule:evenodd;stroke:none;stroke-width:1px;stroke-linecap:butt;stroke-linejoin:round;stroke-opacity:1"
       id="g6349"
       sodipodi:type="inkscape:box3d"
       inkscape:export-xdpi="90"
       inkscape:export-ydpi="90">
      <path
         points="818.88744,1671.3576 2138.984,1451.5473 1129.1447,1033.9989 342.32221,1093.3923 "
         d="M 342.32221,1093.3923 818.88744,1671.3576 2138.984,1451.5473 1129.1447,1033.9989 Z"
         inkscape:box3dsidetype="13"
         style="fill:#afafde;fill-rule:evenodd;stroke:none;stroke-width:1px;stroke-linecap:butt;stroke-linejoin:round;stroke-opacity:1"
         id="path6351"
         sodipodi:type="inkscape:box3dside" />
      <path
         points="342.32221,1093.3923 1129.1447,1033.9989 1129.1447,667.30312 342.32221,681.85569 "
         d="m 342.32221,681.85569 0,411.53661 786.82249,-59.3934 0,-366.69578 z"
         inkscape:box3dsidetype="6"
         style="fill:#353564;fill-rule:evenodd;stroke:none;stroke-width:1px;stroke-linecap:butt;stroke-linejoin:round;stroke-opacity:1"
         id="path6353"
         sodipodi:type="inkscape:box3dside" />
      <path
         points="2138.984,792.85036 2138.984,1451.5473 1129.1447,1033.9989 1129.1447,667.30312 "
         d="m 1129.1447,667.30312 1009.8393,125.54724 0,658.69694 -1009.8393,-417.5484 z"
         inkscape:box3dsidetype="11"
         style="fill:#e9e9ff;fill-rule:evenodd;stroke:none;stroke-width:1px;stroke-linecap:butt;stroke-linejoin:round;stroke-opacity:1"
         id="path6355"
         sodipodi:type="inkscape:box3dside" />
      <path
         points="818.88744,852.36375 2138.984,792.85036 1129.1447,667.30312 342.32221,681.85569 "
         d="M 342.32221,681.85569 818.88744,852.36375 2138.984,792.85036 1129.1447,667.30312 Z"
         inkscape:box3dsidetype="5"
         style="fill:#4d4d9f;fill-rule:evenodd;stroke:none;stroke-width:1px;stroke-linecap:butt;stroke-linejoin:round;stroke-opacity:1"
         id="path6357"
         sodipodi:type="inkscape:box3dside" />
      <path
         points="818.88744,1671.3576 2138.984,1451.5473 2138.984,792.85036 818.88744,852.36375 "
         d="m 818.88744,852.36375 0,818.99385 1320.09656,-219.8103 0,-658.69694 z"
         inkscape:box3dsidetype="14"
         style="fill:#d7d7ff;fill-rule:evenodd;stroke:none;stroke-width:1px;stroke-linecap:butt;stroke-linejoin:round;stroke-opacity:1"
         id="path6359"
         sodipodi:type="inkscape:box3dside" />
      <path
         points="818.88744,852.36375 818.88744,1671.3576 342.32221,1093.3923 342.32221,681.85569 "
         d="m 342.32221,681.85569 476.56523,170.50806 0,818.99385 -476.56523,-577.9653 z"
         inkscape:box3dsidetype="3"
         style="fill:#8686bf;fill-rule:evenodd;stroke:none;stroke-width:1px;stroke-linecap:butt;stroke-linejoin:round;stroke-opacity:1"
         id="path6361"
         sodipodi:type="inkscape:box3dside" />
    </g>
  </g>
  <g
     style="opacity:0"
     inkscape:label="Layer 5"
     id="layer5"
     inkscape:groupmode="layer"
     transform="translate(124.7181,-230.91075)">
    <g
       sodipodi:type="inkscape:box3d"
       id="g6335"
       style="opacity:1;fill:none;fill-rule:evenodd;stroke:none;stroke-width:1px;stroke-linecap:butt;stroke-linejoin:round;stroke-opacity:1"
       inkscape:perspectiveID="#perspective4920-1"
       inkscape:corner0="6.8338098 : 0.90605245 : 0 : 1"
       inkscape:corner7="2.9093599 : 0.045990959 : 0.2499911 : 1"
       transform="translate(0,3199.6063)">
      <path
         sodipodi:type="inkscape:box3dside"
         id="path6345"
         style="fill:#afafde;fill-rule:evenodd;stroke:none;stroke-width:1px;stroke-linecap:butt;stroke-linejoin:round;stroke-opacity:1"
         inkscape:box3dsidetype="13"
         d="m 229.8222,-3675.8021 483.19438,283.0921 404.97952,-31.6408 -664.85738,-258.9768 z"
         points="713.01658,-3392.71 1117.9961,-3424.3508 453.13872,-3683.3276 229.8222,-3675.8021 " />
      <path
         sodipodi:type="inkscape:box3dside"
         id="path6337"
         style="fill:#353564;fill-rule:evenodd;stroke:none;stroke-width:1px;stroke-linecap:butt;stroke-linejoin:round;stroke-opacity:1"
         inkscape:box3dsidetype="6"
         d="m 229.8222,-3785.5905 0,109.7884 223.31652,-7.5255 0,-106.3932 z"
         points="229.8222,-3675.8021 453.13872,-3683.3276 453.13872,-3789.7208 229.8222,-3785.5905 " />
      <path
         sodipodi:type="inkscape:box3dside"
         id="path6347"
         style="fill:#e9e9ff;fill-rule:evenodd;stroke:none;stroke-width:1px;stroke-linecap:butt;stroke-linejoin:round;stroke-opacity:1"
         inkscape:box3dsidetype="11"
         d="m 453.13872,-3789.7208 664.85738,158.5921 0,206.7779 -664.85738,-258.9768 z"
         points="1117.9961,-3631.1287 1117.9961,-3424.3508 453.13872,-3683.3276 453.13872,-3789.7208 " />
      <path
         sodipodi:type="inkscape:box3dside"
         id="path6339"
         style="fill:#4d4d9f;fill-rule:evenodd;stroke:none;stroke-width:1px;stroke-linecap:butt;stroke-linejoin:round;stroke-opacity:1"
         inkscape:box3dsidetype="5"
         d="m 229.8222,-3785.5905 483.19438,172.8799 404.97952,-18.4181 -664.85738,-158.5921 z"
         points="713.01658,-3612.7106 1117.9961,-3631.1287 453.13872,-3789.7208 229.8222,-3785.5905 " />
      <path
         sodipodi:type="inkscape:box3dside"
         id="path6343"
         style="fill:#d7d7ff;fill-rule:evenodd;stroke:none;stroke-width:1px;stroke-linecap:butt;stroke-linejoin:round;stroke-opacity:1"
         inkscape:box3dsidetype="14"
         d="m 713.01658,-3612.7106 0,220.0006 404.97952,-31.6408 0,-206.7779 z"
         points="713.01658,-3392.71 1117.9961,-3424.3508 1117.9961,-3631.1287 713.01658,-3612.7106 " />
      <path
         sodipodi:type="inkscape:box3dside"
         id="path6341"
         style="fill:#8686bf;fill-rule:evenodd;stroke:none;stroke-width:1px;stroke-linecap:butt;stroke-linejoin:round;stroke-opacity:1"
         inkscape:box3dsidetype="3"
         d="m 229.8222,-3785.5905 483.19438,172.8799 0,220.0006 -483.19438,-283.0921 z"
         points="713.01658,-3612.7106 713.01658,-3392.71 229.8222,-3675.8021 229.8222,-3785.5905 " />
    </g>
    <flowRoot
       xml:space="preserve"
       id="flowRoot6494"
       style="font-style:normal;font-weight:normal;font-size:40px;line-height:125%;font-family:sans-serif;letter-spacing:0px;word-spacing:0px;opacity:1;fill:#000000;fill-opacity:1;stroke:none;stroke-width:1px;stroke-linecap:butt;stroke-linejoin:miter;stroke-opacity:1"
       transform="translate(0,3199.6063)"><flowRegion
         id="flowRegion6496"><rect
           id="rect6498"
           width="791.07568"
           height="269.58447"
           x="2651.6504"
           y="751.78967" /></flowRegion><flowPara
         id="flowPara6500" /></flowRoot>    <flowRoot
       xml:space="preserve"
       id="flowRoot6510"
       style="font-style:normal;font-weight:normal;font-size:40px;line-height:125%;font-family:sans-serif;letter-spacing:0px;word-spacing:0px;opacity:1;fill:#000000;fill-opacity:1;stroke:none;stroke-width:1px;stroke-linecap:butt;stroke-linejoin:miter;stroke-opacity:1"
       transform="translate(0,3199.6063)"><flowRegion
         id="flowRegion6512"><rect
           id="rect6514"
           width="623.13788"
           height="274.00388"
           x="2554.4233"
           y="720.85376" /></flowRegion><flowPara
         id="flowPara6516" /></flowRoot>    <text
       xml:space="preserve"
       style="font-style:normal;font-weight:normal;font-size:40px;line-height:125%;font-family:sans-serif;letter-spacing:0px;word-spacing:0px;opacity:1;fill:#000000;fill-opacity:1;stroke:none;stroke-width:1px;stroke-linecap:butt;stroke-linejoin:miter;stroke-opacity:1"
       x="3235.0134"
       y="-1612.5468"
       id="text6554"
       sodipodi:linespacing="125%"
       transform="translate(0,3199.6063)"><tspan
         sodipodi:role="line"
         id="tspan6556"
         x="3235.0134"
         y="-1612.5468" /></text>
    <flowRoot
       xml:space="preserve"
       id="flowRoot6562"
       style="font-style:normal;font-weight:normal;font-size:40px;line-height:125%;font-family:sans-serif;letter-spacing:0px;word-spacing:0px;opacity:1;fill:#000000;fill-opacity:1;stroke:none;stroke-width:1px;stroke-linecap:butt;stroke-linejoin:miter;stroke-opacity:1"
       transform="translate(0,3199.6063)"><flowRegion
         id="flowRegion6564"><rect
           id="rect6566"
           width="519.28156"
           height="320.40778"
           x="1336.8738"
           y="1938.4032" /></flowRegion><flowPara
         id="flowPara6568" /></flowRoot>    <flowRoot
       xml:space="preserve"
       id="flowRoot6570"
       style="font-style:normal;font-weight:normal;font-size:40px;line-height:125%;font-family:sans-serif;letter-spacing:0px;word-spacing:0px;opacity:1;fill:#000000;fill-opacity:1;stroke:none;stroke-width:1px;stroke-linecap:butt;stroke-linejoin:miter;stroke-opacity:1"
       transform="translate(0,3199.6063)"><flowRegion
         id="flowRegion6572"><rect
           id="rect6574"
           width="364.60193"
           height="304.93979"
           x="1553.4252"
           y="2042.2595" /></flowRegion><flowPara
         id="flowPara6576" /></flowRoot>    <flowRoot
       xml:space="preserve"
       id="flowRoot6578"
       style="font-style:normal;font-weight:normal;font-size:40px;line-height:125%;font-family:sans-serif;letter-spacing:0px;word-spacing:0px;opacity:1;fill:#000000;fill-opacity:1;stroke:none;stroke-width:1px;stroke-linecap:butt;stroke-linejoin:miter;stroke-opacity:1"
       transform="translate(0,3199.6063)"><flowRegion
         id="flowRegion6580"><rect
           id="rect6582"
           width="689.42914"
           height="519.28156"
           x="1507.0214"
           y="2017.9528" /></flowRegion><flowPara
         id="flowPara6584" /></flowRoot>    <path
       style="opacity:1;fill:none;fill-rule:evenodd;stroke:#000000;stroke-width:1px;stroke-linecap:butt;stroke-linejoin:miter;stroke-opacity:1"
       d="m 7612.5,-2653.888 -6621.875,850"
       id="path5223"
       inkscape:connector-curvature="0"
       transform="translate(0,3199.6063)" />
    <path
       style="opacity:1;fill:none;fill-rule:evenodd;stroke:#000000;stroke-width:1px;stroke-linecap:butt;stroke-linejoin:miter;stroke-opacity:1"
       d="m -124.29611,-2670.4448 c 1.23932,1.9501 1.10485,2.0828 1.10485,3.867 0,0.1842 -0.0824,0.3878 0,0.5525 0.11646,0.2329 0.43597,0.3195 0.55243,0.5524 0.0824,0.1647 -0.0824,0.3877 0,0.5524 0.11646,0.2329 0.36828,0.3683 0.55242,0.5524 0.18415,0.1842 0.31951,0.436 0.55243,0.5525 0.32941,0.1647 0.77545,-0.1647 1.10486,0 0.23292,0.1164 0.3195,0.4359 0.55242,0.5524 0.16471,0.082 0.36829,0 0.55243,0 0.18414,0 0.38773,0.082 0.55243,0 0.23292,-0.1165 0.36828,-0.3683 0.55242,-0.5524 0.18415,-0.1842 0.36829,-0.3683 0.55243,-0.5525 0.29084,-0.2908 1.50976,-1.3622 1.65728,-1.6572 0.0824,-0.1647 -0.0824,-0.3878 0,-0.5525 0.11647,-0.2329 0.43597,-0.3195 0.55243,-0.5524 0.0823,-0.1647 -0.0824,-0.3877 0,-0.5524 0.11646,-0.233 0.43597,-0.3195 0.55243,-0.5525 0.0823,-0.1647 0,-0.3682 0,-0.5524 0,-0.1841 0,-0.3683 0,-0.5524 0,-0.2488 -0.0841,-1.4892 0,-1.6573 0.32886,-0.6577 1.10485,-0.7709 1.10485,-0.5524 0,0.9161 -0.7747,0.3873 -1.10485,0.5524 -0.23293,0.1165 -0.31951,0.436 -0.55243,0.5524 -0.1647,0.082 -0.38772,-0.082 -0.55243,0 -0.23292,0.1165 -0.3195,0.436 -0.55242,0.5525 -0.34851,0.1742 -2.41363,-0.1743 -2.76214,0 -0.46585,0.2329 -0.63901,0.8719 -1.10485,1.1048 -0.16471,0.082 -0.36829,0 -0.55243,0 -0.18414,0 -0.36829,0 -0.55243,0 -0.18414,0 -0.39452,0.095 -0.55243,0 -0.7895,-0.4737 -1.47313,-1.1048 -2.2097,-1.6573 z"
       id="path5225"
       inkscape:connector-curvature="0"
       transform="translate(0,3199.6063)" />
    <path
       style="opacity:1;fill:none;fill-rule:evenodd;stroke:#000000;stroke-width:1px;stroke-linecap:butt;stroke-linejoin:miter;stroke-opacity:1"
       d="m 1500,-1871.0755 -1618.75,-800"
       id="path5227"
       inkscape:connector-curvature="0"
       transform="translate(0,3199.6063)" />
    <path
       style="opacity:1;fill:none;fill-rule:evenodd;stroke:#000000;stroke-width:1px;stroke-linecap:butt;stroke-linejoin:miter;stroke-opacity:1"
       d="M 1660.9375,-1892.9505 -117.1875,-2669.513"
       id="path5229"
       inkscape:connector-curvature="0"
       transform="translate(0,3199.6063)" />
    <path
       style="opacity:1;fill:none;fill-rule:evenodd;stroke:#000000;stroke-width:1px;stroke-linecap:butt;stroke-linejoin:miter;stroke-opacity:1"
       d="M 1415.625,-1912.8724 2000,-1625.763"
       id="path5231"
       inkscape:connector-curvature="0"
       transform="translate(0,3199.6063)" />
    <path
       style="opacity:1;fill:none;fill-rule:evenodd;stroke:#000000;stroke-width:1px;stroke-linecap:butt;stroke-linejoin:miter;stroke-opacity:1"
       d="m 1579.6875,-1929.6693 498.2673,223.4862"
       id="path5233"
       inkscape:connector-curvature="0"
       transform="translate(0,3199.6063)" />
    <path
       style="opacity:1;fill:none;fill-rule:evenodd;stroke:#000000;stroke-width:1px;stroke-linecap:butt;stroke-linejoin:miter;stroke-opacity:1"
       d="m 1876.0427,-1682.1525 5735.5061,-971.3742"
       id="path5235"
       inkscape:connector-curvature="0"
       transform="translate(0,3199.6063)" />
    <path
       style="opacity:1;fill:none;fill-rule:evenodd;stroke:#000000;stroke-width:1px;stroke-linecap:butt;stroke-linejoin:miter;stroke-opacity:1"
       d="M 2019.6737,-1706.4593 -114.94141,-2669.1224"
       id="path5237"
       inkscape:connector-curvature="0"
       transform="translate(0,3199.6063)" />
    <path
       style="opacity:1;fill:none;fill-rule:evenodd;stroke:#000000;stroke-width:1px;stroke-linecap:butt;stroke-linejoin:miter;stroke-opacity:1"
       d="m -115.13672,-2668.1459 2042.28512,977.5391"
       id="path5239"
       inkscape:connector-curvature="0"
       transform="translate(0,3199.6063)" />
    <path
       style="opacity:1;fill:none;fill-rule:evenodd;stroke:#000000;stroke-width:1px;stroke-linecap:butt;stroke-linejoin:miter;stroke-opacity:1"
       d="m 1817.4854,-1716.403 5793.8427,-936.5085"
       id="path5241"
       inkscape:connector-curvature="0"
       transform="translate(0,3199.6063)" />
    <path
       style="opacity:1;fill:none;fill-rule:evenodd;stroke:#000000;stroke-width:1px;stroke-linecap:butt;stroke-linejoin:miter;stroke-opacity:1"
       d="m 1883.5938,1516.6167 -66.9922,-32.8125 175.2929,-28.9063 69.1407,31.1524 z"
       id="path5298"
       inkscape:connector-curvature="0" />
    <path
       inkscape:connector-curvature="0"
       id="path5576"
       d="M 1993.6406,1571.1773 7611.7188,546.69482"
       style="fill:none;fill-rule:evenodd;stroke:#000000;stroke-width:1px;stroke-linecap:butt;stroke-linejoin:miter;stroke-opacity:1" />
    <path
       inkscape:connector-curvature="0"
       id="path5578"
       d="M 2181.2587,1537.0649 -115.8716,530.05923"
       style="fill:none;fill-rule:evenodd;stroke:#000000;stroke-width:1px;stroke-linecap:butt;stroke-linejoin:miter;stroke-opacity:1" />
    <path
       inkscape:connector-curvature="0"
       id="path5580"
       d="m 2033.7891,1564.2729 -121.875,22.2657"
       style="fill:none;fill-rule:evenodd;stroke:#000000;stroke-width:1px;stroke-linecap:butt;stroke-linejoin:miter;stroke-opacity:1" />
    <path
       inkscape:connector-curvature="0"
       id="path5582"
       d="M 2215.7854,1530.1596 -115.59539,530.4045"
       style="fill:none;fill-rule:evenodd;stroke:#000000;stroke-width:1px;stroke-linecap:butt;stroke-linejoin:miter;stroke-opacity:1" />
    <path
       inkscape:connector-curvature="0"
       id="path5584"
       d="M 1950.3906,1581.6558 -116.25977,530.65477"
       style="fill:none;fill-rule:evenodd;stroke:#000000;stroke-width:1px;stroke-linecap:butt;stroke-linejoin:miter;stroke-opacity:1" />
    <path
       inkscape:connector-curvature="0"
       id="path5586"
       d="m 1906.543,1512.8081 -77.5391,12.207"
       style="fill:none;fill-rule:evenodd;stroke:#000000;stroke-width:1px;stroke-linecap:butt;stroke-linejoin:miter;stroke-opacity:1" />
    <path
       inkscape:connector-curvature="0"
       id="path5830"
       d="M 1942.7734,1577.7495 7610.9375,546.10888"
       style="fill:none;fill-rule:evenodd;stroke:#000000;stroke-width:1px;stroke-linecap:butt;stroke-linejoin:miter;stroke-opacity:1" />
  </g>
  <g
     inkscape:groupmode="layer"
     id="layer6"
     inkscape:label="Layer 6"
     transform="translate(124.7181,-230.91075)">
    <path
       id="path5609"
       style="opacity:1;fill:#160d0d;fill-opacity:1;stroke:#201414;stroke-opacity:1"
       d="m 1839.3916,1523.937 c 0,0 131.9249,-22.3528 131.9249,-22.3528 0,0 125.1322,-20.8858 125.1322,-20.8858 0,0 -7.3633,34.4086 -7.3633,34.4086 0,0 -9.1986,37.1623 -9.1986,37.1623 0,0 -121.752,-14.149 -121.752,-14.149 0,0 -118.7432,-14.1833 -118.7432,-14.1833 m 87.5127,-14.8887 -384.082,-184.1797 80.8838,-10.4492 326.1352,147.2412 69.7754,31.5796 z"
       inkscape:connector-curvature="0" />
  </g>
  <g
     style="opacity:1"
     inkscape:groupmode="layer"
     id="layer3"
     inkscape:label="Layer 4"
     transform="translate(124.7181,-230.91075)">
    <g
       id="flowRoot6502-36"
       style="font-style:normal;font-weight:normal;font-size:129.5566864px;line-height:125%;font-family:sans-serif;letter-spacing:0px;word-spacing:0px;opacity:1;fill:#000000;fill-opacity:1;stroke:none;stroke-width:1px;stroke-linecap:butt;stroke-linejoin:miter;stroke-opacity:1"
       transform="translate(1124.2821,1952.5648)">
      <path
         inkscape:connector-curvature="0"
         id="path4700"
         d="m 284.01309,-872.7309 c -12.98508,0.6926 -23.4617,7.71552 -31.32252,21.16954 -7.88594,13.59798 -11.83725,31.77075 -11.78889,54.42062 0.0482,22.58898 4.08149,39.95407 12.03989,51.99047 7.94016,11.90847 18.47503,16.83174 31.49144,14.88452 12.79145,-1.91357 22.73158,-9.69983 29.92888,-23.27671 7.17852,-13.4435 10.70017,-30.78853 10.62097,-52.12715 -0.0794,-21.39714 -3.72198,-38.01556 -10.97919,-49.95278 -7.26993,-12.05474 -17.22932,-17.78917 -29.99058,-17.10851 0,0 0,0 0,0 m 24.94726,151.23032 c 0,0 22.41761,29.47468 22.41761,29.47468 0,0 -20.43251,3.7019 -20.43251,3.7019 0,0 -19.10179,-24.41008 -19.10179,-24.41008 -1.91888,0.46694 -3.4051,0.82506 -4.45602,1.0737 -0.9939,0.23954 -1.95995,0.43561 -2.89805,0.58812 -18.71427,3.04238 -34.04925,-2.85098 -45.77656,-17.90345 -11.83913,-15.36656 -17.85,-37.47386 -17.90039,-66.12727 -0.0505,-28.70371 5.86912,-51.95282 17.61657,-69.55736 11.62262,-17.40816 26.87076,-26.39336 45.52765,-27.14807 18.14124,-0.73385 32.35453,6.69348 42.86108,22.107 10.36191,15.12691 15.54302,35.82131 15.64981,62.2582 0.0785,19.43362 -2.69979,36.43642 -8.37111,51.09126 -5.66486,14.77275 -14.01259,26.3886 -25.13629,34.85137 0,0 0,0 0,0" />
      <path
         inkscape:connector-curvature="0"
         id="path4702"
         d="m 400.34681,-900.15967 c -6.60347,16.76316 -11.5314,33.41368 -14.745,49.88657 -3.23099,16.56206 -4.81311,33.27021 -4.73319,50.06506 0.08,16.80543 1.82196,33.25354 5.21524,49.28597 3.42941,15.88511 8.53108,31.52549 15.26962,46.86626 0,0 -12.05756,2.19028 -12.05756,2.19028 -7.72656,-15.757 -13.59346,-31.6913 -17.55454,-47.73841 -3.92861,-16.13399 -5.93703,-32.47194 -6.01076,-48.9468 -0.0734,-16.3912 1.78504,-33.0486 5.5577,-49.90192 3.74962,-16.75039 9.44525,-33.86056 17.03668,-51.2528 0,0 12.02181,-0.45421 12.02181,-0.45421 0,0 0,0 0,0" />
      <path
         inkscape:connector-curvature="0"
         id="path4704"
         style="font-weight:bold"
         d="m 445.6208,-800.01295 c 0,0 -29.12401,-54.76061 -29.12401,-54.76061 0,0 27.03911,-1.94409 27.03911,-1.94409 0,0 16.03097,32.97252 16.03097,32.97252 0,0 15.43111,-35.23462 15.43111,-35.23462 0,0 24.76497,-1.78058 24.76497,-1.78058 0,0 -26.07255,57.3156 -26.07255,57.3156 0,0 28.13597,54.14206 28.13597,54.14206 0,0 -24.75176,3.9671 -24.75176,3.9671 0,0 -17.22926,-33.75431 -17.22926,-33.75431 0,0 -17.01871,39.24343 -17.01871,39.24343 0,0 -27.1434,4.35042 -27.1434,4.35042 0,0 29.93756,-64.51692 29.93756,-64.51692 0,0 0,0 0,0" />
      <path
         inkscape:connector-curvature="0"
         id="path4706"
         d="m 513.0213,-904.41673 c 0,0 9.95003,-0.37593 9.95003,-0.37593 6.25411,15.03379 10.91296,29.70158 14.01013,44.06167 3.12392,14.29493 4.73646,28.57779 4.84786,42.90105 0.11197,14.39525 -1.27677,29.09464 -4.17813,44.15393 -2.87679,15.13562 -7.31596,30.87559 -13.35317,47.28703 0,0 -9.97297,1.81161 -9.97297,1.81161 5.43587,-16.03919 9.42124,-31.60925 11.9851,-46.76791 2.5918,-15.15563 3.82627,-30.20318 3.713,-45.19212 -0.11319,-14.98053 -1.57066,-29.64338 -4.38046,-44.03597 -2.77939,-14.4502 -6.97747,-29.04768 -12.62139,-43.84336 0,0 0,0 0,0" />
    </g>
    <path
       inkscape:connector-curvature="0"
       id="path6449"
       style="opacity:1;fill:#89bf86;fill-opacity:1;fill-rule:evenodd;stroke:none;stroke-width:1px;stroke-linecap:butt;stroke-linejoin:round;stroke-opacity:1"
       d="m 2089.8858,-1947.4023 282.3566,93.3043 0,622.4999 -282.3566,-163.6381 z"
       transform="translate(0,3199.6063)" />
    <path
       inkscape:connector-curvature="0"
       id="path6445"
       style="opacity:1;fill:#478f46;fill-opacity:1;fill-rule:evenodd;stroke:none;stroke-width:1px;stroke-linecap:butt;stroke-linejoin:round;stroke-opacity:1"
       d="m 2088.1797,-1946.9581 282.3566,93.3043 518.0312,-78.3635 -310.4422,-76.908 z"
       transform="translate(0,3199.6063)" />
    <path
       inkscape:connector-curvature="0"
       id="path6447"
       style="opacity:1;fill:#d7ffd8;fill-opacity:1;fill-rule:evenodd;stroke:none;stroke-width:1px;stroke-linecap:butt;stroke-linejoin:round;stroke-opacity:1"
       d="m 2372.2424,-1854.098 0,622.4999 518.0312,-140.3356 0,-560.5278 z"
       transform="translate(0,3199.6063)" />
    <path
       d="m 538.89756,-1049.6847 c 0,0 0.6796,74.91909 0.6796,74.91909 0,0 21.52085,-4.21861 21.52085,-4.21861 7.93351,-1.55516 14.02564,-5.98979 18.28515,-13.29998 4.25457,-7.30171 6.32548,-16.9224 6.21643,-28.8682 -0.10824,-11.8569 -2.34676,-20.6091 -6.71925,-26.2615 -4.37743,-5.6589 -10.52851,-7.7534 -18.462,-6.2767 0,0 -21.52078,4.0059 -21.52078,4.0059 0,0 0,0 0,0 m -17.40353,-19.0141 c 0,0 38.72322,-7.0948 38.72322,-7.0948 14.1112,-2.5854 24.77611,0.5121 32.02397,9.273 7.28925,8.6458 11.01717,22.6282 11.19407,41.9603 0.17853,19.5095 -3.2804,34.95574 -10.3871,46.35441 -7.06451,11.40966 -17.63779,18.52252 -31.74905,21.32995 0,0 -21.52087,4.28157 -21.52087,4.28157 0,0 0.72703,80.14717 0.72703,80.14717 0,0 -17.20263,3.60438 -17.20263,3.60438 0,0 -1.80864,-199.85598 -1.80864,-199.85598 0,0 0,0 0,0"
       style="font-style:normal;font-weight:normal;font-size:129.5566864px;line-height:125%;font-family:sans-serif;letter-spacing:0px;word-spacing:0px;fill:#000000;fill-opacity:1;stroke:none;stroke-width:1px;stroke-linecap:butt;stroke-linejoin:miter;stroke-opacity:1"
       id="path4385"
       transform="translate(1971.1312,2583.2675)"
       inkscape:connector-curvature="0" />
    <path
       d="m 661.34024,-1102.3477 c -7.1686,21.502 -12.45511,42.4721 -15.85122,62.8931 -3.39953,20.4415 -5.00726,40.81672 -4.82062,61.11104 0.18664,20.29533 2.16362,40.05112 5.92835,59.25354 3.81553,19.08574 9.4696,37.89599 16.95413,56.41748 0,0 -13.18232,2.82478 -13.18232,2.82478 -8.45253,-18.88042 -14.84815,-37.88237 -19.1766,-56.99043 -4.27766,-19.13951 -6.50866,-38.57853 -6.68964,-58.30139 -0.18017,-19.63385 1.68725,-39.79412 5.59891,-60.46372 3.9072,-20.6461 9.92961,-42.1007 18.05671,-64.3434 0,0 13.1823,-2.401 13.1823,-2.401 0,0 0,0 0,0"
       style="font-style:normal;font-weight:normal;font-size:129.5566864px;line-height:125%;font-family:sans-serif;letter-spacing:0px;word-spacing:0px;fill:#000000;fill-opacity:1;stroke:none;stroke-width:1px;stroke-linecap:butt;stroke-linejoin:miter;stroke-opacity:1"
       id="path4387"
       transform="translate(1971.1312,2583.2675)"
       inkscape:connector-curvature="0" />
    <path
       d="m 713.17478,-983.56124 c 0,0 -33.58604,-65.13496 -33.58604,-65.13496 0,0 30.89427,-5.8634 30.89427,-5.8634 0,0 18.94548,39.7086 18.94548,39.7086 0,0 18.28954,-46.7753 18.28954,-46.7753 0,0 30.33319,-5.7568 30.33319,-5.7568 0,0 -31.68244,76.9418 -31.68244,76.9418 0,0 34.63342,67.60395 34.63342,67.60395 0,0 -30.3199,6.35278 -30.3199,6.35278 0,0 -20.72782,-41.85078 -20.72782,-41.85078 0,0 -19.73794,50.32937 -19.73794,50.32937 0,0 -30.9078,6.47597 -30.9078,6.47597 0,0 33.86604,-82.03123 33.86604,-82.03123 0,0 0,0 0,0"
       style="font-style:normal;font-weight:bold;font-size:129.5566864px;line-height:125%;font-family:sans-serif;letter-spacing:0px;word-spacing:0px;fill:#000000;fill-opacity:1;stroke:none;stroke-width:1px;stroke-linecap:butt;stroke-linejoin:miter;stroke-opacity:1"
       id="path4389"
       transform="translate(1971.1312,2583.2675)"
       inkscape:connector-curvature="0" />
    <path
       d="m 794.54311,-1126.6097 c 0,0 12.67214,-2.3081 12.67214,-2.3081 8.08845,18.8034 14.16096,37.5132 18.22721,56.1448 4.11454,18.6026 6.26027,37.4417 6.44037,56.5323 0.18091,19.1771 -1.60137,38.88325 -5.35002,59.13484 -3.70035,20.26342 -9.39966,41.31519 -17.1076,63.17456 0,0 -12.67201,2.71543 -12.67201,2.71543 6.8428,-21.19451 11.8815,-41.84422 15.12379,-61.9655 3.29091,-20.19805 4.84185,-40.19891 4.65526,-60.01693 -0.18657,-19.8171 -2.10663,-39.0412 -5.76266,-57.6856 -3.60659,-18.6712 -9.01286,-37.2419 -16.22648,-55.7258 0,0 0,0 0,0"
       style="font-style:normal;font-weight:normal;font-size:129.5566864px;line-height:125%;font-family:sans-serif;letter-spacing:0px;word-spacing:0px;fill:#000000;fill-opacity:1;stroke:none;stroke-width:1px;stroke-linecap:butt;stroke-linejoin:miter;stroke-opacity:1"
       id="path4391"
       transform="translate(1971.1312,2583.2675)"
       inkscape:connector-curvature="0" />
    <text
       xml:space="preserve"
       style="font-style:normal;font-weight:normal;font-size:129.5566864px;line-height:125%;font-family:sans-serif;letter-spacing:0px;word-spacing:0px;opacity:1;fill:#000000;fill-opacity:1;stroke:none;stroke-width:1px;stroke-linecap:butt;stroke-linejoin:miter;stroke-opacity:1"
       x="2917.6833"
       y="1155.829"
       id="text6586"
       sodipodi:linespacing="125%"><tspan
         sodipodi:role="line"
         x="2917.6833"
         y="1155.829"
         id="tspan6588"><tspan
           x="2917.6833"
           y="1155.829"
           id="tspan6590">Sᴛᴜᴅᴇɴᴛ</tspan></tspan></text>
    <text
       xml:space="preserve"
       style="font-style:normal;font-weight:normal;font-size:129.5566864px;line-height:125%;font-family:sans-serif;letter-spacing:0px;word-spacing:0px;opacity:1;fill:#000000;fill-opacity:1;stroke:none;stroke-width:1px;stroke-linecap:butt;stroke-linejoin:miter;stroke-opacity:1"
       x="1909.0265"
       y="705.28857"
       id="text6592"
       sodipodi:linespacing="125%"><tspan
         sodipodi:role="line"
         x="1909.0265"
         y="705.28857"
         id="tspan6594"><tspan
           x="1909.0265"
           y="705.28857"
           id="tspan6596">Tᴇᴀᴄʜᴇʀ</tspan></tspan></text>
    <text
       xml:space="preserve"
       style="font-style:normal;font-weight:normal;font-size:129.5566864px;line-height:125%;font-family:sans-serif;letter-spacing:0px;word-spacing:0px;opacity:1;fill:#000000;fill-opacity:1;stroke:none;stroke-width:1px;stroke-linecap:butt;stroke-linejoin:miter;stroke-opacity:1"
       x="2970.7163"
       y="1690.5785"
       id="text6568"
       sodipodi:linespacing="125%"><tspan
         sodipodi:role="line"
         x="3793.0977"
         y="0"
         id="tspan6570"><tspan
           x="2970.7163"
           y="1690.5785"
           id="tspan6572">P(</tspan><tspan
           x="3099.5139"
           y="1690.5785"
           style="font-weight:bold"
           id="tspan6574">x</tspan><tspan
           x="3183.0171"
           y="1690.5785"
           id="tspan6576">) →</tspan><tspan
           x="3383.4253"
           y="1690.5785"
           id="tspan6578">	</tspan><tspan
           x="3450.7339"
           y="1690.5785"
           id="tspan6580">p(h|</tspan><tspan
           x="3709.5942"
           y="1690.5785"
           style="font-weight:bold"
           id="tspan6582">x</tspan><tspan
           x="3793.0977"
           y="1690.5785"
           id="tspan6584">)</tspan></tspan></text>
    <text
       xml:space="preserve"
       style="font-style:normal;font-weight:normal;font-size:129.5566864px;line-height:125%;font-family:sans-serif;letter-spacing:0px;word-spacing:0px;opacity:1;fill:#000000;fill-opacity:1;stroke:none;stroke-width:1px;stroke-linecap:butt;stroke-linejoin:miter;stroke-opacity:1"
       x="384.82095"
       y="2220.7246"
       id="text6598"
       sodipodi:linespacing="125%"><tspan
         sodipodi:role="line"
         x="2061.9602"
         y="0"
         id="tspan6600"><tspan
           x="384.82095"
           y="2220.7246"
           id="tspan6602">ℒ</tspan><tspan
           x="478.19287"
           y="2220.7246"
           style="font-size:64.99999762%;baseline-shift:sub"
           id="tspan6604">KL</tspan><tspan
           x="580.33264"
           y="2220.7246"
           id="tspan6606">(Q(</tspan><tspan
           x="783.52411"
           y="2220.7246"
           style="font-weight:bold"
           id="tspan6608">x</tspan><tspan
           x="867.0274"
           y="2220.7246"
           id="tspan6610">),P(</tspan><tspan
           x="1087.6786"
           y="2220.7246"
           style="font-weight:bold"
           id="tspan6612">x</tspan><tspan
           x="1171.182"
           y="2220.7246"
           id="tspan6614">)) + ℒ</tspan><tspan
           x="1556.8156"
           y="2220.7246"
           style="font-size:64.99999762%;baseline-shift:sub"
           id="tspan6616">CE</tspan><tspan
           x="1668.9883"
           y="2220.7246"
           id="tspan6618">(p(h|</tspan><tspan
           dx="0"
           x="1978.4568"
           y="2220.7246"
           style="font-weight:bold"
           id="tspan6620">x</tspan><tspan
           x="2061.9602"
           y="2220.7246"
           id="tspan6622">))</tspan></tspan></text>
  </g>
</svg>
