<?xml version="1.0" encoding="utf-8" standalone="no"?>
<!DOCTYPE svg PUBLIC "-//W3C//DTD SVG 1.1//EN"
  "http://www.w3.org/Graphics/SVG/1.1/DTD/svg11.dtd">
<!-- Created with matplotlib (http://matplotlib.org/) -->
<svg height="302.4pt" version="1.1" viewBox="0 0 864 302.4" width="864pt" xmlns="http://www.w3.org/2000/svg" xmlns:xlink="http://www.w3.org/1999/xlink">
 <defs>
  <style type="text/css">
*{stroke-linecap:butt;stroke-linejoin:round;}
  </style>
 </defs>
 <g id="figure_1">
  <g id="patch_1">
   <path d="M 0 302.4 
L 864 302.4 
L 864 0 
L 0 0 
z
" style="fill:none;"/>
  </g>
  <g id="axes_1">
   <g id="patch_2">
    <path d="M 90.72 246.456 
L 855.36 246.456 
L 855.36 6.048 
L 90.72 6.048 
z
" style="fill:none;"/>
   </g>
   <g id="matplotlib.axis_1">
    <g id="xtick_1">
     <g id="text_1">
      <!-- 1000 -->
      <defs>
       <path d="M 14.203125 0 
L 14.203125 5.171875 
L 26.90625 5.171875 
L 26.90625 65.828125 
L 12.203125 56.296875 
L 12.203125 62.703125 
L 29.984375 74.21875 
L 36.71875 74.21875 
L 36.71875 5.171875 
L 49.421875 5.171875 
L 49.421875 0 
z
" id="DejaVuSerif-31"/>
       <path d="M 31.78125 3.421875 
Q 39.265625 3.421875 42.96875 11.625 
Q 46.6875 19.828125 46.6875 36.375 
Q 46.6875 52.984375 42.96875 61.1875 
Q 39.265625 69.390625 31.78125 69.390625 
Q 24.3125 69.390625 20.59375 61.1875 
Q 16.890625 52.984375 16.890625 36.375 
Q 16.890625 19.828125 20.59375 11.625 
Q 24.3125 3.421875 31.78125 3.421875 
z
M 31.78125 -1.421875 
Q 19.921875 -1.421875 13.25 8.53125 
Q 6.59375 18.5 6.59375 36.375 
Q 6.59375 54.296875 13.25 64.25 
Q 19.921875 74.21875 31.78125 74.21875 
Q 43.703125 74.21875 50.34375 64.25 
Q 56.984375 54.296875 56.984375 36.375 
Q 56.984375 18.5 50.34375 8.53125 
Q 43.703125 -1.421875 31.78125 -1.421875 
z
" id="DejaVuSerif-30"/>
      </defs>
      <g style="fill:#262626;" transform="translate(153.044545 271.152875)scale(0.2 -0.2)">
       <use xlink:href="#DejaVuSerif-31"/>
       <use x="63.623047" xlink:href="#DejaVuSerif-30"/>
       <use x="127.246094" xlink:href="#DejaVuSerif-30"/>
       <use x="190.869141" xlink:href="#DejaVuSerif-30"/>
      </g>
     </g>
    </g>
    <g id="xtick_2">
     <g id="text_2">
      <!-- 3000 -->
      <defs>
       <path d="M 9.71875 69.828125 
Q 15.4375 71.96875 20.671875 73.09375 
Q 25.921875 74.21875 30.515625 74.21875 
Q 41.21875 74.21875 47.21875 69.59375 
Q 53.21875 64.984375 53.21875 56.78125 
Q 53.21875 50.203125 49.0625 45.78125 
Q 44.921875 41.359375 37.3125 39.796875 
Q 46.296875 38.53125 51.25 33.28125 
Q 56.203125 28.03125 56.203125 19.671875 
Q 56.203125 9.46875 49.34375 4.015625 
Q 42.484375 -1.421875 29.59375 -1.421875 
Q 23.875 -1.421875 18.421875 -0.1875 
Q 12.984375 1.03125 7.625 3.515625 
L 7.625 17.671875 
L 13.09375 17.671875 
Q 13.578125 10.640625 17.828125 7.03125 
Q 22.078125 3.421875 29.78125 3.421875 
Q 37.25 3.421875 41.578125 7.734375 
Q 45.90625 12.0625 45.90625 19.578125 
Q 45.90625 28.171875 41.453125 32.59375 
Q 37.015625 37.015625 28.421875 37.015625 
L 23.78125 37.015625 
L 23.78125 42 
L 26.21875 42 
Q 34.765625 42 39.03125 45.53125 
Q 43.3125 49.078125 43.3125 56.203125 
Q 43.3125 62.59375 39.796875 65.984375 
Q 36.28125 69.390625 29.6875 69.390625 
Q 23.09375 69.390625 19.453125 66.265625 
Q 15.828125 63.140625 15.1875 56.984375 
L 9.71875 56.984375 
z
" id="DejaVuSerif-33"/>
      </defs>
      <g style="fill:#262626;" transform="translate(300.317273 271.152875)scale(0.2 -0.2)">
       <use xlink:href="#DejaVuSerif-33"/>
       <use x="63.623047" xlink:href="#DejaVuSerif-30"/>
       <use x="127.246094" xlink:href="#DejaVuSerif-30"/>
       <use x="190.869141" xlink:href="#DejaVuSerif-30"/>
      </g>
     </g>
    </g>
    <g id="xtick_3">
     <g id="text_3">
      <!-- 6075 -->
      <defs>
       <path d="M 32.71875 3.421875 
Q 39.59375 3.421875 43.296875 8.46875 
Q 47.015625 13.53125 47.015625 23 
Q 47.015625 32.46875 43.296875 37.515625 
Q 39.59375 42.578125 32.71875 42.578125 
Q 25.734375 42.578125 22.0625 37.6875 
Q 18.40625 32.8125 18.40625 23.578125 
Q 18.40625 13.875 22.109375 8.640625 
Q 25.828125 3.421875 32.71875 3.421875 
z
M 16.796875 40.140625 
Q 20.125 43.796875 24.3125 45.59375 
Q 28.515625 47.40625 33.796875 47.40625 
Q 44.671875 47.40625 51 40.859375 
Q 57.328125 34.328125 57.328125 23 
Q 57.328125 11.921875 50.515625 5.25 
Q 43.703125 -1.421875 32.328125 -1.421875 
Q 19.96875 -1.421875 13.328125 7.78125 
Q 6.6875 17 6.6875 34.078125 
Q 6.6875 53.21875 14.546875 63.71875 
Q 22.40625 74.21875 36.71875 74.21875 
Q 40.578125 74.21875 44.828125 73.484375 
Q 49.078125 72.75 53.515625 71.296875 
L 53.515625 59.28125 
L 48 59.28125 
Q 47.40625 64.203125 44.234375 66.796875 
Q 41.0625 69.390625 35.6875 69.390625 
Q 26.21875 69.390625 21.578125 62.203125 
Q 16.9375 55.03125 16.796875 40.140625 
z
" id="DejaVuSerif-36"/>
       <path d="M 56.390625 67.921875 
L 27.875 0 
L 20.609375 0 
L 47.796875 64.890625 
L 14.109375 64.890625 
L 14.109375 55.90625 
L 8.40625 55.90625 
L 8.40625 72.90625 
L 56.390625 72.90625 
z
" id="DejaVuSerif-37"/>
       <path d="M 50.296875 72.90625 
L 50.296875 64.890625 
L 16.890625 64.890625 
L 16.890625 44 
Q 19.4375 45.75 22.828125 46.625 
Q 26.21875 47.515625 30.421875 47.515625 
Q 42.234375 47.515625 49.0625 40.96875 
Q 55.90625 34.421875 55.90625 23.09375 
Q 55.90625 11.53125 49 5.046875 
Q 42.09375 -1.421875 29.59375 -1.421875 
Q 24.5625 -1.421875 19.28125 -0.1875 
Q 14.015625 1.03125 8.5 3.515625 
L 8.5 17.671875 
L 14.015625 17.671875 
Q 14.453125 10.75 18.421875 7.078125 
Q 22.40625 3.421875 29.59375 3.421875 
Q 37.3125 3.421875 41.453125 8.5 
Q 45.609375 13.578125 45.609375 23.09375 
Q 45.609375 32.5625 41.484375 37.609375 
Q 37.359375 42.671875 29.59375 42.671875 
Q 25.203125 42.671875 21.84375 41.109375 
Q 18.5 39.546875 15.921875 36.28125 
L 11.71875 36.28125 
L 11.71875 72.90625 
z
" id="DejaVuSerif-35"/>
      </defs>
      <g style="fill:#262626;" transform="translate(447.59 271.152875)scale(0.2 -0.2)">
       <use xlink:href="#DejaVuSerif-36"/>
       <use x="63.623047" xlink:href="#DejaVuSerif-30"/>
       <use x="127.246094" xlink:href="#DejaVuSerif-37"/>
       <use x="190.869141" xlink:href="#DejaVuSerif-35"/>
      </g>
     </g>
    </g>
    <g id="xtick_4">
     <g id="text_4">
      <!-- 12217 -->
      <defs>
       <path d="M 12.796875 55.515625 
L 7.328125 55.515625 
L 7.328125 68.5 
Q 12.546875 71.296875 17.84375 72.75 
Q 23.140625 74.21875 28.21875 74.21875 
Q 39.59375 74.21875 46.1875 68.703125 
Q 52.78125 63.1875 52.78125 53.71875 
Q 52.78125 43.015625 37.84375 28.125 
Q 36.671875 27 36.078125 26.421875 
L 17.671875 8.015625 
L 48.09375 8.015625 
L 48.09375 17 
L 53.8125 17 
L 53.8125 0 
L 6.78125 0 
L 6.78125 5.328125 
L 28.90625 27.390625 
Q 36.234375 34.71875 39.359375 40.84375 
Q 42.484375 46.96875 42.484375 53.71875 
Q 42.484375 61.078125 38.640625 65.234375 
Q 34.8125 69.390625 28.078125 69.390625 
Q 21.09375 69.390625 17.28125 65.921875 
Q 13.484375 62.453125 12.796875 55.515625 
z
" id="DejaVuSerif-32"/>
      </defs>
      <g style="fill:#262626;" transform="translate(588.500227 271.152875)scale(0.2 -0.2)">
       <use xlink:href="#DejaVuSerif-31"/>
       <use x="63.623047" xlink:href="#DejaVuSerif-32"/>
       <use x="127.246094" xlink:href="#DejaVuSerif-32"/>
       <use x="190.869141" xlink:href="#DejaVuSerif-31"/>
       <use x="254.492188" xlink:href="#DejaVuSerif-37"/>
      </g>
     </g>
    </g>
    <g id="xtick_5">
     <g id="text_5">
      <!-- 18051 -->
      <defs>
       <path d="M 46.578125 19.921875 
Q 46.578125 27.734375 42.6875 32.046875 
Q 38.8125 36.375 31.78125 36.375 
Q 24.75 36.375 20.875 32.046875 
Q 17 27.734375 17 19.921875 
Q 17 12.0625 20.875 7.734375 
Q 24.75 3.421875 31.78125 3.421875 
Q 38.8125 3.421875 42.6875 7.734375 
Q 46.578125 12.0625 46.578125 19.921875 
z
M 44.578125 55.328125 
Q 44.578125 61.96875 41.203125 65.671875 
Q 37.84375 69.390625 31.78125 69.390625 
Q 25.78125 69.390625 22.390625 65.671875 
Q 19 61.96875 19 55.328125 
Q 19 48.640625 22.390625 44.921875 
Q 25.78125 41.21875 31.78125 41.21875 
Q 37.84375 41.21875 41.203125 44.921875 
Q 44.578125 48.640625 44.578125 55.328125 
z
M 39.3125 38.8125 
Q 47.609375 37.703125 52.25 32.6875 
Q 56.890625 27.6875 56.890625 19.921875 
Q 56.890625 9.671875 50.390625 4.125 
Q 43.890625 -1.421875 31.78125 -1.421875 
Q 19.734375 -1.421875 13.203125 4.125 
Q 6.6875 9.671875 6.6875 19.921875 
Q 6.6875 27.6875 11.328125 32.6875 
Q 15.96875 37.703125 24.3125 38.8125 
Q 16.9375 40.140625 13 44.40625 
Q 9.078125 48.6875 9.078125 55.328125 
Q 9.078125 64.109375 15.125 69.15625 
Q 21.1875 74.21875 31.78125 74.21875 
Q 42.390625 74.21875 48.4375 69.15625 
Q 54.5 64.109375 54.5 55.328125 
Q 54.5 48.6875 50.5625 44.40625 
Q 46.625 40.140625 39.3125 38.8125 
z
" id="DejaVuSerif-38"/>
      </defs>
      <g style="fill:#262626;" transform="translate(735.772955 271.152875)scale(0.2 -0.2)">
       <use xlink:href="#DejaVuSerif-31"/>
       <use x="63.623047" xlink:href="#DejaVuSerif-38"/>
       <use x="127.246094" xlink:href="#DejaVuSerif-30"/>
       <use x="190.869141" xlink:href="#DejaVuSerif-35"/>
       <use x="254.492188" xlink:href="#DejaVuSerif-31"/>
      </g>
     </g>
    </g>
    <g id="text_6">
     <!-- Number of Trees -->
     <defs>
      <path d="M 4.890625 0 
L 4.890625 5.171875 
L 14.703125 5.171875 
L 14.703125 67.671875 
L 4.890625 67.671875 
L 4.890625 72.90625 
L 23.578125 72.90625 
L 67.28125 15.375 
L 67.28125 67.671875 
L 57.515625 67.671875 
L 57.515625 72.90625 
L 83.109375 72.90625 
L 83.109375 67.671875 
L 73.296875 67.671875 
L 73.296875 -1.421875 
L 67.390625 -1.421875 
L 20.703125 60.015625 
L 20.703125 5.171875 
L 30.515625 5.171875 
L 30.515625 0 
z
" id="DejaVuSerif-4e"/>
      <path d="M 35.40625 51.90625 
L 52.203125 51.90625 
L 52.203125 5.171875 
L 60.6875 5.171875 
L 60.6875 0 
L 43.21875 0 
L 43.21875 9.1875 
Q 40.71875 4 36.765625 1.28125 
Q 32.8125 -1.421875 27.59375 -1.421875 
Q 18.953125 -1.421875 14.875 3.484375 
Q 10.796875 8.40625 10.796875 18.890625 
L 10.796875 46.6875 
L 2.6875 46.6875 
L 2.6875 51.90625 
L 19.828125 51.90625 
L 19.828125 21.6875 
Q 19.828125 12.203125 22.140625 8.6875 
Q 24.46875 5.171875 30.421875 5.171875 
Q 36.671875 5.171875 39.9375 9.765625 
Q 43.21875 14.359375 43.21875 23.09375 
L 43.21875 46.6875 
L 35.40625 46.6875 
z
" id="DejaVuSerif-75"/>
      <path d="M 51.8125 41.796875 
Q 54.390625 47.515625 58.421875 50.421875 
Q 62.453125 53.328125 67.828125 53.328125 
Q 75.984375 53.328125 79.984375 48.265625 
Q 83.984375 43.21875 83.984375 33.015625 
L 83.984375 5.171875 
L 92.09375 5.171875 
L 92.09375 0 
L 67.1875 0 
L 67.1875 5.171875 
L 75 5.171875 
L 75 31.984375 
Q 75 39.9375 72.65625 43.3125 
Q 70.3125 46.6875 64.890625 46.6875 
Q 58.890625 46.6875 55.734375 42.140625 
Q 52.59375 37.59375 52.59375 28.90625 
L 52.59375 5.171875 
L 60.40625 5.171875 
L 60.40625 0 
L 35.796875 0 
L 35.796875 5.171875 
L 43.609375 5.171875 
L 43.609375 32.328125 
Q 43.609375 40.09375 41.265625 43.390625 
Q 38.921875 46.6875 33.5 46.6875 
Q 27.484375 46.6875 24.328125 42.140625 
Q 21.1875 37.59375 21.1875 28.90625 
L 21.1875 5.171875 
L 29 5.171875 
L 29 0 
L 4.109375 0 
L 4.109375 5.171875 
L 12.203125 5.171875 
L 12.203125 46.78125 
L 3.609375 46.78125 
L 3.609375 51.90625 
L 21.1875 51.90625 
L 21.1875 42.671875 
Q 23.6875 47.859375 27.53125 50.59375 
Q 31.390625 53.328125 36.28125 53.328125 
Q 42.328125 53.328125 46.375 50.3125 
Q 50.4375 47.3125 51.8125 41.796875 
z
" id="DejaVuSerif-6d"/>
      <path d="M 11.53125 5.171875 
L 11.53125 70.796875 
L 2.875 70.796875 
L 2.875 75.984375 
L 20.515625 75.984375 
L 20.515625 43.796875 
Q 23.140625 48.6875 27.21875 51 
Q 31.296875 53.328125 37.3125 53.328125 
Q 46.875 53.328125 52.921875 45.75 
Q 58.984375 38.1875 58.984375 25.984375 
Q 58.984375 13.765625 52.921875 6.171875 
Q 46.875 -1.421875 37.3125 -1.421875 
Q 31.296875 -1.421875 27.21875 0.890625 
Q 23.140625 3.21875 20.515625 8.109375 
L 20.515625 0 
L 2.875 0 
L 2.875 5.171875 
z
M 20.515625 23.390625 
Q 20.515625 14.015625 24.09375 9.109375 
Q 27.6875 4.203125 34.515625 4.203125 
Q 41.40625 4.203125 44.9375 9.71875 
Q 48.484375 15.234375 48.484375 25.984375 
Q 48.484375 36.765625 44.9375 42.234375 
Q 41.40625 47.703125 34.515625 47.703125 
Q 27.6875 47.703125 24.09375 42.765625 
Q 20.515625 37.84375 20.515625 28.515625 
z
" id="DejaVuSerif-62"/>
      <path d="M 54.203125 25 
L 15.484375 25 
L 15.484375 24.609375 
Q 15.484375 14.109375 19.4375 8.765625 
Q 23.390625 3.421875 31.109375 3.421875 
Q 37.015625 3.421875 40.796875 6.515625 
Q 44.578125 9.625 46.09375 15.71875 
L 53.328125 15.71875 
Q 51.171875 7.171875 45.375 2.875 
Q 39.59375 -1.421875 30.171875 -1.421875 
Q 18.796875 -1.421875 11.890625 6.078125 
Q 4.984375 13.578125 4.984375 25.984375 
Q 4.984375 38.28125 11.765625 45.796875 
Q 18.5625 53.328125 29.59375 53.328125 
Q 41.359375 53.328125 47.65625 46.0625 
Q 53.953125 38.8125 54.203125 25 
z
M 43.609375 30.171875 
Q 43.3125 39.265625 39.765625 43.875 
Q 36.234375 48.484375 29.59375 48.484375 
Q 23.390625 48.484375 19.828125 43.84375 
Q 16.265625 39.203125 15.484375 30.171875 
z
" id="DejaVuSerif-65"/>
      <path d="M 47.796875 52 
L 47.796875 39.015625 
L 42.625 39.015625 
Q 42.390625 42.875 40.484375 44.78125 
Q 38.578125 46.6875 34.90625 46.6875 
Q 28.265625 46.6875 24.71875 42.09375 
Q 21.1875 37.5 21.1875 28.90625 
L 21.1875 5.171875 
L 31.59375 5.171875 
L 31.59375 0 
L 4.109375 0 
L 4.109375 5.171875 
L 12.203125 5.171875 
L 12.203125 46.78125 
L 3.609375 46.78125 
L 3.609375 51.90625 
L 21.1875 51.90625 
L 21.1875 42.671875 
Q 23.828125 48.09375 27.96875 50.703125 
Q 32.125 53.328125 38.09375 53.328125 
Q 40.28125 53.328125 42.703125 52.984375 
Q 45.125 52.640625 47.796875 52 
z
" id="DejaVuSerif-72"/>
      <path id="DejaVuSerif-20"/>
      <path d="M 30.078125 3.421875 
Q 37.3125 3.421875 40.984375 9.125 
Q 44.671875 14.84375 44.671875 25.984375 
Q 44.671875 37.109375 40.984375 42.796875 
Q 37.3125 48.484375 30.078125 48.484375 
Q 22.859375 48.484375 19.171875 42.796875 
Q 15.484375 37.109375 15.484375 25.984375 
Q 15.484375 14.84375 19.1875 9.125 
Q 22.90625 3.421875 30.078125 3.421875 
z
M 30.078125 -1.421875 
Q 18.75 -1.421875 11.859375 6.078125 
Q 4.984375 13.578125 4.984375 25.984375 
Q 4.984375 38.375 11.84375 45.84375 
Q 18.703125 53.328125 30.078125 53.328125 
Q 41.453125 53.328125 48.3125 45.84375 
Q 55.171875 38.375 55.171875 25.984375 
Q 55.171875 13.578125 48.3125 6.078125 
Q 41.453125 -1.421875 30.078125 -1.421875 
z
" id="DejaVuSerif-6f"/>
      <path d="M 43.015625 63.71875 
L 38.28125 63.71875 
Q 38.234375 67.390625 36.203125 69.28125 
Q 34.1875 71.1875 30.328125 71.1875 
Q 25.296875 71.1875 23.234375 68.421875 
Q 21.1875 65.671875 21.1875 58.59375 
L 21.1875 51.90625 
L 35.6875 51.90625 
L 35.6875 46.6875 
L 21.1875 46.6875 
L 21.1875 5.171875 
L 32.71875 5.171875 
L 32.71875 0 
L 3.609375 0 
L 3.609375 5.171875 
L 12.203125 5.171875 
L 12.203125 46.6875 
L 3.609375 46.6875 
L 3.609375 51.90625 
L 12.203125 51.90625 
L 12.203125 58.40625 
Q 12.203125 67.09375 16.71875 71.53125 
Q 21.234375 75.984375 29.984375 75.984375 
Q 33.25 75.984375 36.515625 75.390625 
Q 39.796875 74.8125 43.015625 73.578125 
z
" id="DejaVuSerif-66"/>
      <path d="M 19.09375 0 
L 19.09375 5.171875 
L 28.421875 5.171875 
L 28.421875 67.09375 
L 6.984375 67.09375 
L 6.984375 55.71875 
L 0.984375 55.71875 
L 0.984375 72.90625 
L 65.71875 72.90625 
L 65.71875 55.71875 
L 59.71875 55.71875 
L 59.71875 67.09375 
L 38.28125 67.09375 
L 38.28125 5.171875 
L 47.609375 5.171875 
L 47.609375 0 
z
" id="DejaVuSerif-54"/>
      <path d="M 5.609375 2.875 
L 5.609375 14.984375 
L 10.796875 14.984375 
Q 10.984375 9.1875 14.421875 6.296875 
Q 17.875 3.421875 24.609375 3.421875 
Q 30.671875 3.421875 33.84375 5.6875 
Q 37.015625 7.953125 37.015625 12.3125 
Q 37.015625 15.71875 34.6875 17.8125 
Q 32.375 19.921875 24.90625 22.3125 
L 18.40625 24.515625 
Q 11.71875 26.65625 8.71875 29.875 
Q 5.71875 33.109375 5.71875 38.09375 
Q 5.71875 45.21875 10.9375 49.265625 
Q 16.15625 53.328125 25.390625 53.328125 
Q 29.5 53.328125 34.03125 52.25 
Q 38.578125 51.171875 43.40625 49.125 
L 43.40625 37.796875 
L 38.234375 37.796875 
Q 38.03125 42.828125 34.703125 45.65625 
Q 31.390625 48.484375 25.6875 48.484375 
Q 20.015625 48.484375 17.109375 46.484375 
Q 14.203125 44.484375 14.203125 40.484375 
Q 14.203125 37.203125 16.40625 35.21875 
Q 18.609375 33.25 25.203125 31.203125 
L 32.328125 29 
Q 39.703125 26.703125 42.9375 23.265625 
Q 46.1875 19.828125 46.1875 14.40625 
Q 46.1875 7.03125 40.546875 2.796875 
Q 34.90625 -1.421875 25 -1.421875 
Q 19.96875 -1.421875 15.1875 -0.34375 
Q 10.40625 0.734375 5.609375 2.875 
z
" id="DejaVuSerif-73"/>
     </defs>
     <g style="fill:#262626;" transform="translate(369.515625 297.5485)scale(0.24 -0.24)">
      <use xlink:href="#DejaVuSerif-4e"/>
      <use x="87.5" xlink:href="#DejaVuSerif-75"/>
      <use x="151.904297" xlink:href="#DejaVuSerif-6d"/>
      <use x="246.728516" xlink:href="#DejaVuSerif-62"/>
      <use x="310.742188" xlink:href="#DejaVuSerif-65"/>
      <use x="369.921875" xlink:href="#DejaVuSerif-72"/>
      <use x="417.724609" xlink:href="#DejaVuSerif-20"/>
      <use x="449.511719" xlink:href="#DejaVuSerif-6f"/>
      <use x="509.716797" xlink:href="#DejaVuSerif-66"/>
      <use x="546.728516" xlink:href="#DejaVuSerif-20"/>
      <use x="578.515625" xlink:href="#DejaVuSerif-54"/>
      <use x="645.214844" xlink:href="#DejaVuSerif-72"/>
      <use x="693.017578" xlink:href="#DejaVuSerif-65"/>
      <use x="752.197266" xlink:href="#DejaVuSerif-65"/>
      <use x="811.376953" xlink:href="#DejaVuSerif-73"/>
     </g>
    </g>
   </g>
   <g id="matplotlib.axis_2">
    <g id="ytick_1">
     <g id="line2d_1">
      <defs>
       <path d="M 0 0 
L -6 0 
" id="m078b2b5ba3" style="stroke:#262626;stroke-width:1.25;"/>
      </defs>
      <g>
       <use style="fill:#262626;stroke:#262626;stroke-width:1.25;" x="90.72" xlink:href="#m078b2b5ba3" y="246.456"/>
      </g>
     </g>
     <g id="text_7">
      <!-- 0 -->
      <g style="fill:#262626;" transform="translate(68.495 254.054438)scale(0.2 -0.2)">
       <use xlink:href="#DejaVuSerif-30"/>
      </g>
     </g>
    </g>
    <g id="ytick_2">
     <g id="line2d_2">
      <g>
       <use style="fill:#262626;stroke:#262626;stroke-width:1.25;" x="90.72" xlink:href="#m078b2b5ba3" y="196.640022"/>
      </g>
     </g>
     <g id="text_8">
      <!-- 250 -->
      <g style="fill:#262626;" transform="translate(43.045 204.23846)scale(0.2 -0.2)">
       <use xlink:href="#DejaVuSerif-32"/>
       <use x="63.623047" xlink:href="#DejaVuSerif-35"/>
       <use x="127.246094" xlink:href="#DejaVuSerif-30"/>
      </g>
     </g>
    </g>
    <g id="ytick_3">
     <g id="line2d_3">
      <g>
       <use style="fill:#262626;stroke:#262626;stroke-width:1.25;" x="90.72" xlink:href="#m078b2b5ba3" y="146.824044"/>
      </g>
     </g>
     <g id="text_9">
      <!-- 500 -->
      <g style="fill:#262626;" transform="translate(43.045 154.422482)scale(0.2 -0.2)">
       <use xlink:href="#DejaVuSerif-35"/>
       <use x="63.623047" xlink:href="#DejaVuSerif-30"/>
       <use x="127.246094" xlink:href="#DejaVuSerif-30"/>
      </g>
     </g>
    </g>
    <g id="ytick_4">
     <g id="line2d_4">
      <g>
       <use style="fill:#262626;stroke:#262626;stroke-width:1.25;" x="90.72" xlink:href="#m078b2b5ba3" y="97.008067"/>
      </g>
     </g>
     <g id="text_10">
      <!-- 750 -->
      <g style="fill:#262626;" transform="translate(43.045 104.606504)scale(0.2 -0.2)">
       <use xlink:href="#DejaVuSerif-37"/>
       <use x="63.623047" xlink:href="#DejaVuSerif-35"/>
       <use x="127.246094" xlink:href="#DejaVuSerif-30"/>
      </g>
     </g>
    </g>
    <g id="ytick_5">
     <g id="line2d_5">
      <g>
       <use style="fill:#262626;stroke:#262626;stroke-width:1.25;" x="90.72" xlink:href="#m078b2b5ba3" y="47.192089"/>
      </g>
     </g>
     <g id="text_11">
      <!-- 1000 -->
      <g style="fill:#262626;" transform="translate(30.32 54.790526)scale(0.2 -0.2)">
       <use xlink:href="#DejaVuSerif-31"/>
       <use x="63.623047" xlink:href="#DejaVuSerif-30"/>
       <use x="127.246094" xlink:href="#DejaVuSerif-30"/>
       <use x="190.869141" xlink:href="#DejaVuSerif-30"/>
      </g>
     </g>
    </g>
    <g id="text_12">
     <!-- Energy (kJ) -->
     <defs>
      <path d="M 5.515625 0 
L 5.515625 5.171875 
L 14.796875 5.171875 
L 14.796875 67.671875 
L 5.515625 67.671875 
L 5.515625 72.90625 
L 64.203125 72.90625 
L 64.203125 56.6875 
L 58.203125 56.6875 
L 58.203125 66.890625 
L 24.703125 66.890625 
L 24.703125 42.484375 
L 48.578125 42.484375 
L 48.578125 51.609375 
L 54.59375 51.609375 
L 54.59375 27.390625 
L 48.578125 27.390625 
L 48.578125 36.53125 
L 24.703125 36.53125 
L 24.703125 6 
L 58.984375 6 
L 58.984375 16.21875 
L 64.984375 16.21875 
L 64.984375 0 
z
" id="DejaVuSerif-45"/>
      <path d="M 4.109375 0 
L 4.109375 5.171875 
L 12.203125 5.171875 
L 12.203125 46.6875 
L 3.609375 46.6875 
L 3.609375 51.90625 
L 21.1875 51.90625 
L 21.1875 42.671875 
Q 23.6875 47.953125 27.65625 50.640625 
Q 31.640625 53.328125 36.921875 53.328125 
Q 45.515625 53.328125 49.5625 48.390625 
Q 53.609375 43.453125 53.609375 33.015625 
L 53.609375 5.171875 
L 61.625 5.171875 
L 61.625 0 
L 36.8125 0 
L 36.8125 5.171875 
L 44.578125 5.171875 
L 44.578125 30.171875 
Q 44.578125 39.703125 42.234375 43.234375 
Q 39.890625 46.78125 33.984375 46.78125 
Q 27.734375 46.78125 24.453125 42.203125 
Q 21.1875 37.640625 21.1875 28.90625 
L 21.1875 5.171875 
L 29 5.171875 
L 29 0 
z
" id="DejaVuSerif-6e"/>
      <path d="M 52.484375 46.6875 
L 52.484375 1.125 
Q 52.484375 -10.0625 46.328125 -16.140625 
Q 40.1875 -22.21875 28.8125 -22.21875 
Q 23.6875 -22.21875 19 -21.28125 
Q 14.3125 -20.359375 10.015625 -18.5 
L 10.015625 -7.625 
L 14.703125 -7.625 
Q 15.578125 -12.703125 18.84375 -15.046875 
Q 22.125 -17.390625 28.21875 -17.390625 
Q 36.140625 -17.390625 39.8125 -12.921875 
Q 43.5 -8.453125 43.5 1.125 
L 43.5 8.109375 
Q 40.875 3.21875 36.796875 0.890625 
Q 32.71875 -1.421875 26.703125 -1.421875 
Q 17.140625 -1.421875 11.0625 6.171875 
Q 4.984375 13.765625 4.984375 25.984375 
Q 4.984375 38.1875 11.03125 45.75 
Q 17.09375 53.328125 26.703125 53.328125 
Q 32.71875 53.328125 36.796875 51 
Q 40.875 48.6875 43.5 43.796875 
L 43.5 51.90625 
L 61.078125 51.90625 
L 61.078125 46.6875 
z
M 43.5 28.515625 
Q 43.5 37.84375 39.90625 42.765625 
Q 36.328125 47.703125 29.5 47.703125 
Q 22.5625 47.703125 19.015625 42.234375 
Q 15.484375 36.765625 15.484375 25.984375 
Q 15.484375 15.234375 19.015625 9.71875 
Q 22.5625 4.203125 29.5 4.203125 
Q 36.328125 4.203125 39.90625 9.109375 
Q 43.5 14.015625 43.5 23.390625 
z
" id="DejaVuSerif-67"/>
      <path d="M 21.578125 -9.515625 
L 25 -0.875 
L 5.609375 46.6875 
L -0.296875 46.6875 
L -0.296875 51.90625 
L 23.578125 51.90625 
L 23.578125 46.6875 
L 15.28125 46.6875 
L 29.890625 10.984375 
L 44.484375 46.6875 
L 36.71875 46.6875 
L 36.71875 51.90625 
L 56.203125 51.90625 
L 56.203125 46.6875 
L 50.390625 46.6875 
L 26.609375 -11.71875 
Q 24.171875 -17.78125 21.1875 -20 
Q 18.21875 -22.21875 12.796875 -22.21875 
Q 10.5 -22.21875 8.078125 -21.828125 
Q 5.671875 -21.4375 3.21875 -20.703125 
L 3.21875 -10.796875 
L 7.8125 -10.796875 
Q 8.109375 -14.109375 9.5 -15.546875 
Q 10.890625 -17 13.8125 -17 
Q 16.5 -17 18.140625 -15.5 
Q 19.78125 -14.015625 21.578125 -9.515625 
z
" id="DejaVuSerif-79"/>
      <path d="M 31.890625 -15.578125 
Q 20.015625 -10.25 13.953125 1.296875 
Q 7.90625 12.84375 7.90625 30.171875 
Q 7.90625 47.5625 13.953125 59.109375 
Q 20.015625 70.65625 31.890625 75.984375 
L 31.890625 71.1875 
Q 24.359375 66.015625 21.09375 56.609375 
Q 17.828125 47.21875 17.828125 30.171875 
Q 17.828125 13.1875 21.09375 3.78125 
Q 24.359375 -5.609375 31.890625 -10.796875 
z
" id="DejaVuSerif-28"/>
      <path d="M 28.609375 0 
L 3.421875 0 
L 3.421875 5.171875 
L 11.53125 5.171875 
L 11.53125 70.796875 
L 2.875 70.796875 
L 2.875 75.984375 
L 20.515625 75.984375 
L 20.515625 26.515625 
L 42.390625 46.6875 
L 34.90625 46.6875 
L 34.90625 51.90625 
L 58.40625 51.90625 
L 58.40625 46.6875 
L 49.515625 46.6875 
L 34.078125 32.421875 
L 53.8125 5.171875 
L 61.28125 5.171875 
L 61.28125 0 
L 35.6875 0 
L 35.6875 5.171875 
L 43.109375 5.171875 
L 27.59375 26.515625 
L 20.515625 19.921875 
L 20.515625 5.171875 
L 28.609375 5.171875 
z
" id="DejaVuSerif-6b"/>
      <path d="M -8.40625 -17.484375 
L -8.40625 -6 
L -2.828125 -6 
Q -2.6875 -10.84375 -0.53125 -13.203125 
Q 1.609375 -15.578125 5.90625 -15.578125 
Q 11.71875 -15.578125 14.015625 -11.90625 
Q 16.3125 -8.25 16.3125 2.390625 
L 16.3125 67.671875 
L 4.984375 67.671875 
L 4.984375 72.90625 
L 35.5 72.90625 
L 35.5 67.671875 
L 26.21875 67.671875 
L 26.21875 2 
Q 26.21875 -10.0625 21.375 -15.421875 
Q 16.546875 -20.796875 5.8125 -20.796875 
Q 2.34375 -20.796875 -1.234375 -19.96875 
Q -4.828125 -19.140625 -8.40625 -17.484375 
z
" id="DejaVuSerif-4a"/>
      <path d="M 7.078125 -15.578125 
L 7.078125 -10.796875 
Q 14.59375 -5.609375 17.890625 3.78125 
Q 21.1875 13.1875 21.1875 30.171875 
Q 21.1875 47.21875 17.890625 56.609375 
Q 14.59375 66.015625 7.078125 71.1875 
L 7.078125 75.984375 
Q 19 70.65625 25.046875 59.109375 
Q 31.109375 47.5625 31.109375 30.171875 
Q 31.109375 12.84375 25.046875 1.296875 
Q 19 -10.25 7.078125 -15.578125 
z
" id="DejaVuSerif-29"/>
     </defs>
     <g style="fill:#262626;" transform="translate(20.9875 195.30075)rotate(-90)scale(0.24 -0.24)">
      <use xlink:href="#DejaVuSerif-45"/>
      <use x="72.998047" xlink:href="#DejaVuSerif-6e"/>
      <use x="137.402344" xlink:href="#DejaVuSerif-65"/>
      <use x="196.582031" xlink:href="#DejaVuSerif-72"/>
      <use x="244.384766" xlink:href="#DejaVuSerif-67"/>
      <use x="308.398438" xlink:href="#DejaVuSerif-79"/>
      <use x="364.892578" xlink:href="#DejaVuSerif-20"/>
      <use x="396.679688" xlink:href="#DejaVuSerif-28"/>
      <use x="435.693359" xlink:href="#DejaVuSerif-6b"/>
      <use x="496.289062" xlink:href="#DejaVuSerif-4a"/>
      <use x="536.376953" xlink:href="#DejaVuSerif-29"/>
     </g>
    </g>
   </g>
   <g id="patch_3">
    <path clip-path="url(#p7728373abf)" d="M 125.476364 246.456 
L 160.821818 246.456 
L 160.821818 236.677273 
L 125.476364 236.677273 
z
" style="fill:#580128;opacity:0.8;stroke:#ffffff;stroke-linejoin:miter;"/>
   </g>
   <g id="patch_4">
    <path clip-path="url(#p7728373abf)" d="M 272.749091 246.456 
L 308.094545 246.456 
L 308.094545 226.33717 
L 272.749091 226.33717 
z
" style="fill:#580128;opacity:0.8;stroke:#ffffff;stroke-linejoin:miter;"/>
   </g>
   <g id="patch_5">
    <path clip-path="url(#p7728373abf)" d="M 420.021818 246.456 
L 455.367273 246.456 
L 455.367273 211.973949 
L 420.021818 211.973949 
z
" style="fill:#580128;opacity:0.8;stroke:#ffffff;stroke-linejoin:miter;"/>
   </g>
   <g id="patch_6">
    <path clip-path="url(#p7728373abf)" d="M 567.294545 246.456 
L 602.64 246.456 
L 602.64 195.215564 
L 567.294545 195.215564 
z
" style="fill:#580128;opacity:0.8;stroke:#ffffff;stroke-linejoin:miter;"/>
   </g>
   <g id="patch_7">
    <path clip-path="url(#p7728373abf)" d="M 714.567273 246.456 
L 749.912727 246.456 
L 749.912727 191.414924 
L 714.567273 191.414924 
z
" style="fill:#580128;opacity:0.8;stroke:#ffffff;stroke-linejoin:miter;"/>
   </g>
   <g id="patch_8">
    <path clip-path="url(#p7728373abf)" d="M 160.821818 246.456 
L 196.167273 246.456 
L 196.167273 224.137421 
L 160.821818 224.137421 
z
" style="fill:#c20d33;opacity:0.8;stroke:#ffffff;stroke-linejoin:miter;"/>
   </g>
   <g id="patch_9">
    <path clip-path="url(#p7728373abf)" d="M 308.094545 246.456 
L 343.44 246.456 
L 343.44 189.909111 
L 308.094545 189.909111 
z
" style="fill:#c20d33;opacity:0.8;stroke:#ffffff;stroke-linejoin:miter;"/>
   </g>
   <g id="patch_10">
    <path clip-path="url(#p7728373abf)" d="M 455.367273 246.456 
L 490.712727 246.456 
L 490.712727 151.878857 
L 455.367273 151.878857 
z
" style="fill:#c20d33;opacity:0.8;stroke:#ffffff;stroke-linejoin:miter;"/>
   </g>
   <g id="patch_11">
    <path clip-path="url(#p7728373abf)" d="M 602.64 246.456 
L 637.985455 246.456 
L 637.985455 111.913565 
L 602.64 111.913565 
z
" style="fill:#c20d33;opacity:0.8;stroke:#ffffff;stroke-linejoin:miter;"/>
   </g>
   <g id="patch_12">
    <path clip-path="url(#p7728373abf)" d="M 749.912727 246.456 
L 785.258182 246.456 
L 785.258182 56.385993 
L 749.912727 56.385993 
z
" style="fill:#c20d33;opacity:0.8;stroke:#ffffff;stroke-linejoin:miter;"/>
   </g>
   <g id="patch_13">
    <path clip-path="url(#p7728373abf)" d="M 196.167273 246.456 
L 231.512727 246.456 
L 231.512727 225.451491 
L 196.167273 225.451491 
z
" style="fill:#b96d5b;opacity:0.8;stroke:#ffffff;stroke-linejoin:miter;"/>
   </g>
   <g id="patch_14">
    <path clip-path="url(#p7728373abf)" d="M 343.44 246.456 
L 378.785455 246.456 
L 378.785455 193.332988 
L 343.44 193.332988 
z
" style="fill:#b96d5b;opacity:0.8;stroke:#ffffff;stroke-linejoin:miter;"/>
   </g>
   <g id="patch_15">
    <path clip-path="url(#p7728373abf)" d="M 490.712727 246.456 
L 526.058182 246.456 
L 526.058182 158.424506 
L 490.712727 158.424506 
z
" style="fill:#b96d5b;opacity:0.8;stroke:#ffffff;stroke-linejoin:miter;"/>
   </g>
   <g id="patch_16">
    <path clip-path="url(#p7728373abf)" d="M 637.985455 246.456 
L 673.330909 246.456 
L 673.330909 119.527599 
L 637.985455 119.527599 
z
" style="fill:#b96d5b;opacity:0.8;stroke:#ffffff;stroke-linejoin:miter;"/>
   </g>
   <g id="patch_17">
    <path clip-path="url(#p7728373abf)" d="M 785.258182 246.456 
L 820.603636 246.456 
L 820.603636 68.450094 
L 785.258182 68.450094 
z
" style="fill:#b96d5b;opacity:0.8;stroke:#ffffff;stroke-linejoin:miter;"/>
   </g>
   <g id="LineCollection_1">
    <path clip-path="url(#p7728373abf)" d="M 143.149091 241.279839 
L 143.149091 232.074707 
" style="fill:none;stroke:#1a1a1a;stroke-width:1.75;"/>
    <path clip-path="url(#p7728373abf)" d="M 290.421818 236.273973 
L 290.421818 216.400366 
" style="fill:none;stroke:#1a1a1a;stroke-width:1.75;"/>
    <path clip-path="url(#p7728373abf)" d="M 437.694545 231.051168 
L 437.694545 192.896731 
" style="fill:none;stroke:#1a1a1a;stroke-width:1.75;"/>
    <path clip-path="url(#p7728373abf)" d="M 584.967273 206.50433 
L 584.967273 183.926798 
" style="fill:none;stroke:#1a1a1a;stroke-width:1.75;"/>
    <path clip-path="url(#p7728373abf)" d="M 732.24 230.708809 
L 732.24 152.121039 
" style="fill:none;stroke:#1a1a1a;stroke-width:1.75;"/>
   </g>
   <g id="LineCollection_2">
    <path clip-path="url(#p7728373abf)" d="M 178.494545 236.554699 
L 178.494545 211.720142 
" style="fill:none;stroke:#1a1a1a;stroke-width:1.75;"/>
    <path clip-path="url(#p7728373abf)" d="M 325.767273 227.05161 
L 325.767273 152.766613 
" style="fill:none;stroke:#1a1a1a;stroke-width:1.75;"/>
    <path clip-path="url(#p7728373abf)" d="M 473.04 216.765345 
L 473.04 86.99237 
" style="fill:none;stroke:#1a1a1a;stroke-width:1.75;"/>
    <path clip-path="url(#p7728373abf)" d="M 620.312727 137.302106 
L 620.312727 86.525024 
" style="fill:none;stroke:#1a1a1a;stroke-width:1.75;"/>
    <path clip-path="url(#p7728373abf)" d="M 767.585455 95.275985 
L 767.585455 17.496 
" style="fill:none;stroke:#1a1a1a;stroke-width:1.75;"/>
   </g>
   <g id="LineCollection_3">
    <path clip-path="url(#p7728373abf)" d="M 213.84 237.085342 
L 213.84 213.817641 
" style="fill:none;stroke:#1a1a1a;stroke-width:1.5;"/>
    <path clip-path="url(#p7728373abf)" d="M 361.112727 228.157526 
L 361.112727 158.508451 
" style="fill:none;stroke:#1a1a1a;stroke-width:1.5;"/>
    <path clip-path="url(#p7728373abf)" d="M 508.385455 218.218604 
L 508.385455 98.630409 
" style="fill:none;stroke:#1a1a1a;stroke-width:1.5;"/>
    <path clip-path="url(#p7728373abf)" d="M 655.658182 143.567844 
L 655.658182 95.487353 
" style="fill:none;stroke:#1a1a1a;stroke-width:1.5;"/>
    <path clip-path="url(#p7728373abf)" d="M 802.930909 107.553487 
L 802.930909 29.346701 
" style="fill:none;stroke:#1a1a1a;stroke-width:1.5;"/>
   </g>
   <g id="line2d_6">
    <defs>
     <path d="M 10 0 
L -10 -0 
" id="m066bc4a853" style="stroke:#1a1a1a;stroke-width:1.75;"/>
    </defs>
    <g clip-path="url(#p7728373abf)">
     <use style="fill:#1a1a1a;stroke:#1a1a1a;stroke-width:1.75;" x="143.149091" xlink:href="#m066bc4a853" y="241.279839"/>
     <use style="fill:#1a1a1a;stroke:#1a1a1a;stroke-width:1.75;" x="290.421818" xlink:href="#m066bc4a853" y="236.273973"/>
     <use style="fill:#1a1a1a;stroke:#1a1a1a;stroke-width:1.75;" x="437.694545" xlink:href="#m066bc4a853" y="231.051168"/>
     <use style="fill:#1a1a1a;stroke:#1a1a1a;stroke-width:1.75;" x="584.967273" xlink:href="#m066bc4a853" y="206.50433"/>
     <use style="fill:#1a1a1a;stroke:#1a1a1a;stroke-width:1.75;" x="732.24" xlink:href="#m066bc4a853" y="230.708809"/>
    </g>
   </g>
   <g id="line2d_7">
    <g clip-path="url(#p7728373abf)">
     <use style="fill:#1a1a1a;stroke:#1a1a1a;stroke-width:1.75;" x="143.149091" xlink:href="#m066bc4a853" y="232.074707"/>
     <use style="fill:#1a1a1a;stroke:#1a1a1a;stroke-width:1.75;" x="290.421818" xlink:href="#m066bc4a853" y="216.400366"/>
     <use style="fill:#1a1a1a;stroke:#1a1a1a;stroke-width:1.75;" x="437.694545" xlink:href="#m066bc4a853" y="192.896731"/>
     <use style="fill:#1a1a1a;stroke:#1a1a1a;stroke-width:1.75;" x="584.967273" xlink:href="#m066bc4a853" y="183.926798"/>
     <use style="fill:#1a1a1a;stroke:#1a1a1a;stroke-width:1.75;" x="732.24" xlink:href="#m066bc4a853" y="152.121039"/>
    </g>
   </g>
   <g id="line2d_8">
    <g clip-path="url(#p7728373abf)">
     <use style="fill:#1a1a1a;stroke:#1a1a1a;stroke-width:1.75;" x="178.494545" xlink:href="#m066bc4a853" y="236.554699"/>
     <use style="fill:#1a1a1a;stroke:#1a1a1a;stroke-width:1.75;" x="325.767273" xlink:href="#m066bc4a853" y="227.05161"/>
     <use style="fill:#1a1a1a;stroke:#1a1a1a;stroke-width:1.75;" x="473.04" xlink:href="#m066bc4a853" y="216.765345"/>
     <use style="fill:#1a1a1a;stroke:#1a1a1a;stroke-width:1.75;" x="620.312727" xlink:href="#m066bc4a853" y="137.302106"/>
     <use style="fill:#1a1a1a;stroke:#1a1a1a;stroke-width:1.75;" x="767.585455" xlink:href="#m066bc4a853" y="95.275985"/>
    </g>
   </g>
   <g id="line2d_9">
    <g clip-path="url(#p7728373abf)">
     <use style="fill:#1a1a1a;stroke:#1a1a1a;stroke-width:1.75;" x="178.494545" xlink:href="#m066bc4a853" y="211.720142"/>
     <use style="fill:#1a1a1a;stroke:#1a1a1a;stroke-width:1.75;" x="325.767273" xlink:href="#m066bc4a853" y="152.766613"/>
     <use style="fill:#1a1a1a;stroke:#1a1a1a;stroke-width:1.75;" x="473.04" xlink:href="#m066bc4a853" y="86.99237"/>
     <use style="fill:#1a1a1a;stroke:#1a1a1a;stroke-width:1.75;" x="620.312727" xlink:href="#m066bc4a853" y="86.525024"/>
     <use style="fill:#1a1a1a;stroke:#1a1a1a;stroke-width:1.75;" x="767.585455" xlink:href="#m066bc4a853" y="17.496"/>
    </g>
   </g>
   <g id="line2d_10">
    <defs>
     <path d="M 10 0 
L -10 -0 
" id="m3d0c805b51" style="stroke:#1a1a1a;stroke-width:1.5;"/>
    </defs>
    <g clip-path="url(#p7728373abf)">
     <use style="fill:#1a1a1a;stroke:#1a1a1a;stroke-width:1.5;" x="213.84" xlink:href="#m3d0c805b51" y="237.085342"/>
     <use style="fill:#1a1a1a;stroke:#1a1a1a;stroke-width:1.5;" x="361.112727" xlink:href="#m3d0c805b51" y="228.157526"/>
     <use style="fill:#1a1a1a;stroke:#1a1a1a;stroke-width:1.5;" x="508.385455" xlink:href="#m3d0c805b51" y="218.218604"/>
     <use style="fill:#1a1a1a;stroke:#1a1a1a;stroke-width:1.5;" x="655.658182" xlink:href="#m3d0c805b51" y="143.567844"/>
     <use style="fill:#1a1a1a;stroke:#1a1a1a;stroke-width:1.5;" x="802.930909" xlink:href="#m3d0c805b51" y="107.553487"/>
    </g>
   </g>
   <g id="line2d_11">
    <g clip-path="url(#p7728373abf)">
     <use style="fill:#1a1a1a;stroke:#1a1a1a;stroke-width:1.5;" x="213.84" xlink:href="#m3d0c805b51" y="213.817641"/>
     <use style="fill:#1a1a1a;stroke:#1a1a1a;stroke-width:1.5;" x="361.112727" xlink:href="#m3d0c805b51" y="158.508451"/>
     <use style="fill:#1a1a1a;stroke:#1a1a1a;stroke-width:1.5;" x="508.385455" xlink:href="#m3d0c805b51" y="98.630409"/>
     <use style="fill:#1a1a1a;stroke:#1a1a1a;stroke-width:1.5;" x="655.658182" xlink:href="#m3d0c805b51" y="95.487353"/>
     <use style="fill:#1a1a1a;stroke:#1a1a1a;stroke-width:1.5;" x="802.930909" xlink:href="#m3d0c805b51" y="29.346701"/>
    </g>
   </g>
   <g id="patch_18">
    <path d="M 90.72 246.456 
L 90.72 6.048 
" style="fill:none;stroke:#262626;stroke-linecap:square;stroke-linejoin:miter;stroke-width:1.25;"/>
   </g>
   <g id="patch_19">
    <path d="M 855.36 246.456 
L 855.36 6.048 
" style="fill:none;stroke:#262626;stroke-linecap:square;stroke-linejoin:miter;stroke-width:1.25;"/>
   </g>
   <g id="patch_20">
    <path d="M 90.72 246.456 
L 855.36 246.456 
" style="fill:none;stroke:#262626;stroke-linecap:square;stroke-linejoin:miter;stroke-width:1.25;"/>
   </g>
   <g id="patch_21">
    <path d="M 90.72 6.048 
L 855.36 6.048 
" style="fill:none;stroke:#262626;stroke-linecap:square;stroke-linejoin:miter;stroke-width:1.25;"/>
   </g>
   <g id="legend_1">
    <g id="patch_22">
     <path d="M 104.72 110.11675 
L 213.7325 110.11675 
Q 217.7325 110.11675 217.7325 106.11675 
L 217.7325 20.048 
Q 217.7325 16.048 213.7325 16.048 
L 104.72 16.048 
Q 100.72 16.048 100.72 20.048 
L 100.72 106.11675 
Q 100.72 110.11675 104.72 110.11675 
z
" style="fill:#ffffff;opacity:0.8;stroke:#cccccc;stroke-linejoin:miter;"/>
    </g>
    <g id="patch_23">
     <path d="M 108.72 39.244875 
L 148.72 39.244875 
L 148.72 25.244875 
L 108.72 25.244875 
z
" style="fill:#580128;opacity:0.8;stroke:#ffffff;stroke-linejoin:miter;"/>
    </g>
    <g id="text_13">
     <!-- 100 -->
     <g style="fill:#262626;" transform="translate(164.72 39.244875)scale(0.2 -0.2)">
      <use xlink:href="#DejaVuSerif-31"/>
      <use x="63.623047" xlink:href="#DejaVuSerif-30"/>
      <use x="127.246094" xlink:href="#DejaVuSerif-30"/>
     </g>
    </g>
    <g id="patch_24">
     <path d="M 108.72 68.601125 
L 148.72 68.601125 
L 148.72 54.601125 
L 108.72 54.601125 
z
" style="fill:#c20d33;opacity:0.8;stroke:#ffffff;stroke-linejoin:miter;"/>
    </g>
    <g id="text_14">
     <!-- 70-d -->
     <defs>
      <path d="M 4.390625 30.609375 
L 29.390625 30.609375 
L 29.390625 23 
L 4.390625 23 
z
" id="DejaVuSerif-2d"/>
      <path d="M 52.484375 5.171875 
L 61.078125 5.171875 
L 61.078125 0 
L 43.5 0 
L 43.5 8.109375 
Q 40.875 3.21875 36.796875 0.890625 
Q 32.71875 -1.421875 26.703125 -1.421875 
Q 17.140625 -1.421875 11.0625 6.171875 
Q 4.984375 13.765625 4.984375 25.984375 
Q 4.984375 38.1875 11.03125 45.75 
Q 17.09375 53.328125 26.703125 53.328125 
Q 32.71875 53.328125 36.796875 51 
Q 40.875 48.6875 43.5 43.796875 
L 43.5 70.796875 
L 35.015625 70.796875 
L 35.015625 75.984375 
L 52.484375 75.984375 
z
M 43.5 23.390625 
L 43.5 28.515625 
Q 43.5 37.84375 39.90625 42.765625 
Q 36.328125 47.703125 29.5 47.703125 
Q 22.5625 47.703125 19.015625 42.234375 
Q 15.484375 36.765625 15.484375 25.984375 
Q 15.484375 15.234375 19.015625 9.71875 
Q 22.5625 4.203125 29.5 4.203125 
Q 36.328125 4.203125 39.90625 9.109375 
Q 43.5 14.015625 43.5 23.390625 
z
" id="DejaVuSerif-64"/>
     </defs>
     <g style="fill:#262626;" transform="translate(164.72 68.601125)scale(0.2 -0.2)">
      <use xlink:href="#DejaVuSerif-37"/>
      <use x="63.623047" xlink:href="#DejaVuSerif-30"/>
      <use x="127.246094" xlink:href="#DejaVuSerif-2d"/>
      <use x="161.035156" xlink:href="#DejaVuSerif-64"/>
     </g>
    </g>
    <g id="patch_25">
     <path d="M 108.72 97.957375 
L 148.72 97.957375 
L 148.72 83.957375 
L 108.72 83.957375 
z
" style="fill:#b96d5b;opacity:0.8;stroke:#ffffff;stroke-linejoin:miter;"/>
    </g>
    <g id="text_15">
     <!-- 50-d -->
     <g style="fill:#262626;" transform="translate(164.72 97.957375)scale(0.2 -0.2)">
      <use xlink:href="#DejaVuSerif-35"/>
      <use x="63.623047" xlink:href="#DejaVuSerif-30"/>
      <use x="127.246094" xlink:href="#DejaVuSerif-2d"/>
      <use x="161.035156" xlink:href="#DejaVuSerif-64"/>
     </g>
    </g>
   </g>
  </g>
 </g>
 <defs>
  <clipPath id="p7728373abf">
   <rect height="240.408" width="764.64" x="90.72" y="6.048"/>
  </clipPath>
 </defs>
</svg>
