<?xml version="1.0" encoding="utf-8" standalone="no"?>
<!DOCTYPE svg PUBLIC "-//W3C//DTD SVG 1.1//EN"
  "http://www.w3.org/Graphics/SVG/1.1/DTD/svg11.dtd">
<!-- Created with matplotlib (https://matplotlib.org/) -->
<svg height="288pt" version="1.1" viewBox="0 0 576 288" width="576pt" xmlns="http://www.w3.org/2000/svg" xmlns:xlink="http://www.w3.org/1999/xlink">
 <defs>
  <style type="text/css">
*{stroke-linecap:butt;stroke-linejoin:round;}
  </style>
 </defs>
 <g id="figure_1">
  <g id="patch_1">
   <path d="M 0 288 
L 576 288 
L 576 0 
L 0 0 
z
" style="fill:#ffffff;"/>
  </g>
  <g id="axes_1">
   <g id="patch_2">
    <path d="M 57.6 246.24 
L 570.24 246.24 
L 570.24 4.32 
L 57.6 4.32 
z
" style="fill:#ffffff;"/>
   </g>
   <g id="matplotlib.axis_1">
    <g id="xtick_1">
     <g id="line2d_1">
      <defs>
       <path d="M 0 0 
L 0 3.5 
" id="mbfddec69a6" style="stroke:#262626;stroke-width:0.8;"/>
      </defs>
      <g>
       <use style="fill:#262626;stroke:#262626;stroke-width:0.8;" x="61.210141" xlink:href="#mbfddec69a6" y="246.24"/>
      </g>
     </g>
     <g id="text_1">
      <!-- 3 -->
      <defs>
       <path d="M 9.71875 69.828125 
Q 15.4375 71.96875 20.671875 73.09375 
Q 25.921875 74.21875 30.515625 74.21875 
Q 41.21875 74.21875 47.21875 69.59375 
Q 53.21875 64.984375 53.21875 56.78125 
Q 53.21875 50.203125 49.0625 45.78125 
Q 44.921875 41.359375 37.3125 39.796875 
Q 46.296875 38.53125 51.25 33.28125 
Q 56.203125 28.03125 56.203125 19.671875 
Q 56.203125 9.46875 49.34375 4.015625 
Q 42.484375 -1.421875 29.59375 -1.421875 
Q 23.875 -1.421875 18.421875 -0.1875 
Q 12.984375 1.03125 7.625 3.515625 
L 7.625 17.671875 
L 13.09375 17.671875 
Q 13.578125 10.640625 17.828125 7.03125 
Q 22.078125 3.421875 29.78125 3.421875 
Q 37.25 3.421875 41.578125 7.734375 
Q 45.90625 12.0625 45.90625 19.578125 
Q 45.90625 28.171875 41.453125 32.59375 
Q 37.015625 37.015625 28.421875 37.015625 
L 23.78125 37.015625 
L 23.78125 42 
L 26.21875 42 
Q 34.765625 42 39.03125 45.53125 
Q 43.3125 49.078125 43.3125 56.203125 
Q 43.3125 62.59375 39.796875 65.984375 
Q 36.28125 69.390625 29.6875 69.390625 
Q 23.09375 69.390625 19.453125 66.265625 
Q 15.828125 63.140625 15.1875 56.984375 
L 9.71875 56.984375 
z
" id="DejaVuSerif-51"/>
      </defs>
      <g style="fill:#262626;" transform="translate(56.756391 263.877813)scale(0.14 -0.14)">
       <use xlink:href="#DejaVuSerif-51"/>
      </g>
     </g>
    </g>
    <g id="xtick_2">
     <g id="line2d_2">
      <g>
       <use style="fill:#262626;stroke:#262626;stroke-width:0.8;" x="133.412958" xlink:href="#mbfddec69a6" y="246.24"/>
      </g>
     </g>
     <g id="text_2">
      <!-- 4 -->
      <defs>
       <path d="M 34.90625 24.703125 
L 34.90625 63.484375 
L 10.015625 24.703125 
z
M 56.390625 0 
L 23.1875 0 
L 23.1875 5.171875 
L 34.90625 5.171875 
L 34.90625 19.484375 
L 3.078125 19.484375 
L 3.078125 24.8125 
L 35.015625 74.21875 
L 44.671875 74.21875 
L 44.671875 24.703125 
L 58.59375 24.703125 
L 58.59375 19.484375 
L 44.671875 19.484375 
L 44.671875 5.171875 
L 56.390625 5.171875 
z
" id="DejaVuSerif-52"/>
      </defs>
      <g style="fill:#262626;" transform="translate(128.959208 263.877813)scale(0.14 -0.14)">
       <use xlink:href="#DejaVuSerif-52"/>
      </g>
     </g>
    </g>
    <g id="xtick_3">
     <g id="line2d_3">
      <g>
       <use style="fill:#262626;stroke:#262626;stroke-width:0.8;" x="205.615775" xlink:href="#mbfddec69a6" y="246.24"/>
      </g>
     </g>
     <g id="text_3">
      <!-- 5 -->
      <defs>
       <path d="M 50.296875 72.90625 
L 50.296875 64.890625 
L 16.890625 64.890625 
L 16.890625 44 
Q 19.4375 45.75 22.828125 46.625 
Q 26.21875 47.515625 30.421875 47.515625 
Q 42.234375 47.515625 49.0625 40.96875 
Q 55.90625 34.421875 55.90625 23.09375 
Q 55.90625 11.53125 49 5.046875 
Q 42.09375 -1.421875 29.59375 -1.421875 
Q 24.5625 -1.421875 19.28125 -0.1875 
Q 14.015625 1.03125 8.5 3.515625 
L 8.5 17.671875 
L 14.015625 17.671875 
Q 14.453125 10.75 18.421875 7.078125 
Q 22.40625 3.421875 29.59375 3.421875 
Q 37.3125 3.421875 41.453125 8.5 
Q 45.609375 13.578125 45.609375 23.09375 
Q 45.609375 32.5625 41.484375 37.609375 
Q 37.359375 42.671875 29.59375 42.671875 
Q 25.203125 42.671875 21.84375 41.109375 
Q 18.5 39.546875 15.921875 36.28125 
L 11.71875 36.28125 
L 11.71875 72.90625 
z
" id="DejaVuSerif-53"/>
      </defs>
      <g style="fill:#262626;" transform="translate(201.162025 263.877813)scale(0.14 -0.14)">
       <use xlink:href="#DejaVuSerif-53"/>
      </g>
     </g>
    </g>
    <g id="xtick_4">
     <g id="line2d_4">
      <g>
       <use style="fill:#262626;stroke:#262626;stroke-width:0.8;" x="277.818592" xlink:href="#mbfddec69a6" y="246.24"/>
      </g>
     </g>
     <g id="text_4">
      <!-- 6 -->
      <defs>
       <path d="M 32.71875 3.421875 
Q 39.59375 3.421875 43.296875 8.46875 
Q 47.015625 13.53125 47.015625 23 
Q 47.015625 32.46875 43.296875 37.515625 
Q 39.59375 42.578125 32.71875 42.578125 
Q 25.734375 42.578125 22.0625 37.6875 
Q 18.40625 32.8125 18.40625 23.578125 
Q 18.40625 13.875 22.109375 8.640625 
Q 25.828125 3.421875 32.71875 3.421875 
z
M 16.796875 40.140625 
Q 20.125 43.796875 24.3125 45.59375 
Q 28.515625 47.40625 33.796875 47.40625 
Q 44.671875 47.40625 51 40.859375 
Q 57.328125 34.328125 57.328125 23 
Q 57.328125 11.921875 50.515625 5.25 
Q 43.703125 -1.421875 32.328125 -1.421875 
Q 19.96875 -1.421875 13.328125 7.78125 
Q 6.6875 17 6.6875 34.078125 
Q 6.6875 53.21875 14.546875 63.71875 
Q 22.40625 74.21875 36.71875 74.21875 
Q 40.578125 74.21875 44.828125 73.484375 
Q 49.078125 72.75 53.515625 71.296875 
L 53.515625 59.28125 
L 48 59.28125 
Q 47.40625 64.203125 44.234375 66.796875 
Q 41.0625 69.390625 35.6875 69.390625 
Q 26.21875 69.390625 21.578125 62.203125 
Q 16.9375 55.03125 16.796875 40.140625 
z
" id="DejaVuSerif-54"/>
      </defs>
      <g style="fill:#262626;" transform="translate(273.364842 263.877813)scale(0.14 -0.14)">
       <use xlink:href="#DejaVuSerif-54"/>
      </g>
     </g>
    </g>
    <g id="xtick_5">
     <g id="line2d_5">
      <g>
       <use style="fill:#262626;stroke:#262626;stroke-width:0.8;" x="350.021408" xlink:href="#mbfddec69a6" y="246.24"/>
      </g>
     </g>
     <g id="text_5">
      <!-- 7 -->
      <defs>
       <path d="M 56.390625 67.921875 
L 27.875 0 
L 20.609375 0 
L 47.796875 64.890625 
L 14.109375 64.890625 
L 14.109375 55.90625 
L 8.40625 55.90625 
L 8.40625 72.90625 
L 56.390625 72.90625 
z
" id="DejaVuSerif-55"/>
      </defs>
      <g style="fill:#262626;" transform="translate(345.567658 263.877813)scale(0.14 -0.14)">
       <use xlink:href="#DejaVuSerif-55"/>
      </g>
     </g>
    </g>
    <g id="xtick_6">
     <g id="line2d_6">
      <g>
       <use style="fill:#262626;stroke:#262626;stroke-width:0.8;" x="422.224225" xlink:href="#mbfddec69a6" y="246.24"/>
      </g>
     </g>
     <g id="text_6">
      <!-- 8 -->
      <defs>
       <path d="M 46.578125 19.921875 
Q 46.578125 27.734375 42.6875 32.046875 
Q 38.8125 36.375 31.78125 36.375 
Q 24.75 36.375 20.875 32.046875 
Q 17 27.734375 17 19.921875 
Q 17 12.0625 20.875 7.734375 
Q 24.75 3.421875 31.78125 3.421875 
Q 38.8125 3.421875 42.6875 7.734375 
Q 46.578125 12.0625 46.578125 19.921875 
z
M 44.578125 55.328125 
Q 44.578125 61.96875 41.203125 65.671875 
Q 37.84375 69.390625 31.78125 69.390625 
Q 25.78125 69.390625 22.390625 65.671875 
Q 19 61.96875 19 55.328125 
Q 19 48.640625 22.390625 44.921875 
Q 25.78125 41.21875 31.78125 41.21875 
Q 37.84375 41.21875 41.203125 44.921875 
Q 44.578125 48.640625 44.578125 55.328125 
z
M 39.3125 38.8125 
Q 47.609375 37.703125 52.25 32.6875 
Q 56.890625 27.6875 56.890625 19.921875 
Q 56.890625 9.671875 50.390625 4.125 
Q 43.890625 -1.421875 31.78125 -1.421875 
Q 19.734375 -1.421875 13.203125 4.125 
Q 6.6875 9.671875 6.6875 19.921875 
Q 6.6875 27.6875 11.328125 32.6875 
Q 15.96875 37.703125 24.3125 38.8125 
Q 16.9375 40.140625 13 44.40625 
Q 9.078125 48.6875 9.078125 55.328125 
Q 9.078125 64.109375 15.125 69.15625 
Q 21.1875 74.21875 31.78125 74.21875 
Q 42.390625 74.21875 48.4375 69.15625 
Q 54.5 64.109375 54.5 55.328125 
Q 54.5 48.6875 50.5625 44.40625 
Q 46.625 40.140625 39.3125 38.8125 
z
" id="DejaVuSerif-56"/>
      </defs>
      <g style="fill:#262626;" transform="translate(417.770475 263.877813)scale(0.14 -0.14)">
       <use xlink:href="#DejaVuSerif-56"/>
      </g>
     </g>
    </g>
    <g id="xtick_7">
     <g id="line2d_7">
      <g>
       <use style="fill:#262626;stroke:#262626;stroke-width:0.8;" x="494.427042" xlink:href="#mbfddec69a6" y="246.24"/>
      </g>
     </g>
     <g id="text_7">
      <!-- 9 -->
      <defs>
       <path d="M 46.78125 32.671875 
Q 43.5 29 39.25 27.1875 
Q 35.015625 25.390625 29.6875 25.390625 
Q 18.84375 25.390625 12.5625 31.9375 
Q 6.296875 38.484375 6.296875 49.8125 
Q 6.296875 60.890625 13.109375 67.546875 
Q 19.921875 74.21875 31.296875 74.21875 
Q 43.65625 74.21875 50.265625 65.015625 
Q 56.890625 55.8125 56.890625 38.71875 
Q 56.890625 19.578125 49.015625 9.078125 
Q 41.15625 -1.421875 26.90625 -1.421875 
Q 23.046875 -1.421875 18.796875 -0.6875 
Q 14.546875 0.046875 10.109375 1.515625 
L 10.109375 13.625 
L 15.578125 13.625 
Q 16.21875 8.6875 19.390625 6.046875 
Q 22.5625 3.421875 27.875 3.421875 
Q 37.359375 3.421875 41.984375 10.5625 
Q 46.625 17.71875 46.78125 32.671875 
z
M 30.90625 69.390625 
Q 23.96875 69.390625 20.28125 64.328125 
Q 16.609375 59.28125 16.609375 49.8125 
Q 16.609375 40.328125 20.28125 35.25 
Q 23.96875 30.171875 30.90625 30.171875 
Q 37.84375 30.171875 41.53125 35.078125 
Q 45.21875 39.984375 45.21875 49.21875 
Q 45.21875 58.9375 41.5 64.15625 
Q 37.796875 69.390625 30.90625 69.390625 
z
" id="DejaVuSerif-57"/>
      </defs>
      <g style="fill:#262626;" transform="translate(489.973292 263.877813)scale(0.14 -0.14)">
       <use xlink:href="#DejaVuSerif-57"/>
      </g>
     </g>
    </g>
    <g id="xtick_8">
     <g id="line2d_8">
      <g>
       <use style="fill:#262626;stroke:#262626;stroke-width:0.8;" x="566.629859" xlink:href="#mbfddec69a6" y="246.24"/>
      </g>
     </g>
     <g id="text_8">
      <!-- 10 -->
      <defs>
       <path d="M 14.203125 0 
L 14.203125 5.171875 
L 26.90625 5.171875 
L 26.90625 65.828125 
L 12.203125 56.296875 
L 12.203125 62.703125 
L 29.984375 74.21875 
L 36.71875 74.21875 
L 36.71875 5.171875 
L 49.421875 5.171875 
L 49.421875 0 
z
" id="DejaVuSerif-49"/>
       <path d="M 31.78125 3.421875 
Q 39.265625 3.421875 42.96875 11.625 
Q 46.6875 19.828125 46.6875 36.375 
Q 46.6875 52.984375 42.96875 61.1875 
Q 39.265625 69.390625 31.78125 69.390625 
Q 24.3125 69.390625 20.59375 61.1875 
Q 16.890625 52.984375 16.890625 36.375 
Q 16.890625 19.828125 20.59375 11.625 
Q 24.3125 3.421875 31.78125 3.421875 
z
M 31.78125 -1.421875 
Q 19.921875 -1.421875 13.25 8.53125 
Q 6.59375 18.5 6.59375 36.375 
Q 6.59375 54.296875 13.25 64.25 
Q 19.921875 74.21875 31.78125 74.21875 
Q 43.703125 74.21875 50.34375 64.25 
Q 56.984375 54.296875 56.984375 36.375 
Q 56.984375 18.5 50.34375 8.53125 
Q 43.703125 -1.421875 31.78125 -1.421875 
z
" id="DejaVuSerif-48"/>
      </defs>
      <g style="fill:#262626;" transform="translate(557.722359 263.877813)scale(0.14 -0.14)">
       <use xlink:href="#DejaVuSerif-49"/>
       <use x="63.623047" xlink:href="#DejaVuSerif-48"/>
      </g>
     </g>
    </g>
    <g id="text_9">
     <!-- Sentence Length -->
     <defs>
      <path d="M 9.28125 3.515625 
L 9.28125 20.125 
L 14.890625 20.0625 
Q 15.140625 11.765625 19.703125 7.78125 
Q 24.265625 3.8125 33.59375 3.8125 
Q 42.28125 3.8125 46.84375 7.25 
Q 51.421875 10.6875 51.421875 17.28125 
Q 51.421875 22.5625 48.65625 25.390625 
Q 45.90625 28.21875 37.015625 30.90625 
L 27.390625 33.796875 
Q 16.9375 36.96875 12.671875 41.703125 
Q 8.40625 46.4375 8.40625 54.6875 
Q 8.40625 63.96875 14.984375 69.09375 
Q 21.578125 74.21875 33.5 74.21875 
Q 38.578125 74.21875 44.625 73.109375 
Q 50.6875 72.015625 57.515625 69.921875 
L 57.515625 54.390625 
L 52 54.390625 
Q 51.171875 62.109375 46.84375 65.546875 
Q 42.53125 69 33.6875 69 
Q 25.984375 69 21.953125 65.84375 
Q 17.921875 62.703125 17.921875 56.6875 
Q 17.921875 51.46875 20.9375 48.484375 
Q 23.96875 45.515625 33.796875 42.578125 
L 42.828125 39.890625 
Q 52.734375 36.921875 56.953125 32.296875 
Q 61.1875 27.6875 61.1875 19.921875 
Q 61.1875 9.328125 54.390625 3.953125 
Q 47.609375 -1.421875 34.1875 -1.421875 
Q 28.171875 -1.421875 21.9375 -0.1875 
Q 15.71875 1.03125 9.28125 3.515625 
z
" id="DejaVuSerif-83"/>
      <path d="M 54.203125 25 
L 15.484375 25 
L 15.484375 24.609375 
Q 15.484375 14.109375 19.4375 8.765625 
Q 23.390625 3.421875 31.109375 3.421875 
Q 37.015625 3.421875 40.796875 6.515625 
Q 44.578125 9.625 46.09375 15.71875 
L 53.328125 15.71875 
Q 51.171875 7.171875 45.375 2.875 
Q 39.59375 -1.421875 30.171875 -1.421875 
Q 18.796875 -1.421875 11.890625 6.078125 
Q 4.984375 13.578125 4.984375 25.984375 
Q 4.984375 38.28125 11.765625 45.796875 
Q 18.5625 53.328125 29.59375 53.328125 
Q 41.359375 53.328125 47.65625 46.0625 
Q 53.953125 38.8125 54.203125 25 
z
M 43.609375 30.171875 
Q 43.3125 39.265625 39.765625 43.875 
Q 36.234375 48.484375 29.59375 48.484375 
Q 23.390625 48.484375 19.828125 43.84375 
Q 16.265625 39.203125 15.484375 30.171875 
z
" id="DejaVuSerif-101"/>
      <path d="M 4.109375 0 
L 4.109375 5.171875 
L 12.203125 5.171875 
L 12.203125 46.6875 
L 3.609375 46.6875 
L 3.609375 51.90625 
L 21.1875 51.90625 
L 21.1875 42.671875 
Q 23.6875 47.953125 27.65625 50.640625 
Q 31.640625 53.328125 36.921875 53.328125 
Q 45.515625 53.328125 49.5625 48.390625 
Q 53.609375 43.453125 53.609375 33.015625 
L 53.609375 5.171875 
L 61.625 5.171875 
L 61.625 0 
L 36.8125 0 
L 36.8125 5.171875 
L 44.578125 5.171875 
L 44.578125 30.171875 
Q 44.578125 39.703125 42.234375 43.234375 
Q 39.890625 46.78125 33.984375 46.78125 
Q 27.734375 46.78125 24.453125 42.203125 
Q 21.1875 37.640625 21.1875 28.90625 
L 21.1875 5.171875 
L 29 5.171875 
L 29 0 
z
" id="DejaVuSerif-110"/>
      <path d="M 10.796875 46.6875 
L 2.875 46.6875 
L 2.875 51.90625 
L 10.796875 51.90625 
L 10.796875 68.015625 
L 19.828125 68.015625 
L 19.828125 51.90625 
L 36.71875 51.90625 
L 36.71875 46.6875 
L 19.828125 46.6875 
L 19.828125 13.71875 
Q 19.828125 7.125 21.09375 5.265625 
Q 22.359375 3.421875 25.78125 3.421875 
Q 29.296875 3.421875 30.90625 5.484375 
Q 32.515625 7.5625 32.625 12.203125 
L 39.40625 12.203125 
Q 39.015625 5.125 35.546875 1.84375 
Q 32.078125 -1.421875 25 -1.421875 
Q 17.234375 -1.421875 14.015625 2.015625 
Q 10.796875 5.46875 10.796875 13.71875 
z
" id="DejaVuSerif-116"/>
      <path d="M 51.421875 15.578125 
Q 49.515625 7.28125 44.09375 2.921875 
Q 38.671875 -1.421875 30.078125 -1.421875 
Q 18.75 -1.421875 11.859375 6.078125 
Q 4.984375 13.578125 4.984375 25.984375 
Q 4.984375 38.421875 11.859375 45.875 
Q 18.75 53.328125 30.078125 53.328125 
Q 35.015625 53.328125 39.890625 52.171875 
Q 44.78125 51.03125 49.703125 48.6875 
L 49.703125 35.40625 
L 44.484375 35.40625 
Q 43.453125 42.234375 40.015625 45.359375 
Q 36.578125 48.484375 30.171875 48.484375 
Q 22.90625 48.484375 19.1875 42.84375 
Q 15.484375 37.203125 15.484375 25.984375 
Q 15.484375 14.75 19.171875 9.078125 
Q 22.859375 3.421875 30.171875 3.421875 
Q 35.984375 3.421875 39.453125 6.4375 
Q 42.921875 9.46875 44.1875 15.578125 
z
" id="DejaVuSerif-99"/>
      <path id="DejaVuSerif-32"/>
      <path d="M 5.515625 0 
L 5.515625 5.171875 
L 14.796875 5.171875 
L 14.796875 67.671875 
L 5.515625 67.671875 
L 5.515625 72.90625 
L 33.984375 72.90625 
L 33.984375 67.671875 
L 24.703125 67.671875 
L 24.703125 6 
L 58.015625 6 
L 58.015625 18.21875 
L 64.015625 18.21875 
L 64.015625 0 
z
" id="DejaVuSerif-76"/>
      <path d="M 52.484375 46.6875 
L 52.484375 1.125 
Q 52.484375 -10.0625 46.328125 -16.140625 
Q 40.1875 -22.21875 28.8125 -22.21875 
Q 23.6875 -22.21875 19 -21.28125 
Q 14.3125 -20.359375 10.015625 -18.5 
L 10.015625 -7.625 
L 14.703125 -7.625 
Q 15.578125 -12.703125 18.84375 -15.046875 
Q 22.125 -17.390625 28.21875 -17.390625 
Q 36.140625 -17.390625 39.8125 -12.921875 
Q 43.5 -8.453125 43.5 1.125 
L 43.5 8.109375 
Q 40.875 3.21875 36.796875 0.890625 
Q 32.71875 -1.421875 26.703125 -1.421875 
Q 17.140625 -1.421875 11.0625 6.171875 
Q 4.984375 13.765625 4.984375 25.984375 
Q 4.984375 38.1875 11.03125 45.75 
Q 17.09375 53.328125 26.703125 53.328125 
Q 32.71875 53.328125 36.796875 51 
Q 40.875 48.6875 43.5 43.796875 
L 43.5 51.90625 
L 61.078125 51.90625 
L 61.078125 46.6875 
z
M 43.5 28.515625 
Q 43.5 37.84375 39.90625 42.765625 
Q 36.328125 47.703125 29.5 47.703125 
Q 22.5625 47.703125 19.015625 42.234375 
Q 15.484375 36.765625 15.484375 25.984375 
Q 15.484375 15.234375 19.015625 9.71875 
Q 22.5625 4.203125 29.5 4.203125 
Q 36.328125 4.203125 39.90625 9.109375 
Q 43.5 14.015625 43.5 23.390625 
z
" id="DejaVuSerif-103"/>
      <path d="M 4.109375 0 
L 4.109375 5.171875 
L 12.203125 5.171875 
L 12.203125 70.796875 
L 3.609375 70.796875 
L 3.609375 75.984375 
L 21.1875 75.984375 
L 21.1875 42.671875 
Q 23.6875 47.953125 27.65625 50.640625 
Q 31.640625 53.328125 36.921875 53.328125 
Q 45.515625 53.328125 49.5625 48.390625 
Q 53.609375 43.453125 53.609375 33.015625 
L 53.609375 5.171875 
L 61.625 5.171875 
L 61.625 0 
L 36.8125 0 
L 36.8125 5.171875 
L 44.578125 5.171875 
L 44.578125 30.171875 
Q 44.578125 39.703125 42.25 43.1875 
Q 39.9375 46.6875 33.984375 46.6875 
Q 27.734375 46.6875 24.453125 42.140625 
Q 21.1875 37.59375 21.1875 28.90625 
L 21.1875 5.171875 
L 29 5.171875 
L 29 0 
z
" id="DejaVuSerif-104"/>
     </defs>
     <g style="fill:#262626;" transform="translate(245.00375 282.946875)scale(0.16 -0.16)">
      <use xlink:href="#DejaVuSerif-83"/>
      <use x="68.505859" xlink:href="#DejaVuSerif-101"/>
      <use x="127.685547" xlink:href="#DejaVuSerif-110"/>
      <use x="192.089844" xlink:href="#DejaVuSerif-116"/>
      <use x="232.275391" xlink:href="#DejaVuSerif-101"/>
      <use x="291.455078" xlink:href="#DejaVuSerif-110"/>
      <use x="355.859375" xlink:href="#DejaVuSerif-99"/>
      <use x="411.865234" xlink:href="#DejaVuSerif-101"/>
      <use x="471.044922" xlink:href="#DejaVuSerif-32"/>
      <use x="502.832031" xlink:href="#DejaVuSerif-76"/>
      <use x="569.238281" xlink:href="#DejaVuSerif-101"/>
      <use x="628.417969" xlink:href="#DejaVuSerif-110"/>
      <use x="692.822266" xlink:href="#DejaVuSerif-103"/>
      <use x="756.835938" xlink:href="#DejaVuSerif-116"/>
      <use x="797.021484" xlink:href="#DejaVuSerif-104"/>
     </g>
    </g>
   </g>
   <g id="matplotlib.axis_2">
    <g id="ytick_1">
     <g id="line2d_9">
      <defs>
       <path d="M 0 0 
L -3.5 0 
" id="mf36a51e80d" style="stroke:#262626;stroke-width:0.8;"/>
      </defs>
      <g>
       <use style="fill:#262626;stroke:#262626;stroke-width:0.8;" x="57.6" xlink:href="#mf36a51e80d" y="218.535284"/>
      </g>
     </g>
     <g id="text_10">
      <!-- 30 -->
      <g style="fill:#262626;" transform="translate(32.785 223.85419)scale(0.14 -0.14)">
       <use xlink:href="#DejaVuSerif-51"/>
       <use x="63.623047" xlink:href="#DejaVuSerif-48"/>
      </g>
     </g>
    </g>
    <g id="ytick_2">
     <g id="line2d_10">
      <g>
       <use style="fill:#262626;stroke:#262626;stroke-width:0.8;" x="57.6" xlink:href="#mf36a51e80d" y="188.150137"/>
      </g>
     </g>
     <g id="text_11">
      <!-- 40 -->
      <g style="fill:#262626;" transform="translate(32.785 193.469044)scale(0.14 -0.14)">
       <use xlink:href="#DejaVuSerif-52"/>
       <use x="63.623047" xlink:href="#DejaVuSerif-48"/>
      </g>
     </g>
    </g>
    <g id="ytick_3">
     <g id="line2d_11">
      <g>
       <use style="fill:#262626;stroke:#262626;stroke-width:0.8;" x="57.6" xlink:href="#mf36a51e80d" y="157.764991"/>
      </g>
     </g>
     <g id="text_12">
      <!-- 50 -->
      <g style="fill:#262626;" transform="translate(32.785 163.083897)scale(0.14 -0.14)">
       <use xlink:href="#DejaVuSerif-53"/>
       <use x="63.623047" xlink:href="#DejaVuSerif-48"/>
      </g>
     </g>
    </g>
    <g id="ytick_4">
     <g id="line2d_12">
      <g>
       <use style="fill:#262626;stroke:#262626;stroke-width:0.8;" x="57.6" xlink:href="#mf36a51e80d" y="127.379844"/>
      </g>
     </g>
     <g id="text_13">
      <!-- 60 -->
      <g style="fill:#262626;" transform="translate(32.785 132.69875)scale(0.14 -0.14)">
       <use xlink:href="#DejaVuSerif-54"/>
       <use x="63.623047" xlink:href="#DejaVuSerif-48"/>
      </g>
     </g>
    </g>
    <g id="ytick_5">
     <g id="line2d_13">
      <g>
       <use style="fill:#262626;stroke:#262626;stroke-width:0.8;" x="57.6" xlink:href="#mf36a51e80d" y="96.994697"/>
      </g>
     </g>
     <g id="text_14">
      <!-- 70 -->
      <g style="fill:#262626;" transform="translate(32.785 102.313604)scale(0.14 -0.14)">
       <use xlink:href="#DejaVuSerif-55"/>
       <use x="63.623047" xlink:href="#DejaVuSerif-48"/>
      </g>
     </g>
    </g>
    <g id="ytick_6">
     <g id="line2d_14">
      <g>
       <use style="fill:#262626;stroke:#262626;stroke-width:0.8;" x="57.6" xlink:href="#mf36a51e80d" y="66.609551"/>
      </g>
     </g>
     <g id="text_15">
      <!-- 80 -->
      <g style="fill:#262626;" transform="translate(32.785 71.928457)scale(0.14 -0.14)">
       <use xlink:href="#DejaVuSerif-56"/>
       <use x="63.623047" xlink:href="#DejaVuSerif-48"/>
      </g>
     </g>
    </g>
    <g id="ytick_7">
     <g id="line2d_15">
      <g>
       <use style="fill:#262626;stroke:#262626;stroke-width:0.8;" x="57.6" xlink:href="#mf36a51e80d" y="36.224404"/>
      </g>
     </g>
     <g id="text_16">
      <!-- 90 -->
      <g style="fill:#262626;" transform="translate(32.785 41.54331)scale(0.14 -0.14)">
       <use xlink:href="#DejaVuSerif-57"/>
       <use x="63.623047" xlink:href="#DejaVuSerif-48"/>
      </g>
     </g>
    </g>
    <g id="ytick_8">
     <g id="line2d_16">
      <g>
       <use style="fill:#262626;stroke:#262626;stroke-width:0.8;" x="57.6" xlink:href="#mf36a51e80d" y="5.839257"/>
      </g>
     </g>
     <g id="text_17">
      <!-- 100 -->
      <g style="fill:#262626;" transform="translate(23.8775 11.158164)scale(0.14 -0.14)">
       <use xlink:href="#DejaVuSerif-49"/>
       <use x="63.623047" xlink:href="#DejaVuSerif-48"/>
       <use x="127.246094" xlink:href="#DejaVuSerif-48"/>
      </g>
     </g>
    </g>
    <g id="text_18">
     <!-- Order Recall -->
     <defs>
      <path d="M 41.015625 3.8125 
Q 52.984375 3.8125 59.078125 12.03125 
Q 65.1875 20.265625 65.1875 36.375 
Q 65.1875 52.546875 59.078125 60.765625 
Q 52.984375 69 41.015625 69 
Q 29 69 22.890625 60.765625 
Q 16.796875 52.546875 16.796875 36.375 
Q 16.796875 20.265625 22.890625 12.03125 
Q 29 3.8125 41.015625 3.8125 
z
M 41.015625 -1.421875 
Q 33.59375 -1.421875 27.359375 1.015625 
Q 21.140625 3.46875 16.40625 8.203125 
Q 10.9375 13.671875 8.265625 20.609375 
Q 5.609375 27.546875 5.609375 36.375 
Q 5.609375 45.21875 8.265625 52.171875 
Q 10.9375 59.125 16.40625 64.59375 
Q 21.1875 69.390625 27.34375 71.796875 
Q 33.5 74.21875 41.015625 74.21875 
Q 56.890625 74.21875 66.65625 63.8125 
Q 76.421875 53.421875 76.421875 36.375 
Q 76.421875 27.640625 73.734375 20.625 
Q 71.046875 13.625 65.578125 8.203125 
Q 60.796875 3.421875 54.640625 1 
Q 48.484375 -1.421875 41.015625 -1.421875 
z
" id="DejaVuSerif-79"/>
      <path d="M 47.796875 52 
L 47.796875 39.015625 
L 42.625 39.015625 
Q 42.390625 42.875 40.484375 44.78125 
Q 38.578125 46.6875 34.90625 46.6875 
Q 28.265625 46.6875 24.71875 42.09375 
Q 21.1875 37.5 21.1875 28.90625 
L 21.1875 5.171875 
L 31.59375 5.171875 
L 31.59375 0 
L 4.109375 0 
L 4.109375 5.171875 
L 12.203125 5.171875 
L 12.203125 46.78125 
L 3.609375 46.78125 
L 3.609375 51.90625 
L 21.1875 51.90625 
L 21.1875 42.671875 
Q 23.828125 48.09375 27.96875 50.703125 
Q 32.125 53.328125 38.09375 53.328125 
Q 40.28125 53.328125 42.703125 52.984375 
Q 45.125 52.640625 47.796875 52 
z
" id="DejaVuSerif-114"/>
      <path d="M 52.484375 5.171875 
L 61.078125 5.171875 
L 61.078125 0 
L 43.5 0 
L 43.5 8.109375 
Q 40.875 3.21875 36.796875 0.890625 
Q 32.71875 -1.421875 26.703125 -1.421875 
Q 17.140625 -1.421875 11.0625 6.171875 
Q 4.984375 13.765625 4.984375 25.984375 
Q 4.984375 38.1875 11.03125 45.75 
Q 17.09375 53.328125 26.703125 53.328125 
Q 32.71875 53.328125 36.796875 51 
Q 40.875 48.6875 43.5 43.796875 
L 43.5 70.796875 
L 35.015625 70.796875 
L 35.015625 75.984375 
L 52.484375 75.984375 
z
M 43.5 23.390625 
L 43.5 28.515625 
Q 43.5 37.84375 39.90625 42.765625 
Q 36.328125 47.703125 29.5 47.703125 
Q 22.5625 47.703125 19.015625 42.234375 
Q 15.484375 36.765625 15.484375 25.984375 
Q 15.484375 15.234375 19.015625 9.71875 
Q 22.5625 4.203125 29.5 4.203125 
Q 36.328125 4.203125 39.90625 9.109375 
Q 43.5 14.015625 43.5 23.390625 
z
" id="DejaVuSerif-100"/>
      <path d="M 47.90625 36.1875 
Q 51.3125 35.25 53.78125 33.03125 
Q 56.25 30.8125 58.203125 26.8125 
L 68.796875 5.171875 
L 77.6875 5.171875 
L 77.6875 0 
L 60.5 0 
L 49.125 23.1875 
Q 45.84375 29.9375 43.109375 31.90625 
Q 40.375 33.890625 35.59375 33.890625 
L 24.703125 33.890625 
L 24.703125 5.171875 
L 35.015625 5.171875 
L 35.015625 0 
L 5.515625 0 
L 5.515625 5.171875 
L 14.796875 5.171875 
L 14.796875 67.671875 
L 5.515625 67.671875 
L 5.515625 72.90625 
L 42.484375 72.90625 
Q 53.125 72.90625 58.90625 67.828125 
Q 64.703125 62.75 64.703125 53.421875 
Q 64.703125 45.90625 60.46875 41.578125 
Q 56.25 37.25 47.90625 36.1875 
z
M 24.703125 39.109375 
L 39.109375 39.109375 
Q 46.484375 39.109375 50 42.59375 
Q 53.515625 46.09375 53.515625 53.421875 
Q 53.515625 60.75 50 64.203125 
Q 46.484375 67.671875 39.109375 67.671875 
L 24.703125 67.671875 
z
" id="DejaVuSerif-82"/>
      <path d="M 39.796875 16.3125 
L 39.796875 27.296875 
L 28.21875 27.296875 
Q 21.53125 27.296875 18.25 24.40625 
Q 14.984375 21.53125 14.984375 15.578125 
Q 14.984375 10.15625 18.296875 6.984375 
Q 21.625 3.8125 27.296875 3.8125 
Q 32.90625 3.8125 36.34375 7.28125 
Q 39.796875 10.75 39.796875 16.3125 
z
M 48.78125 32.421875 
L 48.78125 5.171875 
L 56.78125 5.171875 
L 56.78125 0 
L 39.796875 0 
L 39.796875 5.609375 
Q 36.8125 2 32.90625 0.28125 
Q 29 -1.421875 23.78125 -1.421875 
Q 15.140625 -1.421875 10.0625 3.171875 
Q 4.984375 7.765625 4.984375 15.578125 
Q 4.984375 23.640625 10.796875 28.078125 
Q 16.609375 32.515625 27.203125 32.515625 
L 39.796875 32.515625 
L 39.796875 36.078125 
Q 39.796875 42 36.203125 45.234375 
Q 32.625 48.484375 26.125 48.484375 
Q 20.75 48.484375 17.578125 46.046875 
Q 14.40625 43.609375 13.625 38.8125 
L 8.984375 38.8125 
L 8.984375 49.3125 
Q 13.671875 51.3125 18.09375 52.3125 
Q 22.515625 53.328125 26.703125 53.328125 
Q 37.5 53.328125 43.140625 47.96875 
Q 48.78125 42.625 48.78125 32.421875 
z
" id="DejaVuSerif-97"/>
      <path d="M 20.515625 5.171875 
L 29 5.171875 
L 29 0 
L 2.875 0 
L 2.875 5.171875 
L 11.53125 5.171875 
L 11.53125 70.796875 
L 2.875 70.796875 
L 2.875 75.984375 
L 20.515625 75.984375 
z
" id="DejaVuSerif-108"/>
     </defs>
     <g style="fill:#262626;" transform="translate(16.55 177.01125)rotate(-90)scale(0.16 -0.16)">
      <use xlink:href="#DejaVuSerif-79"/>
      <use x="81.982422" xlink:href="#DejaVuSerif-114"/>
      <use x="129.785156" xlink:href="#DejaVuSerif-100"/>
      <use x="193.798828" xlink:href="#DejaVuSerif-101"/>
      <use x="252.978516" xlink:href="#DejaVuSerif-114"/>
      <use x="300.78125" xlink:href="#DejaVuSerif-32"/>
      <use x="332.568359" xlink:href="#DejaVuSerif-82"/>
      <use x="407.861328" xlink:href="#DejaVuSerif-101"/>
      <use x="467.041016" xlink:href="#DejaVuSerif-99"/>
      <use x="523.046875" xlink:href="#DejaVuSerif-97"/>
      <use x="582.666016" xlink:href="#DejaVuSerif-108"/>
      <use x="614.648438" xlink:href="#DejaVuSerif-108"/>
     </g>
    </g>
   </g>
   <g id="PolyCollection_1">
    <path clip-path="url(#p365c3ffc12)" d="M -10.992676 27.563802 
L -10.992676 29.979085 
L 61.210141 29.979085 
L 133.412958 46.78356 
L 205.615775 65.864036 
L 277.818592 75.863831 
L 350.021408 91.246614 
L 422.224225 102.722408 
L 494.427042 95.489206 
L 566.629859 136.818731 
L 638.832676 136.818731 
L 638.832676 134.674806 
L 638.832676 134.674806 
L 566.629859 134.674806 
L 494.427042 93.764842 
L 422.224225 101.344473 
L 350.021408 90.023418 
L 277.818592 74.630075 
L 205.615775 64.561029 
L 133.412958 45.687831 
L 61.210141 27.563802 
L -10.992676 27.563802 
z
" style="fill:#165f77;fill-opacity:0.2;stroke:#165f77;stroke-opacity:0.2;"/>
   </g>
   <g id="PolyCollection_2">
    <path clip-path="url(#p365c3ffc12)" d="M -10.992676 126.064473 
L -10.992676 146.058156 
L 61.210141 146.058156 
L 133.412958 201.564248 
L 205.615775 220.957648 
L 277.818592 177.157259 
L 350.021408 176.365573 
L 422.224225 194.227167 
L 494.427042 165.178207 
L 566.629859 242.900488 
L 638.832676 242.900488 
L 638.832676 224.555227 
L 638.832676 224.555227 
L 566.629859 224.555227 
L 494.427042 150.351774 
L 422.224225 182.073108 
L 350.021408 170.16966 
L 277.818592 170.697346 
L 205.615775 212.736793 
L 133.412958 195.771898 
L 61.210141 126.064473 
L -10.992676 126.064473 
z
" style="fill:#aec191;fill-opacity:0.2;stroke:#aec191;stroke-opacity:0.2;"/>
   </g>
   <g id="PolyCollection_3">
    <path clip-path="url(#p365c3ffc12)" d="M -10.992676 33.128497 
L -10.992676 35.880483 
L 61.210141 35.880483 
L 133.412958 36.168198 
L 205.615775 46.546855 
L 277.818592 58.827314 
L 350.021408 77.072951 
L 422.224225 82.81821 
L 494.427042 89.54856 
L 566.629859 110.335352 
L 638.832676 110.335352 
L 638.832676 108.314452 
L 638.832676 108.314452 
L 566.629859 108.314452 
L 494.427042 87.867119 
L 422.224225 81.549484 
L 350.021408 75.931827 
L 277.818592 57.733941 
L 205.615775 45.460209 
L 133.412958 35.22679 
L 61.210141 33.128497 
L -10.992676 33.128497 
z
" style="fill:#4b78b0;fill-opacity:0.2;stroke:#4b78b0;stroke-opacity:0.2;"/>
   </g>
   <g id="PolyCollection_4">
    <path clip-path="url(#p365c3ffc12)" d="M -10.992676 84.271034 
L -10.992676 101.03689 
L 61.210141 101.03689 
L 133.412958 84.117474 
L 205.615775 67.824703 
L 277.818592 112.16563 
L 350.021408 114.049263 
L 422.224225 120.628569 
L 494.427042 180.497165 
L 566.629859 186.178848 
L 638.832676 186.178848 
L 638.832676 167.332567 
L 638.832676 167.332567 
L 566.629859 167.332567 
L 494.427042 165.417963 
L 422.224225 109.823002 
L 350.021408 108.464963 
L 277.818592 106.39048 
L 205.615775 62.018271 
L 133.412958 79.486774 
L 61.210141 84.271034 
L -10.992676 84.271034 
z
" style="fill:#639e3d;fill-opacity:0.2;stroke:#639e3d;stroke-opacity:0.2;"/>
   </g>
   <g id="line2d_17">
    <path clip-path="url(#p365c3ffc12)" d="M 61.210141 28.771444 
L 133.412958 46.235695 
L 205.615775 65.212532 
L 277.818592 75.246953 
L 350.021408 90.635016 
L 422.224225 102.03344 
L 494.427042 94.627024 
L 566.629859 135.746769 
" style="fill:none;stroke:#165f77;stroke-linecap:round;"/>
    <defs>
     <path d="M 0 3 
C 0.795609 3 1.55874 2.683901 2.12132 2.12132 
C 2.683901 1.55874 3 0.795609 3 0 
C 3 -0.795609 2.683901 -1.55874 2.12132 -2.12132 
C 1.55874 -2.683901 0.795609 -3 0 -3 
C -0.795609 -3 -1.55874 -2.683901 -2.12132 -2.12132 
C -2.683901 -1.55874 -3 -0.795609 -3 0 
C -3 0.795609 -2.683901 1.55874 -2.12132 2.12132 
C -1.55874 2.683901 -0.795609 3 0 3 
z
" id="m959df2f424" style="stroke:#165f77;"/>
    </defs>
    <g clip-path="url(#p365c3ffc12)">
     <use style="fill:#165f77;stroke:#165f77;" x="61.210141" xlink:href="#m959df2f424" y="28.771444"/>
     <use style="fill:#165f77;stroke:#165f77;" x="133.412958" xlink:href="#m959df2f424" y="46.235695"/>
     <use style="fill:#165f77;stroke:#165f77;" x="205.615775" xlink:href="#m959df2f424" y="65.212532"/>
     <use style="fill:#165f77;stroke:#165f77;" x="277.818592" xlink:href="#m959df2f424" y="75.246953"/>
     <use style="fill:#165f77;stroke:#165f77;" x="350.021408" xlink:href="#m959df2f424" y="90.635016"/>
     <use style="fill:#165f77;stroke:#165f77;" x="422.224225" xlink:href="#m959df2f424" y="102.03344"/>
     <use style="fill:#165f77;stroke:#165f77;" x="494.427042" xlink:href="#m959df2f424" y="94.627024"/>
     <use style="fill:#165f77;stroke:#165f77;" x="566.629859" xlink:href="#m959df2f424" y="135.746769"/>
    </g>
   </g>
   <g id="line2d_18">
    <path clip-path="url(#p365c3ffc12)" d="M 61.210141 136.061315 
L 133.412958 198.668073 
L 205.615775 216.84722 
L 277.818592 173.927303 
L 350.021408 173.267617 
L 422.224225 188.150137 
L 494.427042 157.764991 
L 566.629859 233.727857 
" style="fill:none;stroke:#aec191;stroke-linecap:round;"/>
    <defs>
     <path d="M 0 -3 
L -3 3 
L 3 3 
z
" id="m3d2d4edb54" style="stroke:#aec191;stroke-linejoin:miter;"/>
    </defs>
    <g clip-path="url(#p365c3ffc12)">
     <use style="fill:#aec191;stroke:#aec191;stroke-linejoin:miter;" x="61.210141" xlink:href="#m3d2d4edb54" y="136.061315"/>
     <use style="fill:#aec191;stroke:#aec191;stroke-linejoin:miter;" x="133.412958" xlink:href="#m3d2d4edb54" y="198.668073"/>
     <use style="fill:#aec191;stroke:#aec191;stroke-linejoin:miter;" x="205.615775" xlink:href="#m3d2d4edb54" y="216.84722"/>
     <use style="fill:#aec191;stroke:#aec191;stroke-linejoin:miter;" x="277.818592" xlink:href="#m3d2d4edb54" y="173.927303"/>
     <use style="fill:#aec191;stroke:#aec191;stroke-linejoin:miter;" x="350.021408" xlink:href="#m3d2d4edb54" y="173.267617"/>
     <use style="fill:#aec191;stroke:#aec191;stroke-linejoin:miter;" x="422.224225" xlink:href="#m3d2d4edb54" y="188.150137"/>
     <use style="fill:#aec191;stroke:#aec191;stroke-linejoin:miter;" x="494.427042" xlink:href="#m3d2d4edb54" y="157.764991"/>
     <use style="fill:#aec191;stroke:#aec191;stroke-linejoin:miter;" x="566.629859" xlink:href="#m3d2d4edb54" y="233.727857"/>
    </g>
   </g>
   <g id="line2d_19">
    <path clip-path="url(#p365c3ffc12)" d="M 61.210141 34.50449 
L 133.412958 35.697494 
L 205.615775 46.003532 
L 277.818592 58.280627 
L 350.021408 76.502389 
L 422.224225 82.183847 
L 494.427042 88.707839 
L 566.629859 109.324902 
" style="fill:none;stroke:#4b78b0;stroke-dasharray:5,5;stroke-dashoffset:0;"/>
    <defs>
     <path d="M -0 4.242641 
L 2.545584 0 
L 0 -4.242641 
L -2.545584 -0 
z
" id="me50bab4730" style="stroke:#4b78b0;stroke-linejoin:miter;"/>
    </defs>
    <g clip-path="url(#p365c3ffc12)">
     <use style="fill:#4b78b0;stroke:#4b78b0;stroke-linejoin:miter;" x="61.210141" xlink:href="#me50bab4730" y="34.50449"/>
     <use style="fill:#4b78b0;stroke:#4b78b0;stroke-linejoin:miter;" x="133.412958" xlink:href="#me50bab4730" y="35.697494"/>
     <use style="fill:#4b78b0;stroke:#4b78b0;stroke-linejoin:miter;" x="205.615775" xlink:href="#me50bab4730" y="46.003532"/>
     <use style="fill:#4b78b0;stroke:#4b78b0;stroke-linejoin:miter;" x="277.818592" xlink:href="#me50bab4730" y="58.280627"/>
     <use style="fill:#4b78b0;stroke:#4b78b0;stroke-linejoin:miter;" x="350.021408" xlink:href="#me50bab4730" y="76.502389"/>
     <use style="fill:#4b78b0;stroke:#4b78b0;stroke-linejoin:miter;" x="422.224225" xlink:href="#me50bab4730" y="82.183847"/>
     <use style="fill:#4b78b0;stroke:#4b78b0;stroke-linejoin:miter;" x="494.427042" xlink:href="#me50bab4730" y="88.707839"/>
     <use style="fill:#4b78b0;stroke:#4b78b0;stroke-linejoin:miter;" x="566.629859" xlink:href="#me50bab4730" y="109.324902"/>
    </g>
   </g>
   <g id="line2d_20">
    <path clip-path="url(#p365c3ffc12)" d="M 61.210141 92.653962 
L 133.412958 81.802124 
L 205.615775 64.921487 
L 277.818592 109.278055 
L 350.021408 111.257113 
L 422.224225 115.225785 
L 494.427042 172.957564 
L 566.629859 176.755707 
" style="fill:none;stroke:#639e3d;stroke-dasharray:5,5;stroke-dashoffset:0;"/>
    <defs>
     <path d="M -3 3 
L 3 3 
L 3 -3 
L -3 -3 
z
" id="m15d357fc07" style="stroke:#639e3d;stroke-linejoin:miter;"/>
    </defs>
    <g clip-path="url(#p365c3ffc12)">
     <use style="fill:#639e3d;stroke:#639e3d;stroke-linejoin:miter;" x="61.210141" xlink:href="#m15d357fc07" y="92.653962"/>
     <use style="fill:#639e3d;stroke:#639e3d;stroke-linejoin:miter;" x="133.412958" xlink:href="#m15d357fc07" y="81.802124"/>
     <use style="fill:#639e3d;stroke:#639e3d;stroke-linejoin:miter;" x="205.615775" xlink:href="#m15d357fc07" y="64.921487"/>
     <use style="fill:#639e3d;stroke:#639e3d;stroke-linejoin:miter;" x="277.818592" xlink:href="#m15d357fc07" y="109.278055"/>
     <use style="fill:#639e3d;stroke:#639e3d;stroke-linejoin:miter;" x="350.021408" xlink:href="#m15d357fc07" y="111.257113"/>
     <use style="fill:#639e3d;stroke:#639e3d;stroke-linejoin:miter;" x="422.224225" xlink:href="#m15d357fc07" y="115.225785"/>
     <use style="fill:#639e3d;stroke:#639e3d;stroke-linejoin:miter;" x="494.427042" xlink:href="#m15d357fc07" y="172.957564"/>
     <use style="fill:#639e3d;stroke:#639e3d;stroke-linejoin:miter;" x="566.629859" xlink:href="#m15d357fc07" y="176.755707"/>
    </g>
   </g>
   <g id="patch_3">
    <path d="M 57.6 246.24 
L 57.6 4.32 
" style="fill:none;stroke:#262626;stroke-linecap:square;stroke-linejoin:miter;stroke-width:0.8;"/>
   </g>
   <g id="patch_4">
    <path d="M 570.24 246.24 
L 570.24 4.32 
" style="fill:none;stroke:#262626;stroke-linecap:square;stroke-linejoin:miter;stroke-width:0.8;"/>
   </g>
   <g id="patch_5">
    <path d="M 57.6 246.24 
L 570.24 246.24 
" style="fill:none;stroke:#262626;stroke-linecap:square;stroke-linejoin:miter;stroke-width:0.8;"/>
   </g>
   <g id="patch_6">
    <path d="M 57.6 4.32 
L 570.24 4.32 
" style="fill:none;stroke:#262626;stroke-linecap:square;stroke-linejoin:miter;stroke-width:0.8;"/>
   </g>
   <g id="legend_1">
    <g id="patch_7">
     <path d="M 317.240312 56.61875 
L 560.44 56.61875 
Q 563.24 56.61875 563.24 53.81875 
L 563.24 14.12 
Q 563.24 11.32 560.44 11.32 
L 317.240312 11.32 
Q 314.440312 11.32 314.440312 14.12 
L 314.440312 53.81875 
Q 314.440312 56.61875 317.240312 56.61875 
z
" style="fill:#ffffff;opacity:0.8;stroke:#cccccc;stroke-linejoin:miter;"/>
    </g>
    <g id="line2d_21">
     <path d="M 320.040312 22.657812 
L 348.040312 22.657812 
" style="fill:none;stroke:#165f77;stroke-linecap:round;"/>
    </g>
    <g id="line2d_22">
     <g>
      <use style="fill:#165f77;stroke:#165f77;" x="334.040312" xlink:href="#m959df2f424" y="22.657812"/>
     </g>
    </g>
    <g id="text_19">
     <!-- SVO -->
     <defs>
      <path d="M 17.484375 67.671875 
L 39.015625 11.71875 
L 60.5 67.671875 
L 52.296875 67.671875 
L 52.296875 72.90625 
L 73.6875 72.90625 
L 73.6875 67.671875 
L 66.609375 67.671875 
L 40.578125 0 
L 32.171875 0 
L 6.296875 67.671875 
L -0.984375 67.671875 
L -0.984375 72.90625 
L 25.59375 72.90625 
L 25.59375 67.671875 
z
" id="DejaVuSerif-86"/>
     </defs>
     <g style="fill:#262626;" transform="translate(359.240312 27.557812)scale(0.14 -0.14)">
      <use xlink:href="#DejaVuSerif-83"/>
      <use x="68.505859" xlink:href="#DejaVuSerif-86"/>
      <use x="140.707031" xlink:href="#DejaVuSerif-79"/>
     </g>
    </g>
    <g id="line2d_23">
     <path d="M 320.040312 43.207187 
L 348.040312 43.207187 
" style="fill:none;stroke:#aec191;stroke-linecap:round;"/>
    </g>
    <g id="line2d_24">
     <g>
      <use style="fill:#aec191;stroke:#aec191;stroke-linejoin:miter;" x="334.040312" xlink:href="#m3d2d4edb54" y="43.207187"/>
     </g>
    </g>
    <g id="text_20">
     <!-- SOV -->
     <g style="fill:#262626;" transform="translate(359.240312 48.107187)scale(0.14 -0.14)">
      <use xlink:href="#DejaVuSerif-83"/>
      <use x="68.505859" xlink:href="#DejaVuSerif-79"/>
      <use x="150.472656" xlink:href="#DejaVuSerif-86"/>
     </g>
    </g>
    <g id="line2d_25">
     <path d="M 418.416562 22.657812 
L 446.416562 22.657812 
" style="fill:none;stroke:#4b78b0;stroke-dasharray:5,5;stroke-dashoffset:0;"/>
    </g>
    <g id="line2d_26">
     <g>
      <use style="fill:#4b78b0;stroke:#4b78b0;stroke-linejoin:miter;" x="432.416562" xlink:href="#me50bab4730" y="22.657812"/>
     </g>
    </g>
    <g id="text_21">
     <!-- SVO w/ words -->
     <defs>
      <path d="M 48 51.90625 
L 61.28125 11.375 
L 73 46.6875 
L 65.484375 46.6875 
L 65.484375 51.90625 
L 84.28125 51.90625 
L 84.28125 46.6875 
L 78.515625 46.6875 
L 63.09375 0 
L 55.609375 0 
L 42.828125 38.8125 
L 29.984375 0 
L 22.796875 0 
L 7.421875 46.6875 
L 1.609375 46.6875 
L 1.609375 51.90625 
L 25.09375 51.90625 
L 25.09375 46.6875 
L 16.703125 46.6875 
L 28.328125 11.375 
L 41.703125 51.90625 
z
" id="DejaVuSerif-119"/>
      <path d="M 25.875 72.90625 
L 33.6875 72.90625 
L 7.8125 -9.28125 
L 0 -9.28125 
z
" id="DejaVuSerif-47"/>
      <path d="M 30.078125 3.421875 
Q 37.3125 3.421875 40.984375 9.125 
Q 44.671875 14.84375 44.671875 25.984375 
Q 44.671875 37.109375 40.984375 42.796875 
Q 37.3125 48.484375 30.078125 48.484375 
Q 22.859375 48.484375 19.171875 42.796875 
Q 15.484375 37.109375 15.484375 25.984375 
Q 15.484375 14.84375 19.1875 9.125 
Q 22.90625 3.421875 30.078125 3.421875 
z
M 30.078125 -1.421875 
Q 18.75 -1.421875 11.859375 6.078125 
Q 4.984375 13.578125 4.984375 25.984375 
Q 4.984375 38.375 11.84375 45.84375 
Q 18.703125 53.328125 30.078125 53.328125 
Q 41.453125 53.328125 48.3125 45.84375 
Q 55.171875 38.375 55.171875 25.984375 
Q 55.171875 13.578125 48.3125 6.078125 
Q 41.453125 -1.421875 30.078125 -1.421875 
z
" id="DejaVuSerif-111"/>
      <path d="M 5.609375 2.875 
L 5.609375 14.984375 
L 10.796875 14.984375 
Q 10.984375 9.1875 14.421875 6.296875 
Q 17.875 3.421875 24.609375 3.421875 
Q 30.671875 3.421875 33.84375 5.6875 
Q 37.015625 7.953125 37.015625 12.3125 
Q 37.015625 15.71875 34.6875 17.8125 
Q 32.375 19.921875 24.90625 22.3125 
L 18.40625 24.515625 
Q 11.71875 26.65625 8.71875 29.875 
Q 5.71875 33.109375 5.71875 38.09375 
Q 5.71875 45.21875 10.9375 49.265625 
Q 16.15625 53.328125 25.390625 53.328125 
Q 29.5 53.328125 34.03125 52.25 
Q 38.578125 51.171875 43.40625 49.125 
L 43.40625 37.796875 
L 38.234375 37.796875 
Q 38.03125 42.828125 34.703125 45.65625 
Q 31.390625 48.484375 25.6875 48.484375 
Q 20.015625 48.484375 17.109375 46.484375 
Q 14.203125 44.484375 14.203125 40.484375 
Q 14.203125 37.203125 16.40625 35.21875 
Q 18.609375 33.25 25.203125 31.203125 
L 32.328125 29 
Q 39.703125 26.703125 42.9375 23.265625 
Q 46.1875 19.828125 46.1875 14.40625 
Q 46.1875 7.03125 40.546875 2.796875 
Q 34.90625 -1.421875 25 -1.421875 
Q 19.96875 -1.421875 15.1875 -0.34375 
Q 10.40625 0.734375 5.609375 2.875 
z
" id="DejaVuSerif-115"/>
     </defs>
     <g style="fill:#262626;" transform="translate(457.616562 27.557812)scale(0.14 -0.14)">
      <use xlink:href="#DejaVuSerif-83"/>
      <use x="68.505859" xlink:href="#DejaVuSerif-86"/>
      <use x="140.707031" xlink:href="#DejaVuSerif-79"/>
      <use x="222.689453" xlink:href="#DejaVuSerif-32"/>
      <use x="254.476562" xlink:href="#DejaVuSerif-119"/>
      <use x="340.072266" xlink:href="#DejaVuSerif-47"/>
      <use x="373.763672" xlink:href="#DejaVuSerif-32"/>
      <use x="405.550781" xlink:href="#DejaVuSerif-119"/>
      <use x="491.146484" xlink:href="#DejaVuSerif-111"/>
      <use x="551.351562" xlink:href="#DejaVuSerif-114"/>
      <use x="599.154297" xlink:href="#DejaVuSerif-100"/>
      <use x="663.167969" xlink:href="#DejaVuSerif-115"/>
     </g>
    </g>
    <g id="line2d_27">
     <path d="M 418.416562 43.207187 
L 446.416562 43.207187 
" style="fill:none;stroke:#639e3d;stroke-dasharray:5,5;stroke-dashoffset:0;"/>
    </g>
    <g id="line2d_28">
     <g>
      <use style="fill:#639e3d;stroke:#639e3d;stroke-linejoin:miter;" x="432.416562" xlink:href="#m15d357fc07" y="43.207187"/>
     </g>
    </g>
    <g id="text_22">
     <!-- SOV w/ words -->
     <g style="fill:#262626;" transform="translate(457.616562 48.107187)scale(0.14 -0.14)">
      <use xlink:href="#DejaVuSerif-83"/>
      <use x="68.505859" xlink:href="#DejaVuSerif-79"/>
      <use x="150.472656" xlink:href="#DejaVuSerif-86"/>
      <use x="222.689453" xlink:href="#DejaVuSerif-32"/>
      <use x="254.476562" xlink:href="#DejaVuSerif-119"/>
      <use x="340.072266" xlink:href="#DejaVuSerif-47"/>
      <use x="373.763672" xlink:href="#DejaVuSerif-32"/>
      <use x="405.550781" xlink:href="#DejaVuSerif-119"/>
      <use x="491.146484" xlink:href="#DejaVuSerif-111"/>
      <use x="551.351562" xlink:href="#DejaVuSerif-114"/>
      <use x="599.154297" xlink:href="#DejaVuSerif-100"/>
      <use x="663.167969" xlink:href="#DejaVuSerif-115"/>
     </g>
    </g>
   </g>
  </g>
 </g>
 <defs>
  <clipPath id="p365c3ffc12">
   <rect height="241.92" width="512.64" x="57.6" y="4.32"/>
  </clipPath>
 </defs>
</svg>
