<?xml version="1.0" encoding="utf-8" standalone="no"?>
<!DOCTYPE svg PUBLIC "-//W3C//DTD SVG 1.1//EN"
  "http://www.w3.org/Graphics/SVG/1.1/DTD/svg11.dtd">
<!-- Created with matplotlib (https://matplotlib.org/) -->
<svg height="288pt" version="1.1" viewBox="0 0 576 288" width="576pt" xmlns="http://www.w3.org/2000/svg" xmlns:xlink="http://www.w3.org/1999/xlink">
 <defs>
  <style type="text/css">
*{stroke-linecap:butt;stroke-linejoin:round;}
  </style>
 </defs>
 <g id="figure_1">
  <g id="patch_1">
   <path d="M 0 288 
L 576 288 
L 576 0 
L 0 0 
z
" style="fill:#ffffff;"/>
  </g>
  <g id="axes_1">
   <g id="patch_2">
    <path d="M 46.08 246.24 
L 570.24 246.24 
L 570.24 2.88 
L 46.08 2.88 
z
" style="fill:#ffffff;"/>
   </g>
   <g id="matplotlib.axis_1">
    <g id="xtick_1">
     <g id="line2d_1">
      <defs>
       <path d="M 0 0 
L 0 3.5 
" id="mf6182ad711" style="stroke:#262626;stroke-width:0.8;"/>
      </defs>
      <g>
       <use style="fill:#262626;stroke:#262626;stroke-width:0.8;" x="97.935401" xlink:href="#mf6182ad711" y="246.24"/>
      </g>
     </g>
     <g id="text_1">
      <!-- 4 -->
      <defs>
       <path d="M 34.90625 24.703125 
L 34.90625 63.484375 
L 10.015625 24.703125 
z
M 56.390625 0 
L 23.1875 0 
L 23.1875 5.171875 
L 34.90625 5.171875 
L 34.90625 19.484375 
L 3.078125 19.484375 
L 3.078125 24.8125 
L 35.015625 74.21875 
L 44.671875 74.21875 
L 44.671875 24.703125 
L 58.59375 24.703125 
L 58.59375 19.484375 
L 44.671875 19.484375 
L 44.671875 5.171875 
L 56.390625 5.171875 
z
" id="DejaVuSerif-52"/>
      </defs>
      <g style="fill:#262626;" transform="translate(93.481651 263.877813)scale(0.14 -0.14)">
       <use xlink:href="#DejaVuSerif-52"/>
      </g>
     </g>
    </g>
    <g id="xtick_2">
     <g id="line2d_2">
      <g>
       <use style="fill:#262626;stroke:#262626;stroke-width:0.8;" x="210.055187" xlink:href="#mf6182ad711" y="246.24"/>
      </g>
     </g>
     <g id="text_2">
      <!-- 8 -->
      <defs>
       <path d="M 46.578125 19.921875 
Q 46.578125 27.734375 42.6875 32.046875 
Q 38.8125 36.375 31.78125 36.375 
Q 24.75 36.375 20.875 32.046875 
Q 17 27.734375 17 19.921875 
Q 17 12.0625 20.875 7.734375 
Q 24.75 3.421875 31.78125 3.421875 
Q 38.8125 3.421875 42.6875 7.734375 
Q 46.578125 12.0625 46.578125 19.921875 
z
M 44.578125 55.328125 
Q 44.578125 61.96875 41.203125 65.671875 
Q 37.84375 69.390625 31.78125 69.390625 
Q 25.78125 69.390625 22.390625 65.671875 
Q 19 61.96875 19 55.328125 
Q 19 48.640625 22.390625 44.921875 
Q 25.78125 41.21875 31.78125 41.21875 
Q 37.84375 41.21875 41.203125 44.921875 
Q 44.578125 48.640625 44.578125 55.328125 
z
M 39.3125 38.8125 
Q 47.609375 37.703125 52.25 32.6875 
Q 56.890625 27.6875 56.890625 19.921875 
Q 56.890625 9.671875 50.390625 4.125 
Q 43.890625 -1.421875 31.78125 -1.421875 
Q 19.734375 -1.421875 13.203125 4.125 
Q 6.6875 9.671875 6.6875 19.921875 
Q 6.6875 27.6875 11.328125 32.6875 
Q 15.96875 37.703125 24.3125 38.8125 
Q 16.9375 40.140625 13 44.40625 
Q 9.078125 48.6875 9.078125 55.328125 
Q 9.078125 64.109375 15.125 69.15625 
Q 21.1875 74.21875 31.78125 74.21875 
Q 42.390625 74.21875 48.4375 69.15625 
Q 54.5 64.109375 54.5 55.328125 
Q 54.5 48.6875 50.5625 44.40625 
Q 46.625 40.140625 39.3125 38.8125 
z
" id="DejaVuSerif-56"/>
      </defs>
      <g style="fill:#262626;" transform="translate(205.601437 263.877813)scale(0.14 -0.14)">
       <use xlink:href="#DejaVuSerif-56"/>
      </g>
     </g>
    </g>
    <g id="xtick_3">
     <g id="line2d_3">
      <g>
       <use style="fill:#262626;stroke:#262626;stroke-width:0.8;" x="322.174973" xlink:href="#mf6182ad711" y="246.24"/>
      </g>
     </g>
     <g id="text_3">
      <!-- 12 -->
      <defs>
       <path d="M 14.203125 0 
L 14.203125 5.171875 
L 26.90625 5.171875 
L 26.90625 65.828125 
L 12.203125 56.296875 
L 12.203125 62.703125 
L 29.984375 74.21875 
L 36.71875 74.21875 
L 36.71875 5.171875 
L 49.421875 5.171875 
L 49.421875 0 
z
" id="DejaVuSerif-49"/>
       <path d="M 12.796875 55.515625 
L 7.328125 55.515625 
L 7.328125 68.5 
Q 12.546875 71.296875 17.84375 72.75 
Q 23.140625 74.21875 28.21875 74.21875 
Q 39.59375 74.21875 46.1875 68.703125 
Q 52.78125 63.1875 52.78125 53.71875 
Q 52.78125 43.015625 37.84375 28.125 
Q 36.671875 27 36.078125 26.421875 
L 17.671875 8.015625 
L 48.09375 8.015625 
L 48.09375 17 
L 53.8125 17 
L 53.8125 0 
L 6.78125 0 
L 6.78125 5.328125 
L 28.90625 27.390625 
Q 36.234375 34.71875 39.359375 40.84375 
Q 42.484375 46.96875 42.484375 53.71875 
Q 42.484375 61.078125 38.640625 65.234375 
Q 34.8125 69.390625 28.078125 69.390625 
Q 21.09375 69.390625 17.28125 65.921875 
Q 13.484375 62.453125 12.796875 55.515625 
z
" id="DejaVuSerif-50"/>
      </defs>
      <g style="fill:#262626;" transform="translate(313.267473 263.877813)scale(0.14 -0.14)">
       <use xlink:href="#DejaVuSerif-49"/>
       <use x="63.623047" xlink:href="#DejaVuSerif-50"/>
      </g>
     </g>
    </g>
    <g id="xtick_4">
     <g id="line2d_4">
      <g>
       <use style="fill:#262626;stroke:#262626;stroke-width:0.8;" x="434.294759" xlink:href="#mf6182ad711" y="246.24"/>
      </g>
     </g>
     <g id="text_4">
      <!-- 16 -->
      <defs>
       <path d="M 32.71875 3.421875 
Q 39.59375 3.421875 43.296875 8.46875 
Q 47.015625 13.53125 47.015625 23 
Q 47.015625 32.46875 43.296875 37.515625 
Q 39.59375 42.578125 32.71875 42.578125 
Q 25.734375 42.578125 22.0625 37.6875 
Q 18.40625 32.8125 18.40625 23.578125 
Q 18.40625 13.875 22.109375 8.640625 
Q 25.828125 3.421875 32.71875 3.421875 
z
M 16.796875 40.140625 
Q 20.125 43.796875 24.3125 45.59375 
Q 28.515625 47.40625 33.796875 47.40625 
Q 44.671875 47.40625 51 40.859375 
Q 57.328125 34.328125 57.328125 23 
Q 57.328125 11.921875 50.515625 5.25 
Q 43.703125 -1.421875 32.328125 -1.421875 
Q 19.96875 -1.421875 13.328125 7.78125 
Q 6.6875 17 6.6875 34.078125 
Q 6.6875 53.21875 14.546875 63.71875 
Q 22.40625 74.21875 36.71875 74.21875 
Q 40.578125 74.21875 44.828125 73.484375 
Q 49.078125 72.75 53.515625 71.296875 
L 53.515625 59.28125 
L 48 59.28125 
Q 47.40625 64.203125 44.234375 66.796875 
Q 41.0625 69.390625 35.6875 69.390625 
Q 26.21875 69.390625 21.578125 62.203125 
Q 16.9375 55.03125 16.796875 40.140625 
z
" id="DejaVuSerif-54"/>
      </defs>
      <g style="fill:#262626;" transform="translate(425.387259 263.877813)scale(0.14 -0.14)">
       <use xlink:href="#DejaVuSerif-49"/>
       <use x="63.623047" xlink:href="#DejaVuSerif-54"/>
      </g>
     </g>
    </g>
    <g id="xtick_5">
     <g id="line2d_5">
      <g>
       <use style="fill:#262626;stroke:#262626;stroke-width:0.8;" x="546.414545" xlink:href="#mf6182ad711" y="246.24"/>
      </g>
     </g>
     <g id="text_5">
      <!-- 20 -->
      <defs>
       <path d="M 31.78125 3.421875 
Q 39.265625 3.421875 42.96875 11.625 
Q 46.6875 19.828125 46.6875 36.375 
Q 46.6875 52.984375 42.96875 61.1875 
Q 39.265625 69.390625 31.78125 69.390625 
Q 24.3125 69.390625 20.59375 61.1875 
Q 16.890625 52.984375 16.890625 36.375 
Q 16.890625 19.828125 20.59375 11.625 
Q 24.3125 3.421875 31.78125 3.421875 
z
M 31.78125 -1.421875 
Q 19.921875 -1.421875 13.25 8.53125 
Q 6.59375 18.5 6.59375 36.375 
Q 6.59375 54.296875 13.25 64.25 
Q 19.921875 74.21875 31.78125 74.21875 
Q 43.703125 74.21875 50.34375 64.25 
Q 56.984375 54.296875 56.984375 36.375 
Q 56.984375 18.5 50.34375 8.53125 
Q 43.703125 -1.421875 31.78125 -1.421875 
z
" id="DejaVuSerif-48"/>
      </defs>
      <g style="fill:#262626;" transform="translate(537.507045 263.877813)scale(0.14 -0.14)">
       <use xlink:href="#DejaVuSerif-50"/>
       <use x="63.623047" xlink:href="#DejaVuSerif-48"/>
      </g>
     </g>
    </g>
    <g id="text_6">
     <!-- Sentence Length -->
     <defs>
      <path d="M 9.28125 3.515625 
L 9.28125 20.125 
L 14.890625 20.0625 
Q 15.140625 11.765625 19.703125 7.78125 
Q 24.265625 3.8125 33.59375 3.8125 
Q 42.28125 3.8125 46.84375 7.25 
Q 51.421875 10.6875 51.421875 17.28125 
Q 51.421875 22.5625 48.65625 25.390625 
Q 45.90625 28.21875 37.015625 30.90625 
L 27.390625 33.796875 
Q 16.9375 36.96875 12.671875 41.703125 
Q 8.40625 46.4375 8.40625 54.6875 
Q 8.40625 63.96875 14.984375 69.09375 
Q 21.578125 74.21875 33.5 74.21875 
Q 38.578125 74.21875 44.625 73.109375 
Q 50.6875 72.015625 57.515625 69.921875 
L 57.515625 54.390625 
L 52 54.390625 
Q 51.171875 62.109375 46.84375 65.546875 
Q 42.53125 69 33.6875 69 
Q 25.984375 69 21.953125 65.84375 
Q 17.921875 62.703125 17.921875 56.6875 
Q 17.921875 51.46875 20.9375 48.484375 
Q 23.96875 45.515625 33.796875 42.578125 
L 42.828125 39.890625 
Q 52.734375 36.921875 56.953125 32.296875 
Q 61.1875 27.6875 61.1875 19.921875 
Q 61.1875 9.328125 54.390625 3.953125 
Q 47.609375 -1.421875 34.1875 -1.421875 
Q 28.171875 -1.421875 21.9375 -0.1875 
Q 15.71875 1.03125 9.28125 3.515625 
z
" id="DejaVuSerif-83"/>
      <path d="M 54.203125 25 
L 15.484375 25 
L 15.484375 24.609375 
Q 15.484375 14.109375 19.4375 8.765625 
Q 23.390625 3.421875 31.109375 3.421875 
Q 37.015625 3.421875 40.796875 6.515625 
Q 44.578125 9.625 46.09375 15.71875 
L 53.328125 15.71875 
Q 51.171875 7.171875 45.375 2.875 
Q 39.59375 -1.421875 30.171875 -1.421875 
Q 18.796875 -1.421875 11.890625 6.078125 
Q 4.984375 13.578125 4.984375 25.984375 
Q 4.984375 38.28125 11.765625 45.796875 
Q 18.5625 53.328125 29.59375 53.328125 
Q 41.359375 53.328125 47.65625 46.0625 
Q 53.953125 38.8125 54.203125 25 
z
M 43.609375 30.171875 
Q 43.3125 39.265625 39.765625 43.875 
Q 36.234375 48.484375 29.59375 48.484375 
Q 23.390625 48.484375 19.828125 43.84375 
Q 16.265625 39.203125 15.484375 30.171875 
z
" id="DejaVuSerif-101"/>
      <path d="M 4.109375 0 
L 4.109375 5.171875 
L 12.203125 5.171875 
L 12.203125 46.6875 
L 3.609375 46.6875 
L 3.609375 51.90625 
L 21.1875 51.90625 
L 21.1875 42.671875 
Q 23.6875 47.953125 27.65625 50.640625 
Q 31.640625 53.328125 36.921875 53.328125 
Q 45.515625 53.328125 49.5625 48.390625 
Q 53.609375 43.453125 53.609375 33.015625 
L 53.609375 5.171875 
L 61.625 5.171875 
L 61.625 0 
L 36.8125 0 
L 36.8125 5.171875 
L 44.578125 5.171875 
L 44.578125 30.171875 
Q 44.578125 39.703125 42.234375 43.234375 
Q 39.890625 46.78125 33.984375 46.78125 
Q 27.734375 46.78125 24.453125 42.203125 
Q 21.1875 37.640625 21.1875 28.90625 
L 21.1875 5.171875 
L 29 5.171875 
L 29 0 
z
" id="DejaVuSerif-110"/>
      <path d="M 10.796875 46.6875 
L 2.875 46.6875 
L 2.875 51.90625 
L 10.796875 51.90625 
L 10.796875 68.015625 
L 19.828125 68.015625 
L 19.828125 51.90625 
L 36.71875 51.90625 
L 36.71875 46.6875 
L 19.828125 46.6875 
L 19.828125 13.71875 
Q 19.828125 7.125 21.09375 5.265625 
Q 22.359375 3.421875 25.78125 3.421875 
Q 29.296875 3.421875 30.90625 5.484375 
Q 32.515625 7.5625 32.625 12.203125 
L 39.40625 12.203125 
Q 39.015625 5.125 35.546875 1.84375 
Q 32.078125 -1.421875 25 -1.421875 
Q 17.234375 -1.421875 14.015625 2.015625 
Q 10.796875 5.46875 10.796875 13.71875 
z
" id="DejaVuSerif-116"/>
      <path d="M 51.421875 15.578125 
Q 49.515625 7.28125 44.09375 2.921875 
Q 38.671875 -1.421875 30.078125 -1.421875 
Q 18.75 -1.421875 11.859375 6.078125 
Q 4.984375 13.578125 4.984375 25.984375 
Q 4.984375 38.421875 11.859375 45.875 
Q 18.75 53.328125 30.078125 53.328125 
Q 35.015625 53.328125 39.890625 52.171875 
Q 44.78125 51.03125 49.703125 48.6875 
L 49.703125 35.40625 
L 44.484375 35.40625 
Q 43.453125 42.234375 40.015625 45.359375 
Q 36.578125 48.484375 30.171875 48.484375 
Q 22.90625 48.484375 19.1875 42.84375 
Q 15.484375 37.203125 15.484375 25.984375 
Q 15.484375 14.75 19.171875 9.078125 
Q 22.859375 3.421875 30.171875 3.421875 
Q 35.984375 3.421875 39.453125 6.4375 
Q 42.921875 9.46875 44.1875 15.578125 
z
" id="DejaVuSerif-99"/>
      <path id="DejaVuSerif-32"/>
      <path d="M 5.515625 0 
L 5.515625 5.171875 
L 14.796875 5.171875 
L 14.796875 67.671875 
L 5.515625 67.671875 
L 5.515625 72.90625 
L 33.984375 72.90625 
L 33.984375 67.671875 
L 24.703125 67.671875 
L 24.703125 6 
L 58.015625 6 
L 58.015625 18.21875 
L 64.015625 18.21875 
L 64.015625 0 
z
" id="DejaVuSerif-76"/>
      <path d="M 52.484375 46.6875 
L 52.484375 1.125 
Q 52.484375 -10.0625 46.328125 -16.140625 
Q 40.1875 -22.21875 28.8125 -22.21875 
Q 23.6875 -22.21875 19 -21.28125 
Q 14.3125 -20.359375 10.015625 -18.5 
L 10.015625 -7.625 
L 14.703125 -7.625 
Q 15.578125 -12.703125 18.84375 -15.046875 
Q 22.125 -17.390625 28.21875 -17.390625 
Q 36.140625 -17.390625 39.8125 -12.921875 
Q 43.5 -8.453125 43.5 1.125 
L 43.5 8.109375 
Q 40.875 3.21875 36.796875 0.890625 
Q 32.71875 -1.421875 26.703125 -1.421875 
Q 17.140625 -1.421875 11.0625 6.171875 
Q 4.984375 13.765625 4.984375 25.984375 
Q 4.984375 38.1875 11.03125 45.75 
Q 17.09375 53.328125 26.703125 53.328125 
Q 32.71875 53.328125 36.796875 51 
Q 40.875 48.6875 43.5 43.796875 
L 43.5 51.90625 
L 61.078125 51.90625 
L 61.078125 46.6875 
z
M 43.5 28.515625 
Q 43.5 37.84375 39.90625 42.765625 
Q 36.328125 47.703125 29.5 47.703125 
Q 22.5625 47.703125 19.015625 42.234375 
Q 15.484375 36.765625 15.484375 25.984375 
Q 15.484375 15.234375 19.015625 9.71875 
Q 22.5625 4.203125 29.5 4.203125 
Q 36.328125 4.203125 39.90625 9.109375 
Q 43.5 14.015625 43.5 23.390625 
z
" id="DejaVuSerif-103"/>
      <path d="M 4.109375 0 
L 4.109375 5.171875 
L 12.203125 5.171875 
L 12.203125 70.796875 
L 3.609375 70.796875 
L 3.609375 75.984375 
L 21.1875 75.984375 
L 21.1875 42.671875 
Q 23.6875 47.953125 27.65625 50.640625 
Q 31.640625 53.328125 36.921875 53.328125 
Q 45.515625 53.328125 49.5625 48.390625 
Q 53.609375 43.453125 53.609375 33.015625 
L 53.609375 5.171875 
L 61.625 5.171875 
L 61.625 0 
L 36.8125 0 
L 36.8125 5.171875 
L 44.578125 5.171875 
L 44.578125 30.171875 
Q 44.578125 39.703125 42.25 43.1875 
Q 39.9375 46.6875 33.984375 46.6875 
Q 27.734375 46.6875 24.453125 42.140625 
Q 21.1875 37.59375 21.1875 28.90625 
L 21.1875 5.171875 
L 29 5.171875 
L 29 0 
z
" id="DejaVuSerif-104"/>
     </defs>
     <g style="fill:#262626;" transform="translate(239.24375 282.946875)scale(0.16 -0.16)">
      <use xlink:href="#DejaVuSerif-83"/>
      <use x="68.505859" xlink:href="#DejaVuSerif-101"/>
      <use x="127.685547" xlink:href="#DejaVuSerif-110"/>
      <use x="192.089844" xlink:href="#DejaVuSerif-116"/>
      <use x="232.275391" xlink:href="#DejaVuSerif-101"/>
      <use x="291.455078" xlink:href="#DejaVuSerif-110"/>
      <use x="355.859375" xlink:href="#DejaVuSerif-99"/>
      <use x="411.865234" xlink:href="#DejaVuSerif-101"/>
      <use x="471.044922" xlink:href="#DejaVuSerif-32"/>
      <use x="502.832031" xlink:href="#DejaVuSerif-76"/>
      <use x="569.238281" xlink:href="#DejaVuSerif-101"/>
      <use x="628.417969" xlink:href="#DejaVuSerif-110"/>
      <use x="692.822266" xlink:href="#DejaVuSerif-103"/>
      <use x="756.835938" xlink:href="#DejaVuSerif-116"/>
      <use x="797.021484" xlink:href="#DejaVuSerif-104"/>
     </g>
    </g>
   </g>
   <g id="matplotlib.axis_2">
    <g id="ytick_1">
     <g id="line2d_6">
      <defs>
       <path d="M 0 0 
L -3.5 0 
" id="m9eede5cbbb" style="stroke:#262626;stroke-width:0.8;"/>
      </defs>
      <g>
       <use style="fill:#262626;stroke:#262626;stroke-width:0.8;" x="46.08" xlink:href="#m9eede5cbbb" y="218.497662"/>
      </g>
     </g>
     <g id="text_7">
      <!-- 2 -->
      <g style="fill:#262626;" transform="translate(30.1725 223.816569)scale(0.14 -0.14)">
       <use xlink:href="#DejaVuSerif-50"/>
      </g>
     </g>
    </g>
    <g id="ytick_2">
     <g id="line2d_7">
      <g>
       <use style="fill:#262626;stroke:#262626;stroke-width:0.8;" x="46.08" xlink:href="#m9eede5cbbb" y="185.136623"/>
      </g>
     </g>
     <g id="text_8">
      <!-- 4 -->
      <g style="fill:#262626;" transform="translate(30.1725 190.45553)scale(0.14 -0.14)">
       <use xlink:href="#DejaVuSerif-52"/>
      </g>
     </g>
    </g>
    <g id="ytick_3">
     <g id="line2d_8">
      <g>
       <use style="fill:#262626;stroke:#262626;stroke-width:0.8;" x="46.08" xlink:href="#m9eede5cbbb" y="151.775584"/>
      </g>
     </g>
     <g id="text_9">
      <!-- 6 -->
      <g style="fill:#262626;" transform="translate(30.1725 157.094491)scale(0.14 -0.14)">
       <use xlink:href="#DejaVuSerif-54"/>
      </g>
     </g>
    </g>
    <g id="ytick_4">
     <g id="line2d_9">
      <g>
       <use style="fill:#262626;stroke:#262626;stroke-width:0.8;" x="46.08" xlink:href="#m9eede5cbbb" y="118.414545"/>
      </g>
     </g>
     <g id="text_10">
      <!-- 8 -->
      <g style="fill:#262626;" transform="translate(30.1725 123.733452)scale(0.14 -0.14)">
       <use xlink:href="#DejaVuSerif-56"/>
      </g>
     </g>
    </g>
    <g id="ytick_5">
     <g id="line2d_10">
      <g>
       <use style="fill:#262626;stroke:#262626;stroke-width:0.8;" x="46.08" xlink:href="#m9eede5cbbb" y="85.053506"/>
      </g>
     </g>
     <g id="text_11">
      <!-- 10 -->
      <g style="fill:#262626;" transform="translate(21.265 90.372413)scale(0.14 -0.14)">
       <use xlink:href="#DejaVuSerif-49"/>
       <use x="63.623047" xlink:href="#DejaVuSerif-48"/>
      </g>
     </g>
    </g>
    <g id="ytick_6">
     <g id="line2d_11">
      <g>
       <use style="fill:#262626;stroke:#262626;stroke-width:0.8;" x="46.08" xlink:href="#m9eede5cbbb" y="51.692468"/>
      </g>
     </g>
     <g id="text_12">
      <!-- 12 -->
      <g style="fill:#262626;" transform="translate(21.265 57.011374)scale(0.14 -0.14)">
       <use xlink:href="#DejaVuSerif-49"/>
       <use x="63.623047" xlink:href="#DejaVuSerif-50"/>
      </g>
     </g>
    </g>
    <g id="ytick_7">
     <g id="line2d_12">
      <g>
       <use style="fill:#262626;stroke:#262626;stroke-width:0.8;" x="46.08" xlink:href="#m9eede5cbbb" y="18.331429"/>
      </g>
     </g>
     <g id="text_13">
      <!-- 14 -->
      <g style="fill:#262626;" transform="translate(21.265 23.650335)scale(0.14 -0.14)">
       <use xlink:href="#DejaVuSerif-49"/>
       <use x="63.623047" xlink:href="#DejaVuSerif-52"/>
      </g>
     </g>
    </g>
    <g id="text_14">
     <!-- mDD -->
     <defs>
      <path d="M 51.8125 41.796875 
Q 54.390625 47.515625 58.421875 50.421875 
Q 62.453125 53.328125 67.828125 53.328125 
Q 75.984375 53.328125 79.984375 48.265625 
Q 83.984375 43.21875 83.984375 33.015625 
L 83.984375 5.171875 
L 92.09375 5.171875 
L 92.09375 0 
L 67.1875 0 
L 67.1875 5.171875 
L 75 5.171875 
L 75 31.984375 
Q 75 39.9375 72.65625 43.3125 
Q 70.3125 46.6875 64.890625 46.6875 
Q 58.890625 46.6875 55.734375 42.140625 
Q 52.59375 37.59375 52.59375 28.90625 
L 52.59375 5.171875 
L 60.40625 5.171875 
L 60.40625 0 
L 35.796875 0 
L 35.796875 5.171875 
L 43.609375 5.171875 
L 43.609375 32.328125 
Q 43.609375 40.09375 41.265625 43.390625 
Q 38.921875 46.6875 33.5 46.6875 
Q 27.484375 46.6875 24.328125 42.140625 
Q 21.1875 37.59375 21.1875 28.90625 
L 21.1875 5.171875 
L 29 5.171875 
L 29 0 
L 4.109375 0 
L 4.109375 5.171875 
L 12.203125 5.171875 
L 12.203125 46.78125 
L 3.609375 46.78125 
L 3.609375 51.90625 
L 21.1875 51.90625 
L 21.1875 42.671875 
Q 23.6875 47.859375 27.53125 50.59375 
Q 31.390625 53.328125 36.28125 53.328125 
Q 42.328125 53.328125 46.375 50.3125 
Q 50.4375 47.3125 51.8125 41.796875 
z
" id="DejaVuSerif-109"/>
      <path d="M 24.703125 5.171875 
L 33.796875 5.171875 
Q 48 5.171875 55.59375 13.28125 
Q 63.1875 21.390625 63.1875 36.53125 
Q 63.1875 51.65625 55.609375 59.65625 
Q 48.046875 67.671875 33.796875 67.671875 
L 24.703125 67.671875 
z
M 5.515625 0 
L 5.515625 5.171875 
L 14.796875 5.171875 
L 14.796875 67.671875 
L 5.515625 67.671875 
L 5.515625 72.90625 
L 34.515625 72.90625 
Q 53.375 72.90625 63.890625 63.28125 
Q 74.421875 53.65625 74.421875 36.53125 
Q 74.421875 19.34375 63.875 9.671875 
Q 53.328125 0 34.515625 0 
z
" id="DejaVuSerif-68"/>
     </defs>
     <g style="fill:#262626;" transform="translate(13.9375 144.97375)rotate(-90)scale(0.16 -0.16)">
      <use xlink:href="#DejaVuSerif-109"/>
      <use x="94.824219" xlink:href="#DejaVuSerif-68"/>
      <use x="175" xlink:href="#DejaVuSerif-68"/>
     </g>
    </g>
   </g>
   <g id="PolyCollection_1">
    <defs>
     <path d="M 69.905455 -52.821818 
L 69.905455 -52.821818 
L 97.935401 -56.839623 
L 125.965348 -60.437579 
L 153.995294 -63.982885 
L 182.025241 -66.919957 
L 210.055187 -69.322026 
L 238.085134 -71.523393 
L 266.11508 -73.22229 
L 294.145027 -75.293353 
L 322.174973 -76.473669 
L 350.20492 -78.024544 
L 378.234866 -79.486561 
L 406.264813 -80.880838 
L 434.294759 -81.905532 
L 462.324706 -83.669459 
L 490.354652 -84.658751 
L 518.384599 -85.810267 
L 546.414545 -86.65028 
L 546.414545 -90.7525 
L 546.414545 -90.7525 
L 518.384599 -89.679847 
L 490.354652 -88.071515 
L 462.324706 -86.804018 
L 434.294759 -84.844997 
L 406.264813 -83.48986 
L 378.234866 -81.861714 
L 350.20492 -80.137879 
L 322.174973 -78.305176 
L 294.145027 -76.919691 
L 266.11508 -74.610217 
L 238.085134 -72.694467 
L 210.055187 -70.294178 
L 182.025241 -67.684582 
L 153.995294 -64.560676 
L 125.965348 -60.863308 
L 97.935401 -57.126706 
L 69.905455 -52.821818 
z
" id="md969f8eaf4" style="stroke:#165f77;stroke-opacity:0.2;"/>
    </defs>
    <g clip-path="url(#p014df15166)">
     <use style="fill:#165f77;fill-opacity:0.2;stroke:#165f77;stroke-opacity:0.2;" x="0" xlink:href="#md969f8eaf4" y="288"/>
    </g>
   </g>
   <g id="PolyCollection_2">
    <defs>
     <path d="M 69.905455 -61.162078 
L 69.905455 -61.162078 
L 97.935401 -62.386869 
L 125.965348 -66.036179 
L 153.995294 -68.96907 
L 182.025241 -71.496716 
L 210.055187 -75.196039 
L 238.085134 -78.111452 
L 266.11508 -81.54773 
L 294.145027 -84.074992 
L 322.174973 -87.399046 
L 350.20492 -88.241588 
L 378.234866 -90.291144 
L 406.264813 -90.941315 
L 434.294759 -92.713096 
L 462.324706 -93.126273 
L 490.354652 -94.425837 
L 518.384599 -93.891236 
L 546.414545 -96.894878 
L 546.414545 -106.441389 
L 546.414545 -106.441389 
L 518.384599 -102.462378 
L 490.354652 -102.324329 
L 462.324706 -99.896718 
L 434.294759 -98.930816 
L 406.264813 -96.507756 
L 378.234866 -94.927798 
L 350.20492 -92.3824 
L 322.174973 -90.852691 
L 294.145027 -87.075763 
L 266.11508 -84.225591 
L 238.085134 -80.312005 
L 210.055187 -77.101061 
L 182.025241 -73.004117 
L 153.995294 -70.165373 
L 125.965348 -66.918499 
L 97.935401 -62.97859 
L 69.905455 -61.162078 
z
" id="ma9d703fac8" style="stroke:#679033;stroke-opacity:0.2;"/>
    </defs>
    <g clip-path="url(#p014df15166)">
     <use style="fill:#679033;fill-opacity:0.2;stroke:#679033;stroke-opacity:0.2;" x="0" xlink:href="#ma9d703fac8" y="288"/>
    </g>
   </g>
   <g id="line2d_13">
    <path clip-path="url(#p014df15166)" d="M 69.905455 226.837922 
L 97.935401 212.937489 
L 125.965348 201.817143 
L 153.995294 188.472727 
L 182.025241 176.796364 
L 210.055187 163.690241 
L 238.085134 151.775584 
L 266.11508 138.801847 
L 294.145027 126.754805 
L 322.174973 113.865313 
L 350.20492 101.734026 
L 378.234866 88.902857 
L 406.264813 76.713247 
L 434.294759 63.924848 
L 462.324706 51.692468 
L 490.354652 38.936776 
L 518.384599 26.671688 
L 546.414545 13.941818 
" style="fill:none;stroke:#000000;stroke-dasharray:2,3.3;stroke-dashoffset:0;stroke-width:2;"/>
   </g>
   <g id="line2d_14">
    <path clip-path="url(#p014df15166)" d="M 69.905455 235.178182 
L 97.935401 235.178182 
L 125.965348 235.178182 
L 153.995294 235.178182 
L 182.025241 235.178182 
L 210.055187 235.178182 
L 238.085134 235.178182 
L 266.11508 235.178182 
L 294.145027 235.178182 
L 322.174973 235.178182 
L 350.20492 235.178182 
L 378.234866 235.178182 
L 406.264813 235.178182 
L 434.294759 235.178182 
L 462.324706 235.178182 
L 490.354652 235.178182 
L 518.384599 235.178182 
L 546.414545 235.178182 
" style="fill:none;stroke:#000000;stroke-dasharray:12.8,3.2,2,3.2;stroke-dashoffset:0;stroke-width:2;"/>
   </g>
   <g id="line2d_15">
    <path clip-path="url(#p014df15166)" d="M 69.905455 235.178182 
L 97.935401 231.016836 
L 125.965348 227.349557 
L 153.995294 223.728219 
L 182.025241 220.697731 
L 210.055187 218.191898 
L 238.085134 215.89107 
L 266.11508 214.083747 
L 294.145027 211.893478 
L 322.174973 210.610577 
L 350.20492 208.918789 
L 378.234866 207.325863 
L 406.264813 205.814651 
L 434.294759 204.624736 
L 462.324706 202.763261 
L 490.354652 201.634867 
L 518.384599 200.254943 
L 546.414545 199.29861 
" style="fill:none;stroke:#165f77;stroke-linecap:round;"/>
    <defs>
     <path d="M 0 3 
C 0.795609 3 1.55874 2.683901 2.12132 2.12132 
C 2.683901 1.55874 3 0.795609 3 0 
C 3 -0.795609 2.683901 -1.55874 2.12132 -2.12132 
C 1.55874 -2.683901 0.795609 -3 0 -3 
C -0.795609 -3 -1.55874 -2.683901 -2.12132 -2.12132 
C -2.683901 -1.55874 -3 -0.795609 -3 0 
C -3 0.795609 -2.683901 1.55874 -2.12132 2.12132 
C -1.55874 2.683901 -0.795609 3 0 3 
z
" id="mcd5b1bd714" style="stroke:#165f77;"/>
    </defs>
    <g clip-path="url(#p014df15166)">
     <use style="fill:#165f77;stroke:#165f77;" x="69.905455" xlink:href="#mcd5b1bd714" y="235.178182"/>
     <use style="fill:#165f77;stroke:#165f77;" x="97.935401" xlink:href="#mcd5b1bd714" y="231.016836"/>
     <use style="fill:#165f77;stroke:#165f77;" x="125.965348" xlink:href="#mcd5b1bd714" y="227.349557"/>
     <use style="fill:#165f77;stroke:#165f77;" x="153.995294" xlink:href="#mcd5b1bd714" y="223.728219"/>
     <use style="fill:#165f77;stroke:#165f77;" x="182.025241" xlink:href="#mcd5b1bd714" y="220.697731"/>
     <use style="fill:#165f77;stroke:#165f77;" x="210.055187" xlink:href="#mcd5b1bd714" y="218.191898"/>
     <use style="fill:#165f77;stroke:#165f77;" x="238.085134" xlink:href="#mcd5b1bd714" y="215.89107"/>
     <use style="fill:#165f77;stroke:#165f77;" x="266.11508" xlink:href="#mcd5b1bd714" y="214.083747"/>
     <use style="fill:#165f77;stroke:#165f77;" x="294.145027" xlink:href="#mcd5b1bd714" y="211.893478"/>
     <use style="fill:#165f77;stroke:#165f77;" x="322.174973" xlink:href="#mcd5b1bd714" y="210.610577"/>
     <use style="fill:#165f77;stroke:#165f77;" x="350.20492" xlink:href="#mcd5b1bd714" y="208.918789"/>
     <use style="fill:#165f77;stroke:#165f77;" x="378.234866" xlink:href="#mcd5b1bd714" y="207.325863"/>
     <use style="fill:#165f77;stroke:#165f77;" x="406.264813" xlink:href="#mcd5b1bd714" y="205.814651"/>
     <use style="fill:#165f77;stroke:#165f77;" x="434.294759" xlink:href="#mcd5b1bd714" y="204.624736"/>
     <use style="fill:#165f77;stroke:#165f77;" x="462.324706" xlink:href="#mcd5b1bd714" y="202.763261"/>
     <use style="fill:#165f77;stroke:#165f77;" x="490.354652" xlink:href="#mcd5b1bd714" y="201.634867"/>
     <use style="fill:#165f77;stroke:#165f77;" x="518.384599" xlink:href="#mcd5b1bd714" y="200.254943"/>
     <use style="fill:#165f77;stroke:#165f77;" x="546.414545" xlink:href="#mcd5b1bd714" y="199.29861"/>
    </g>
   </g>
   <g id="line2d_16">
    <path clip-path="url(#p014df15166)" d="M 69.905455 226.837922 
L 97.935401 225.317271 
L 125.965348 221.522661 
L 153.995294 218.432779 
L 182.025241 215.749583 
L 210.055187 211.85145 
L 238.085134 208.788271 
L 266.11508 205.113339 
L 294.145027 202.424623 
L 322.174973 198.874131 
L 350.20492 197.688006 
L 378.234866 195.390529 
L 406.264813 194.275464 
L 434.294759 192.178044 
L 462.324706 191.488505 
L 490.354652 189.624917 
L 518.384599 189.823193 
L 546.414545 186.331867 
" style="fill:none;stroke:#679033;stroke-linecap:round;"/>
    <defs>
     <path d="M 0 -3 
L -3 3 
L 3 3 
z
" id="m28155c31b5" style="stroke:#679033;stroke-linejoin:miter;"/>
    </defs>
    <g clip-path="url(#p014df15166)">
     <use style="fill:#679033;stroke:#679033;stroke-linejoin:miter;" x="69.905455" xlink:href="#m28155c31b5" y="226.837922"/>
     <use style="fill:#679033;stroke:#679033;stroke-linejoin:miter;" x="97.935401" xlink:href="#m28155c31b5" y="225.317271"/>
     <use style="fill:#679033;stroke:#679033;stroke-linejoin:miter;" x="125.965348" xlink:href="#m28155c31b5" y="221.522661"/>
     <use style="fill:#679033;stroke:#679033;stroke-linejoin:miter;" x="153.995294" xlink:href="#m28155c31b5" y="218.432779"/>
     <use style="fill:#679033;stroke:#679033;stroke-linejoin:miter;" x="182.025241" xlink:href="#m28155c31b5" y="215.749583"/>
     <use style="fill:#679033;stroke:#679033;stroke-linejoin:miter;" x="210.055187" xlink:href="#m28155c31b5" y="211.85145"/>
     <use style="fill:#679033;stroke:#679033;stroke-linejoin:miter;" x="238.085134" xlink:href="#m28155c31b5" y="208.788271"/>
     <use style="fill:#679033;stroke:#679033;stroke-linejoin:miter;" x="266.11508" xlink:href="#m28155c31b5" y="205.113339"/>
     <use style="fill:#679033;stroke:#679033;stroke-linejoin:miter;" x="294.145027" xlink:href="#m28155c31b5" y="202.424623"/>
     <use style="fill:#679033;stroke:#679033;stroke-linejoin:miter;" x="322.174973" xlink:href="#m28155c31b5" y="198.874131"/>
     <use style="fill:#679033;stroke:#679033;stroke-linejoin:miter;" x="350.20492" xlink:href="#m28155c31b5" y="197.688006"/>
     <use style="fill:#679033;stroke:#679033;stroke-linejoin:miter;" x="378.234866" xlink:href="#m28155c31b5" y="195.390529"/>
     <use style="fill:#679033;stroke:#679033;stroke-linejoin:miter;" x="406.264813" xlink:href="#m28155c31b5" y="194.275464"/>
     <use style="fill:#679033;stroke:#679033;stroke-linejoin:miter;" x="434.294759" xlink:href="#m28155c31b5" y="192.178044"/>
     <use style="fill:#679033;stroke:#679033;stroke-linejoin:miter;" x="462.324706" xlink:href="#m28155c31b5" y="191.488505"/>
     <use style="fill:#679033;stroke:#679033;stroke-linejoin:miter;" x="490.354652" xlink:href="#m28155c31b5" y="189.624917"/>
     <use style="fill:#679033;stroke:#679033;stroke-linejoin:miter;" x="518.384599" xlink:href="#m28155c31b5" y="189.823193"/>
     <use style="fill:#679033;stroke:#679033;stroke-linejoin:miter;" x="546.414545" xlink:href="#m28155c31b5" y="186.331867"/>
    </g>
   </g>
   <g id="patch_3">
    <path d="M 46.08 246.24 
L 46.08 2.88 
" style="fill:none;stroke:#262626;stroke-linecap:square;stroke-linejoin:miter;stroke-width:0.8;"/>
   </g>
   <g id="patch_4">
    <path d="M 570.24 246.24 
L 570.24 2.88 
" style="fill:none;stroke:#262626;stroke-linecap:square;stroke-linejoin:miter;stroke-width:0.8;"/>
   </g>
   <g id="patch_5">
    <path d="M 46.08 246.24 
L 570.24 246.24 
" style="fill:none;stroke:#262626;stroke-linecap:square;stroke-linejoin:miter;stroke-width:0.8;"/>
   </g>
   <g id="patch_6">
    <path d="M 46.08 2.88 
L 570.24 2.88 
" style="fill:none;stroke:#262626;stroke-linecap:square;stroke-linejoin:miter;stroke-width:0.8;"/>
   </g>
   <g id="legend_1">
    <g id="patch_7">
     <path d="M 55.88 96.2775 
L 131.85625 96.2775 
Q 134.65625 96.2775 134.65625 93.4775 
L 134.65625 12.68 
Q 134.65625 9.88 131.85625 9.88 
L 55.88 9.88 
Q 53.08 9.88 53.08 12.68 
L 53.08 93.4775 
Q 53.08 96.2775 55.88 96.2775 
z
" style="fill:#ffffff;opacity:0.8;stroke:#cccccc;stroke-linejoin:miter;"/>
    </g>
    <g id="line2d_17">
     <path d="M 58.68 21.217812 
L 86.68 21.217812 
" style="fill:none;stroke:#000000;stroke-dasharray:2,3.3;stroke-dashoffset:0;stroke-width:2;"/>
    </g>
    <g id="line2d_18"/>
    <g id="text_15">
     <!-- max -->
     <defs>
      <path d="M 39.796875 16.3125 
L 39.796875 27.296875 
L 28.21875 27.296875 
Q 21.53125 27.296875 18.25 24.40625 
Q 14.984375 21.53125 14.984375 15.578125 
Q 14.984375 10.15625 18.296875 6.984375 
Q 21.625 3.8125 27.296875 3.8125 
Q 32.90625 3.8125 36.34375 7.28125 
Q 39.796875 10.75 39.796875 16.3125 
z
M 48.78125 32.421875 
L 48.78125 5.171875 
L 56.78125 5.171875 
L 56.78125 0 
L 39.796875 0 
L 39.796875 5.609375 
Q 36.8125 2 32.90625 0.28125 
Q 29 -1.421875 23.78125 -1.421875 
Q 15.140625 -1.421875 10.0625 3.171875 
Q 4.984375 7.765625 4.984375 15.578125 
Q 4.984375 23.640625 10.796875 28.078125 
Q 16.609375 32.515625 27.203125 32.515625 
L 39.796875 32.515625 
L 39.796875 36.078125 
Q 39.796875 42 36.203125 45.234375 
Q 32.625 48.484375 26.125 48.484375 
Q 20.75 48.484375 17.578125 46.046875 
Q 14.40625 43.609375 13.625 38.8125 
L 8.984375 38.8125 
L 8.984375 49.3125 
Q 13.671875 51.3125 18.09375 52.3125 
Q 22.515625 53.328125 26.703125 53.328125 
Q 37.5 53.328125 43.140625 47.96875 
Q 48.78125 42.625 48.78125 32.421875 
z
" id="DejaVuSerif-97"/>
      <path d="M 29.109375 31.6875 
L 39.984375 46.6875 
L 33.015625 46.6875 
L 33.015625 51.90625 
L 52.984375 51.90625 
L 52.984375 46.6875 
L 46.09375 46.6875 
L 32.171875 27.484375 
L 48.390625 5.171875 
L 55.171875 5.171875 
L 55.171875 0 
L 31.203125 0 
L 31.203125 5.171875 
L 37.796875 5.171875 
L 26.515625 20.703125 
L 15.1875 5.171875 
L 21.921875 5.171875 
L 21.921875 0 
L 2.203125 0 
L 2.203125 5.171875 
L 9.078125 5.171875 
L 23.390625 24.90625 
L 7.625 46.6875 
L 1.21875 46.6875 
L 1.21875 51.90625 
L 24.421875 51.90625 
L 24.421875 46.6875 
L 18.21875 46.6875 
z
" id="DejaVuSerif-120"/>
     </defs>
     <g style="fill:#262626;" transform="translate(97.88 26.117812)scale(0.14 -0.14)">
      <use xlink:href="#DejaVuSerif-109"/>
      <use x="94.824219" xlink:href="#DejaVuSerif-97"/>
      <use x="154.443359" xlink:href="#DejaVuSerif-120"/>
     </g>
    </g>
    <g id="line2d_19">
     <path d="M 58.68 41.767187 
L 86.68 41.767187 
" style="fill:none;stroke:#000000;stroke-dasharray:12.8,3.2,2,3.2;stroke-dashoffset:0;stroke-width:2;"/>
    </g>
    <g id="line2d_20"/>
    <g id="text_16">
     <!-- min -->
     <defs>
      <path d="M 9.71875 68.015625 
Q 9.71875 70.265625 11.34375 71.921875 
Q 12.984375 73.578125 15.28125 73.578125 
Q 17.53125 73.578125 19.15625 71.921875 
Q 20.796875 70.265625 20.796875 68.015625 
Q 20.796875 65.71875 19.1875 64.109375 
Q 17.578125 62.5 15.28125 62.5 
Q 12.984375 62.5 11.34375 64.109375 
Q 9.71875 65.71875 9.71875 68.015625 
z
M 21.1875 5.171875 
L 29.6875 5.171875 
L 29.6875 0 
L 3.609375 0 
L 3.609375 5.171875 
L 12.203125 5.171875 
L 12.203125 46.6875 
L 3.609375 46.6875 
L 3.609375 51.90625 
L 21.1875 51.90625 
z
" id="DejaVuSerif-105"/>
     </defs>
     <g style="fill:#262626;" transform="translate(97.88 46.667187)scale(0.14 -0.14)">
      <use xlink:href="#DejaVuSerif-109"/>
      <use x="94.824219" xlink:href="#DejaVuSerif-105"/>
      <use x="126.806641" xlink:href="#DejaVuSerif-110"/>
     </g>
    </g>
    <g id="line2d_21">
     <path d="M 58.68 62.316562 
L 86.68 62.316562 
" style="fill:none;stroke:#165f77;stroke-linecap:round;"/>
    </g>
    <g id="line2d_22">
     <g>
      <use style="fill:#165f77;stroke:#165f77;" x="72.68" xlink:href="#mcd5b1bd714" y="62.316562"/>
     </g>
    </g>
    <g id="text_17">
     <!-- SVO -->
     <defs>
      <path d="M 17.484375 67.671875 
L 39.015625 11.71875 
L 60.5 67.671875 
L 52.296875 67.671875 
L 52.296875 72.90625 
L 73.6875 72.90625 
L 73.6875 67.671875 
L 66.609375 67.671875 
L 40.578125 0 
L 32.171875 0 
L 6.296875 67.671875 
L -0.984375 67.671875 
L -0.984375 72.90625 
L 25.59375 72.90625 
L 25.59375 67.671875 
z
" id="DejaVuSerif-86"/>
      <path d="M 41.015625 3.8125 
Q 52.984375 3.8125 59.078125 12.03125 
Q 65.1875 20.265625 65.1875 36.375 
Q 65.1875 52.546875 59.078125 60.765625 
Q 52.984375 69 41.015625 69 
Q 29 69 22.890625 60.765625 
Q 16.796875 52.546875 16.796875 36.375 
Q 16.796875 20.265625 22.890625 12.03125 
Q 29 3.8125 41.015625 3.8125 
z
M 41.015625 -1.421875 
Q 33.59375 -1.421875 27.359375 1.015625 
Q 21.140625 3.46875 16.40625 8.203125 
Q 10.9375 13.671875 8.265625 20.609375 
Q 5.609375 27.546875 5.609375 36.375 
Q 5.609375 45.21875 8.265625 52.171875 
Q 10.9375 59.125 16.40625 64.59375 
Q 21.1875 69.390625 27.34375 71.796875 
Q 33.5 74.21875 41.015625 74.21875 
Q 56.890625 74.21875 66.65625 63.8125 
Q 76.421875 53.421875 76.421875 36.375 
Q 76.421875 27.640625 73.734375 20.625 
Q 71.046875 13.625 65.578125 8.203125 
Q 60.796875 3.421875 54.640625 1 
Q 48.484375 -1.421875 41.015625 -1.421875 
z
" id="DejaVuSerif-79"/>
     </defs>
     <g style="fill:#262626;" transform="translate(97.88 67.216562)scale(0.14 -0.14)">
      <use xlink:href="#DejaVuSerif-83"/>
      <use x="68.505859" xlink:href="#DejaVuSerif-86"/>
      <use x="140.707031" xlink:href="#DejaVuSerif-79"/>
     </g>
    </g>
    <g id="line2d_23">
     <path d="M 58.68 82.865937 
L 86.68 82.865937 
" style="fill:none;stroke:#679033;stroke-linecap:round;"/>
    </g>
    <g id="line2d_24">
     <g>
      <use style="fill:#679033;stroke:#679033;stroke-linejoin:miter;" x="72.68" xlink:href="#m28155c31b5" y="82.865937"/>
     </g>
    </g>
    <g id="text_18">
     <!-- SOV -->
     <g style="fill:#262626;" transform="translate(97.88 87.765937)scale(0.14 -0.14)">
      <use xlink:href="#DejaVuSerif-83"/>
      <use x="68.505859" xlink:href="#DejaVuSerif-79"/>
      <use x="150.472656" xlink:href="#DejaVuSerif-86"/>
     </g>
    </g>
   </g>
  </g>
 </g>
 <defs>
  <clipPath id="p014df15166">
   <rect height="243.36" width="524.16" x="46.08" y="2.88"/>
  </clipPath>
 </defs>
</svg>
