<?xml version="1.0" encoding="utf-8" standalone="no"?>
<!DOCTYPE svg PUBLIC "-//W3C//DTD SVG 1.1//EN"
  "http://www.w3.org/Graphics/SVG/1.1/DTD/svg11.dtd">
<!-- Created with matplotlib (http://matplotlib.org/) -->
<svg height="288pt" version="1.1" viewBox="0 0 576 288" width="576pt" xmlns="http://www.w3.org/2000/svg" xmlns:xlink="http://www.w3.org/1999/xlink">
 <defs>
  <style type="text/css">
*{stroke-linecap:butt;stroke-linejoin:round;}
  </style>
 </defs>
 <g id="figure_1">
  <g id="patch_1">
   <path d="M 0 288 
L 576 288 
L 576 0 
L 0 0 
z
" style="fill:#ffffff;"/>
  </g>
  <g id="axes_1">
   <g id="patch_2">
    <path d="M 53.28 247.68 
L 573.12 247.68 
L 573.12 4.32 
L 53.28 4.32 
z
" style="fill:#ffffff;"/>
   </g>
   <g id="matplotlib.axis_1">
    <g id="xtick_1">
     <g id="line2d_1">
      <defs>
       <path d="M 0 0 
L 0 3.5 
" id="m6571142edd" style="stroke:#000000;stroke-width:0.8;"/>
      </defs>
      <g>
       <use style="stroke:#000000;stroke-width:0.8;" x="111.762" xlink:href="#m6571142edd" y="247.68"/>
      </g>
     </g>
     <g id="text_1">
      <!-- 5 -->
      <defs>
       <path d="M 10.796875 72.90625 
L 49.515625 72.90625 
L 49.515625 64.59375 
L 19.828125 64.59375 
L 19.828125 46.734375 
Q 21.96875 47.46875 24.109375 47.828125 
Q 26.265625 48.1875 28.421875 48.1875 
Q 40.625 48.1875 47.75 41.5 
Q 54.890625 34.8125 54.890625 23.390625 
Q 54.890625 11.625 47.5625 5.09375 
Q 40.234375 -1.421875 26.90625 -1.421875 
Q 22.3125 -1.421875 17.546875 -0.640625 
Q 12.796875 0.140625 7.71875 1.703125 
L 7.71875 11.625 
Q 12.109375 9.234375 16.796875 8.0625 
Q 21.484375 6.890625 26.703125 6.890625 
Q 35.15625 6.890625 40.078125 11.328125 
Q 45.015625 15.765625 45.015625 23.390625 
Q 45.015625 31 40.078125 35.4375 
Q 35.15625 39.890625 26.703125 39.890625 
Q 22.75 39.890625 18.8125 39.015625 
Q 14.890625 38.140625 10.796875 36.28125 
z
" id="DejaVuSans-35"/>
      </defs>
      <g transform="translate(107.626375 264.557969)scale(0.13 -0.13)">
       <use xlink:href="#DejaVuSans-35"/>
      </g>
     </g>
    </g>
    <g id="xtick_2">
     <g id="line2d_2">
      <g>
       <use style="stroke:#000000;stroke-width:0.8;" x="176.742" xlink:href="#m6571142edd" y="247.68"/>
      </g>
     </g>
     <g id="text_2">
      <!-- 10 -->
      <defs>
       <path d="M 12.40625 8.296875 
L 28.515625 8.296875 
L 28.515625 63.921875 
L 10.984375 60.40625 
L 10.984375 69.390625 
L 28.421875 72.90625 
L 38.28125 72.90625 
L 38.28125 8.296875 
L 54.390625 8.296875 
L 54.390625 0 
L 12.40625 0 
z
" id="DejaVuSans-31"/>
       <path d="M 31.78125 66.40625 
Q 24.171875 66.40625 20.328125 58.90625 
Q 16.5 51.421875 16.5 36.375 
Q 16.5 21.390625 20.328125 13.890625 
Q 24.171875 6.390625 31.78125 6.390625 
Q 39.453125 6.390625 43.28125 13.890625 
Q 47.125 21.390625 47.125 36.375 
Q 47.125 51.421875 43.28125 58.90625 
Q 39.453125 66.40625 31.78125 66.40625 
z
M 31.78125 74.21875 
Q 44.046875 74.21875 50.515625 64.515625 
Q 56.984375 54.828125 56.984375 36.375 
Q 56.984375 17.96875 50.515625 8.265625 
Q 44.046875 -1.421875 31.78125 -1.421875 
Q 19.53125 -1.421875 13.0625 8.265625 
Q 6.59375 17.96875 6.59375 36.375 
Q 6.59375 54.828125 13.0625 64.515625 
Q 19.53125 74.21875 31.78125 74.21875 
z
" id="DejaVuSans-30"/>
      </defs>
      <g transform="translate(168.47075 264.557969)scale(0.13 -0.13)">
       <use xlink:href="#DejaVuSans-31"/>
       <use x="63.623047" xlink:href="#DejaVuSans-30"/>
      </g>
     </g>
    </g>
    <g id="xtick_3">
     <g id="line2d_3">
      <g>
       <use style="stroke:#000000;stroke-width:0.8;" x="241.722" xlink:href="#m6571142edd" y="247.68"/>
      </g>
     </g>
     <g id="text_3">
      <!-- 15 -->
      <g transform="translate(233.45075 264.557969)scale(0.13 -0.13)">
       <use xlink:href="#DejaVuSans-31"/>
       <use x="63.623047" xlink:href="#DejaVuSans-35"/>
      </g>
     </g>
    </g>
    <g id="xtick_4">
     <g id="line2d_4">
      <g>
       <use style="stroke:#000000;stroke-width:0.8;" x="306.702" xlink:href="#m6571142edd" y="247.68"/>
      </g>
     </g>
     <g id="text_4">
      <!-- 20 -->
      <defs>
       <path d="M 19.1875 8.296875 
L 53.609375 8.296875 
L 53.609375 0 
L 7.328125 0 
L 7.328125 8.296875 
Q 12.9375 14.109375 22.625 23.890625 
Q 32.328125 33.6875 34.8125 36.53125 
Q 39.546875 41.84375 41.421875 45.53125 
Q 43.3125 49.21875 43.3125 52.78125 
Q 43.3125 58.59375 39.234375 62.25 
Q 35.15625 65.921875 28.609375 65.921875 
Q 23.96875 65.921875 18.8125 64.3125 
Q 13.671875 62.703125 7.8125 59.421875 
L 7.8125 69.390625 
Q 13.765625 71.78125 18.9375 73 
Q 24.125 74.21875 28.421875 74.21875 
Q 39.75 74.21875 46.484375 68.546875 
Q 53.21875 62.890625 53.21875 53.421875 
Q 53.21875 48.921875 51.53125 44.890625 
Q 49.859375 40.875 45.40625 35.40625 
Q 44.1875 33.984375 37.640625 27.21875 
Q 31.109375 20.453125 19.1875 8.296875 
z
" id="DejaVuSans-32"/>
      </defs>
      <g transform="translate(298.43075 264.557969)scale(0.13 -0.13)">
       <use xlink:href="#DejaVuSans-32"/>
       <use x="63.623047" xlink:href="#DejaVuSans-30"/>
      </g>
     </g>
    </g>
    <g id="xtick_5">
     <g id="line2d_5">
      <g>
       <use style="stroke:#000000;stroke-width:0.8;" x="371.682" xlink:href="#m6571142edd" y="247.68"/>
      </g>
     </g>
     <g id="text_5">
      <!-- 25 -->
      <g transform="translate(363.41075 264.557969)scale(0.13 -0.13)">
       <use xlink:href="#DejaVuSans-32"/>
       <use x="63.623047" xlink:href="#DejaVuSans-35"/>
      </g>
     </g>
    </g>
    <g id="xtick_6">
     <g id="line2d_6">
      <g>
       <use style="stroke:#000000;stroke-width:0.8;" x="436.662" xlink:href="#m6571142edd" y="247.68"/>
      </g>
     </g>
     <g id="text_6">
      <!-- 30 -->
      <defs>
       <path d="M 40.578125 39.3125 
Q 47.65625 37.796875 51.625 33 
Q 55.609375 28.21875 55.609375 21.1875 
Q 55.609375 10.40625 48.1875 4.484375 
Q 40.765625 -1.421875 27.09375 -1.421875 
Q 22.515625 -1.421875 17.65625 -0.515625 
Q 12.796875 0.390625 7.625 2.203125 
L 7.625 11.71875 
Q 11.71875 9.328125 16.59375 8.109375 
Q 21.484375 6.890625 26.8125 6.890625 
Q 36.078125 6.890625 40.9375 10.546875 
Q 45.796875 14.203125 45.796875 21.1875 
Q 45.796875 27.640625 41.28125 31.265625 
Q 36.765625 34.90625 28.71875 34.90625 
L 20.21875 34.90625 
L 20.21875 43.015625 
L 29.109375 43.015625 
Q 36.375 43.015625 40.234375 45.921875 
Q 44.09375 48.828125 44.09375 54.296875 
Q 44.09375 59.90625 40.109375 62.90625 
Q 36.140625 65.921875 28.71875 65.921875 
Q 24.65625 65.921875 20.015625 65.03125 
Q 15.375 64.15625 9.8125 62.3125 
L 9.8125 71.09375 
Q 15.4375 72.65625 20.34375 73.4375 
Q 25.25 74.21875 29.59375 74.21875 
Q 40.828125 74.21875 47.359375 69.109375 
Q 53.90625 64.015625 53.90625 55.328125 
Q 53.90625 49.265625 50.4375 45.09375 
Q 46.96875 40.921875 40.578125 39.3125 
z
" id="DejaVuSans-33"/>
      </defs>
      <g transform="translate(428.39075 264.557969)scale(0.13 -0.13)">
       <use xlink:href="#DejaVuSans-33"/>
       <use x="63.623047" xlink:href="#DejaVuSans-30"/>
      </g>
     </g>
    </g>
    <g id="xtick_7">
     <g id="line2d_7">
      <g>
       <use style="stroke:#000000;stroke-width:0.8;" x="501.642" xlink:href="#m6571142edd" y="247.68"/>
      </g>
     </g>
     <g id="text_7">
      <!-- 35 -->
      <g transform="translate(493.37075 264.557969)scale(0.13 -0.13)">
       <use xlink:href="#DejaVuSans-33"/>
       <use x="63.623047" xlink:href="#DejaVuSans-35"/>
      </g>
     </g>
    </g>
    <g id="xtick_8">
     <g id="line2d_8">
      <g>
       <use style="stroke:#000000;stroke-width:0.8;" x="566.622" xlink:href="#m6571142edd" y="247.68"/>
      </g>
     </g>
     <g id="text_8">
      <!-- 40 -->
      <defs>
       <path d="M 37.796875 64.3125 
L 12.890625 25.390625 
L 37.796875 25.390625 
z
M 35.203125 72.90625 
L 47.609375 72.90625 
L 47.609375 25.390625 
L 58.015625 25.390625 
L 58.015625 17.1875 
L 47.609375 17.1875 
L 47.609375 0 
L 37.796875 0 
L 37.796875 17.1875 
L 4.890625 17.1875 
L 4.890625 26.703125 
z
" id="DejaVuSans-34"/>
      </defs>
      <g transform="translate(558.35075 264.557969)scale(0.13 -0.13)">
       <use xlink:href="#DejaVuSans-34"/>
       <use x="63.623047" xlink:href="#DejaVuSans-30"/>
      </g>
     </g>
    </g>
    <g id="text_9">
     <!-- Sentence Length (tokens) -->
     <defs>
      <path d="M 53.515625 70.515625 
L 53.515625 60.890625 
Q 47.90625 63.578125 42.921875 64.890625 
Q 37.9375 66.21875 33.296875 66.21875 
Q 25.25 66.21875 20.875 63.09375 
Q 16.5 59.96875 16.5 54.203125 
Q 16.5 49.359375 19.40625 46.890625 
Q 22.3125 44.4375 30.421875 42.921875 
L 36.375 41.703125 
Q 47.40625 39.59375 52.65625 34.296875 
Q 57.90625 29 57.90625 20.125 
Q 57.90625 9.515625 50.796875 4.046875 
Q 43.703125 -1.421875 29.984375 -1.421875 
Q 24.8125 -1.421875 18.96875 -0.25 
Q 13.140625 0.921875 6.890625 3.21875 
L 6.890625 13.375 
Q 12.890625 10.015625 18.65625 8.296875 
Q 24.421875 6.59375 29.984375 6.59375 
Q 38.421875 6.59375 43.015625 9.90625 
Q 47.609375 13.234375 47.609375 19.390625 
Q 47.609375 24.75 44.3125 27.78125 
Q 41.015625 30.8125 33.5 32.328125 
L 27.484375 33.5 
Q 16.453125 35.6875 11.515625 40.375 
Q 6.59375 45.0625 6.59375 53.421875 
Q 6.59375 63.09375 13.40625 68.65625 
Q 20.21875 74.21875 32.171875 74.21875 
Q 37.3125 74.21875 42.625 73.28125 
Q 47.953125 72.359375 53.515625 70.515625 
z
" id="DejaVuSans-53"/>
      <path d="M 56.203125 29.59375 
L 56.203125 25.203125 
L 14.890625 25.203125 
Q 15.484375 15.921875 20.484375 11.0625 
Q 25.484375 6.203125 34.421875 6.203125 
Q 39.59375 6.203125 44.453125 7.46875 
Q 49.3125 8.734375 54.109375 11.28125 
L 54.109375 2.78125 
Q 49.265625 0.734375 44.1875 -0.34375 
Q 39.109375 -1.421875 33.890625 -1.421875 
Q 20.796875 -1.421875 13.15625 6.1875 
Q 5.515625 13.8125 5.515625 26.8125 
Q 5.515625 40.234375 12.765625 48.109375 
Q 20.015625 56 32.328125 56 
Q 43.359375 56 49.78125 48.890625 
Q 56.203125 41.796875 56.203125 29.59375 
z
M 47.21875 32.234375 
Q 47.125 39.59375 43.09375 43.984375 
Q 39.0625 48.390625 32.421875 48.390625 
Q 24.90625 48.390625 20.390625 44.140625 
Q 15.875 39.890625 15.1875 32.171875 
z
" id="DejaVuSans-65"/>
      <path d="M 54.890625 33.015625 
L 54.890625 0 
L 45.90625 0 
L 45.90625 32.71875 
Q 45.90625 40.484375 42.875 44.328125 
Q 39.84375 48.1875 33.796875 48.1875 
Q 26.515625 48.1875 22.3125 43.546875 
Q 18.109375 38.921875 18.109375 30.90625 
L 18.109375 0 
L 9.078125 0 
L 9.078125 54.6875 
L 18.109375 54.6875 
L 18.109375 46.1875 
Q 21.34375 51.125 25.703125 53.5625 
Q 30.078125 56 35.796875 56 
Q 45.21875 56 50.046875 50.171875 
Q 54.890625 44.34375 54.890625 33.015625 
z
" id="DejaVuSans-6e"/>
      <path d="M 18.3125 70.21875 
L 18.3125 54.6875 
L 36.8125 54.6875 
L 36.8125 47.703125 
L 18.3125 47.703125 
L 18.3125 18.015625 
Q 18.3125 11.328125 20.140625 9.421875 
Q 21.96875 7.515625 27.59375 7.515625 
L 36.8125 7.515625 
L 36.8125 0 
L 27.59375 0 
Q 17.1875 0 13.234375 3.875 
Q 9.28125 7.765625 9.28125 18.015625 
L 9.28125 47.703125 
L 2.6875 47.703125 
L 2.6875 54.6875 
L 9.28125 54.6875 
L 9.28125 70.21875 
z
" id="DejaVuSans-74"/>
      <path d="M 48.78125 52.59375 
L 48.78125 44.1875 
Q 44.96875 46.296875 41.140625 47.34375 
Q 37.3125 48.390625 33.40625 48.390625 
Q 24.65625 48.390625 19.8125 42.84375 
Q 14.984375 37.3125 14.984375 27.296875 
Q 14.984375 17.28125 19.8125 11.734375 
Q 24.65625 6.203125 33.40625 6.203125 
Q 37.3125 6.203125 41.140625 7.25 
Q 44.96875 8.296875 48.78125 10.40625 
L 48.78125 2.09375 
Q 45.015625 0.34375 40.984375 -0.53125 
Q 36.96875 -1.421875 32.421875 -1.421875 
Q 20.0625 -1.421875 12.78125 6.34375 
Q 5.515625 14.109375 5.515625 27.296875 
Q 5.515625 40.671875 12.859375 48.328125 
Q 20.21875 56 33.015625 56 
Q 37.15625 56 41.109375 55.140625 
Q 45.0625 54.296875 48.78125 52.59375 
z
" id="DejaVuSans-63"/>
      <path id="DejaVuSans-20"/>
      <path d="M 9.8125 72.90625 
L 19.671875 72.90625 
L 19.671875 8.296875 
L 55.171875 8.296875 
L 55.171875 0 
L 9.8125 0 
z
" id="DejaVuSans-4c"/>
      <path d="M 45.40625 27.984375 
Q 45.40625 37.75 41.375 43.109375 
Q 37.359375 48.484375 30.078125 48.484375 
Q 22.859375 48.484375 18.828125 43.109375 
Q 14.796875 37.75 14.796875 27.984375 
Q 14.796875 18.265625 18.828125 12.890625 
Q 22.859375 7.515625 30.078125 7.515625 
Q 37.359375 7.515625 41.375 12.890625 
Q 45.40625 18.265625 45.40625 27.984375 
z
M 54.390625 6.78125 
Q 54.390625 -7.171875 48.1875 -13.984375 
Q 42 -20.796875 29.203125 -20.796875 
Q 24.46875 -20.796875 20.265625 -20.09375 
Q 16.0625 -19.390625 12.109375 -17.921875 
L 12.109375 -9.1875 
Q 16.0625 -11.328125 19.921875 -12.34375 
Q 23.78125 -13.375 27.78125 -13.375 
Q 36.625 -13.375 41.015625 -8.765625 
Q 45.40625 -4.15625 45.40625 5.171875 
L 45.40625 9.625 
Q 42.625 4.78125 38.28125 2.390625 
Q 33.9375 0 27.875 0 
Q 17.828125 0 11.671875 7.65625 
Q 5.515625 15.328125 5.515625 27.984375 
Q 5.515625 40.671875 11.671875 48.328125 
Q 17.828125 56 27.875 56 
Q 33.9375 56 38.28125 53.609375 
Q 42.625 51.21875 45.40625 46.390625 
L 45.40625 54.6875 
L 54.390625 54.6875 
z
" id="DejaVuSans-67"/>
      <path d="M 54.890625 33.015625 
L 54.890625 0 
L 45.90625 0 
L 45.90625 32.71875 
Q 45.90625 40.484375 42.875 44.328125 
Q 39.84375 48.1875 33.796875 48.1875 
Q 26.515625 48.1875 22.3125 43.546875 
Q 18.109375 38.921875 18.109375 30.90625 
L 18.109375 0 
L 9.078125 0 
L 9.078125 75.984375 
L 18.109375 75.984375 
L 18.109375 46.1875 
Q 21.34375 51.125 25.703125 53.5625 
Q 30.078125 56 35.796875 56 
Q 45.21875 56 50.046875 50.171875 
Q 54.890625 44.34375 54.890625 33.015625 
z
" id="DejaVuSans-68"/>
      <path d="M 31 75.875 
Q 24.46875 64.65625 21.28125 53.65625 
Q 18.109375 42.671875 18.109375 31.390625 
Q 18.109375 20.125 21.3125 9.0625 
Q 24.515625 -2 31 -13.1875 
L 23.1875 -13.1875 
Q 15.875 -1.703125 12.234375 9.375 
Q 8.59375 20.453125 8.59375 31.390625 
Q 8.59375 42.28125 12.203125 53.3125 
Q 15.828125 64.359375 23.1875 75.875 
z
" id="DejaVuSans-28"/>
      <path d="M 30.609375 48.390625 
Q 23.390625 48.390625 19.1875 42.75 
Q 14.984375 37.109375 14.984375 27.296875 
Q 14.984375 17.484375 19.15625 11.84375 
Q 23.34375 6.203125 30.609375 6.203125 
Q 37.796875 6.203125 41.984375 11.859375 
Q 46.1875 17.53125 46.1875 27.296875 
Q 46.1875 37.015625 41.984375 42.703125 
Q 37.796875 48.390625 30.609375 48.390625 
z
M 30.609375 56 
Q 42.328125 56 49.015625 48.375 
Q 55.71875 40.765625 55.71875 27.296875 
Q 55.71875 13.875 49.015625 6.21875 
Q 42.328125 -1.421875 30.609375 -1.421875 
Q 18.84375 -1.421875 12.171875 6.21875 
Q 5.515625 13.875 5.515625 27.296875 
Q 5.515625 40.765625 12.171875 48.375 
Q 18.84375 56 30.609375 56 
z
" id="DejaVuSans-6f"/>
      <path d="M 9.078125 75.984375 
L 18.109375 75.984375 
L 18.109375 31.109375 
L 44.921875 54.6875 
L 56.390625 54.6875 
L 27.390625 29.109375 
L 57.625 0 
L 45.90625 0 
L 18.109375 26.703125 
L 18.109375 0 
L 9.078125 0 
z
" id="DejaVuSans-6b"/>
      <path d="M 44.28125 53.078125 
L 44.28125 44.578125 
Q 40.484375 46.53125 36.375 47.5 
Q 32.28125 48.484375 27.875 48.484375 
Q 21.1875 48.484375 17.84375 46.4375 
Q 14.5 44.390625 14.5 40.28125 
Q 14.5 37.15625 16.890625 35.375 
Q 19.28125 33.59375 26.515625 31.984375 
L 29.59375 31.296875 
Q 39.15625 29.25 43.1875 25.515625 
Q 47.21875 21.78125 47.21875 15.09375 
Q 47.21875 7.46875 41.1875 3.015625 
Q 35.15625 -1.421875 24.609375 -1.421875 
Q 20.21875 -1.421875 15.453125 -0.5625 
Q 10.6875 0.296875 5.421875 2 
L 5.421875 11.28125 
Q 10.40625 8.6875 15.234375 7.390625 
Q 20.0625 6.109375 24.8125 6.109375 
Q 31.15625 6.109375 34.5625 8.28125 
Q 37.984375 10.453125 37.984375 14.40625 
Q 37.984375 18.0625 35.515625 20.015625 
Q 33.0625 21.96875 24.703125 23.78125 
L 21.578125 24.515625 
Q 13.234375 26.265625 9.515625 29.90625 
Q 5.8125 33.546875 5.8125 39.890625 
Q 5.8125 47.609375 11.28125 51.796875 
Q 16.75 56 26.8125 56 
Q 31.78125 56 36.171875 55.265625 
Q 40.578125 54.546875 44.28125 53.078125 
z
" id="DejaVuSans-73"/>
      <path d="M 8.015625 75.875 
L 15.828125 75.875 
Q 23.140625 64.359375 26.78125 53.3125 
Q 30.421875 42.28125 30.421875 31.390625 
Q 30.421875 20.453125 26.78125 9.375 
Q 23.140625 -1.703125 15.828125 -13.1875 
L 8.015625 -13.1875 
Q 14.5 -2 17.703125 9.0625 
Q 20.90625 20.125 20.90625 31.390625 
Q 20.90625 42.671875 17.703125 53.65625 
Q 14.5 64.65625 8.015625 75.875 
z
" id="DejaVuSans-29"/>
     </defs>
     <g transform="translate(209.7975 283.419062)scale(0.16 -0.16)">
      <use xlink:href="#DejaVuSans-53"/>
      <use x="63.476562" xlink:href="#DejaVuSans-65"/>
      <use x="125" xlink:href="#DejaVuSans-6e"/>
      <use x="188.378906" xlink:href="#DejaVuSans-74"/>
      <use x="227.587891" xlink:href="#DejaVuSans-65"/>
      <use x="289.111328" xlink:href="#DejaVuSans-6e"/>
      <use x="352.490234" xlink:href="#DejaVuSans-63"/>
      <use x="407.470703" xlink:href="#DejaVuSans-65"/>
      <use x="468.994141" xlink:href="#DejaVuSans-20"/>
      <use x="500.78125" xlink:href="#DejaVuSans-4c"/>
      <use x="556.478516" xlink:href="#DejaVuSans-65"/>
      <use x="618.001953" xlink:href="#DejaVuSans-6e"/>
      <use x="681.380859" xlink:href="#DejaVuSans-67"/>
      <use x="744.857422" xlink:href="#DejaVuSans-74"/>
      <use x="784.066406" xlink:href="#DejaVuSans-68"/>
      <use x="847.445312" xlink:href="#DejaVuSans-20"/>
      <use x="879.232422" xlink:href="#DejaVuSans-28"/>
      <use x="918.246094" xlink:href="#DejaVuSans-74"/>
      <use x="957.455078" xlink:href="#DejaVuSans-6f"/>
      <use x="1018.636719" xlink:href="#DejaVuSans-6b"/>
      <use x="1076.5" xlink:href="#DejaVuSans-65"/>
      <use x="1138.023438" xlink:href="#DejaVuSans-6e"/>
      <use x="1201.402344" xlink:href="#DejaVuSans-73"/>
      <use x="1253.501953" xlink:href="#DejaVuSans-29"/>
     </g>
    </g>
   </g>
   <g id="matplotlib.axis_2">
    <g id="ytick_1">
     <g id="line2d_9">
      <defs>
       <path d="M 0 0 
L -3.5 0 
" id="mb4fb1f39af" style="stroke:#000000;stroke-width:0.8;"/>
      </defs>
      <g>
       <use style="stroke:#000000;stroke-width:0.8;" x="53.28" xlink:href="#mb4fb1f39af" y="236.618182"/>
      </g>
     </g>
     <g id="text_10">
      <!-- 0 -->
      <g transform="translate(38.00875 241.557166)scale(0.13 -0.13)">
       <use xlink:href="#DejaVuSans-30"/>
      </g>
     </g>
    </g>
    <g id="ytick_2">
     <g id="line2d_10">
      <g>
       <use style="stroke:#000000;stroke-width:0.8;" x="53.28" xlink:href="#mb4fb1f39af" y="203.597829"/>
      </g>
     </g>
     <g id="text_11">
      <!-- 100 -->
      <g transform="translate(21.46625 208.536813)scale(0.13 -0.13)">
       <use xlink:href="#DejaVuSans-31"/>
       <use x="63.623047" xlink:href="#DejaVuSans-30"/>
       <use x="127.246094" xlink:href="#DejaVuSans-30"/>
      </g>
     </g>
    </g>
    <g id="ytick_3">
     <g id="line2d_11">
      <g>
       <use style="stroke:#000000;stroke-width:0.8;" x="53.28" xlink:href="#mb4fb1f39af" y="170.577476"/>
      </g>
     </g>
     <g id="text_12">
      <!-- 200 -->
      <g transform="translate(21.46625 175.516461)scale(0.13 -0.13)">
       <use xlink:href="#DejaVuSans-32"/>
       <use x="63.623047" xlink:href="#DejaVuSans-30"/>
       <use x="127.246094" xlink:href="#DejaVuSans-30"/>
      </g>
     </g>
    </g>
    <g id="ytick_4">
     <g id="line2d_12">
      <g>
       <use style="stroke:#000000;stroke-width:0.8;" x="53.28" xlink:href="#mb4fb1f39af" y="137.557123"/>
      </g>
     </g>
     <g id="text_13">
      <!-- 300 -->
      <g transform="translate(21.46625 142.496108)scale(0.13 -0.13)">
       <use xlink:href="#DejaVuSans-33"/>
       <use x="63.623047" xlink:href="#DejaVuSans-30"/>
       <use x="127.246094" xlink:href="#DejaVuSans-30"/>
      </g>
     </g>
    </g>
    <g id="ytick_5">
     <g id="line2d_13">
      <g>
       <use style="stroke:#000000;stroke-width:0.8;" x="53.28" xlink:href="#mb4fb1f39af" y="104.536771"/>
      </g>
     </g>
     <g id="text_14">
      <!-- 400 -->
      <g transform="translate(21.46625 109.475755)scale(0.13 -0.13)">
       <use xlink:href="#DejaVuSans-34"/>
       <use x="63.623047" xlink:href="#DejaVuSans-30"/>
       <use x="127.246094" xlink:href="#DejaVuSans-30"/>
      </g>
     </g>
    </g>
    <g id="ytick_6">
     <g id="line2d_14">
      <g>
       <use style="stroke:#000000;stroke-width:0.8;" x="53.28" xlink:href="#mb4fb1f39af" y="71.516418"/>
      </g>
     </g>
     <g id="text_15">
      <!-- 500 -->
      <g transform="translate(21.46625 76.455402)scale(0.13 -0.13)">
       <use xlink:href="#DejaVuSans-35"/>
       <use x="63.623047" xlink:href="#DejaVuSans-30"/>
       <use x="127.246094" xlink:href="#DejaVuSans-30"/>
      </g>
     </g>
    </g>
    <g id="ytick_7">
     <g id="line2d_15">
      <g>
       <use style="stroke:#000000;stroke-width:0.8;" x="53.28" xlink:href="#mb4fb1f39af" y="38.496065"/>
      </g>
     </g>
     <g id="text_16">
      <!-- 600 -->
      <defs>
       <path d="M 33.015625 40.375 
Q 26.375 40.375 22.484375 35.828125 
Q 18.609375 31.296875 18.609375 23.390625 
Q 18.609375 15.53125 22.484375 10.953125 
Q 26.375 6.390625 33.015625 6.390625 
Q 39.65625 6.390625 43.53125 10.953125 
Q 47.40625 15.53125 47.40625 23.390625 
Q 47.40625 31.296875 43.53125 35.828125 
Q 39.65625 40.375 33.015625 40.375 
z
M 52.59375 71.296875 
L 52.59375 62.3125 
Q 48.875 64.0625 45.09375 64.984375 
Q 41.3125 65.921875 37.59375 65.921875 
Q 27.828125 65.921875 22.671875 59.328125 
Q 17.53125 52.734375 16.796875 39.40625 
Q 19.671875 43.65625 24.015625 45.921875 
Q 28.375 48.1875 33.59375 48.1875 
Q 44.578125 48.1875 50.953125 41.515625 
Q 57.328125 34.859375 57.328125 23.390625 
Q 57.328125 12.15625 50.6875 5.359375 
Q 44.046875 -1.421875 33.015625 -1.421875 
Q 20.359375 -1.421875 13.671875 8.265625 
Q 6.984375 17.96875 6.984375 36.375 
Q 6.984375 53.65625 15.1875 63.9375 
Q 23.390625 74.21875 37.203125 74.21875 
Q 40.921875 74.21875 44.703125 73.484375 
Q 48.484375 72.75 52.59375 71.296875 
z
" id="DejaVuSans-36"/>
      </defs>
      <g transform="translate(21.46625 43.43505)scale(0.13 -0.13)">
       <use xlink:href="#DejaVuSans-36"/>
       <use x="63.623047" xlink:href="#DejaVuSans-30"/>
       <use x="127.246094" xlink:href="#DejaVuSans-30"/>
      </g>
     </g>
    </g>
    <g id="ytick_8">
     <g id="line2d_16">
      <g>
       <use style="stroke:#000000;stroke-width:0.8;" x="53.28" xlink:href="#mb4fb1f39af" y="5.475712"/>
      </g>
     </g>
     <g id="text_17">
      <!-- 700 -->
      <defs>
       <path d="M 8.203125 72.90625 
L 55.078125 72.90625 
L 55.078125 68.703125 
L 28.609375 0 
L 18.3125 0 
L 43.21875 64.59375 
L 8.203125 64.59375 
z
" id="DejaVuSans-37"/>
      </defs>
      <g transform="translate(21.46625 10.414697)scale(0.13 -0.13)">
       <use xlink:href="#DejaVuSans-37"/>
       <use x="63.623047" xlink:href="#DejaVuSans-30"/>
       <use x="127.246094" xlink:href="#DejaVuSans-30"/>
      </g>
     </g>
    </g>
    <g id="text_18">
     <!-- Number of Sentences -->
     <defs>
      <path d="M 9.8125 72.90625 
L 23.09375 72.90625 
L 55.421875 11.921875 
L 55.421875 72.90625 
L 64.984375 72.90625 
L 64.984375 0 
L 51.703125 0 
L 19.390625 60.984375 
L 19.390625 0 
L 9.8125 0 
z
" id="DejaVuSans-4e"/>
      <path d="M 8.5 21.578125 
L 8.5 54.6875 
L 17.484375 54.6875 
L 17.484375 21.921875 
Q 17.484375 14.15625 20.5 10.265625 
Q 23.53125 6.390625 29.59375 6.390625 
Q 36.859375 6.390625 41.078125 11.03125 
Q 45.3125 15.671875 45.3125 23.6875 
L 45.3125 54.6875 
L 54.296875 54.6875 
L 54.296875 0 
L 45.3125 0 
L 45.3125 8.40625 
Q 42.046875 3.421875 37.71875 1 
Q 33.40625 -1.421875 27.6875 -1.421875 
Q 18.265625 -1.421875 13.375 4.4375 
Q 8.5 10.296875 8.5 21.578125 
z
M 31.109375 56 
z
" id="DejaVuSans-75"/>
      <path d="M 52 44.1875 
Q 55.375 50.25 60.0625 53.125 
Q 64.75 56 71.09375 56 
Q 79.640625 56 84.28125 50.015625 
Q 88.921875 44.046875 88.921875 33.015625 
L 88.921875 0 
L 79.890625 0 
L 79.890625 32.71875 
Q 79.890625 40.578125 77.09375 44.375 
Q 74.3125 48.1875 68.609375 48.1875 
Q 61.625 48.1875 57.5625 43.546875 
Q 53.515625 38.921875 53.515625 30.90625 
L 53.515625 0 
L 44.484375 0 
L 44.484375 32.71875 
Q 44.484375 40.625 41.703125 44.40625 
Q 38.921875 48.1875 33.109375 48.1875 
Q 26.21875 48.1875 22.15625 43.53125 
Q 18.109375 38.875 18.109375 30.90625 
L 18.109375 0 
L 9.078125 0 
L 9.078125 54.6875 
L 18.109375 54.6875 
L 18.109375 46.1875 
Q 21.1875 51.21875 25.484375 53.609375 
Q 29.78125 56 35.6875 56 
Q 41.65625 56 45.828125 52.96875 
Q 50 49.953125 52 44.1875 
z
" id="DejaVuSans-6d"/>
      <path d="M 48.6875 27.296875 
Q 48.6875 37.203125 44.609375 42.84375 
Q 40.53125 48.484375 33.40625 48.484375 
Q 26.265625 48.484375 22.1875 42.84375 
Q 18.109375 37.203125 18.109375 27.296875 
Q 18.109375 17.390625 22.1875 11.75 
Q 26.265625 6.109375 33.40625 6.109375 
Q 40.53125 6.109375 44.609375 11.75 
Q 48.6875 17.390625 48.6875 27.296875 
z
M 18.109375 46.390625 
Q 20.953125 51.265625 25.265625 53.625 
Q 29.59375 56 35.59375 56 
Q 45.5625 56 51.78125 48.09375 
Q 58.015625 40.1875 58.015625 27.296875 
Q 58.015625 14.40625 51.78125 6.484375 
Q 45.5625 -1.421875 35.59375 -1.421875 
Q 29.59375 -1.421875 25.265625 0.953125 
Q 20.953125 3.328125 18.109375 8.203125 
L 18.109375 0 
L 9.078125 0 
L 9.078125 75.984375 
L 18.109375 75.984375 
z
" id="DejaVuSans-62"/>
      <path d="M 41.109375 46.296875 
Q 39.59375 47.171875 37.8125 47.578125 
Q 36.03125 48 33.890625 48 
Q 26.265625 48 22.1875 43.046875 
Q 18.109375 38.09375 18.109375 28.8125 
L 18.109375 0 
L 9.078125 0 
L 9.078125 54.6875 
L 18.109375 54.6875 
L 18.109375 46.1875 
Q 20.953125 51.171875 25.484375 53.578125 
Q 30.03125 56 36.53125 56 
Q 37.453125 56 38.578125 55.875 
Q 39.703125 55.765625 41.0625 55.515625 
z
" id="DejaVuSans-72"/>
      <path d="M 37.109375 75.984375 
L 37.109375 68.5 
L 28.515625 68.5 
Q 23.6875 68.5 21.796875 66.546875 
Q 19.921875 64.59375 19.921875 59.515625 
L 19.921875 54.6875 
L 34.71875 54.6875 
L 34.71875 47.703125 
L 19.921875 47.703125 
L 19.921875 0 
L 10.890625 0 
L 10.890625 47.703125 
L 2.296875 47.703125 
L 2.296875 54.6875 
L 10.890625 54.6875 
L 10.890625 58.5 
Q 10.890625 67.625 15.140625 71.796875 
Q 19.390625 75.984375 28.609375 75.984375 
z
" id="DejaVuSans-66"/>
     </defs>
     <g transform="translate(14.13875 212.6225)rotate(-90)scale(0.16 -0.16)">
      <use xlink:href="#DejaVuSans-4e"/>
      <use x="74.804688" xlink:href="#DejaVuSans-75"/>
      <use x="138.183594" xlink:href="#DejaVuSans-6d"/>
      <use x="235.595703" xlink:href="#DejaVuSans-62"/>
      <use x="299.072266" xlink:href="#DejaVuSans-65"/>
      <use x="360.595703" xlink:href="#DejaVuSans-72"/>
      <use x="401.708984" xlink:href="#DejaVuSans-20"/>
      <use x="433.496094" xlink:href="#DejaVuSans-6f"/>
      <use x="494.677734" xlink:href="#DejaVuSans-66"/>
      <use x="529.882812" xlink:href="#DejaVuSans-20"/>
      <use x="561.669922" xlink:href="#DejaVuSans-53"/>
      <use x="625.146484" xlink:href="#DejaVuSans-65"/>
      <use x="686.669922" xlink:href="#DejaVuSans-6e"/>
      <use x="750.048828" xlink:href="#DejaVuSans-74"/>
      <use x="789.257812" xlink:href="#DejaVuSans-65"/>
      <use x="850.78125" xlink:href="#DejaVuSans-6e"/>
      <use x="914.160156" xlink:href="#DejaVuSans-63"/>
      <use x="969.140625" xlink:href="#DejaVuSans-65"/>
      <use x="1030.664062" xlink:href="#DejaVuSans-73"/>
     </g>
    </g>
   </g>
   <g id="line2d_17">
    <path clip-path="url(#pe0b242aae4)" d="M 59.778 236.618182 
L 59.778 236.618182 
" style="fill:none;stroke:#657993;stroke-linecap:square;"/>
   </g>
   <g id="line2d_18">
    <path clip-path="url(#pe0b242aae4)" d="M 59.778 234.306757 
L 59.778 231.665129 
" style="fill:none;stroke:#657993;stroke-linecap:square;"/>
   </g>
   <g id="line2d_19">
    <path clip-path="url(#pe0b242aae4)" d="M 57.8286 236.618182 
L 61.7274 236.618182 
" style="fill:none;stroke:#657993;stroke-linecap:square;"/>
   </g>
   <g id="line2d_20">
    <path clip-path="url(#pe0b242aae4)" d="M 57.8286 231.665129 
L 61.7274 231.665129 
" style="fill:none;stroke:#657993;stroke-linecap:square;"/>
   </g>
   <g id="line2d_21">
    <path clip-path="url(#pe0b242aae4)" d="M 72.774 236.618182 
L 72.774 236.618182 
" style="fill:none;stroke:#657993;stroke-linecap:square;"/>
   </g>
   <g id="line2d_22">
    <path clip-path="url(#pe0b242aae4)" d="M 72.774 204.093134 
L 72.774 155.388114 
" style="fill:none;stroke:#657993;stroke-linecap:square;"/>
   </g>
   <g id="line2d_23">
    <path clip-path="url(#pe0b242aae4)" d="M 70.8246 236.618182 
L 74.7234 236.618182 
" style="fill:none;stroke:#657993;stroke-linecap:square;"/>
   </g>
   <g id="line2d_24">
    <path clip-path="url(#pe0b242aae4)" d="M 70.8246 155.388114 
L 74.7234 155.388114 
" style="fill:none;stroke:#657993;stroke-linecap:square;"/>
   </g>
   <g id="line2d_25">
    <path clip-path="url(#pe0b242aae4)" d="M 85.77 235.957775 
L 85.77 236.618182 
" style="fill:none;stroke:#657993;stroke-linecap:square;"/>
   </g>
   <g id="line2d_26">
    <path clip-path="url(#pe0b242aae4)" d="M 85.77 189.233976 
L 85.77 122.037558 
" style="fill:none;stroke:#657993;stroke-linecap:square;"/>
   </g>
   <g id="line2d_27">
    <path clip-path="url(#pe0b242aae4)" d="M 83.8206 236.618182 
L 87.7194 236.618182 
" style="fill:none;stroke:#657993;stroke-linecap:square;"/>
   </g>
   <g id="line2d_28">
    <path clip-path="url(#pe0b242aae4)" d="M 83.8206 122.037558 
L 87.7194 122.037558 
" style="fill:none;stroke:#657993;stroke-linecap:square;"/>
   </g>
   <g id="line2d_29">
    <path clip-path="url(#pe0b242aae4)" d="M 98.766 234.967164 
L 98.766 236.618182 
" style="fill:none;stroke:#657993;stroke-linecap:square;"/>
   </g>
   <g id="line2d_30">
    <path clip-path="url(#pe0b242aae4)" d="M 98.766 175.200326 
L 98.766 89.017205 
" style="fill:none;stroke:#657993;stroke-linecap:square;"/>
   </g>
   <g id="line2d_31">
    <path clip-path="url(#pe0b242aae4)" d="M 96.8166 236.618182 
L 100.7154 236.618182 
" style="fill:none;stroke:#657993;stroke-linecap:square;"/>
   </g>
   <g id="line2d_32">
    <path clip-path="url(#pe0b242aae4)" d="M 96.8166 89.017205 
L 100.7154 89.017205 
" style="fill:none;stroke:#657993;stroke-linecap:square;"/>
   </g>
   <g id="line2d_33">
    <path clip-path="url(#pe0b242aae4)" d="M 111.762 233.976554 
L 111.762 236.618182 
" style="fill:none;stroke:#657993;stroke-linecap:square;"/>
   </g>
   <g id="line2d_34">
    <path clip-path="url(#pe0b242aae4)" d="M 111.762 156.87403 
L 111.762 52.364613 
" style="fill:none;stroke:#657993;stroke-linecap:square;"/>
   </g>
   <g id="line2d_35">
    <path clip-path="url(#pe0b242aae4)" d="M 109.8126 236.618182 
L 113.7114 236.618182 
" style="fill:none;stroke:#657993;stroke-linecap:square;"/>
   </g>
   <g id="line2d_36">
    <path clip-path="url(#pe0b242aae4)" d="M 109.8126 52.364613 
L 113.7114 52.364613 
" style="fill:none;stroke:#657993;stroke-linecap:square;"/>
   </g>
   <g id="line2d_37">
    <path clip-path="url(#pe0b242aae4)" d="M 124.758 232.985943 
L 124.758 236.618182 
" style="fill:none;stroke:#657993;stroke-linecap:square;"/>
   </g>
   <g id="line2d_38">
    <path clip-path="url(#pe0b242aae4)" d="M 124.758 143.830991 
L 124.758 17.693243 
" style="fill:none;stroke:#657993;stroke-linecap:square;"/>
   </g>
   <g id="line2d_39">
    <path clip-path="url(#pe0b242aae4)" d="M 122.8086 236.618182 
L 126.7074 236.618182 
" style="fill:none;stroke:#657993;stroke-linecap:square;"/>
   </g>
   <g id="line2d_40">
    <path clip-path="url(#pe0b242aae4)" d="M 122.8086 17.693243 
L 126.7074 17.693243 
" style="fill:none;stroke:#657993;stroke-linecap:square;"/>
   </g>
   <g id="line2d_41">
    <path clip-path="url(#pe0b242aae4)" d="M 137.754 231.995332 
L 137.754 236.618182 
" style="fill:none;stroke:#657993;stroke-linecap:square;"/>
   </g>
   <g id="line2d_42">
    <path clip-path="url(#pe0b242aae4)" d="M 137.754 143.005482 
L 137.754 15.381818 
" style="fill:none;stroke:#657993;stroke-linecap:square;"/>
   </g>
   <g id="line2d_43">
    <path clip-path="url(#pe0b242aae4)" d="M 135.8046 236.618182 
L 139.7034 236.618182 
" style="fill:none;stroke:#657993;stroke-linecap:square;"/>
   </g>
   <g id="line2d_44">
    <path clip-path="url(#pe0b242aae4)" d="M 135.8046 15.381818 
L 139.7034 15.381818 
" style="fill:none;stroke:#657993;stroke-linecap:square;"/>
   </g>
   <g id="line2d_45">
    <path clip-path="url(#pe0b242aae4)" d="M 150.75 231.004722 
L 150.75 236.618182 
" style="fill:none;stroke:#657993;stroke-linecap:square;"/>
   </g>
   <g id="line2d_46">
    <path clip-path="url(#pe0b242aae4)" d="M 150.75 146.967924 
L 150.75 23.96711 
" style="fill:none;stroke:#657993;stroke-linecap:square;"/>
   </g>
   <g id="line2d_47">
    <path clip-path="url(#pe0b242aae4)" d="M 148.8006 236.618182 
L 152.6994 236.618182 
" style="fill:none;stroke:#657993;stroke-linecap:square;"/>
   </g>
   <g id="line2d_48">
    <path clip-path="url(#pe0b242aae4)" d="M 148.8006 23.96711 
L 152.6994 23.96711 
" style="fill:none;stroke:#657993;stroke-linecap:square;"/>
   </g>
   <g id="line2d_49">
    <path clip-path="url(#pe0b242aae4)" d="M 163.746 230.509417 
L 163.746 236.618182 
" style="fill:none;stroke:#657993;stroke-linecap:square;"/>
   </g>
   <g id="line2d_50">
    <path clip-path="url(#pe0b242aae4)" d="M 163.746 146.472619 
L 163.746 23.636906 
" style="fill:none;stroke:#657993;stroke-linecap:square;"/>
   </g>
   <g id="line2d_51">
    <path clip-path="url(#pe0b242aae4)" d="M 161.7966 236.618182 
L 165.6954 236.618182 
" style="fill:none;stroke:#657993;stroke-linecap:square;"/>
   </g>
   <g id="line2d_52">
    <path clip-path="url(#pe0b242aae4)" d="M 161.7966 23.636906 
L 165.6954 23.636906 
" style="fill:none;stroke:#657993;stroke-linecap:square;"/>
   </g>
   <g id="line2d_53">
    <path clip-path="url(#pe0b242aae4)" d="M 176.742 229.683908 
L 176.742 236.618182 
" style="fill:none;stroke:#657993;stroke-linecap:square;"/>
   </g>
   <g id="line2d_54">
    <path clip-path="url(#pe0b242aae4)" d="M 176.742 146.63772 
L 176.742 26.278535 
" style="fill:none;stroke:#657993;stroke-linecap:square;"/>
   </g>
   <g id="line2d_55">
    <path clip-path="url(#pe0b242aae4)" d="M 174.7926 236.618182 
L 178.6914 236.618182 
" style="fill:none;stroke:#657993;stroke-linecap:square;"/>
   </g>
   <g id="line2d_56">
    <path clip-path="url(#pe0b242aae4)" d="M 174.7926 26.278535 
L 178.6914 26.278535 
" style="fill:none;stroke:#657993;stroke-linecap:square;"/>
   </g>
   <g id="line2d_57">
    <path clip-path="url(#pe0b242aae4)" d="M 189.738 229.023501 
L 189.738 236.618182 
" style="fill:none;stroke:#657993;stroke-linecap:square;"/>
   </g>
   <g id="line2d_58">
    <path clip-path="url(#pe0b242aae4)" d="M 189.738 144.326296 
L 189.738 21.655685 
" style="fill:none;stroke:#657993;stroke-linecap:square;"/>
   </g>
   <g id="line2d_59">
    <path clip-path="url(#pe0b242aae4)" d="M 187.7886 236.618182 
L 191.6874 236.618182 
" style="fill:none;stroke:#657993;stroke-linecap:square;"/>
   </g>
   <g id="line2d_60">
    <path clip-path="url(#pe0b242aae4)" d="M 187.7886 21.655685 
L 191.6874 21.655685 
" style="fill:none;stroke:#657993;stroke-linecap:square;"/>
   </g>
   <g id="line2d_61">
    <path clip-path="url(#pe0b242aae4)" d="M 202.734 228.363094 
L 202.734 236.618182 
" style="fill:none;stroke:#657993;stroke-linecap:square;"/>
   </g>
   <g id="line2d_62">
    <path clip-path="url(#pe0b242aae4)" d="M 202.734 147.133026 
L 202.734 33.873216 
" style="fill:none;stroke:#657993;stroke-linecap:square;"/>
   </g>
   <g id="line2d_63">
    <path clip-path="url(#pe0b242aae4)" d="M 200.7846 236.618182 
L 204.6834 236.618182 
" style="fill:none;stroke:#657993;stroke-linecap:square;"/>
   </g>
   <g id="line2d_64">
    <path clip-path="url(#pe0b242aae4)" d="M 200.7846 33.873216 
L 204.6834 33.873216 
" style="fill:none;stroke:#657993;stroke-linecap:square;"/>
   </g>
   <g id="line2d_65">
    <path clip-path="url(#pe0b242aae4)" d="M 215.73 228.858399 
L 215.73 236.618182 
" style="fill:none;stroke:#657993;stroke-linecap:square;"/>
   </g>
   <g id="line2d_66">
    <path clip-path="url(#pe0b242aae4)" d="M 215.73 152.746486 
L 215.73 51.043799 
" style="fill:none;stroke:#657993;stroke-linecap:square;"/>
   </g>
   <g id="line2d_67">
    <path clip-path="url(#pe0b242aae4)" d="M 213.7806 236.618182 
L 217.6794 236.618182 
" style="fill:none;stroke:#657993;stroke-linecap:square;"/>
   </g>
   <g id="line2d_68">
    <path clip-path="url(#pe0b242aae4)" d="M 213.7806 51.043799 
L 217.6794 51.043799 
" style="fill:none;stroke:#657993;stroke-linecap:square;"/>
   </g>
   <g id="line2d_69">
    <path clip-path="url(#pe0b242aae4)" d="M 228.726 228.858399 
L 228.726 236.618182 
" style="fill:none;stroke:#657993;stroke-linecap:square;"/>
   </g>
   <g id="line2d_70">
    <path clip-path="url(#pe0b242aae4)" d="M 228.726 143.500787 
L 228.726 18.35365 
" style="fill:none;stroke:#657993;stroke-linecap:square;"/>
   </g>
   <g id="line2d_71">
    <path clip-path="url(#pe0b242aae4)" d="M 226.7766 236.618182 
L 230.6754 236.618182 
" style="fill:none;stroke:#657993;stroke-linecap:square;"/>
   </g>
   <g id="line2d_72">
    <path clip-path="url(#pe0b242aae4)" d="M 226.7766 18.35365 
L 230.6754 18.35365 
" style="fill:none;stroke:#657993;stroke-linecap:square;"/>
   </g>
   <g id="line2d_73">
    <path clip-path="url(#pe0b242aae4)" d="M 241.722 228.528195 
L 241.722 236.618182 
" style="fill:none;stroke:#657993;stroke-linecap:square;"/>
   </g>
   <g id="line2d_74">
    <path clip-path="url(#pe0b242aae4)" d="M 241.722 151.590773 
L 241.722 39.156472 
" style="fill:none;stroke:#657993;stroke-linecap:square;"/>
   </g>
   <g id="line2d_75">
    <path clip-path="url(#pe0b242aae4)" d="M 239.7726 236.618182 
L 243.6714 236.618182 
" style="fill:none;stroke:#657993;stroke-linecap:square;"/>
   </g>
   <g id="line2d_76">
    <path clip-path="url(#pe0b242aae4)" d="M 239.7726 39.156472 
L 243.6714 39.156472 
" style="fill:none;stroke:#657993;stroke-linecap:square;"/>
   </g>
   <g id="line2d_77">
    <path clip-path="url(#pe0b242aae4)" d="M 254.718 229.683908 
L 254.718 236.618182 
" style="fill:none;stroke:#657993;stroke-linecap:square;"/>
   </g>
   <g id="line2d_78">
    <path clip-path="url(#pe0b242aae4)" d="M 254.718 149.44445 
L 254.718 29.58057 
" style="fill:none;stroke:#657993;stroke-linecap:square;"/>
   </g>
   <g id="line2d_79">
    <path clip-path="url(#pe0b242aae4)" d="M 252.7686 236.618182 
L 256.6674 236.618182 
" style="fill:none;stroke:#657993;stroke-linecap:square;"/>
   </g>
   <g id="line2d_80">
    <path clip-path="url(#pe0b242aae4)" d="M 252.7686 29.58057 
L 256.6674 29.58057 
" style="fill:none;stroke:#657993;stroke-linecap:square;"/>
   </g>
   <g id="line2d_81">
    <path clip-path="url(#pe0b242aae4)" d="M 267.714 229.023501 
L 267.714 236.618182 
" style="fill:none;stroke:#657993;stroke-linecap:square;"/>
   </g>
   <g id="line2d_82">
    <path clip-path="url(#pe0b242aae4)" d="M 267.714 161.331777 
L 267.714 60.949905 
" style="fill:none;stroke:#657993;stroke-linecap:square;"/>
   </g>
   <g id="line2d_83">
    <path clip-path="url(#pe0b242aae4)" d="M 265.7646 236.618182 
L 269.6634 236.618182 
" style="fill:none;stroke:#657993;stroke-linecap:square;"/>
   </g>
   <g id="line2d_84">
    <path clip-path="url(#pe0b242aae4)" d="M 265.7646 60.949905 
L 269.6634 60.949905 
" style="fill:none;stroke:#657993;stroke-linecap:square;"/>
   </g>
   <g id="line2d_85">
    <path clip-path="url(#pe0b242aae4)" d="M 280.71 230.014111 
L 280.71 236.618182 
" style="fill:none;stroke:#657993;stroke-linecap:square;"/>
   </g>
   <g id="line2d_86">
    <path clip-path="url(#pe0b242aae4)" d="M 280.71 165.29422 
L 280.71 71.186214 
" style="fill:none;stroke:#657993;stroke-linecap:square;"/>
   </g>
   <g id="line2d_87">
    <path clip-path="url(#pe0b242aae4)" d="M 278.7606 236.618182 
L 282.6594 236.618182 
" style="fill:none;stroke:#657993;stroke-linecap:square;"/>
   </g>
   <g id="line2d_88">
    <path clip-path="url(#pe0b242aae4)" d="M 278.7606 71.186214 
L 282.6594 71.186214 
" style="fill:none;stroke:#657993;stroke-linecap:square;"/>
   </g>
   <g id="line2d_89">
    <path clip-path="url(#pe0b242aae4)" d="M 293.706 231.004722 
L 293.706 236.618182 
" style="fill:none;stroke:#657993;stroke-linecap:square;"/>
   </g>
   <g id="line2d_90">
    <path clip-path="url(#pe0b242aae4)" d="M 293.706 172.723799 
L 293.706 88.356798 
" style="fill:none;stroke:#657993;stroke-linecap:square;"/>
   </g>
   <g id="line2d_91">
    <path clip-path="url(#pe0b242aae4)" d="M 291.7566 236.618182 
L 295.6554 236.618182 
" style="fill:none;stroke:#657993;stroke-linecap:square;"/>
   </g>
   <g id="line2d_92">
    <path clip-path="url(#pe0b242aae4)" d="M 291.7566 88.356798 
L 295.6554 88.356798 
" style="fill:none;stroke:#657993;stroke-linecap:square;"/>
   </g>
   <g id="line2d_93">
    <path clip-path="url(#pe0b242aae4)" d="M 306.702 230.83962 
L 306.702 236.618182 
" style="fill:none;stroke:#657993;stroke-linecap:square;"/>
   </g>
   <g id="line2d_94">
    <path clip-path="url(#pe0b242aae4)" d="M 306.702 174.374817 
L 306.702 92.31924 
" style="fill:none;stroke:#657993;stroke-linecap:square;"/>
   </g>
   <g id="line2d_95">
    <path clip-path="url(#pe0b242aae4)" d="M 304.7526 236.618182 
L 308.6514 236.618182 
" style="fill:none;stroke:#657993;stroke-linecap:square;"/>
   </g>
   <g id="line2d_96">
    <path clip-path="url(#pe0b242aae4)" d="M 304.7526 92.31924 
L 308.6514 92.31924 
" style="fill:none;stroke:#657993;stroke-linecap:square;"/>
   </g>
   <g id="line2d_97">
    <path clip-path="url(#pe0b242aae4)" d="M 319.698 232.655739 
L 319.698 236.618182 
" style="fill:none;stroke:#657993;stroke-linecap:square;"/>
   </g>
   <g id="line2d_98">
    <path clip-path="url(#pe0b242aae4)" d="M 319.698 179.162768 
L 319.698 108.829417 
" style="fill:none;stroke:#657993;stroke-linecap:square;"/>
   </g>
   <g id="line2d_99">
    <path clip-path="url(#pe0b242aae4)" d="M 317.7486 236.618182 
L 321.6474 236.618182 
" style="fill:none;stroke:#657993;stroke-linecap:square;"/>
   </g>
   <g id="line2d_100">
    <path clip-path="url(#pe0b242aae4)" d="M 317.7486 108.829417 
L 321.6474 108.829417 
" style="fill:none;stroke:#657993;stroke-linecap:square;"/>
   </g>
   <g id="line2d_101">
    <path clip-path="url(#pe0b242aae4)" d="M 332.694 233.151045 
L 332.694 236.618182 
" style="fill:none;stroke:#657993;stroke-linecap:square;"/>
   </g>
   <g id="line2d_102">
    <path clip-path="url(#pe0b242aae4)" d="M 332.694 181.474193 
L 332.694 108.499213 
" style="fill:none;stroke:#657993;stroke-linecap:square;"/>
   </g>
   <g id="line2d_103">
    <path clip-path="url(#pe0b242aae4)" d="M 330.7446 236.618182 
L 334.6434 236.618182 
" style="fill:none;stroke:#657993;stroke-linecap:square;"/>
   </g>
   <g id="line2d_104">
    <path clip-path="url(#pe0b242aae4)" d="M 330.7446 108.499213 
L 334.6434 108.499213 
" style="fill:none;stroke:#657993;stroke-linecap:square;"/>
   </g>
   <g id="line2d_105">
    <path clip-path="url(#pe0b242aae4)" d="M 345.69 233.481248 
L 345.69 236.618182 
" style="fill:none;stroke:#657993;stroke-linecap:square;"/>
   </g>
   <g id="line2d_106">
    <path clip-path="url(#pe0b242aae4)" d="M 345.69 186.097042 
L 345.69 123.688575 
" style="fill:none;stroke:#657993;stroke-linecap:square;"/>
   </g>
   <g id="line2d_107">
    <path clip-path="url(#pe0b242aae4)" d="M 343.7406 236.618182 
L 347.6394 236.618182 
" style="fill:none;stroke:#657993;stroke-linecap:square;"/>
   </g>
   <g id="line2d_108">
    <path clip-path="url(#pe0b242aae4)" d="M 343.7406 123.688575 
L 347.6394 123.688575 
" style="fill:none;stroke:#657993;stroke-linecap:square;"/>
   </g>
   <g id="line2d_109">
    <path clip-path="url(#pe0b242aae4)" d="M 358.686 233.316147 
L 358.686 236.618182 
" style="fill:none;stroke:#657993;stroke-linecap:square;"/>
   </g>
   <g id="line2d_110">
    <path clip-path="url(#pe0b242aae4)" d="M 358.686 189.068874 
L 358.686 130.953053 
" style="fill:none;stroke:#657993;stroke-linecap:square;"/>
   </g>
   <g id="line2d_111">
    <path clip-path="url(#pe0b242aae4)" d="M 356.7366 236.618182 
L 360.6354 236.618182 
" style="fill:none;stroke:#657993;stroke-linecap:square;"/>
   </g>
   <g id="line2d_112">
    <path clip-path="url(#pe0b242aae4)" d="M 356.7366 130.953053 
L 360.6354 130.953053 
" style="fill:none;stroke:#657993;stroke-linecap:square;"/>
   </g>
   <g id="line2d_113">
    <path clip-path="url(#pe0b242aae4)" d="M 371.682 234.306757 
L 371.682 236.618182 
" style="fill:none;stroke:#657993;stroke-linecap:square;"/>
   </g>
   <g id="line2d_114">
    <path clip-path="url(#pe0b242aae4)" d="M 371.682 191.5454 
L 371.682 136.896716 
" style="fill:none;stroke:#657993;stroke-linecap:square;"/>
   </g>
   <g id="line2d_115">
    <path clip-path="url(#pe0b242aae4)" d="M 369.7326 236.618182 
L 373.6314 236.618182 
" style="fill:none;stroke:#657993;stroke-linecap:square;"/>
   </g>
   <g id="line2d_116">
    <path clip-path="url(#pe0b242aae4)" d="M 369.7326 136.896716 
L 373.6314 136.896716 
" style="fill:none;stroke:#657993;stroke-linecap:square;"/>
   </g>
   <g id="line2d_117">
    <path clip-path="url(#pe0b242aae4)" d="M 384.678 234.636961 
L 384.678 236.618182 
" style="fill:none;stroke:#657993;stroke-linecap:square;"/>
   </g>
   <g id="line2d_118">
    <path clip-path="url(#pe0b242aae4)" d="M 384.678 195.838046 
L 384.678 145.151805 
" style="fill:none;stroke:#657993;stroke-linecap:square;"/>
   </g>
   <g id="line2d_119">
    <path clip-path="url(#pe0b242aae4)" d="M 382.7286 236.618182 
L 386.6274 236.618182 
" style="fill:none;stroke:#657993;stroke-linecap:square;"/>
   </g>
   <g id="line2d_120">
    <path clip-path="url(#pe0b242aae4)" d="M 382.7286 145.151805 
L 386.6274 145.151805 
" style="fill:none;stroke:#657993;stroke-linecap:square;"/>
   </g>
   <g id="line2d_121">
    <path clip-path="url(#pe0b242aae4)" d="M 397.674 234.802062 
L 397.674 236.618182 
" style="fill:none;stroke:#657993;stroke-linecap:square;"/>
   </g>
   <g id="line2d_122">
    <path clip-path="url(#pe0b242aae4)" d="M 397.674 197.489064 
L 397.674 143.500787 
" style="fill:none;stroke:#657993;stroke-linecap:square;"/>
   </g>
   <g id="line2d_123">
    <path clip-path="url(#pe0b242aae4)" d="M 395.7246 236.618182 
L 399.6234 236.618182 
" style="fill:none;stroke:#657993;stroke-linecap:square;"/>
   </g>
   <g id="line2d_124">
    <path clip-path="url(#pe0b242aae4)" d="M 395.7246 143.500787 
L 399.6234 143.500787 
" style="fill:none;stroke:#657993;stroke-linecap:square;"/>
   </g>
   <g id="line2d_125">
    <path clip-path="url(#pe0b242aae4)" d="M 410.67 235.297368 
L 410.67 236.618182 
" style="fill:none;stroke:#657993;stroke-linecap:square;"/>
   </g>
   <g id="line2d_126">
    <path clip-path="url(#pe0b242aae4)" d="M 410.67 199.96559 
L 410.67 147.793433 
" style="fill:none;stroke:#657993;stroke-linecap:square;"/>
   </g>
   <g id="line2d_127">
    <path clip-path="url(#pe0b242aae4)" d="M 408.7206 236.618182 
L 412.6194 236.618182 
" style="fill:none;stroke:#657993;stroke-linecap:square;"/>
   </g>
   <g id="line2d_128">
    <path clip-path="url(#pe0b242aae4)" d="M 408.7206 147.793433 
L 412.6194 147.793433 
" style="fill:none;stroke:#657993;stroke-linecap:square;"/>
   </g>
   <g id="line2d_129">
    <path clip-path="url(#pe0b242aae4)" d="M 423.666 235.627571 
L 423.666 236.618182 
" style="fill:none;stroke:#657993;stroke-linecap:square;"/>
   </g>
   <g id="line2d_130">
    <path clip-path="url(#pe0b242aae4)" d="M 423.666 203.597829 
L 423.666 156.048521 
" style="fill:none;stroke:#657993;stroke-linecap:square;"/>
   </g>
   <g id="line2d_131">
    <path clip-path="url(#pe0b242aae4)" d="M 421.7166 236.618182 
L 425.6154 236.618182 
" style="fill:none;stroke:#657993;stroke-linecap:square;"/>
   </g>
   <g id="line2d_132">
    <path clip-path="url(#pe0b242aae4)" d="M 421.7166 156.048521 
L 425.6154 156.048521 
" style="fill:none;stroke:#657993;stroke-linecap:square;"/>
   </g>
   <g id="line2d_133">
    <path clip-path="url(#pe0b242aae4)" d="M 436.662 235.627571 
L 436.662 236.618182 
" style="fill:none;stroke:#657993;stroke-linecap:square;"/>
   </g>
   <g id="line2d_134">
    <path clip-path="url(#pe0b242aae4)" d="M 436.662 207.725373 
L 436.662 170.90768 
" style="fill:none;stroke:#657993;stroke-linecap:square;"/>
   </g>
   <g id="line2d_135">
    <path clip-path="url(#pe0b242aae4)" d="M 434.7126 236.618182 
L 438.6114 236.618182 
" style="fill:none;stroke:#657993;stroke-linecap:square;"/>
   </g>
   <g id="line2d_136">
    <path clip-path="url(#pe0b242aae4)" d="M 434.7126 170.90768 
L 438.6114 170.90768 
" style="fill:none;stroke:#657993;stroke-linecap:square;"/>
   </g>
   <g id="line2d_137">
    <path clip-path="url(#pe0b242aae4)" d="M 449.658 235.957775 
L 449.658 236.618182 
" style="fill:none;stroke:#657993;stroke-linecap:square;"/>
   </g>
   <g id="line2d_138">
    <path clip-path="url(#pe0b242aae4)" d="M 449.658 213.669037 
L 449.658 182.464803 
" style="fill:none;stroke:#657993;stroke-linecap:square;"/>
   </g>
   <g id="line2d_139">
    <path clip-path="url(#pe0b242aae4)" d="M 447.7086 236.618182 
L 451.6074 236.618182 
" style="fill:none;stroke:#657993;stroke-linecap:square;"/>
   </g>
   <g id="line2d_140">
    <path clip-path="url(#pe0b242aae4)" d="M 447.7086 182.464803 
L 451.6074 182.464803 
" style="fill:none;stroke:#657993;stroke-linecap:square;"/>
   </g>
   <g id="line2d_141">
    <path clip-path="url(#pe0b242aae4)" d="M 462.654 235.792673 
L 462.654 236.618182 
" style="fill:none;stroke:#657993;stroke-linecap:square;"/>
   </g>
   <g id="line2d_142">
    <path clip-path="url(#pe0b242aae4)" d="M 462.654 213.834138 
L 462.654 181.143989 
" style="fill:none;stroke:#657993;stroke-linecap:square;"/>
   </g>
   <g id="line2d_143">
    <path clip-path="url(#pe0b242aae4)" d="M 460.7046 236.618182 
L 464.6034 236.618182 
" style="fill:none;stroke:#657993;stroke-linecap:square;"/>
   </g>
   <g id="line2d_144">
    <path clip-path="url(#pe0b242aae4)" d="M 460.7046 181.143989 
L 464.6034 181.143989 
" style="fill:none;stroke:#657993;stroke-linecap:square;"/>
   </g>
   <g id="line2d_145">
    <path clip-path="url(#pe0b242aae4)" d="M 475.65 236.287978 
L 475.65 236.618182 
" style="fill:none;stroke:#657993;stroke-linecap:square;"/>
   </g>
   <g id="line2d_146">
    <path clip-path="url(#pe0b242aae4)" d="M 475.65 214.659647 
L 475.65 182.464803 
" style="fill:none;stroke:#657993;stroke-linecap:square;"/>
   </g>
   <g id="line2d_147">
    <path clip-path="url(#pe0b242aae4)" d="M 473.7006 236.618182 
L 477.5994 236.618182 
" style="fill:none;stroke:#657993;stroke-linecap:square;"/>
   </g>
   <g id="line2d_148">
    <path clip-path="url(#pe0b242aae4)" d="M 473.7006 182.464803 
L 477.5994 182.464803 
" style="fill:none;stroke:#657993;stroke-linecap:square;"/>
   </g>
   <g id="line2d_149">
    <path clip-path="url(#pe0b242aae4)" d="M 488.646 236.122877 
L 488.646 236.618182 
" style="fill:none;stroke:#657993;stroke-linecap:square;"/>
   </g>
   <g id="line2d_150">
    <path clip-path="url(#pe0b242aae4)" d="M 488.646 217.631479 
L 488.646 191.710502 
" style="fill:none;stroke:#657993;stroke-linecap:square;"/>
   </g>
   <g id="line2d_151">
    <path clip-path="url(#pe0b242aae4)" d="M 486.6966 236.618182 
L 490.5954 236.618182 
" style="fill:none;stroke:#657993;stroke-linecap:square;"/>
   </g>
   <g id="line2d_152">
    <path clip-path="url(#pe0b242aae4)" d="M 486.6966 191.710502 
L 490.5954 191.710502 
" style="fill:none;stroke:#657993;stroke-linecap:square;"/>
   </g>
   <g id="line2d_153">
    <path clip-path="url(#pe0b242aae4)" d="M 501.642 236.287978 
L 501.642 236.618182 
" style="fill:none;stroke:#657993;stroke-linecap:square;"/>
   </g>
   <g id="line2d_154">
    <path clip-path="url(#pe0b242aae4)" d="M 501.642 218.126784 
L 501.642 192.040706 
" style="fill:none;stroke:#657993;stroke-linecap:square;"/>
   </g>
   <g id="line2d_155">
    <path clip-path="url(#pe0b242aae4)" d="M 499.6926 236.618182 
L 503.5914 236.618182 
" style="fill:none;stroke:#657993;stroke-linecap:square;"/>
   </g>
   <g id="line2d_156">
    <path clip-path="url(#pe0b242aae4)" d="M 499.6926 192.040706 
L 503.5914 192.040706 
" style="fill:none;stroke:#657993;stroke-linecap:square;"/>
   </g>
   <g id="line2d_157">
    <path clip-path="url(#pe0b242aae4)" d="M 514.638 236.287978 
L 514.638 236.618182 
" style="fill:none;stroke:#657993;stroke-linecap:square;"/>
   </g>
   <g id="line2d_158">
    <path clip-path="url(#pe0b242aae4)" d="M 514.638 221.593921 
L 514.638 200.295794 
" style="fill:none;stroke:#657993;stroke-linecap:square;"/>
   </g>
   <g id="line2d_159">
    <path clip-path="url(#pe0b242aae4)" d="M 512.6886 236.618182 
L 516.5874 236.618182 
" style="fill:none;stroke:#657993;stroke-linecap:square;"/>
   </g>
   <g id="line2d_160">
    <path clip-path="url(#pe0b242aae4)" d="M 512.6886 200.295794 
L 516.5874 200.295794 
" style="fill:none;stroke:#657993;stroke-linecap:square;"/>
   </g>
   <g id="line2d_161">
    <path clip-path="url(#pe0b242aae4)" d="M 527.634 236.287978 
L 527.634 236.618182 
" style="fill:none;stroke:#657993;stroke-linecap:square;"/>
   </g>
   <g id="line2d_162">
    <path clip-path="url(#pe0b242aae4)" d="M 527.634 222.41943 
L 527.634 201.616608 
" style="fill:none;stroke:#657993;stroke-linecap:square;"/>
   </g>
   <g id="line2d_163">
    <path clip-path="url(#pe0b242aae4)" d="M 525.6846 236.618182 
L 529.5834 236.618182 
" style="fill:none;stroke:#657993;stroke-linecap:square;"/>
   </g>
   <g id="line2d_164">
    <path clip-path="url(#pe0b242aae4)" d="M 525.6846 201.616608 
L 529.5834 201.616608 
" style="fill:none;stroke:#657993;stroke-linecap:square;"/>
   </g>
   <g id="line2d_165">
    <path clip-path="url(#pe0b242aae4)" d="M 540.63 236.287978 
L 540.63 236.618182 
" style="fill:none;stroke:#657993;stroke-linecap:square;"/>
   </g>
   <g id="line2d_166">
    <path clip-path="url(#pe0b242aae4)" d="M 540.63 224.565753 
L 540.63 207.560271 
" style="fill:none;stroke:#657993;stroke-linecap:square;"/>
   </g>
   <g id="line2d_167">
    <path clip-path="url(#pe0b242aae4)" d="M 538.6806 236.618182 
L 542.5794 236.618182 
" style="fill:none;stroke:#657993;stroke-linecap:square;"/>
   </g>
   <g id="line2d_168">
    <path clip-path="url(#pe0b242aae4)" d="M 538.6806 207.560271 
L 542.5794 207.560271 
" style="fill:none;stroke:#657993;stroke-linecap:square;"/>
   </g>
   <g id="line2d_169">
    <path clip-path="url(#pe0b242aae4)" d="M 553.626 236.287978 
L 553.626 236.618182 
" style="fill:none;stroke:#657993;stroke-linecap:square;"/>
   </g>
   <g id="line2d_170">
    <path clip-path="url(#pe0b242aae4)" d="M 553.626 225.22616 
L 553.626 209.871696 
" style="fill:none;stroke:#657993;stroke-linecap:square;"/>
   </g>
   <g id="line2d_171">
    <path clip-path="url(#pe0b242aae4)" d="M 551.6766 236.618182 
L 555.5754 236.618182 
" style="fill:none;stroke:#657993;stroke-linecap:square;"/>
   </g>
   <g id="line2d_172">
    <path clip-path="url(#pe0b242aae4)" d="M 551.6766 209.871696 
L 555.5754 209.871696 
" style="fill:none;stroke:#657993;stroke-linecap:square;"/>
   </g>
   <g id="line2d_173">
    <path clip-path="url(#pe0b242aae4)" d="M 566.622 236.618182 
L 566.622 236.618182 
" style="fill:none;stroke:#657993;stroke-linecap:square;"/>
   </g>
   <g id="line2d_174">
    <path clip-path="url(#pe0b242aae4)" d="M 566.622 225.721465 
L 566.622 209.871696 
" style="fill:none;stroke:#657993;stroke-linecap:square;"/>
   </g>
   <g id="line2d_175">
    <path clip-path="url(#pe0b242aae4)" d="M 564.6726 236.618182 
L 568.5714 236.618182 
" style="fill:none;stroke:#657993;stroke-linecap:square;"/>
   </g>
   <g id="line2d_176">
    <path clip-path="url(#pe0b242aae4)" d="M 564.6726 209.871696 
L 568.5714 209.871696 
" style="fill:none;stroke:#657993;stroke-linecap:square;"/>
   </g>
   <g id="patch_3">
    <path clip-path="url(#pe0b242aae4)" d="M 55.8792 236.618182 
L 63.6768 236.618182 
L 63.6768 234.306757 
L 55.8792 234.306757 
L 55.8792 236.618182 
z
" style="fill:#7da0ba;opacity:0.75;stroke:#023858;stroke-linejoin:miter;"/>
   </g>
   <g id="patch_4">
    <path clip-path="url(#pe0b242aae4)" d="M 68.8752 236.618182 
L 76.6728 236.618182 
L 76.6728 204.093134 
L 68.8752 204.093134 
L 68.8752 236.618182 
z
" style="fill:#7da0ba;opacity:0.75;stroke:#023858;stroke-linejoin:miter;"/>
   </g>
   <g id="patch_5">
    <path clip-path="url(#pe0b242aae4)" d="M 81.8712 235.957775 
L 89.6688 235.957775 
L 89.6688 189.233976 
L 81.8712 189.233976 
L 81.8712 235.957775 
z
" style="fill:#7da0ba;opacity:0.75;stroke:#023858;stroke-linejoin:miter;"/>
   </g>
   <g id="patch_6">
    <path clip-path="url(#pe0b242aae4)" d="M 94.8672 234.967164 
L 102.6648 234.967164 
L 102.6648 175.200326 
L 94.8672 175.200326 
L 94.8672 234.967164 
z
" style="fill:#7da0ba;opacity:0.75;stroke:#023858;stroke-linejoin:miter;"/>
   </g>
   <g id="patch_7">
    <path clip-path="url(#pe0b242aae4)" d="M 107.8632 233.976554 
L 115.6608 233.976554 
L 115.6608 156.87403 
L 107.8632 156.87403 
L 107.8632 233.976554 
z
" style="fill:#7da0ba;opacity:0.75;stroke:#023858;stroke-linejoin:miter;"/>
   </g>
   <g id="patch_8">
    <path clip-path="url(#pe0b242aae4)" d="M 120.8592 232.985943 
L 128.6568 232.985943 
L 128.6568 143.830991 
L 120.8592 143.830991 
L 120.8592 232.985943 
z
" style="fill:#7da0ba;opacity:0.75;stroke:#023858;stroke-linejoin:miter;"/>
   </g>
   <g id="patch_9">
    <path clip-path="url(#pe0b242aae4)" d="M 133.8552 231.995332 
L 141.6528 231.995332 
L 141.6528 143.005482 
L 133.8552 143.005482 
L 133.8552 231.995332 
z
" style="fill:#7da0ba;opacity:0.75;stroke:#023858;stroke-linejoin:miter;"/>
   </g>
   <g id="patch_10">
    <path clip-path="url(#pe0b242aae4)" d="M 146.8512 231.004722 
L 154.6488 231.004722 
L 154.6488 146.967924 
L 146.8512 146.967924 
L 146.8512 231.004722 
z
" style="fill:#7da0ba;opacity:0.75;stroke:#023858;stroke-linejoin:miter;"/>
   </g>
   <g id="patch_11">
    <path clip-path="url(#pe0b242aae4)" d="M 159.8472 230.509417 
L 167.6448 230.509417 
L 167.6448 146.472619 
L 159.8472 146.472619 
L 159.8472 230.509417 
z
" style="fill:#7da0ba;opacity:0.75;stroke:#023858;stroke-linejoin:miter;"/>
   </g>
   <g id="patch_12">
    <path clip-path="url(#pe0b242aae4)" d="M 172.8432 229.683908 
L 180.6408 229.683908 
L 180.6408 146.63772 
L 172.8432 146.63772 
L 172.8432 229.683908 
z
" style="fill:#7da0ba;opacity:0.75;stroke:#023858;stroke-linejoin:miter;"/>
   </g>
   <g id="patch_13">
    <path clip-path="url(#pe0b242aae4)" d="M 185.8392 229.023501 
L 193.6368 229.023501 
L 193.6368 144.326296 
L 185.8392 144.326296 
L 185.8392 229.023501 
z
" style="fill:#7da0ba;opacity:0.75;stroke:#023858;stroke-linejoin:miter;"/>
   </g>
   <g id="patch_14">
    <path clip-path="url(#pe0b242aae4)" d="M 198.8352 228.363094 
L 206.6328 228.363094 
L 206.6328 147.133026 
L 198.8352 147.133026 
L 198.8352 228.363094 
z
" style="fill:#7da0ba;opacity:0.75;stroke:#023858;stroke-linejoin:miter;"/>
   </g>
   <g id="patch_15">
    <path clip-path="url(#pe0b242aae4)" d="M 211.8312 228.858399 
L 219.6288 228.858399 
L 219.6288 152.746486 
L 211.8312 152.746486 
L 211.8312 228.858399 
z
" style="fill:#7da0ba;opacity:0.75;stroke:#023858;stroke-linejoin:miter;"/>
   </g>
   <g id="patch_16">
    <path clip-path="url(#pe0b242aae4)" d="M 224.8272 228.858399 
L 232.6248 228.858399 
L 232.6248 143.500787 
L 224.8272 143.500787 
L 224.8272 228.858399 
z
" style="fill:#7da0ba;opacity:0.75;stroke:#023858;stroke-linejoin:miter;"/>
   </g>
   <g id="patch_17">
    <path clip-path="url(#pe0b242aae4)" d="M 237.8232 228.528195 
L 245.6208 228.528195 
L 245.6208 151.590773 
L 237.8232 151.590773 
L 237.8232 228.528195 
z
" style="fill:#7da0ba;opacity:0.75;stroke:#023858;stroke-linejoin:miter;"/>
   </g>
   <g id="patch_18">
    <path clip-path="url(#pe0b242aae4)" d="M 250.8192 229.683908 
L 258.6168 229.683908 
L 258.6168 149.44445 
L 250.8192 149.44445 
L 250.8192 229.683908 
z
" style="fill:#7da0ba;opacity:0.75;stroke:#023858;stroke-linejoin:miter;"/>
   </g>
   <g id="patch_19">
    <path clip-path="url(#pe0b242aae4)" d="M 263.8152 229.023501 
L 271.6128 229.023501 
L 271.6128 161.331777 
L 263.8152 161.331777 
L 263.8152 229.023501 
z
" style="fill:#7da0ba;opacity:0.75;stroke:#023858;stroke-linejoin:miter;"/>
   </g>
   <g id="patch_20">
    <path clip-path="url(#pe0b242aae4)" d="M 276.8112 230.014111 
L 284.6088 230.014111 
L 284.6088 165.29422 
L 276.8112 165.29422 
L 276.8112 230.014111 
z
" style="fill:#7da0ba;opacity:0.75;stroke:#023858;stroke-linejoin:miter;"/>
   </g>
   <g id="patch_21">
    <path clip-path="url(#pe0b242aae4)" d="M 289.8072 231.004722 
L 297.6048 231.004722 
L 297.6048 172.723799 
L 289.8072 172.723799 
L 289.8072 231.004722 
z
" style="fill:#7da0ba;opacity:0.75;stroke:#023858;stroke-linejoin:miter;"/>
   </g>
   <g id="patch_22">
    <path clip-path="url(#pe0b242aae4)" d="M 302.8032 230.83962 
L 310.6008 230.83962 
L 310.6008 174.374817 
L 302.8032 174.374817 
L 302.8032 230.83962 
z
" style="fill:#7da0ba;opacity:0.75;stroke:#023858;stroke-linejoin:miter;"/>
   </g>
   <g id="patch_23">
    <path clip-path="url(#pe0b242aae4)" d="M 315.7992 232.655739 
L 323.5968 232.655739 
L 323.5968 179.162768 
L 315.7992 179.162768 
L 315.7992 232.655739 
z
" style="fill:#7da0ba;opacity:0.75;stroke:#023858;stroke-linejoin:miter;"/>
   </g>
   <g id="patch_24">
    <path clip-path="url(#pe0b242aae4)" d="M 328.7952 233.151045 
L 336.5928 233.151045 
L 336.5928 181.474193 
L 328.7952 181.474193 
L 328.7952 233.151045 
z
" style="fill:#7da0ba;opacity:0.75;stroke:#023858;stroke-linejoin:miter;"/>
   </g>
   <g id="patch_25">
    <path clip-path="url(#pe0b242aae4)" d="M 341.7912 233.481248 
L 349.5888 233.481248 
L 349.5888 186.097042 
L 341.7912 186.097042 
L 341.7912 233.481248 
z
" style="fill:#7da0ba;opacity:0.75;stroke:#023858;stroke-linejoin:miter;"/>
   </g>
   <g id="patch_26">
    <path clip-path="url(#pe0b242aae4)" d="M 354.7872 233.316147 
L 362.5848 233.316147 
L 362.5848 189.068874 
L 354.7872 189.068874 
L 354.7872 233.316147 
z
" style="fill:#7da0ba;opacity:0.75;stroke:#023858;stroke-linejoin:miter;"/>
   </g>
   <g id="patch_27">
    <path clip-path="url(#pe0b242aae4)" d="M 367.7832 234.306757 
L 375.5808 234.306757 
L 375.5808 191.5454 
L 367.7832 191.5454 
L 367.7832 234.306757 
z
" style="fill:#7da0ba;opacity:0.75;stroke:#023858;stroke-linejoin:miter;"/>
   </g>
   <g id="patch_28">
    <path clip-path="url(#pe0b242aae4)" d="M 380.7792 234.636961 
L 388.5768 234.636961 
L 388.5768 195.838046 
L 380.7792 195.838046 
L 380.7792 234.636961 
z
" style="fill:#7da0ba;opacity:0.75;stroke:#023858;stroke-linejoin:miter;"/>
   </g>
   <g id="patch_29">
    <path clip-path="url(#pe0b242aae4)" d="M 393.7752 234.802062 
L 401.5728 234.802062 
L 401.5728 197.489064 
L 393.7752 197.489064 
L 393.7752 234.802062 
z
" style="fill:#7da0ba;opacity:0.75;stroke:#023858;stroke-linejoin:miter;"/>
   </g>
   <g id="patch_30">
    <path clip-path="url(#pe0b242aae4)" d="M 406.7712 235.297368 
L 414.5688 235.297368 
L 414.5688 199.96559 
L 406.7712 199.96559 
L 406.7712 235.297368 
z
" style="fill:#7da0ba;opacity:0.75;stroke:#023858;stroke-linejoin:miter;"/>
   </g>
   <g id="patch_31">
    <path clip-path="url(#pe0b242aae4)" d="M 419.7672 235.627571 
L 427.5648 235.627571 
L 427.5648 203.597829 
L 419.7672 203.597829 
L 419.7672 235.627571 
z
" style="fill:#7da0ba;opacity:0.75;stroke:#023858;stroke-linejoin:miter;"/>
   </g>
   <g id="patch_32">
    <path clip-path="url(#pe0b242aae4)" d="M 432.7632 235.627571 
L 440.5608 235.627571 
L 440.5608 207.725373 
L 432.7632 207.725373 
L 432.7632 235.627571 
z
" style="fill:#7da0ba;opacity:0.75;stroke:#023858;stroke-linejoin:miter;"/>
   </g>
   <g id="patch_33">
    <path clip-path="url(#pe0b242aae4)" d="M 445.7592 235.957775 
L 453.5568 235.957775 
L 453.5568 213.669037 
L 445.7592 213.669037 
L 445.7592 235.957775 
z
" style="fill:#7da0ba;opacity:0.75;stroke:#023858;stroke-linejoin:miter;"/>
   </g>
   <g id="patch_34">
    <path clip-path="url(#pe0b242aae4)" d="M 458.7552 235.792673 
L 466.5528 235.792673 
L 466.5528 213.834138 
L 458.7552 213.834138 
L 458.7552 235.792673 
z
" style="fill:#7da0ba;opacity:0.75;stroke:#023858;stroke-linejoin:miter;"/>
   </g>
   <g id="patch_35">
    <path clip-path="url(#pe0b242aae4)" d="M 471.7512 236.287978 
L 479.5488 236.287978 
L 479.5488 214.659647 
L 471.7512 214.659647 
L 471.7512 236.287978 
z
" style="fill:#7da0ba;opacity:0.75;stroke:#023858;stroke-linejoin:miter;"/>
   </g>
   <g id="patch_36">
    <path clip-path="url(#pe0b242aae4)" d="M 484.7472 236.122877 
L 492.5448 236.122877 
L 492.5448 217.631479 
L 484.7472 217.631479 
L 484.7472 236.122877 
z
" style="fill:#7da0ba;opacity:0.75;stroke:#023858;stroke-linejoin:miter;"/>
   </g>
   <g id="patch_37">
    <path clip-path="url(#pe0b242aae4)" d="M 497.7432 236.287978 
L 505.5408 236.287978 
L 505.5408 218.126784 
L 497.7432 218.126784 
L 497.7432 236.287978 
z
" style="fill:#7da0ba;opacity:0.75;stroke:#023858;stroke-linejoin:miter;"/>
   </g>
   <g id="patch_38">
    <path clip-path="url(#pe0b242aae4)" d="M 510.7392 236.287978 
L 518.5368 236.287978 
L 518.5368 221.593921 
L 510.7392 221.593921 
L 510.7392 236.287978 
z
" style="fill:#7da0ba;opacity:0.75;stroke:#023858;stroke-linejoin:miter;"/>
   </g>
   <g id="patch_39">
    <path clip-path="url(#pe0b242aae4)" d="M 523.7352 236.287978 
L 531.5328 236.287978 
L 531.5328 222.41943 
L 523.7352 222.41943 
L 523.7352 236.287978 
z
" style="fill:#7da0ba;opacity:0.75;stroke:#023858;stroke-linejoin:miter;"/>
   </g>
   <g id="patch_40">
    <path clip-path="url(#pe0b242aae4)" d="M 536.7312 236.287978 
L 544.5288 236.287978 
L 544.5288 224.565753 
L 536.7312 224.565753 
L 536.7312 236.287978 
z
" style="fill:#7da0ba;opacity:0.75;stroke:#023858;stroke-linejoin:miter;"/>
   </g>
   <g id="patch_41">
    <path clip-path="url(#pe0b242aae4)" d="M 549.7272 236.287978 
L 557.5248 236.287978 
L 557.5248 225.22616 
L 549.7272 225.22616 
L 549.7272 236.287978 
z
" style="fill:#7da0ba;opacity:0.75;stroke:#023858;stroke-linejoin:miter;"/>
   </g>
   <g id="patch_42">
    <path clip-path="url(#pe0b242aae4)" d="M 562.7232 236.618182 
L 570.5208 236.618182 
L 570.5208 225.721465 
L 562.7232 225.721465 
L 562.7232 236.618182 
z
" style="fill:#7da0ba;opacity:0.75;stroke:#023858;stroke-linejoin:miter;"/>
   </g>
   <g id="line2d_177">
    <path clip-path="url(#pe0b242aae4)" d="M 55.8792 236.618182 
L 63.6768 236.618182 
" style="fill:none;stroke:#023858;stroke-linecap:square;"/>
   </g>
   <g id="line2d_178">
    <path clip-path="url(#pe0b242aae4)" d="M 68.8752 234.306757 
L 76.6728 234.306757 
" style="fill:none;stroke:#023858;stroke-linecap:square;"/>
   </g>
   <g id="line2d_179">
    <path clip-path="url(#pe0b242aae4)" d="M 81.8712 230.014111 
L 89.6688 230.014111 
" style="fill:none;stroke:#023858;stroke-linecap:square;"/>
   </g>
   <g id="line2d_180">
    <path clip-path="url(#pe0b242aae4)" d="M 94.8672 223.740244 
L 102.6648 223.740244 
" style="fill:none;stroke:#023858;stroke-linecap:square;"/>
   </g>
   <g id="line2d_181">
    <path clip-path="url(#pe0b242aae4)" d="M 107.8632 215.154953 
L 115.6608 215.154953 
" style="fill:none;stroke:#023858;stroke-linecap:square;"/>
   </g>
   <g id="line2d_182">
    <path clip-path="url(#pe0b242aae4)" d="M 120.8592 210.2019 
L 128.6568 210.2019 
" style="fill:none;stroke:#023858;stroke-linecap:square;"/>
   </g>
   <g id="line2d_183">
    <path clip-path="url(#pe0b242aae4)" d="M 133.8552 209.211289 
L 141.6528 209.211289 
" style="fill:none;stroke:#023858;stroke-linecap:square;"/>
   </g>
   <g id="line2d_184">
    <path clip-path="url(#pe0b242aae4)" d="M 146.8512 208.550882 
L 154.6488 208.550882 
" style="fill:none;stroke:#023858;stroke-linecap:square;"/>
   </g>
   <g id="line2d_185">
    <path clip-path="url(#pe0b242aae4)" d="M 159.8472 208.220678 
L 167.6448 208.220678 
" style="fill:none;stroke:#023858;stroke-linecap:square;"/>
   </g>
   <g id="line2d_186">
    <path clip-path="url(#pe0b242aae4)" d="M 172.8432 205.909254 
L 180.6408 205.909254 
" style="fill:none;stroke:#023858;stroke-linecap:square;"/>
   </g>
   <g id="line2d_187">
    <path clip-path="url(#pe0b242aae4)" d="M 185.8392 211.522714 
L 193.6368 211.522714 
" style="fill:none;stroke:#023858;stroke-linecap:square;"/>
   </g>
   <g id="line2d_188">
    <path clip-path="url(#pe0b242aae4)" d="M 198.8352 207.560271 
L 206.6328 207.560271 
" style="fill:none;stroke:#023858;stroke-linecap:square;"/>
   </g>
   <g id="line2d_189">
    <path clip-path="url(#pe0b242aae4)" d="M 211.8312 210.862307 
L 219.6288 210.862307 
" style="fill:none;stroke:#023858;stroke-linecap:square;"/>
   </g>
   <g id="line2d_190">
    <path clip-path="url(#pe0b242aae4)" d="M 224.8272 212.513324 
L 232.6248 212.513324 
" style="fill:none;stroke:#023858;stroke-linecap:square;"/>
   </g>
   <g id="line2d_191">
    <path clip-path="url(#pe0b242aae4)" d="M 237.8232 214.494545 
L 245.6208 214.494545 
" style="fill:none;stroke:#023858;stroke-linecap:square;"/>
   </g>
   <g id="line2d_192">
    <path clip-path="url(#pe0b242aae4)" d="M 250.8192 216.145563 
L 258.6168 216.145563 
" style="fill:none;stroke:#023858;stroke-linecap:square;"/>
   </g>
   <g id="line2d_193">
    <path clip-path="url(#pe0b242aae4)" d="M 263.8152 216.80597 
L 271.6128 216.80597 
" style="fill:none;stroke:#023858;stroke-linecap:square;"/>
   </g>
   <g id="line2d_194">
    <path clip-path="url(#pe0b242aae4)" d="M 276.8112 215.81536 
L 284.6088 215.81536 
" style="fill:none;stroke:#023858;stroke-linecap:square;"/>
   </g>
   <g id="line2d_195">
    <path clip-path="url(#pe0b242aae4)" d="M 289.8072 218.787191 
L 297.6048 218.787191 
" style="fill:none;stroke:#023858;stroke-linecap:square;"/>
   </g>
   <g id="line2d_196">
    <path clip-path="url(#pe0b242aae4)" d="M 302.8032 219.117395 
L 310.6008 219.117395 
" style="fill:none;stroke:#023858;stroke-linecap:square;"/>
   </g>
   <g id="line2d_197">
    <path clip-path="url(#pe0b242aae4)" d="M 315.7992 219.777802 
L 323.5968 219.777802 
" style="fill:none;stroke:#023858;stroke-linecap:square;"/>
   </g>
   <g id="line2d_198">
    <path clip-path="url(#pe0b242aae4)" d="M 328.7952 220.438209 
L 336.5928 220.438209 
" style="fill:none;stroke:#023858;stroke-linecap:square;"/>
   </g>
   <g id="line2d_199">
    <path clip-path="url(#pe0b242aae4)" d="M 341.7912 220.438209 
L 349.5888 220.438209 
" style="fill:none;stroke:#023858;stroke-linecap:square;"/>
   </g>
   <g id="line2d_200">
    <path clip-path="url(#pe0b242aae4)" d="M 354.7872 222.749634 
L 362.5848 222.749634 
" style="fill:none;stroke:#023858;stroke-linecap:square;"/>
   </g>
   <g id="line2d_201">
    <path clip-path="url(#pe0b242aae4)" d="M 367.7832 222.41943 
L 375.5808 222.41943 
" style="fill:none;stroke:#023858;stroke-linecap:square;"/>
   </g>
   <g id="line2d_202">
    <path clip-path="url(#pe0b242aae4)" d="M 380.7792 224.730855 
L 388.5768 224.730855 
" style="fill:none;stroke:#023858;stroke-linecap:square;"/>
   </g>
   <g id="line2d_203">
    <path clip-path="url(#pe0b242aae4)" d="M 393.7752 226.051669 
L 401.5728 226.051669 
" style="fill:none;stroke:#023858;stroke-linecap:square;"/>
   </g>
   <g id="line2d_204">
    <path clip-path="url(#pe0b242aae4)" d="M 406.7712 225.721465 
L 414.5688 225.721465 
" style="fill:none;stroke:#023858;stroke-linecap:square;"/>
   </g>
   <g id="line2d_205">
    <path clip-path="url(#pe0b242aae4)" d="M 419.7672 227.04228 
L 427.5648 227.04228 
" style="fill:none;stroke:#023858;stroke-linecap:square;"/>
   </g>
   <g id="line2d_206">
    <path clip-path="url(#pe0b242aae4)" d="M 432.7632 227.702687 
L 440.5608 227.702687 
" style="fill:none;stroke:#023858;stroke-linecap:square;"/>
   </g>
   <g id="line2d_207">
    <path clip-path="url(#pe0b242aae4)" d="M 445.7592 229.353704 
L 453.5568 229.353704 
" style="fill:none;stroke:#023858;stroke-linecap:square;"/>
   </g>
   <g id="line2d_208">
    <path clip-path="url(#pe0b242aae4)" d="M 458.7552 231.004722 
L 466.5528 231.004722 
" style="fill:none;stroke:#023858;stroke-linecap:square;"/>
   </g>
   <g id="line2d_209">
    <path clip-path="url(#pe0b242aae4)" d="M 471.7512 230.674518 
L 479.5488 230.674518 
" style="fill:none;stroke:#023858;stroke-linecap:square;"/>
   </g>
   <g id="line2d_210">
    <path clip-path="url(#pe0b242aae4)" d="M 484.7472 231.004722 
L 492.5448 231.004722 
" style="fill:none;stroke:#023858;stroke-linecap:square;"/>
   </g>
   <g id="line2d_211">
    <path clip-path="url(#pe0b242aae4)" d="M 497.7432 232.655739 
L 505.5408 232.655739 
" style="fill:none;stroke:#023858;stroke-linecap:square;"/>
   </g>
   <g id="line2d_212">
    <path clip-path="url(#pe0b242aae4)" d="M 510.7392 232.655739 
L 518.5368 232.655739 
" style="fill:none;stroke:#023858;stroke-linecap:square;"/>
   </g>
   <g id="line2d_213">
    <path clip-path="url(#pe0b242aae4)" d="M 523.7352 233.316147 
L 531.5328 233.316147 
" style="fill:none;stroke:#023858;stroke-linecap:square;"/>
   </g>
   <g id="line2d_214">
    <path clip-path="url(#pe0b242aae4)" d="M 536.7312 233.64635 
L 544.5288 233.64635 
" style="fill:none;stroke:#023858;stroke-linecap:square;"/>
   </g>
   <g id="line2d_215">
    <path clip-path="url(#pe0b242aae4)" d="M 549.7272 233.976554 
L 557.5248 233.976554 
" style="fill:none;stroke:#023858;stroke-linecap:square;"/>
   </g>
   <g id="line2d_216">
    <path clip-path="url(#pe0b242aae4)" d="M 562.7232 234.636961 
L 570.5208 234.636961 
" style="fill:none;stroke:#023858;stroke-linecap:square;"/>
   </g>
   <g id="patch_43">
    <path d="M 53.28 247.68 
L 53.28 4.32 
" style="fill:none;stroke:#000000;stroke-linecap:square;stroke-linejoin:miter;stroke-width:0.8;"/>
   </g>
   <g id="patch_44">
    <path d="M 53.28 247.68 
L 573.12 247.68 
" style="fill:none;stroke:#000000;stroke-linecap:square;stroke-linejoin:miter;stroke-width:0.8;"/>
   </g>
  </g>
 </g>
 <defs>
  <clipPath id="pe0b242aae4">
   <rect height="243.36" width="519.84" x="53.28" y="4.32"/>
  </clipPath>
 </defs>
</svg>
