<?xml version="1.0" encoding="utf-8" standalone="no"?>
<!DOCTYPE svg PUBLIC "-//W3C//DTD SVG 1.1//EN"
  "http://www.w3.org/Graphics/SVG/1.1/DTD/svg11.dtd">
<!-- Created with matplotlib (http://matplotlib.org/) -->
<svg height="252pt" version="1.1" viewBox="0 0 540 252" width="540pt" xmlns="http://www.w3.org/2000/svg" xmlns:xlink="http://www.w3.org/1999/xlink">
 <defs>
  <style type="text/css">
*{stroke-linecap:butt;stroke-linejoin:round;}
  </style>
 </defs>
 <g id="figure_1">
  <g id="patch_1">
   <path d="M 0 252 
L 540 252 
L 540 0 
L 0 0 
z
" style="fill:#ffffff;"/>
  </g>
  <g id="axes_1">
   <g id="patch_2">
    <path d="M 67.5 234.36 
L 531.9 234.36 
L 531.9 7.56 
L 67.5 7.56 
z
" style="fill:#ffffff;"/>
   </g>
   <g id="matplotlib.axis_1">
    <g id="xtick_1"/>
   </g>
   <g id="matplotlib.axis_2">
    <g id="ytick_1">
     <g id="line2d_1">
      <defs>
       <path d="M 0 0 
L -3.5 0 
" id="med497c12d5" style="stroke:#262626;stroke-width:0.8;"/>
      </defs>
      <g>
       <use style="fill:#262626;stroke:#262626;stroke-width:0.8;" x="67.5" xlink:href="#med497c12d5" y="223.56"/>
      </g>
     </g>
     <g id="text_1">
      <!-- 0 -->
      <defs>
       <path d="M 31.78125 3.421875 
Q 39.265625 3.421875 42.96875 11.625 
Q 46.6875 19.828125 46.6875 36.375 
Q 46.6875 52.984375 42.96875 61.1875 
Q 39.265625 69.390625 31.78125 69.390625 
Q 24.3125 69.390625 20.59375 61.1875 
Q 16.890625 52.984375 16.890625 36.375 
Q 16.890625 19.828125 20.59375 11.625 
Q 24.3125 3.421875 31.78125 3.421875 
z
M 31.78125 -1.421875 
Q 19.921875 -1.421875 13.25 8.53125 
Q 6.59375 18.5 6.59375 36.375 
Q 6.59375 54.296875 13.25 64.25 
Q 19.921875 74.21875 31.78125 74.21875 
Q 43.703125 74.21875 50.34375 64.25 
Q 56.984375 54.296875 56.984375 36.375 
Q 56.984375 18.5 50.34375 8.53125 
Q 43.703125 -1.421875 31.78125 -1.421875 
z
" id="DejaVuSerif-30"/>
      </defs>
      <g style="fill:#262626;" transform="translate(52.22875 228.498984)scale(0.13 -0.13)">
       <use xlink:href="#DejaVuSerif-30"/>
      </g>
     </g>
    </g>
    <g id="ytick_2">
     <g id="line2d_2">
      <g>
       <use style="fill:#262626;stroke:#262626;stroke-width:0.8;" x="67.5" xlink:href="#med497c12d5" y="180.36"/>
      </g>
     </g>
     <g id="text_2">
      <!-- 20 -->
      <defs>
       <path d="M 12.796875 55.515625 
L 7.328125 55.515625 
L 7.328125 68.5 
Q 12.546875 71.296875 17.84375 72.75 
Q 23.140625 74.21875 28.21875 74.21875 
Q 39.59375 74.21875 46.1875 68.703125 
Q 52.78125 63.1875 52.78125 53.71875 
Q 52.78125 43.015625 37.84375 28.125 
Q 36.671875 27 36.078125 26.421875 
L 17.671875 8.015625 
L 48.09375 8.015625 
L 48.09375 17 
L 53.8125 17 
L 53.8125 0 
L 6.78125 0 
L 6.78125 5.328125 
L 28.90625 27.390625 
Q 36.234375 34.71875 39.359375 40.84375 
Q 42.484375 46.96875 42.484375 53.71875 
Q 42.484375 61.078125 38.640625 65.234375 
Q 34.8125 69.390625 28.078125 69.390625 
Q 21.09375 69.390625 17.28125 65.921875 
Q 13.484375 62.453125 12.796875 55.515625 
z
" id="DejaVuSerif-32"/>
      </defs>
      <g style="fill:#262626;" transform="translate(43.9575 185.298984)scale(0.13 -0.13)">
       <use xlink:href="#DejaVuSerif-32"/>
       <use x="63.623047" xlink:href="#DejaVuSerif-30"/>
      </g>
     </g>
    </g>
    <g id="ytick_3">
     <g id="line2d_3">
      <g>
       <use style="fill:#262626;stroke:#262626;stroke-width:0.8;" x="67.5" xlink:href="#med497c12d5" y="137.16"/>
      </g>
     </g>
     <g id="text_3">
      <!-- 40 -->
      <defs>
       <path d="M 34.90625 24.703125 
L 34.90625 63.484375 
L 10.015625 24.703125 
z
M 56.390625 0 
L 23.1875 0 
L 23.1875 5.171875 
L 34.90625 5.171875 
L 34.90625 19.484375 
L 3.078125 19.484375 
L 3.078125 24.8125 
L 35.015625 74.21875 
L 44.671875 74.21875 
L 44.671875 24.703125 
L 58.59375 24.703125 
L 58.59375 19.484375 
L 44.671875 19.484375 
L 44.671875 5.171875 
L 56.390625 5.171875 
z
" id="DejaVuSerif-34"/>
      </defs>
      <g style="fill:#262626;" transform="translate(43.9575 142.098984)scale(0.13 -0.13)">
       <use xlink:href="#DejaVuSerif-34"/>
       <use x="63.623047" xlink:href="#DejaVuSerif-30"/>
      </g>
     </g>
    </g>
    <g id="ytick_4">
     <g id="line2d_4">
      <g>
       <use style="fill:#262626;stroke:#262626;stroke-width:0.8;" x="67.5" xlink:href="#med497c12d5" y="93.96"/>
      </g>
     </g>
     <g id="text_4">
      <!-- 60 -->
      <defs>
       <path d="M 32.71875 3.421875 
Q 39.59375 3.421875 43.296875 8.46875 
Q 47.015625 13.53125 47.015625 23 
Q 47.015625 32.46875 43.296875 37.515625 
Q 39.59375 42.578125 32.71875 42.578125 
Q 25.734375 42.578125 22.0625 37.6875 
Q 18.40625 32.8125 18.40625 23.578125 
Q 18.40625 13.875 22.109375 8.640625 
Q 25.828125 3.421875 32.71875 3.421875 
z
M 16.796875 40.140625 
Q 20.125 43.796875 24.3125 45.59375 
Q 28.515625 47.40625 33.796875 47.40625 
Q 44.671875 47.40625 51 40.859375 
Q 57.328125 34.328125 57.328125 23 
Q 57.328125 11.921875 50.515625 5.25 
Q 43.703125 -1.421875 32.328125 -1.421875 
Q 19.96875 -1.421875 13.328125 7.78125 
Q 6.6875 17 6.6875 34.078125 
Q 6.6875 53.21875 14.546875 63.71875 
Q 22.40625 74.21875 36.71875 74.21875 
Q 40.578125 74.21875 44.828125 73.484375 
Q 49.078125 72.75 53.515625 71.296875 
L 53.515625 59.28125 
L 48 59.28125 
Q 47.40625 64.203125 44.234375 66.796875 
Q 41.0625 69.390625 35.6875 69.390625 
Q 26.21875 69.390625 21.578125 62.203125 
Q 16.9375 55.03125 16.796875 40.140625 
z
" id="DejaVuSerif-36"/>
      </defs>
      <g style="fill:#262626;" transform="translate(43.9575 98.898984)scale(0.13 -0.13)">
       <use xlink:href="#DejaVuSerif-36"/>
       <use x="63.623047" xlink:href="#DejaVuSerif-30"/>
      </g>
     </g>
    </g>
    <g id="ytick_5">
     <g id="line2d_5">
      <g>
       <use style="fill:#262626;stroke:#262626;stroke-width:0.8;" x="67.5" xlink:href="#med497c12d5" y="50.76"/>
      </g>
     </g>
     <g id="text_5">
      <!-- 80 -->
      <defs>
       <path d="M 46.578125 19.921875 
Q 46.578125 27.734375 42.6875 32.046875 
Q 38.8125 36.375 31.78125 36.375 
Q 24.75 36.375 20.875 32.046875 
Q 17 27.734375 17 19.921875 
Q 17 12.0625 20.875 7.734375 
Q 24.75 3.421875 31.78125 3.421875 
Q 38.8125 3.421875 42.6875 7.734375 
Q 46.578125 12.0625 46.578125 19.921875 
z
M 44.578125 55.328125 
Q 44.578125 61.96875 41.203125 65.671875 
Q 37.84375 69.390625 31.78125 69.390625 
Q 25.78125 69.390625 22.390625 65.671875 
Q 19 61.96875 19 55.328125 
Q 19 48.640625 22.390625 44.921875 
Q 25.78125 41.21875 31.78125 41.21875 
Q 37.84375 41.21875 41.203125 44.921875 
Q 44.578125 48.640625 44.578125 55.328125 
z
M 39.3125 38.8125 
Q 47.609375 37.703125 52.25 32.6875 
Q 56.890625 27.6875 56.890625 19.921875 
Q 56.890625 9.671875 50.390625 4.125 
Q 43.890625 -1.421875 31.78125 -1.421875 
Q 19.734375 -1.421875 13.203125 4.125 
Q 6.6875 9.671875 6.6875 19.921875 
Q 6.6875 27.6875 11.328125 32.6875 
Q 15.96875 37.703125 24.3125 38.8125 
Q 16.9375 40.140625 13 44.40625 
Q 9.078125 48.6875 9.078125 55.328125 
Q 9.078125 64.109375 15.125 69.15625 
Q 21.1875 74.21875 31.78125 74.21875 
Q 42.390625 74.21875 48.4375 69.15625 
Q 54.5 64.109375 54.5 55.328125 
Q 54.5 48.6875 50.5625 44.40625 
Q 46.625 40.140625 39.3125 38.8125 
z
" id="DejaVuSerif-38"/>
      </defs>
      <g style="fill:#262626;" transform="translate(43.9575 55.698984)scale(0.13 -0.13)">
       <use xlink:href="#DejaVuSerif-38"/>
       <use x="63.623047" xlink:href="#DejaVuSerif-30"/>
      </g>
     </g>
    </g>
    <g id="ytick_6">
     <g id="line2d_6">
      <g>
       <use style="fill:#262626;stroke:#262626;stroke-width:0.8;" x="67.5" xlink:href="#med497c12d5" y="7.56"/>
      </g>
     </g>
     <g id="text_6">
      <!-- 100 -->
      <defs>
       <path d="M 14.203125 0 
L 14.203125 5.171875 
L 26.90625 5.171875 
L 26.90625 65.828125 
L 12.203125 56.296875 
L 12.203125 62.703125 
L 29.984375 74.21875 
L 36.71875 74.21875 
L 36.71875 5.171875 
L 49.421875 5.171875 
L 49.421875 0 
z
" id="DejaVuSerif-31"/>
      </defs>
      <g style="fill:#262626;" transform="translate(35.68625 12.498984)scale(0.13 -0.13)">
       <use xlink:href="#DejaVuSerif-31"/>
       <use x="63.623047" xlink:href="#DejaVuSerif-30"/>
       <use x="127.246094" xlink:href="#DejaVuSerif-30"/>
      </g>
     </g>
    </g>
    <g id="text_7">
     <!-- Sentence Length (tokens) -->
     <defs>
      <path d="M 9.28125 3.515625 
L 9.28125 20.125 
L 14.890625 20.0625 
Q 15.140625 11.765625 19.703125 7.78125 
Q 24.265625 3.8125 33.59375 3.8125 
Q 42.28125 3.8125 46.84375 7.25 
Q 51.421875 10.6875 51.421875 17.28125 
Q 51.421875 22.5625 48.65625 25.390625 
Q 45.90625 28.21875 37.015625 30.90625 
L 27.390625 33.796875 
Q 16.9375 36.96875 12.671875 41.703125 
Q 8.40625 46.4375 8.40625 54.6875 
Q 8.40625 63.96875 14.984375 69.09375 
Q 21.578125 74.21875 33.5 74.21875 
Q 38.578125 74.21875 44.625 73.109375 
Q 50.6875 72.015625 57.515625 69.921875 
L 57.515625 54.390625 
L 52 54.390625 
Q 51.171875 62.109375 46.84375 65.546875 
Q 42.53125 69 33.6875 69 
Q 25.984375 69 21.953125 65.84375 
Q 17.921875 62.703125 17.921875 56.6875 
Q 17.921875 51.46875 20.9375 48.484375 
Q 23.96875 45.515625 33.796875 42.578125 
L 42.828125 39.890625 
Q 52.734375 36.921875 56.953125 32.296875 
Q 61.1875 27.6875 61.1875 19.921875 
Q 61.1875 9.328125 54.390625 3.953125 
Q 47.609375 -1.421875 34.1875 -1.421875 
Q 28.171875 -1.421875 21.9375 -0.1875 
Q 15.71875 1.03125 9.28125 3.515625 
z
" id="DejaVuSerif-53"/>
      <path d="M 54.203125 25 
L 15.484375 25 
L 15.484375 24.609375 
Q 15.484375 14.109375 19.4375 8.765625 
Q 23.390625 3.421875 31.109375 3.421875 
Q 37.015625 3.421875 40.796875 6.515625 
Q 44.578125 9.625 46.09375 15.71875 
L 53.328125 15.71875 
Q 51.171875 7.171875 45.375 2.875 
Q 39.59375 -1.421875 30.171875 -1.421875 
Q 18.796875 -1.421875 11.890625 6.078125 
Q 4.984375 13.578125 4.984375 25.984375 
Q 4.984375 38.28125 11.765625 45.796875 
Q 18.5625 53.328125 29.59375 53.328125 
Q 41.359375 53.328125 47.65625 46.0625 
Q 53.953125 38.8125 54.203125 25 
z
M 43.609375 30.171875 
Q 43.3125 39.265625 39.765625 43.875 
Q 36.234375 48.484375 29.59375 48.484375 
Q 23.390625 48.484375 19.828125 43.84375 
Q 16.265625 39.203125 15.484375 30.171875 
z
" id="DejaVuSerif-65"/>
      <path d="M 4.109375 0 
L 4.109375 5.171875 
L 12.203125 5.171875 
L 12.203125 46.6875 
L 3.609375 46.6875 
L 3.609375 51.90625 
L 21.1875 51.90625 
L 21.1875 42.671875 
Q 23.6875 47.953125 27.65625 50.640625 
Q 31.640625 53.328125 36.921875 53.328125 
Q 45.515625 53.328125 49.5625 48.390625 
Q 53.609375 43.453125 53.609375 33.015625 
L 53.609375 5.171875 
L 61.625 5.171875 
L 61.625 0 
L 36.8125 0 
L 36.8125 5.171875 
L 44.578125 5.171875 
L 44.578125 30.171875 
Q 44.578125 39.703125 42.234375 43.234375 
Q 39.890625 46.78125 33.984375 46.78125 
Q 27.734375 46.78125 24.453125 42.203125 
Q 21.1875 37.640625 21.1875 28.90625 
L 21.1875 5.171875 
L 29 5.171875 
L 29 0 
z
" id="DejaVuSerif-6e"/>
      <path d="M 10.796875 46.6875 
L 2.875 46.6875 
L 2.875 51.90625 
L 10.796875 51.90625 
L 10.796875 68.015625 
L 19.828125 68.015625 
L 19.828125 51.90625 
L 36.71875 51.90625 
L 36.71875 46.6875 
L 19.828125 46.6875 
L 19.828125 13.71875 
Q 19.828125 7.125 21.09375 5.265625 
Q 22.359375 3.421875 25.78125 3.421875 
Q 29.296875 3.421875 30.90625 5.484375 
Q 32.515625 7.5625 32.625 12.203125 
L 39.40625 12.203125 
Q 39.015625 5.125 35.546875 1.84375 
Q 32.078125 -1.421875 25 -1.421875 
Q 17.234375 -1.421875 14.015625 2.015625 
Q 10.796875 5.46875 10.796875 13.71875 
z
" id="DejaVuSerif-74"/>
      <path d="M 51.421875 15.578125 
Q 49.515625 7.28125 44.09375 2.921875 
Q 38.671875 -1.421875 30.078125 -1.421875 
Q 18.75 -1.421875 11.859375 6.078125 
Q 4.984375 13.578125 4.984375 25.984375 
Q 4.984375 38.421875 11.859375 45.875 
Q 18.75 53.328125 30.078125 53.328125 
Q 35.015625 53.328125 39.890625 52.171875 
Q 44.78125 51.03125 49.703125 48.6875 
L 49.703125 35.40625 
L 44.484375 35.40625 
Q 43.453125 42.234375 40.015625 45.359375 
Q 36.578125 48.484375 30.171875 48.484375 
Q 22.90625 48.484375 19.1875 42.84375 
Q 15.484375 37.203125 15.484375 25.984375 
Q 15.484375 14.75 19.171875 9.078125 
Q 22.859375 3.421875 30.171875 3.421875 
Q 35.984375 3.421875 39.453125 6.4375 
Q 42.921875 9.46875 44.1875 15.578125 
z
" id="DejaVuSerif-63"/>
      <path id="DejaVuSerif-20"/>
      <path d="M 5.515625 0 
L 5.515625 5.171875 
L 14.796875 5.171875 
L 14.796875 67.671875 
L 5.515625 67.671875 
L 5.515625 72.90625 
L 33.984375 72.90625 
L 33.984375 67.671875 
L 24.703125 67.671875 
L 24.703125 6 
L 58.015625 6 
L 58.015625 18.21875 
L 64.015625 18.21875 
L 64.015625 0 
z
" id="DejaVuSerif-4c"/>
      <path d="M 52.484375 46.6875 
L 52.484375 1.125 
Q 52.484375 -10.0625 46.328125 -16.140625 
Q 40.1875 -22.21875 28.8125 -22.21875 
Q 23.6875 -22.21875 19 -21.28125 
Q 14.3125 -20.359375 10.015625 -18.5 
L 10.015625 -7.625 
L 14.703125 -7.625 
Q 15.578125 -12.703125 18.84375 -15.046875 
Q 22.125 -17.390625 28.21875 -17.390625 
Q 36.140625 -17.390625 39.8125 -12.921875 
Q 43.5 -8.453125 43.5 1.125 
L 43.5 8.109375 
Q 40.875 3.21875 36.796875 0.890625 
Q 32.71875 -1.421875 26.703125 -1.421875 
Q 17.140625 -1.421875 11.0625 6.171875 
Q 4.984375 13.765625 4.984375 25.984375 
Q 4.984375 38.1875 11.03125 45.75 
Q 17.09375 53.328125 26.703125 53.328125 
Q 32.71875 53.328125 36.796875 51 
Q 40.875 48.6875 43.5 43.796875 
L 43.5 51.90625 
L 61.078125 51.90625 
L 61.078125 46.6875 
z
M 43.5 28.515625 
Q 43.5 37.84375 39.90625 42.765625 
Q 36.328125 47.703125 29.5 47.703125 
Q 22.5625 47.703125 19.015625 42.234375 
Q 15.484375 36.765625 15.484375 25.984375 
Q 15.484375 15.234375 19.015625 9.71875 
Q 22.5625 4.203125 29.5 4.203125 
Q 36.328125 4.203125 39.90625 9.109375 
Q 43.5 14.015625 43.5 23.390625 
z
" id="DejaVuSerif-67"/>
      <path d="M 4.109375 0 
L 4.109375 5.171875 
L 12.203125 5.171875 
L 12.203125 70.796875 
L 3.609375 70.796875 
L 3.609375 75.984375 
L 21.1875 75.984375 
L 21.1875 42.671875 
Q 23.6875 47.953125 27.65625 50.640625 
Q 31.640625 53.328125 36.921875 53.328125 
Q 45.515625 53.328125 49.5625 48.390625 
Q 53.609375 43.453125 53.609375 33.015625 
L 53.609375 5.171875 
L 61.625 5.171875 
L 61.625 0 
L 36.8125 0 
L 36.8125 5.171875 
L 44.578125 5.171875 
L 44.578125 30.171875 
Q 44.578125 39.703125 42.25 43.1875 
Q 39.9375 46.6875 33.984375 46.6875 
Q 27.734375 46.6875 24.453125 42.140625 
Q 21.1875 37.59375 21.1875 28.90625 
L 21.1875 5.171875 
L 29 5.171875 
L 29 0 
z
" id="DejaVuSerif-68"/>
      <path d="M 31.890625 -15.578125 
Q 20.015625 -10.25 13.953125 1.296875 
Q 7.90625 12.84375 7.90625 30.171875 
Q 7.90625 47.5625 13.953125 59.109375 
Q 20.015625 70.65625 31.890625 75.984375 
L 31.890625 71.1875 
Q 24.359375 66.015625 21.09375 56.609375 
Q 17.828125 47.21875 17.828125 30.171875 
Q 17.828125 13.1875 21.09375 3.78125 
Q 24.359375 -5.609375 31.890625 -10.796875 
z
" id="DejaVuSerif-28"/>
      <path d="M 30.078125 3.421875 
Q 37.3125 3.421875 40.984375 9.125 
Q 44.671875 14.84375 44.671875 25.984375 
Q 44.671875 37.109375 40.984375 42.796875 
Q 37.3125 48.484375 30.078125 48.484375 
Q 22.859375 48.484375 19.171875 42.796875 
Q 15.484375 37.109375 15.484375 25.984375 
Q 15.484375 14.84375 19.1875 9.125 
Q 22.90625 3.421875 30.078125 3.421875 
z
M 30.078125 -1.421875 
Q 18.75 -1.421875 11.859375 6.078125 
Q 4.984375 13.578125 4.984375 25.984375 
Q 4.984375 38.375 11.84375 45.84375 
Q 18.703125 53.328125 30.078125 53.328125 
Q 41.453125 53.328125 48.3125 45.84375 
Q 55.171875 38.375 55.171875 25.984375 
Q 55.171875 13.578125 48.3125 6.078125 
Q 41.453125 -1.421875 30.078125 -1.421875 
z
" id="DejaVuSerif-6f"/>
      <path d="M 28.609375 0 
L 3.421875 0 
L 3.421875 5.171875 
L 11.53125 5.171875 
L 11.53125 70.796875 
L 2.875 70.796875 
L 2.875 75.984375 
L 20.515625 75.984375 
L 20.515625 26.515625 
L 42.390625 46.6875 
L 34.90625 46.6875 
L 34.90625 51.90625 
L 58.40625 51.90625 
L 58.40625 46.6875 
L 49.515625 46.6875 
L 34.078125 32.421875 
L 53.8125 5.171875 
L 61.28125 5.171875 
L 61.28125 0 
L 35.6875 0 
L 35.6875 5.171875 
L 43.109375 5.171875 
L 27.59375 26.515625 
L 20.515625 19.921875 
L 20.515625 5.171875 
L 28.609375 5.171875 
z
" id="DejaVuSerif-6b"/>
      <path d="M 5.609375 2.875 
L 5.609375 14.984375 
L 10.796875 14.984375 
Q 10.984375 9.1875 14.421875 6.296875 
Q 17.875 3.421875 24.609375 3.421875 
Q 30.671875 3.421875 33.84375 5.6875 
Q 37.015625 7.953125 37.015625 12.3125 
Q 37.015625 15.71875 34.6875 17.8125 
Q 32.375 19.921875 24.90625 22.3125 
L 18.40625 24.515625 
Q 11.71875 26.65625 8.71875 29.875 
Q 5.71875 33.109375 5.71875 38.09375 
Q 5.71875 45.21875 10.9375 49.265625 
Q 16.15625 53.328125 25.390625 53.328125 
Q 29.5 53.328125 34.03125 52.25 
Q 38.578125 51.171875 43.40625 49.125 
L 43.40625 37.796875 
L 38.234375 37.796875 
Q 38.03125 42.828125 34.703125 45.65625 
Q 31.390625 48.484375 25.6875 48.484375 
Q 20.015625 48.484375 17.109375 46.484375 
Q 14.203125 44.484375 14.203125 40.484375 
Q 14.203125 37.203125 16.40625 35.21875 
Q 18.609375 33.25 25.203125 31.203125 
L 32.328125 29 
Q 39.703125 26.703125 42.9375 23.265625 
Q 46.1875 19.828125 46.1875 14.40625 
Q 46.1875 7.03125 40.546875 2.796875 
Q 34.90625 -1.421875 25 -1.421875 
Q 19.96875 -1.421875 15.1875 -0.34375 
Q 10.40625 0.734375 5.609375 2.875 
z
" id="DejaVuSerif-73"/>
      <path d="M 7.078125 -15.578125 
L 7.078125 -10.796875 
Q 14.59375 -5.609375 17.890625 3.78125 
Q 21.1875 13.1875 21.1875 30.171875 
Q 21.1875 47.21875 17.890625 56.609375 
Q 14.59375 66.015625 7.078125 71.1875 
L 7.078125 75.984375 
Q 19 70.65625 25.046875 59.109375 
Q 31.109375 47.5625 31.109375 30.171875 
Q 31.109375 12.84375 25.046875 1.296875 
Q 19 -10.25 7.078125 -15.578125 
z
" id="DejaVuSerif-29"/>
     </defs>
     <g style="fill:#262626;" transform="translate(32.13125 225.5325)rotate(-90)scale(0.16 -0.16)">
      <use xlink:href="#DejaVuSerif-53"/>
      <use x="68.505859" xlink:href="#DejaVuSerif-65"/>
      <use x="127.685547" xlink:href="#DejaVuSerif-6e"/>
      <use x="192.089844" xlink:href="#DejaVuSerif-74"/>
      <use x="232.275391" xlink:href="#DejaVuSerif-65"/>
      <use x="291.455078" xlink:href="#DejaVuSerif-6e"/>
      <use x="355.859375" xlink:href="#DejaVuSerif-63"/>
      <use x="411.865234" xlink:href="#DejaVuSerif-65"/>
      <use x="471.044922" xlink:href="#DejaVuSerif-20"/>
      <use x="502.832031" xlink:href="#DejaVuSerif-4c"/>
      <use x="569.238281" xlink:href="#DejaVuSerif-65"/>
      <use x="628.417969" xlink:href="#DejaVuSerif-6e"/>
      <use x="692.822266" xlink:href="#DejaVuSerif-67"/>
      <use x="756.835938" xlink:href="#DejaVuSerif-74"/>
      <use x="797.021484" xlink:href="#DejaVuSerif-68"/>
      <use x="861.425781" xlink:href="#DejaVuSerif-20"/>
      <use x="893.212891" xlink:href="#DejaVuSerif-28"/>
      <use x="932.226562" xlink:href="#DejaVuSerif-74"/>
      <use x="972.412109" xlink:href="#DejaVuSerif-6f"/>
      <use x="1032.617188" xlink:href="#DejaVuSerif-6b"/>
      <use x="1093.212891" xlink:href="#DejaVuSerif-65"/>
      <use x="1152.392578" xlink:href="#DejaVuSerif-6e"/>
      <use x="1216.796875" xlink:href="#DejaVuSerif-73"/>
      <use x="1268.115234" xlink:href="#DejaVuSerif-29"/>
     </g>
    </g>
   </g>
   <g id="PolyCollection_1">
    <defs>
     <path d="M 299.7 -30.16339 
L 292.465385 -30.16339 
L 290.437057 -30.324937 
L 288.006638 -30.486485 
L 285.141727 -30.648033 
L 281.81837 -30.809581 
L 278.022743 -30.971128 
L 273.751971 -31.132676 
L 269.013873 -31.294224 
L 263.825513 -31.455771 
L 258.210628 -31.617319 
L 252.19624 -31.778867 
L 245.808919 -31.940414 
L 239.071383 -32.101962 
L 232.000162 -32.26351 
L 224.60504 -32.425057 
L 216.890797 -32.586605 
L 208.861477 -32.748153 
L 200.526988 -32.9097 
L 191.911379 -33.071248 
L 183.061725 -33.232796 
L 174.056239 -33.394343 
L 165.010092 -33.555891 
L 156.077561 -33.717439 
L 147.449484 -33.878986 
L 139.345581 -34.040534 
L 132.00193 -34.202082 
L 125.654648 -34.363629 
L 120.521462 -34.525177 
L 116.783321 -34.686725 
L 114.568321 -34.848273 
L 113.94 -35.00982 
L 114.891563 -35.171368 
L 117.346779 -35.332916 
L 121.16742 -35.494463 
L 126.166238 -35.656011 
L 132.123734 -35.817559 
L 138.806583 -35.979106 
L 145.985432 -36.140654 
L 153.450093 -36.302202 
L 161.020623 -36.463749 
L 168.553542 -36.625297 
L 175.943189 -36.786845 
L 183.118875 -36.948392 
L 190.039049 -37.10994 
L 196.68388 -37.271488 
L 203.0477 -37.433035 
L 209.132465 -37.594583 
L 214.943012 -37.756131 
L 220.484409 -37.917678 
L 225.761231 -38.079226 
L 230.77828 -38.240774 
L 235.54203 -38.402322 
L 240.062104 -38.563869 
L 244.352163 -38.725417 
L 248.429836 -38.886965 
L 252.315604 -39.048512 
L 256.030772 -39.21006 
L 259.594894 -39.371608 
L 263.02311 -39.533155 
L 266.323861 -39.694703 
L 269.497355 -39.856251 
L 272.535047 -40.017798 
L 275.420186 -40.179346 
L 278.12935 -40.340894 
L 280.634746 -40.502441 
L 282.906981 -40.663989 
L 284.917975 -40.825537 
L 286.643734 -40.987084 
L 288.066732 -41.148632 
L 289.177749 -41.31018 
L 289.977091 -41.471727 
L 290.475153 -41.633275 
L 290.692376 -41.794823 
L 290.658634 -41.956371 
L 290.412121 -42.117918 
L 289.997816 -42.279466 
L 289.465571 -42.441014 
L 288.867924 -42.602561 
L 288.257715 -42.764109 
L 287.685614 -42.925657 
L 287.197712 -43.087204 
L 286.833306 -43.248752 
L 286.623056 -43.4103 
L 286.58765 -43.571847 
L 286.737091 -43.733395 
L 287.070683 -43.894943 
L 287.577707 -44.05649 
L 288.238745 -44.218038 
L 289.027511 -44.379586 
L 289.913035 -44.541133 
L 290.86199 -44.702681 
L 291.840974 -44.864229 
L 292.81855 -45.025776 
L 293.766909 -45.187324 
L 294.663054 -45.348872 
L 295.489483 -45.510419 
L 296.234358 -45.671967 
L 296.891267 -45.833515 
L 297.458623 -45.995063 
L 297.93885 -46.15661 
L 299.7 -46.15661 
L 299.7 -46.15661 
L 299.7 -45.995063 
L 299.7 -45.833515 
L 299.7 -45.671967 
L 299.7 -45.510419 
L 299.7 -45.348872 
L 299.7 -45.187324 
L 299.7 -45.025776 
L 299.7 -44.864229 
L 299.7 -44.702681 
L 299.7 -44.541133 
L 299.7 -44.379586 
L 299.7 -44.218038 
L 299.7 -44.05649 
L 299.7 -43.894943 
L 299.7 -43.733395 
L 299.7 -43.571847 
L 299.7 -43.4103 
L 299.7 -43.248752 
L 299.7 -43.087204 
L 299.7 -42.925657 
L 299.7 -42.764109 
L 299.7 -42.602561 
L 299.7 -42.441014 
L 299.7 -42.279466 
L 299.7 -42.117918 
L 299.7 -41.956371 
L 299.7 -41.794823 
L 299.7 -41.633275 
L 299.7 -41.471727 
L 299.7 -41.31018 
L 299.7 -41.148632 
L 299.7 -40.987084 
L 299.7 -40.825537 
L 299.7 -40.663989 
L 299.7 -40.502441 
L 299.7 -40.340894 
L 299.7 -40.179346 
L 299.7 -40.017798 
L 299.7 -39.856251 
L 299.7 -39.694703 
L 299.7 -39.533155 
L 299.7 -39.371608 
L 299.7 -39.21006 
L 299.7 -39.048512 
L 299.7 -38.886965 
L 299.7 -38.725417 
L 299.7 -38.563869 
L 299.7 -38.402322 
L 299.7 -38.240774 
L 299.7 -38.079226 
L 299.7 -37.917678 
L 299.7 -37.756131 
L 299.7 -37.594583 
L 299.7 -37.433035 
L 299.7 -37.271488 
L 299.7 -37.10994 
L 299.7 -36.948392 
L 299.7 -36.786845 
L 299.7 -36.625297 
L 299.7 -36.463749 
L 299.7 -36.302202 
L 299.7 -36.140654 
L 299.7 -35.979106 
L 299.7 -35.817559 
L 299.7 -35.656011 
L 299.7 -35.494463 
L 299.7 -35.332916 
L 299.7 -35.171368 
L 299.7 -35.00982 
L 299.7 -34.848273 
L 299.7 -34.686725 
L 299.7 -34.525177 
L 299.7 -34.363629 
L 299.7 -34.202082 
L 299.7 -34.040534 
L 299.7 -33.878986 
L 299.7 -33.717439 
L 299.7 -33.555891 
L 299.7 -33.394343 
L 299.7 -33.232796 
L 299.7 -33.071248 
L 299.7 -32.9097 
L 299.7 -32.748153 
L 299.7 -32.586605 
L 299.7 -32.425057 
L 299.7 -32.26351 
L 299.7 -32.101962 
L 299.7 -31.940414 
L 299.7 -31.778867 
L 299.7 -31.617319 
L 299.7 -31.455771 
L 299.7 -31.294224 
L 299.7 -31.132676 
L 299.7 -30.971128 
L 299.7 -30.809581 
L 299.7 -30.648033 
L 299.7 -30.486485 
L 299.7 -30.324937 
L 299.7 -30.16339 
z
" id="m7894b7eafe" style="stroke:#474747;stroke-opacity:0.8;stroke-width:1.5;"/>
    </defs>
    <g clip-path="url(#pdfc13c5720)">
     <use style="fill:#b984a0;fill-opacity:0.8;stroke:#474747;stroke-opacity:0.8;stroke-width:1.5;" x="0" xlink:href="#m7894b7eafe" y="252"/>
    </g>
   </g>
   <g id="PolyCollection_2">
    <path clip-path="url(#pdfc13c5720)" d="M 299.823795 244.09666 
L 299.7 244.09666 
L 299.7 233.230869 
L 299.7 222.365078 
L 299.7 211.499287 
L 299.7 200.633496 
L 299.7 189.767705 
L 299.7 178.901914 
L 299.7 168.036122 
L 299.7 157.170331 
L 299.7 146.30454 
L 299.7 135.438749 
L 299.7 124.572958 
L 299.7 113.707167 
L 299.7 102.841376 
L 299.7 91.975585 
L 299.7 81.109794 
L 299.7 70.244002 
L 299.7 59.378211 
L 299.7 48.51242 
L 299.7 37.646629 
L 299.7 26.780838 
L 299.7 15.915047 
L 299.7 5.049256 
L 299.7 -5.816535 
L 299.7 -16.682327 
L 299.7 -27.548118 
L 299.7 -38.413909 
L 299.7 -49.2797 
L 299.7 -60.145491 
L 299.7 -71.011282 
L 299.7 -81.877073 
L 299.7 -92.742864 
L 299.7 -103.608655 
L 299.7 -114.474447 
L 299.7 -125.340238 
L 299.7 -136.206029 
L 299.7 -147.07182 
L 299.7 -157.937611 
L 299.7 -168.803402 
L 299.7 -179.669193 
L 299.7 -190.534984 
L 299.7 -201.400776 
L 299.7 -212.266567 
L 299.7 -223.132358 
L 299.7 -233.998149 
L 299.7 -244.86394 
L 299.7 -255.729731 
L 299.7 -266.595522 
L 299.7 -277.461313 
L 299.7 -288.327104 
L 299.7 -299.192896 
L 299.7 -310.058687 
L 299.7 -320.924478 
L 299.7 -331.790269 
L 299.7 -342.65606 
L 299.7 -353.521851 
L 299.7 -364.387642 
L 299.7 -375.253433 
L 299.7 -386.119224 
L 299.7 -396.985016 
L 299.7 -407.850807 
L 299.7 -418.716598 
L 299.7 -429.582389 
L 299.7 -440.44818 
L 299.7 -451.313971 
L 299.7 -462.179762 
L 299.7 -473.045553 
L 299.7 -483.911345 
L 299.7 -494.777136 
L 299.7 -505.642927 
L 299.7 -516.508718 
L 299.7 -527.374509 
L 299.7 -538.2403 
L 299.7 -549.106091 
L 299.7 -559.971882 
L 299.7 -570.837673 
L 299.7 -581.703465 
L 299.7 -592.569256 
L 299.7 -603.435047 
L 299.7 -614.300838 
L 299.7 -625.166629 
L 299.7 -636.03242 
L 299.7 -646.898211 
L 299.7 -657.764002 
L 299.7 -668.629794 
L 299.7 -679.495585 
L 299.7 -690.361376 
L 299.7 -701.227167 
L 299.7 -712.092958 
L 299.7 -722.958749 
L 299.7 -733.82454 
L 299.7 -744.690331 
L 299.7 -755.556122 
L 299.7 -766.421914 
L 299.7 -777.287705 
L 299.7 -788.153496 
L 299.7 -799.019287 
L 299.7 -809.885078 
L 299.7 -820.750869 
L 299.7 -831.61666 
L 299.700631 -831.61666 
L 299.700631 -831.61666 
L 299.702708 -820.750869 
L 299.704645 -809.885078 
L 299.703186 -799.019287 
L 299.700874 -788.153496 
L 299.700096 -777.287705 
L 299.700004 -766.421914 
L 299.7 -755.556122 
L 299.7 -744.690331 
L 299.7 -733.82454 
L 299.7 -722.958749 
L 299.7 -712.092958 
L 299.7 -701.227167 
L 299.7 -690.361376 
L 299.7 -679.495585 
L 299.7 -668.629794 
L 299.7 -657.764002 
L 299.7 -646.898211 
L 299.7 -636.03242 
L 299.7 -625.166629 
L 299.7 -614.300838 
L 299.7 -603.435047 
L 299.7 -592.569256 
L 299.7 -581.703465 
L 299.7 -570.837673 
L 299.7 -559.971882 
L 299.700004 -549.106091 
L 299.700094 -538.2403 
L 299.700862 -527.374509 
L 299.703166 -516.508718 
L 299.70468 -505.642927 
L 299.703143 -494.777136 
L 299.702795 -483.911345 
L 299.704596 -473.045553 
L 299.704381 -462.179762 
L 299.704246 -451.313971 
L 299.706536 -440.44818 
L 299.707383 -429.582389 
L 299.70497 -418.716598 
L 299.701733 -407.850807 
L 299.700717 -396.985016 
L 299.702309 -386.119224 
L 299.704537 -375.253433 
L 299.703588 -364.387642 
L 299.701135 -353.521851 
L 299.700145 -342.65606 
L 299.700053 -331.790269 
L 299.700581 -320.924478 
L 299.703161 -310.058687 
L 299.707679 -299.192896 
L 299.709476 -288.327104 
L 299.709487 -277.461313 
L 299.712627 -266.595522 
L 299.715817 -255.729731 
L 299.714958 -244.86394 
L 299.712669 -233.998149 
L 299.715171 -223.132358 
L 299.720364 -212.266567 
L 299.729333 -201.400776 
L 299.749 -190.534984 
L 299.768237 -179.669193 
L 299.78104 -168.803402 
L 299.799927 -157.937611 
L 299.807797 -147.07182 
L 299.790621 -136.206029 
L 299.781502 -125.340238 
L 299.80082 -114.474447 
L 299.828411 -103.608655 
L 299.837378 -92.742864 
L 299.842876 -81.877073 
L 299.872779 -71.011282 
L 299.936208 -60.145491 
L 300.013223 -49.2797 
L 300.085224 -38.413909 
L 300.158145 -27.548118 
L 300.224436 -16.682327 
L 300.301763 -5.816535 
L 300.434732 5.049256 
L 300.612091 15.915047 
L 300.816986 26.780838 
L 301.057886 37.646629 
L 301.328878 48.51242 
L 301.698917 59.378211 
L 302.21871 70.244002 
L 302.830724 81.109794 
L 303.447179 91.975585 
L 304.163398 102.841376 
L 305.102819 113.707167 
L 306.122514 124.572958 
L 306.900171 135.438749 
L 307.07775 146.30454 
L 306.774677 157.170331 
L 306.308891 168.036122 
L 306.001105 178.901914 
L 306.127968 189.767705 
L 306.075256 200.633496 
L 304.768906 211.499287 
L 302.410049 222.365078 
L 300.523985 233.230869 
L 299.823795 244.09666 
z
" style="fill:#51809c;fill-opacity:0.8;stroke:#474747;stroke-opacity:0.8;stroke-width:1.5;"/>
   </g>
   <g id="patch_3">
    <path clip-path="url(#pdfc13c5720)" d="M 299.7 223.56 
L 299.7 223.56 
L 299.7 223.56 
L 299.7 223.56 
z
" style="fill:#b984a0;stroke:#474747;stroke-linejoin:miter;stroke-width:0.75;"/>
   </g>
   <g id="patch_4">
    <path clip-path="url(#pdfc13c5720)" d="M 299.7 223.56 
L 299.7 223.56 
L 299.7 223.56 
L 299.7 223.56 
z
" style="fill:#51809c;stroke:#474747;stroke-linejoin:miter;stroke-width:0.75;"/>
   </g>
   <g id="patch_5">
    <path d="M 67.5 234.36 
L 67.5 7.56 
" style="fill:none;stroke:#262626;stroke-linecap:square;stroke-linejoin:miter;stroke-width:0.8;"/>
   </g>
   <g id="legend_1">
    <g id="patch_6">
     <path d="M 335.10375 52.3875 
L 523.5 52.3875 
Q 525.9 52.3875 525.9 49.9875 
L 525.9 15.96 
Q 525.9 13.56 523.5 13.56 
L 335.10375 13.56 
Q 332.70375 13.56 332.70375 15.96 
L 332.70375 49.9875 
Q 332.70375 52.3875 335.10375 52.3875 
z
" style="fill:#ffffff;opacity:0.8;stroke:#cccccc;stroke-linejoin:miter;"/>
    </g>
    <g id="patch_7">
     <path d="M 337.50375 27.478125 
L 361.50375 27.478125 
L 361.50375 19.078125 
L 337.50375 19.078125 
z
" style="fill:#b984a0;stroke:#474747;stroke-linejoin:miter;stroke-width:0.75;"/>
    </g>
    <g id="text_8">
     <!-- Akuntsu-TuDeT: 3.4(1.1) -->
     <defs>
      <path d="M 20.015625 26.421875 
L 46.78125 26.421875 
L 33.40625 61.078125 
z
M -0.59375 0 
L -0.59375 5.171875 
L 5.8125 5.171875 
L 31.78125 72.90625 
L 39.984375 72.90625 
L 66.015625 5.171875 
L 73.1875 5.171875 
L 73.1875 0 
L 46.6875 0 
L 46.6875 5.171875 
L 54.78125 5.171875 
L 48.6875 21.1875 
L 18.015625 21.1875 
L 11.921875 5.171875 
L 19.921875 5.171875 
L 19.921875 0 
z
" id="DejaVuSerif-41"/>
      <path d="M 35.40625 51.90625 
L 52.203125 51.90625 
L 52.203125 5.171875 
L 60.6875 5.171875 
L 60.6875 0 
L 43.21875 0 
L 43.21875 9.1875 
Q 40.71875 4 36.765625 1.28125 
Q 32.8125 -1.421875 27.59375 -1.421875 
Q 18.953125 -1.421875 14.875 3.484375 
Q 10.796875 8.40625 10.796875 18.890625 
L 10.796875 46.6875 
L 2.6875 46.6875 
L 2.6875 51.90625 
L 19.828125 51.90625 
L 19.828125 21.6875 
Q 19.828125 12.203125 22.140625 8.6875 
Q 24.46875 5.171875 30.421875 5.171875 
Q 36.671875 5.171875 39.9375 9.765625 
Q 43.21875 14.359375 43.21875 23.09375 
L 43.21875 46.6875 
L 35.40625 46.6875 
z
" id="DejaVuSerif-75"/>
      <path d="M 4.390625 30.609375 
L 29.390625 30.609375 
L 29.390625 23 
L 4.390625 23 
z
" id="DejaVuSerif-2d"/>
      <path d="M 19.09375 0 
L 19.09375 5.171875 
L 28.421875 5.171875 
L 28.421875 67.09375 
L 6.984375 67.09375 
L 6.984375 55.71875 
L 0.984375 55.71875 
L 0.984375 72.90625 
L 65.71875 72.90625 
L 65.71875 55.71875 
L 59.71875 55.71875 
L 59.71875 67.09375 
L 38.28125 67.09375 
L 38.28125 5.171875 
L 47.609375 5.171875 
L 47.609375 0 
z
" id="DejaVuSerif-54"/>
      <path d="M 24.703125 5.171875 
L 33.796875 5.171875 
Q 48 5.171875 55.59375 13.28125 
Q 63.1875 21.390625 63.1875 36.53125 
Q 63.1875 51.65625 55.609375 59.65625 
Q 48.046875 67.671875 33.796875 67.671875 
L 24.703125 67.671875 
z
M 5.515625 0 
L 5.515625 5.171875 
L 14.796875 5.171875 
L 14.796875 67.671875 
L 5.515625 67.671875 
L 5.515625 72.90625 
L 34.515625 72.90625 
Q 53.375 72.90625 63.890625 63.28125 
Q 74.421875 53.65625 74.421875 36.53125 
Q 74.421875 19.34375 63.875 9.671875 
Q 53.328125 0 34.515625 0 
z
" id="DejaVuSerif-44"/>
      <path d="M 10.40625 5.078125 
Q 10.40625 7.8125 12.28125 9.71875 
Q 14.15625 11.625 16.890625 11.625 
Q 19.625 11.625 21.5 9.71875 
Q 23.390625 7.8125 23.390625 5.078125 
Q 23.390625 2.34375 21.53125 0.453125 
Q 19.671875 -1.421875 16.890625 -1.421875 
Q 14.109375 -1.421875 12.25 0.453125 
Q 10.40625 2.34375 10.40625 5.078125 
z
M 10.40625 36.921875 
Q 10.40625 39.65625 12.28125 41.53125 
Q 14.15625 43.40625 16.890625 43.40625 
Q 19.671875 43.40625 21.53125 41.546875 
Q 23.390625 39.703125 23.390625 36.921875 
Q 23.390625 34.125 21.53125 32.265625 
Q 19.671875 30.421875 16.890625 30.421875 
Q 14.15625 30.421875 12.28125 32.296875 
Q 10.40625 34.1875 10.40625 36.921875 
z
" id="DejaVuSerif-3a"/>
      <path d="M 9.71875 69.828125 
Q 15.4375 71.96875 20.671875 73.09375 
Q 25.921875 74.21875 30.515625 74.21875 
Q 41.21875 74.21875 47.21875 69.59375 
Q 53.21875 64.984375 53.21875 56.78125 
Q 53.21875 50.203125 49.0625 45.78125 
Q 44.921875 41.359375 37.3125 39.796875 
Q 46.296875 38.53125 51.25 33.28125 
Q 56.203125 28.03125 56.203125 19.671875 
Q 56.203125 9.46875 49.34375 4.015625 
Q 42.484375 -1.421875 29.59375 -1.421875 
Q 23.875 -1.421875 18.421875 -0.1875 
Q 12.984375 1.03125 7.625 3.515625 
L 7.625 17.671875 
L 13.09375 17.671875 
Q 13.578125 10.640625 17.828125 7.03125 
Q 22.078125 3.421875 29.78125 3.421875 
Q 37.25 3.421875 41.578125 7.734375 
Q 45.90625 12.0625 45.90625 19.578125 
Q 45.90625 28.171875 41.453125 32.59375 
Q 37.015625 37.015625 28.421875 37.015625 
L 23.78125 37.015625 
L 23.78125 42 
L 26.21875 42 
Q 34.765625 42 39.03125 45.53125 
Q 43.3125 49.078125 43.3125 56.203125 
Q 43.3125 62.59375 39.796875 65.984375 
Q 36.28125 69.390625 29.6875 69.390625 
Q 23.09375 69.390625 19.453125 66.265625 
Q 15.828125 63.140625 15.1875 56.984375 
L 9.71875 56.984375 
z
" id="DejaVuSerif-33"/>
      <path d="M 9.421875 5.078125 
Q 9.421875 7.8125 11.28125 9.71875 
Q 13.140625 11.625 15.921875 11.625 
Q 18.609375 11.625 20.5 9.71875 
Q 22.40625 7.8125 22.40625 5.078125 
Q 22.40625 2.390625 20.5 0.484375 
Q 18.609375 -1.421875 15.921875 -1.421875 
Q 13.140625 -1.421875 11.28125 0.453125 
Q 9.421875 2.34375 9.421875 5.078125 
z
" id="DejaVuSerif-2e"/>
     </defs>
     <g style="fill:#262626;" transform="translate(371.10375 27.478125)scale(0.12 -0.12)">
      <use xlink:href="#DejaVuSerif-41"/>
      <use x="72.216797" xlink:href="#DejaVuSerif-6b"/>
      <use x="132.8125" xlink:href="#DejaVuSerif-75"/>
      <use x="197.216797" xlink:href="#DejaVuSerif-6e"/>
      <use x="261.621094" xlink:href="#DejaVuSerif-74"/>
      <use x="301.806641" xlink:href="#DejaVuSerif-73"/>
      <use x="353.125" xlink:href="#DejaVuSerif-75"/>
      <use x="417.529297" xlink:href="#DejaVuSerif-2d"/>
      <use x="451.271484" xlink:href="#DejaVuSerif-54"/>
      <use x="517.970703" xlink:href="#DejaVuSerif-75"/>
      <use x="582.375" xlink:href="#DejaVuSerif-44"/>
      <use x="662.550781" xlink:href="#DejaVuSerif-65"/>
      <use x="721.730469" xlink:href="#DejaVuSerif-54"/>
      <use x="788.382812" xlink:href="#DejaVuSerif-3a"/>
      <use x="822.074219" xlink:href="#DejaVuSerif-20"/>
      <use x="853.861328" xlink:href="#DejaVuSerif-33"/>
      <use x="917.484375" xlink:href="#DejaVuSerif-2e"/>
      <use x="949.271484" xlink:href="#DejaVuSerif-34"/>
      <use x="1012.894531" xlink:href="#DejaVuSerif-28"/>
      <use x="1051.908203" xlink:href="#DejaVuSerif-31"/>
      <use x="1115.53125" xlink:href="#DejaVuSerif-2e"/>
      <use x="1147.318359" xlink:href="#DejaVuSerif-31"/>
      <use x="1210.941406" xlink:href="#DejaVuSerif-29"/>
     </g>
    </g>
    <g id="patch_8">
     <path d="M 337.50375 45.091875 
L 361.50375 45.091875 
L 361.50375 36.691875 
L 337.50375 36.691875 
z
" style="fill:#51809c;stroke:#474747;stroke-linejoin:miter;stroke-width:0.75;"/>
    </g>
    <g id="text_9">
     <!-- Arabic-PADT: 41.9(31.4) -->
     <defs>
      <path d="M 47.796875 52 
L 47.796875 39.015625 
L 42.625 39.015625 
Q 42.390625 42.875 40.484375 44.78125 
Q 38.578125 46.6875 34.90625 46.6875 
Q 28.265625 46.6875 24.71875 42.09375 
Q 21.1875 37.5 21.1875 28.90625 
L 21.1875 5.171875 
L 31.59375 5.171875 
L 31.59375 0 
L 4.109375 0 
L 4.109375 5.171875 
L 12.203125 5.171875 
L 12.203125 46.78125 
L 3.609375 46.78125 
L 3.609375 51.90625 
L 21.1875 51.90625 
L 21.1875 42.671875 
Q 23.828125 48.09375 27.96875 50.703125 
Q 32.125 53.328125 38.09375 53.328125 
Q 40.28125 53.328125 42.703125 52.984375 
Q 45.125 52.640625 47.796875 52 
z
" id="DejaVuSerif-72"/>
      <path d="M 39.796875 16.3125 
L 39.796875 27.296875 
L 28.21875 27.296875 
Q 21.53125 27.296875 18.25 24.40625 
Q 14.984375 21.53125 14.984375 15.578125 
Q 14.984375 10.15625 18.296875 6.984375 
Q 21.625 3.8125 27.296875 3.8125 
Q 32.90625 3.8125 36.34375 7.28125 
Q 39.796875 10.75 39.796875 16.3125 
z
M 48.78125 32.421875 
L 48.78125 5.171875 
L 56.78125 5.171875 
L 56.78125 0 
L 39.796875 0 
L 39.796875 5.609375 
Q 36.8125 2 32.90625 0.28125 
Q 29 -1.421875 23.78125 -1.421875 
Q 15.140625 -1.421875 10.0625 3.171875 
Q 4.984375 7.765625 4.984375 15.578125 
Q 4.984375 23.640625 10.796875 28.078125 
Q 16.609375 32.515625 27.203125 32.515625 
L 39.796875 32.515625 
L 39.796875 36.078125 
Q 39.796875 42 36.203125 45.234375 
Q 32.625 48.484375 26.125 48.484375 
Q 20.75 48.484375 17.578125 46.046875 
Q 14.40625 43.609375 13.625 38.8125 
L 8.984375 38.8125 
L 8.984375 49.3125 
Q 13.671875 51.3125 18.09375 52.3125 
Q 22.515625 53.328125 26.703125 53.328125 
Q 37.5 53.328125 43.140625 47.96875 
Q 48.78125 42.625 48.78125 32.421875 
z
" id="DejaVuSerif-61"/>
      <path d="M 11.53125 5.171875 
L 11.53125 70.796875 
L 2.875 70.796875 
L 2.875 75.984375 
L 20.515625 75.984375 
L 20.515625 43.796875 
Q 23.140625 48.6875 27.21875 51 
Q 31.296875 53.328125 37.3125 53.328125 
Q 46.875 53.328125 52.921875 45.75 
Q 58.984375 38.1875 58.984375 25.984375 
Q 58.984375 13.765625 52.921875 6.171875 
Q 46.875 -1.421875 37.3125 -1.421875 
Q 31.296875 -1.421875 27.21875 0.890625 
Q 23.140625 3.21875 20.515625 8.109375 
L 20.515625 0 
L 2.875 0 
L 2.875 5.171875 
z
M 20.515625 23.390625 
Q 20.515625 14.015625 24.09375 9.109375 
Q 27.6875 4.203125 34.515625 4.203125 
Q 41.40625 4.203125 44.9375 9.71875 
Q 48.484375 15.234375 48.484375 25.984375 
Q 48.484375 36.765625 44.9375 42.234375 
Q 41.40625 47.703125 34.515625 47.703125 
Q 27.6875 47.703125 24.09375 42.765625 
Q 20.515625 37.84375 20.515625 28.515625 
z
" id="DejaVuSerif-62"/>
      <path d="M 9.71875 68.015625 
Q 9.71875 70.265625 11.34375 71.921875 
Q 12.984375 73.578125 15.28125 73.578125 
Q 17.53125 73.578125 19.15625 71.921875 
Q 20.796875 70.265625 20.796875 68.015625 
Q 20.796875 65.71875 19.1875 64.109375 
Q 17.578125 62.5 15.28125 62.5 
Q 12.984375 62.5 11.34375 64.109375 
Q 9.71875 65.71875 9.71875 68.015625 
z
M 21.1875 5.171875 
L 29.6875 5.171875 
L 29.6875 0 
L 3.609375 0 
L 3.609375 5.171875 
L 12.203125 5.171875 
L 12.203125 46.6875 
L 3.609375 46.6875 
L 3.609375 51.90625 
L 21.1875 51.90625 
z
" id="DejaVuSerif-69"/>
      <path d="M 24.703125 37.109375 
L 37.59375 37.109375 
Q 44.875 37.109375 48.671875 41.03125 
Q 52.484375 44.96875 52.484375 52.390625 
Q 52.484375 59.859375 48.671875 63.765625 
Q 44.875 67.671875 37.59375 67.671875 
L 24.703125 67.671875 
z
M 5.515625 0 
L 5.515625 5.171875 
L 14.796875 5.171875 
L 14.796875 67.671875 
L 5.515625 67.671875 
L 5.515625 72.90625 
L 39.984375 72.90625 
Q 50.921875 72.90625 57.3125 67.359375 
Q 63.71875 61.8125 63.71875 52.390625 
Q 63.71875 43.015625 57.3125 37.453125 
Q 50.921875 31.890625 39.984375 31.890625 
L 24.703125 31.890625 
L 24.703125 5.171875 
L 35.984375 5.171875 
L 35.984375 0 
z
" id="DejaVuSerif-50"/>
      <path d="M 46.78125 32.671875 
Q 43.5 29 39.25 27.1875 
Q 35.015625 25.390625 29.6875 25.390625 
Q 18.84375 25.390625 12.5625 31.9375 
Q 6.296875 38.484375 6.296875 49.8125 
Q 6.296875 60.890625 13.109375 67.546875 
Q 19.921875 74.21875 31.296875 74.21875 
Q 43.65625 74.21875 50.265625 65.015625 
Q 56.890625 55.8125 56.890625 38.71875 
Q 56.890625 19.578125 49.015625 9.078125 
Q 41.15625 -1.421875 26.90625 -1.421875 
Q 23.046875 -1.421875 18.796875 -0.6875 
Q 14.546875 0.046875 10.109375 1.515625 
L 10.109375 13.625 
L 15.578125 13.625 
Q 16.21875 8.6875 19.390625 6.046875 
Q 22.5625 3.421875 27.875 3.421875 
Q 37.359375 3.421875 41.984375 10.5625 
Q 46.625 17.71875 46.78125 32.671875 
z
M 30.90625 69.390625 
Q 23.96875 69.390625 20.28125 64.328125 
Q 16.609375 59.28125 16.609375 49.8125 
Q 16.609375 40.328125 20.28125 35.25 
Q 23.96875 30.171875 30.90625 30.171875 
Q 37.84375 30.171875 41.53125 35.078125 
Q 45.21875 39.984375 45.21875 49.21875 
Q 45.21875 58.9375 41.5 64.15625 
Q 37.796875 69.390625 30.90625 69.390625 
z
" id="DejaVuSerif-39"/>
     </defs>
     <g style="fill:#262626;" transform="translate(371.10375 45.091875)scale(0.12 -0.12)">
      <use xlink:href="#DejaVuSerif-41"/>
      <use x="72.216797" xlink:href="#DejaVuSerif-72"/>
      <use x="120.019531" xlink:href="#DejaVuSerif-61"/>
      <use x="179.638672" xlink:href="#DejaVuSerif-62"/>
      <use x="243.652344" xlink:href="#DejaVuSerif-69"/>
      <use x="275.634766" xlink:href="#DejaVuSerif-63"/>
      <use x="331.640625" xlink:href="#DejaVuSerif-2d"/>
      <use x="365.429688" xlink:href="#DejaVuSerif-50"/>
      <use x="432.574219" xlink:href="#DejaVuSerif-41"/>
      <use x="504.791016" xlink:href="#DejaVuSerif-44"/>
      <use x="584.966797" xlink:href="#DejaVuSerif-54"/>
      <use x="651.619141" xlink:href="#DejaVuSerif-3a"/>
      <use x="685.310547" xlink:href="#DejaVuSerif-20"/>
      <use x="717.097656" xlink:href="#DejaVuSerif-34"/>
      <use x="780.720703" xlink:href="#DejaVuSerif-31"/>
      <use x="844.34375" xlink:href="#DejaVuSerif-2e"/>
      <use x="876.130859" xlink:href="#DejaVuSerif-39"/>
      <use x="939.753906" xlink:href="#DejaVuSerif-28"/>
      <use x="978.767578" xlink:href="#DejaVuSerif-33"/>
      <use x="1042.390625" xlink:href="#DejaVuSerif-31"/>
      <use x="1106.013672" xlink:href="#DejaVuSerif-2e"/>
      <use x="1137.800781" xlink:href="#DejaVuSerif-34"/>
      <use x="1201.423828" xlink:href="#DejaVuSerif-29"/>
     </g>
    </g>
   </g>
  </g>
 </g>
 <defs>
  <clipPath id="pdfc13c5720">
   <rect height="226.8" width="464.4" x="67.5" y="7.56"/>
  </clipPath>
 </defs>
</svg>
